<svg width="694" height="694" fill="none" xmlns="http://www.w3.org/2000/svg"><path d="M373.465 125.46l35.359-34.045V54.6c4.585-.787 8.09-4.77 8.09-9.573 0-5.36-4.356-9.736-9.728-9.736-5.355 0-9.728 4.36-9.728 9.736 0 4.803 3.505 8.803 8.09 9.573v35.438l-35.358 34.029v77.499h-2.899v44.569h9.073v-44.569h-2.899V125.46zm27.285-80.45c0-3.556 2.899-6.457 6.453-6.457 3.553 0 6.452 2.901 6.452 6.458 0 3.557-2.899 6.458-6.452 6.458-3.571 0-6.453-2.901-6.453-6.458zm-75.647 79.057l-35.358-34.045V54.6c4.586-.787 8.09-4.77 8.09-9.573 0-5.36-4.356-9.736-9.728-9.736-5.355 0-9.728 4.36-9.728 9.736 0 4.803 3.505 8.803 8.091 9.573v36.832l35.358 34.045v76.106h-2.899v44.568h9.073v-44.568h-2.899v-77.516zm-43.448-79.056c0-3.557 2.899-6.458 6.452-6.458 3.554 0 6.453 2.901 6.453 6.458 0 3.557-2.899 6.458-6.453 6.458-3.57 0-6.452-2.901-6.452-6.458zM347.638 0c-5.355 0-9.728 4.36-9.728 9.737 0 4.802 3.505 8.802 8.09 9.589v182.257h-2.898v44.568h9.073v-44.568h-2.899V19.309c4.586-.787 8.09-4.77 8.09-9.589 0-5.36-4.356-9.72-9.728-9.72zm0 16.178c-3.554 0-6.452-2.9-6.452-6.458 0-3.557 2.898-6.458 6.452-6.458s6.453 2.901 6.453 6.458c0 3.557-2.899 6.458-6.453 6.458zm93.285 97.186c-5.356 0-9.728 4.36-9.728 9.736 0 2.115.687 4.065 1.834 5.672l-38.519 37.717v35.077h-3.046v44.569h9.073v-44.569h-2.752v-33.7l37.569-36.799a9.68 9.68 0 005.552 1.753c5.356 0 9.728-4.36 9.728-9.736.017-5.344-4.356-9.72-9.711-9.72zm0 16.178c-3.554 0-6.453-2.901-6.453-6.458 0-3.557 2.899-6.458 6.453-6.458 3.554 0 6.452 2.901 6.452 6.458 0 3.557-2.898 6.458-6.452 6.458zM300.93 166.489l-38.519-37.717a9.726 9.726 0 001.835-5.672c0-5.36-4.357-9.736-9.729-9.736-5.355 0-9.728 4.36-9.728 9.736 0 5.36 4.357 9.737 9.728 9.737 2.064 0 3.98-.656 5.552-1.754l37.57 36.799v33.701h-2.899v44.568h9.073v-44.568h-2.899v-35.094h.016zm-46.413-36.947c-3.553 0-6.452-2.901-6.452-6.458 0-3.557 2.899-6.458 6.452-6.458 3.554 0 6.453 2.901 6.453 6.458 0 3.557-2.899 6.458-6.453 6.458z" fill="#3451A3"/><path d="M294.747 201.556v44.569h9.073v-44.569h-9.073zm24.179-.01v44.569h9.073v-44.569h-9.073zm24.178.006v44.568h9.073v-44.568h-9.073zm24.179.006v44.568h9.073v-44.568h-9.073zm24.179-.011v44.568h9.073v-44.568h-9.073z" fill="#fff"/><path d="M201.39 303.063h44.53v-9.081h-44.53v2.901h-33.671l-36.767-37.602a9.7 9.7 0 001.752-5.557c0-5.36-4.356-9.736-9.728-9.736-5.355 0-9.728 4.36-9.728 9.736 0 5.36 4.357 9.737 9.728 9.737a9.712 9.712 0 005.667-1.836l37.684 38.553h35.047v2.885h.016zm-71.961-49.355c0 3.557-2.899 6.458-6.453 6.458-3.554 0-6.452-2.901-6.452-6.458 0-3.557 2.898-6.459 6.452-6.459 3.571 0 6.453 2.902 6.453 6.459zm71.961 73.548h44.53v-9.081h-44.53v2.902h-76.039l-34.016-35.39H54.552c-.786-4.589-4.765-8.097-9.58-8.097-5.356 0-9.728 4.36-9.728 9.737 0 5.36 4.356 9.736 9.728 9.736 4.798 0 8.794-3.508 9.58-8.097H89.96l34.015 35.389h77.432v2.901h-.017zM51.424 287.327c0 3.557-2.898 6.458-6.452 6.458s-6.453-2.901-6.453-6.458c0-3.557 2.899-6.459 6.453-6.459 3.553 0 6.452 2.902 6.452 6.459zM35.244 406.51c0 5.36 4.356 9.736 9.728 9.736 4.798 0 8.794-3.507 9.58-8.097h36.8l34.015-35.389h76.04v2.901h44.529v-9.081h-44.529v2.901h-77.432l-34.015 35.39H54.552c-.786-4.59-4.765-8.098-9.58-8.098-5.356.017-9.728 4.377-9.728 9.737zm3.275 0c0-3.557 2.899-6.458 6.453-6.458 3.553 0 6.452 2.901 6.452 6.458 0 3.557-2.898 6.458-6.452 6.458s-6.453-2.901-6.453-6.458zM0 346.91c0 5.36 4.356 9.736 9.728 9.736 4.799 0 8.795-3.508 9.564-8.097H201.39v2.901h44.53v-9.081h-44.53v2.901H19.292c-.786-4.589-4.765-8.097-9.564-8.097C4.356 337.189 0 341.55 0 346.91zm3.275 0c0-3.557 2.9-6.459 6.453-6.459 3.554 0 6.453 2.902 6.453 6.459 0 3.556-2.9 6.458-6.453 6.458-3.57 0-6.453-2.902-6.453-6.458zm109.99 93.366c0 5.36 4.356 9.736 9.728 9.736 5.355 0 9.728-4.36 9.728-9.736a9.698 9.698 0 00-1.752-5.557l36.766-37.602h33.672v2.754h44.529v-9.081h-44.529v3.049H166.36l-37.684 38.552a9.71 9.71 0 00-5.667-1.835c-5.388-.017-9.744 4.36-9.744 9.72zm3.275 0c0-3.557 2.899-6.458 6.453-6.458 3.554 0 6.453 2.901 6.453 6.458 0 3.557-2.899 6.458-6.453 6.458-3.554 0-6.453-2.901-6.453-6.458z" fill="#3451A3"/><path d="M245.789 293.982H201.26v9.081h44.529v-9.081zm0 24.194H201.26v9.081h44.529v-9.081zm0 24.194H201.26v9.08h44.529v-9.08zm0 24.21H201.26v9.081h44.529v-9.081zm0 24.194H201.26v9.081h44.529v-9.081z" fill="#fff"/><path d="M492.61 300.161h35.047l37.684-38.553a9.705 9.705 0 005.667 1.836c5.355 0 9.728-4.36 9.728-9.736 0-5.361-4.357-9.737-9.728-9.737-5.356 0-9.728 4.36-9.728 9.737 0 2.065.655 3.983 1.752 5.556l-36.767 37.602h-33.671v-2.901h-44.53v9.081h44.53v-2.885h.016zm78.398-52.912c3.553 0 6.452 2.902 6.452 6.459 0 3.556-2.899 6.458-6.452 6.458-3.554 0-6.453-2.902-6.453-6.458 0-3.557 2.899-6.459 6.453-6.459zm-78.398 77.106h77.431l34.016-35.389h35.407c.786 4.589 4.766 8.097 9.581 8.097 5.355 0 9.728-4.36 9.728-9.736 0-5.36-4.356-9.737-9.728-9.737-4.799 0-8.795 3.508-9.581 8.097h-36.799l-34.016 35.39h-76.023v-2.902h-44.529v9.081h44.529v-2.901h-.016zm156.419-43.487c3.553 0 6.452 2.902 6.452 6.459 0 3.557-2.899 6.458-6.452 6.458-3.554 0-6.453-2.901-6.453-6.458 0-3.557 2.899-6.459 6.453-6.459zm-.001 115.921c-4.798 0-8.794 3.508-9.58 8.097H604.04l-34.015-35.389h-77.432v-2.901h-44.529v9.081h44.529v-2.902h76.023l34.016 35.39h36.799c.786 4.589 4.766 8.097 9.581 8.097 5.355 0 9.728-4.36 9.728-9.736.016-5.377-4.356-9.737-9.712-9.737zm0 16.178c-3.553 0-6.452-2.901-6.452-6.458 0-3.557 2.899-6.458 6.452-6.458 3.554 0 6.453 2.901 6.453 6.458 0 3.557-2.899 6.458-6.453 6.458zm35.26-75.777c-4.798 0-8.794 3.507-9.564 8.097H492.61v-2.901h-44.53v9.081h44.53v-2.902h182.098c.786 4.59 4.765 8.098 9.564 8.098 5.355 0 9.728-4.36 9.728-9.737 0-5.376-4.356-9.736-9.712-9.736zm0 16.178c-3.554 0-6.452-2.901-6.452-6.458 0-3.557 2.898-6.458 6.452-6.458s6.453 2.901 6.453 6.458c-.016 3.557-2.899 6.458-6.453 6.458zm-113.281 77.171a9.71 9.71 0 00-5.666 1.836l-37.684-38.553H492.61v-3.048h-44.53v9.08h44.53v-2.753h33.671l36.767 37.602a9.694 9.694 0 00-1.752 5.556c0 5.36 4.356 9.737 9.728 9.737 5.355 0 9.728-4.36 9.728-9.737-.017-5.343-4.373-9.72-9.745-9.72zm0 16.195c-3.554 0-6.452-2.901-6.452-6.458 0-3.557 2.898-6.458 6.452-6.458s6.453 2.901 6.453 6.458c0 3.557-2.899 6.458-6.453 6.458z" fill="#3451A3"/><path d="M492.61 293.982h-44.53v9.081h44.53v-9.081zm0 24.194h-44.53v9.081h44.53v-9.081zm0 24.194h-44.53v9.081h44.53v-9.081zm0 24.21h-44.53v9.081h44.53v-9.081zm0 24.194h-44.53v9.081h44.53v-9.081z" fill="#fff"/><path d="M373.466 492.417h2.898v-44.568h-9.073v44.568h2.899v77.499l35.358 34.046V639.4c-4.585.787-8.09 4.77-8.09 9.589 0 5.36 4.356 9.737 9.728 9.737 5.356 0 9.728-4.361 9.728-9.737 0-4.803-3.504-8.802-8.09-9.589v-36.832l-35.358-34.045v-76.106zm33.72 150.097c3.554 0 6.453 2.902 6.453 6.459 0 3.557-2.899 6.458-6.453 6.458-3.554 0-6.452-2.901-6.452-6.458 0-3.557 2.898-6.459 6.452-6.459zm-82.082-150.097h2.898v-44.568h-9.073v44.568h2.899v76.106l-35.358 34.045V639.4c-4.586.787-8.091 4.77-8.091 9.589 0 5.36 4.357 9.737 9.728 9.737 5.356 0 9.728-4.361 9.728-9.737 0-4.803-3.504-8.802-8.09-9.589v-35.438l35.359-34.046v-77.499zm-36.997 150.097c3.554 0 6.453 2.902 6.453 6.459 0 3.557-2.899 6.458-6.453 6.458-3.553 0-6.452-2.901-6.452-6.458 0-3.557 2.882-6.459 6.452-6.459zm69.259 41.75c0-4.803-3.504-8.803-8.09-9.589V492.417h2.899v-44.568h-9.073v44.568h2.899v182.258c-4.586.786-8.091 4.77-8.091 9.589 0 5.36 4.357 9.736 9.728 9.736 5.372-.016 9.728-4.376 9.728-9.736zm-3.275 0c0 3.557-2.899 6.458-6.453 6.458-3.554 0-6.452-2.901-6.452-6.458 0-3.557 2.898-6.459 6.452-6.459s6.453 2.902 6.453 6.459zm96.56-113.38c0-5.36-4.356-9.737-9.728-9.737-2.064 0-3.98.656-5.552 1.754l-37.569-36.799v-33.701h2.751v-44.568h-9.073v44.568h3.046v35.078l38.52 37.717a9.723 9.723 0 00-1.835 5.671c0 5.36 4.357 9.737 9.728 9.737 5.339.016 9.712-4.36 9.712-9.72zm-3.275 0c0 3.557-2.899 6.458-6.453 6.458-3.554 0-6.453-2.901-6.453-6.458 0-3.557 2.899-6.458 6.453-6.458 3.554.016 6.453 2.901 6.453 6.458zm-146.445-78.467h2.899v-44.568h-9.073v44.568h2.898v33.701l-37.569 36.799a9.676 9.676 0 00-5.552-1.754c-5.355 0-9.728 4.361-9.728 9.737 0 5.36 4.356 9.736 9.728 9.736 5.355 0 9.728-4.36 9.728-9.736a9.732 9.732 0 00-1.834-5.672l38.519-37.716v-35.095h-.016zm-39.961 78.467c0 3.556-2.898 6.458-6.452 6.458s-6.453-2.902-6.453-6.458c0-3.557 2.899-6.459 6.453-6.459 3.554.017 6.452 2.902 6.452 6.459z" fill="#3451A3"/><path d="M294.759 447.86v44.569h9.072V447.86h-9.072zm24.178-.011v44.569h9.073v-44.569h-9.073zm24.179.006v44.569h9.073v-44.569h-9.073zm24.178.006v44.569h9.073v-44.569h-9.073zm24.179-.011v44.569h9.073V447.85h-9.073z" fill="#fff"/><path opacity=".15" d="M503.597 159.67l31.363 31.39v50.207l-31.363 31.39h-50.163l-31.362-31.39V191.06l31.362-31.39h50.163zm2.719-6.556h-55.601l-1.916 1.918-31.362 31.389-1.916 1.918v55.649l1.916 1.918 31.362 31.39 1.916 1.918h55.601l1.916-1.918 31.362-31.39 1.916-1.918v-55.649l-1.916-1.918-31.362-31.389-1.916-1.918z" fill="#000"/><path d="M503.597 159.67h-50.163l-31.379 31.406v50.207l31.379 31.39h50.163l31.362-31.39v-50.207l-31.362-31.406z" stroke="#fff" stroke-width="2" stroke-miterlimit="10"/><path d="M499.815 168.21h-42.597l-26.629 26.653v42.634l26.629 26.653h42.597l26.629-26.653v-42.634l-26.629-26.653z" stroke="#fff" stroke-miterlimit="10"/><path opacity=".15" d="M518.176 174.089l-8.952-8.96-81.525 81.597 8.952 8.959 81.525-81.596zm-76.336 86.808l5.211 5.215 81.526-81.596-5.212-5.216-81.525 81.597z" fill="#fff"/><path d="M502.469 206.148l-1.345 3.366h-1.309l-.898-3.958 3.552.592zM475.2 208.59l.282-.057.941.628a11.455 11.455 0 01-6.474 1.136 11.452 11.452 0 01-6.032-2.614l1.845.528a20.13 20.13 0 009.438.379zm-14.38 3.539l8.321 3.861a5.19 5.19 0 012.841 6.077h-4.704a9.428 9.428 0 00-6.777-8.003l.319-1.935zm2.234 9.938a5.24 5.24 0 00-3.25-3.823l.35-2.106a7.333 7.333 0 015.011 5.93l-2.111-.001zm-2.177 2.093a3.128 3.128 0 01-6.08-1.037 3.132 3.132 0 012.59-3.092l-.689 4.129h4.179zm-1.709-2.093l.28-1.684c.664.37 1.171.969 1.428 1.684h-1.708zm-1.236 8.369a7.316 7.316 0 01-6.336-3.661 7.328 7.328 0 010-7.323 7.316 7.316 0 016.336-3.661c.053 0 .105.007.159.008l-.351 2.104a5.222 5.222 0 00-.428 10.402 5.221 5.221 0 005.742-4.145h2.111a7.33 7.33 0 01-2.45 4.485 7.317 7.317 0 01-4.783 1.791zm33.526-16.094l-4.156 9.978a3.13 3.13 0 01-2.892 1.932h-12.159l1.086-1.959a7.326 7.326 0 00-3.319-10.199l-9.707-4.498-7.108-2.875 1.634-.327 5.528.692-.035.034 1.359 1.36a13.53 13.53 0 0016.729 1.958l1.419-.873a5.807 5.807 0 016.249.113 24.628 24.628 0 005.865 2.87l1.254.418-1.358.906a1.051 1.051 0 00-.389.47zm3.946-2.841l-2.792-.931a22.553 22.553 0 01-5.371-2.629 7.888 7.888 0 00-8.504-.154l-.313.196-1.476-.985.418-1.255h.001c.117-.348.406-.61.763-.692l7.121-1.583a3.15 3.15 0 011.673.086l1.965.656 4.859 2.431a3.123 3.123 0 003.216-.25l.803 3.537-2.363 1.573zm6.426 18.936a7.313 7.313 0 01-5.825-2.921 7.324 7.324 0 013.203-11.23l.471 2.075v-.001a5.206 5.206 0 00-1.401 8.51 5.197 5.197 0 008.414-1.865 5.21 5.21 0 00-.543-4.853 5.2 5.2 0 00-4.319-2.269c-.039 0-.074.011-.113.012l-.471-2.075c.193-.014.387-.029.584-.029a7.316 7.316 0 016.336 3.661 7.328 7.328 0 010 7.323 7.315 7.315 0 01-6.336 3.662zm-1.019-7.091l2.038-.465-.651-2.868a3.129 3.129 0 01.303 6.158 3.123 3.123 0 01-3.797-3.292 3.128 3.128 0 011.454-2.41l.653 2.877z" fill="#fff"/><path d="M501.831 219.976c.123.005.246.018.368.038l-.481-2.118a5.146 5.146 0 00-2.038.465l.479 2.109a3.109 3.109 0 011.672-.494zm-1.051-6.215l-.49-2.154-.475-2.092h-1.119c-.207 0-.409.061-.58.175l-.352.235.496 2.184.483 2.122.466 2.055a7.246 7.246 0 012.038-.465l-.467-2.06zm-2.364-10.409l-.791-3.484a1.045 1.045 0 00-1.019-.814h-4.181v2.093h3.345l.654 2.884.536 2.358c.144-.102.279-.215.404-.338l.644-.646.907.152-.499-2.205z" fill="#fff"/><path opacity=".15" d="M244.658 159.67l31.362 31.39v50.207l-31.362 31.39h-50.164l-31.362-31.39V191.06l31.362-31.39h50.164zm2.702-6.556h-55.601l-1.916 1.918-31.362 31.389-1.916 1.918v55.649l1.916 1.918 31.362 31.39 1.916 1.918h55.601l1.916-1.918 31.362-31.39 1.917-1.918v-55.649l-1.917-1.918-31.362-31.389-1.916-1.918z" fill="#000"/><path d="M244.658 159.67h-50.18l-31.362 31.406v50.207l31.362 31.39h50.18l31.362-31.39v-50.207l-31.362-31.406z" stroke="#fff" stroke-width="2" stroke-miterlimit="10"/><path d="M240.858 168.21h-42.58l-26.63 26.653v42.634l26.63 26.653h42.58l26.646-26.653v-42.634l-26.646-26.653z" stroke="#fff" stroke-miterlimit="10"/><path opacity=".15" d="M259.236 174.096l-8.951-8.959-81.526 81.596 8.952 8.96 81.525-81.597zm-76.334 86.794l5.211 5.215 81.525-81.596-5.211-5.216-81.525 81.597z" fill="#fff"/><path d="M203.777 200.093a1.934 1.934 0 01-1.933 1.935h-3.588a1.93 1.93 0 01-1.933-1.935 1.932 1.932 0 011.933-1.935h3.588a1.932 1.932 0 011.933 1.935zm13.426 5.816a1.438 1.438 0 001.152-.578 1.448 1.448 0 00.223-1.27 1.43 1.43 0 00-.518-.74 1.43 1.43 0 00-.857-.285h-9.93a2.206 2.206 0 00-1.558.647 2.207 2.207 0 01-1.559.646h-6.767a1.448 1.448 0 00-.016 2.895l9.829.11a2.418 2.418 0 001.745-.713 2.43 2.43 0 011.719-.712h6.537zm19.718 6.804a1.075 1.075 0 00-.626-.201h-16.598a1.366 1.366 0 01-1.262-.841 1.357 1.357 0 01-.078-.789 1.358 1.358 0 01.817-.996 1.36 1.36 0 01.523-.104h10.068a.86.86 0 100-1.723H211.53c-.645 0-1.264.257-1.72.713a2.427 2.427 0 01-1.745.714l-13.891-.129a1.283 1.283 0 00-.975.433 1.29 1.29 0 00.966 2.148h15.51a1.364 1.364 0 110 2.729h-17.884a1.504 1.504 0 00-1.392.93 1.504 1.504 0 00.326 1.644c.283.283.666.442 1.066.442h26.525c.91 0 1.806-.232 2.603-.673l3.268-1.814a4.295 4.295 0 012.075-.535h10.03a1.074 1.074 0 001.026-.748 1.081 1.081 0 00-.4-1.206l.003.006zm3.163 14.599c.198 0 .5.166.672.066l13.124-7.583c1.135-.656.67-2.392-.64-2.394h-27.031c-.217 0-.431.055-.62.16l-4.875 2.697a1.28 1.28 0 01-.62.16h-32.009a1.278 1.278 0 00-1.05.546l-2.883 4.125a1.344 1.344 0 00.313 1.838l.441.33c.048.037.093.077.139.121a1.061 1.061 0 00.843.368 1.05 1.05 0 00.812-.429c1.866-1.437 3.876-2.298 6.028-2.298 2.152 0 4.161.861 6.028 2.298.286.288.572.43.86.43.325-.05.625-.201.86-.43 1.866-1.437 3.876-2.298 6.028-2.298 2.152 0 4.162.861 6.028 2.298.286.288.574.43.86.43.325-.049.627-.2.862-.43 1.866-1.437 3.874-2.298 6.026-2.298 2.152 0 4.162.861 6.028 2.298.144.144.574.43.861.43.288 0 .717-.286.861-.43 1.866-1.437 3.875-2.298 6.027-2.298 2.153 0 4.161.861 6.027 2.298v-.005z" fill="#fff"/><path opacity=".15" d="M503.451 421.245l31.362 31.39v50.207l-31.362 31.39h-50.164l-31.362-31.39v-50.207l31.362-31.39h50.164zm2.718-6.556h-55.6l-1.916 1.918-31.363 31.389-1.916 1.918v55.649l1.916 1.918 31.363 31.39 1.916 1.918h55.6l1.917-1.918 31.362-31.39 1.916-1.918v-55.649l-1.916-1.918-31.362-31.389-1.917-1.918z" fill="#000"/><path d="M503.451 421.245h-50.164l-31.362 31.39v50.224l31.362 31.389h50.164l31.379-31.389v-50.224l-31.379-31.39z" stroke="#fff" stroke-width="2" stroke-miterlimit="10"/><path d="M499.668 429.77H457.07l-26.629 26.668v42.618l26.629 26.653h42.598l26.629-26.653v-42.618l-26.629-26.668z" stroke="#fff" stroke-miterlimit="10"/><path opacity=".15" d="M518.033 435.669l-8.951-8.959-81.526 81.596 8.952 8.96 81.525-81.597zm-76.339 86.791l5.211 5.216 81.526-81.597-5.211-5.216-81.526 81.597z" fill="#fff"/><path fill-rule="evenodd" clip-rule="evenodd" d="M510.003 457.572c-.246.291-14.765 12.831-15.175 13.204-.411.373-.087.332-.006.705.082.374-.743 1.124-.908 1.368a.36.36 0 00-.043.193c.63.902 2.639 4.071 2.139 7.201 1.365-1.642 2.293-4.371 2.372-7.495.008.212.017.424.017.639 0 5.656-2.483 10.241-5.547 10.241-1.741 0-3.293-1.483-4.31-3.802l-4.175 3.348c.466.922.539 1.808.143 2.03-.422.237-1.209-.37-1.764-1.357-.362-.65-.527-1.297-.48-1.734l-.183-.453c-8.376 4.263-29.253 15.789-30.308 16.235-1.28.539-5.12 1.534-5.904 1.534-.784 0 25.256-15.596 25.875-16.093.259-.206.081-.273-.297-.273-.53 0-1.457.13-2.131.187-.449.036-1.66.128-3.6.376-.706.071-1.414.101-2.123.091-.702 0-1.468-.017-2.199-.043.063.09.118.184.166.283.283.581.276 1.167-.013 1.309-.29.142-.754-.215-1.036-.796a1.875 1.875 0 01-.207-.84c-1.271-.061-2.288-.135-2.473-.169-.31-.057-.331-.19-.445-.19a.581.581 0 00-.259.107c-.413.249-3.592 2.529-4.624 2.778-.847.203-2.304.605-2.732.605-.095 0-.14-.02-.118-.065.124-.248 6.535-4.941 6.896-5.471.335-.493-2.084-9.062-1.775-9.742.181-.401 2.308-1.123 2.821-1.123.069 0 .109.013.109.044 0 .248 3.427 7.337 3.964 7.503a.17.17 0 00.045 0c.747 0 5.995-3.284 6.519-3.57.443-.24 2.941-1.129 3.427-1.124.103 0 .13.06 0 .134-1.086.63-3.523 2.247-2.533 2.096.02 0 .62.008.664-.009.44-.155 3.601-2.407 7.007-4.096 2.044-1.013 4.307-1.815 4.73-1.888.328-.056.66-.085.992-.086 1.808 0 3.374.79 4.003 1.203a.662.662 0 00.208.018c.182 0 .467-.015.796-.039.667-4.273 2.796-7.404 5.326-7.404.047 0 .087.011.135.012-2.418.215-4.404 3.325-4.947 7.346.95-.086 2.038-.229 2.281-.351.065-.033.419-.283.969-.679-.58-1.096-1.025-2.414-.879-3.774 1.056-2.265 3.022-2.959 3.219-2.439-1.246 1.071-1.324 3.327-1.091 5.307 4.153-3.03 12.73-9.397 13.459-10.001.706-.585 2.936-1.276 3.763-1.276.289 0 .41.079.243.279l-.003.006zm-27.579 24.141a.368.368 0 01.086-.081c.393-.221 1.103.299 1.646 1.168l1.138-2.662c-.44.149-1.496.654-2.974 1.403l.104.172zm-7.11-5.211c-.063-.14-.346-1.748-.373-1.943-.043-.319-.431-.298-.481-.295-.238.034-1.931.889-1.888 1.258.082.59.211 1.172.387 1.741a.443.443 0 00.379.295.251.251 0 00.086-.015c.173-.062 1.425-.432 1.765-.544.34-.113.186-.357.125-.497zm2.975-3.371c-.42 0-2.792.413-2.659 1.133.086.476.409 2.104.518 2.276.014.02.071.03.165.03.665 0 2.987-.723 3.15-.955.186-.265-.967-2.363-1.103-2.472a.14.14 0 00-.07-.012h-.001zm6.02-3.111c-.345-.092-1.2-.184-1.889-.184-.363 0-.68.026-.852.086-.495.186-.795.321-1.022.528-.632.58-1.3 1.431-1.317 1.975-.016.545 1.085 2.626 1.317 2.72.118.048.244.074.372.077a.545.545 0 00.495-.279c.218-.373 4.211-3.823 4.537-3.916.326-.094-1.114-.871-1.641-1.011v.004zm3.977 9.172c-.774.298-1.562.555-2.362.77l-1.245 2.495 3.722-2.984c-.038-.094-.079-.185-.115-.281zm.91-.385l.01.02.068-.054-.081.034h.003zm.179.353c.93 1.674 2.22 2.713 3.662 2.713.102-.004.203-.013.304-.027 1.108-1.964.849-5.537.582-7.561-.005.063 0 .114-.009.181-.05.355-.506.936-1.095 1.547.368.771.432 1.537.147 1.728-.237.151-.638-.137-.987-.664l-2.604 2.083z" fill="#fff"/><path opacity=".15" d="M244.658 421.245l31.362 31.39v50.207l-31.362 31.39h-50.164l-31.362-31.39v-50.207l31.362-31.39h50.164zm2.702-6.556h-55.601l-1.916 1.918-31.362 31.389-1.916 1.918v55.649l1.916 1.918 31.362 31.39 1.916 1.918h55.601l1.916-1.918 31.362-31.39 1.917-1.918v-55.649l-1.917-1.918-31.362-31.389-1.916-1.918z" fill="#000"/><path d="M244.658 421.245h-50.18l-31.362 31.39v50.224l31.362 31.389h50.18l31.362-31.389v-50.224l-31.362-31.39z" stroke="#fff" stroke-width="2" stroke-miterlimit="10"/><path d="M240.858 429.77h-42.58l-26.63 26.669v42.618l26.63 26.652h42.58l26.646-26.652v-42.618l-26.646-26.669z" stroke="#fff" stroke-miterlimit="10"/><path opacity=".15" d="M259.227 435.667l-8.952-8.959-81.525 81.596 8.952 8.96 81.525-81.597zm-76.333 86.796l5.211 5.215 81.525-81.596-5.211-5.216-81.525 81.597z" fill="#fff"/><path d="M209.316 487.507s-1.964-1.638-6.216-3.111c-4.25-1.311-7.689-1.638-6.871-3.93 0 0-.818 1.31 3.271 2.127 3.926.983 6.871 1.31 10.142 3.603h19.794c3.435-2.293 6.216-2.62 10.307-3.603 4.089-.819 3.272-2.127 3.272-2.127.654 2.292-2.945 2.783-7.199 4.093-4.253 1.31-5.891 2.948-5.891 2.948h-20.609zm10.961-11.135h-1.31c-1.963 0-5.726.164-8.017.491 0 0-2.453.164-.163 3.603 0 0-.981-1.802-.327-2.62 0 0 .164-.491 1.308-.655 0 0 4.091-.327 7.199-.327h1.144c3.109 0 7.199.327 7.199.327 1.309.164 1.309.655 1.309.655.654.819-.328 2.62-.328 2.62 2.29-3.439-.163-3.603-.163-3.603-2.291-.327-6.053-.491-7.853-.491h.002zm23.067 8.022l-9.653 2.127v2.783s-.163 1.802.655 1.638h8.343s.655 0 .655-1.473v-5.075zm-47.279 0l9.653 2.127v2.783s.163 1.802-.655 1.638h-8.343s-.655 0-.655-1.473v-5.075z" fill="#fff"/><path d="M232.383 465.565a12.19 12.19 0 015.891 5.567h.976v-1.801c1.473 0 4.25 0 4.908.492.654.326.491 1.636.491 1.636l-6.053.492.163.327c1.386.298 2.752.68 4.091 1.146-.328.492-1.473 1.146-1.636 1.31-.848.347-1.724.621-2.618.819-1.963.328-4.09.655-5.072 1.965 0 0 4.908 1.965 8.344 0 0 0 .654-1.31.164-2.784.327-.327.654-.491.981-.818.818 2.619 0 4.094 0 4.094-.818 1.473-2.453 1.473-7.198 2.783-4.744 1.31-7.034 4.094-7.034 4.094h-1.964c1.146-1.311 3.927-4.913 4.25-7.533 0 0 .655-1.31-2.78-1.637a155.827 155.827 0 00-17.505 0c-3.435.327-2.781 1.637-2.781 1.637.327 2.62 3.272 6.222 4.249 7.533h-1.962s-2.125-2.784-6.871-4.094c-4.909-1.31-6.545-1.31-7.363-2.783 0 0-.654-1.475.164-4.094.163.327.491.491.818.818-.491 1.474.163 2.784.163 2.784 3.436 1.965 8.508 0 8.508 0-1.146-1.31-3.272-1.637-5.235-1.965a10.85 10.85 0 01-2.455-.819c-.326-.164-1.472-.818-1.636-1.31a37.841 37.841 0 013.927-1.146l.164-.327-6.053-.492s-.164-1.31.49-1.636c.655-.492 3.436-.492 4.908-.492v1.801h1.145a12.484 12.484 0 015.726-5.567 75.198 75.198 0 0125.685 0h.01zm-12.76 9.334l.49-3.77c3.599.164 10.307.491 14.069.655-2.29 1.964-3.271 4.093-3.271 4.093.981-1.473 3.926-3.111 5.562-3.93-.655-3.274-4.417-5.403-4.417-5.403-7.526-1.637-17.505-1.637-24.867 0 0 0-3.767 2.127-4.581 5.403 1.8.819 4.581 2.457 5.727 3.93 0 0-1.146-2.127-3.436-4.093 3.762-.164 10.47-.491 14.069-.655l.655 3.77z" fill="#fff"/><path d="M434.651 251.709l5.224 2.115 2.129 5.229-21.798 21.817-5.224-2.131-2.113-5.229 21.782-21.801z" fill="#5BEDFC"/><path d="M439.875 253.823l2.129 5.229-21.798 21.817-5.224-2.131" fill="url(#paint0_linear_2_285)"/><path d="M275.989 410.526l5.224 2.115 2.113 5.229-21.798 21.8-5.224-2.114-2.113-5.229 21.798-21.801z" fill="#5BEDFC"/><path d="M281.214 412.64l2.112 5.229-21.798 21.801-5.224-2.115" fill="url(#paint1_linear_2_285)"/><path d="M283.98 275.247l-2.112 5.229-5.225 2.114-21.781-21.801 2.112-5.228 5.225-2.115 21.781 21.801z" fill="#5BEDFC"/><path d="M281.868 280.476l-5.225 2.114-21.781-21.801 2.112-5.228" fill="url(#paint2_linear_2_285)"/><path d="M439.989 433.507l-2.112 5.228-5.225 2.115-21.798-21.801 2.113-5.229 5.224-2.131 21.798 21.818z" fill="#5BEDFC"/><path d="M437.877 438.735l-5.225 2.115-21.798-21.801 2.113-5.229" fill="url(#paint3_linear_2_285)"/><path opacity=".15" d="M244.658 421.245l31.362 31.39v50.207l-31.362 31.39h-50.164l-31.362-31.39v-50.207l31.362-31.39h50.164zm2.702-6.556h-55.601l-1.916 1.918-31.362 31.389-1.916 1.918v55.649l1.916 1.918 31.362 31.39 1.916 1.918h55.601l1.916-1.918 31.362-31.39 1.917-1.918v-55.649l-1.917-1.918-31.362-31.389-1.916-1.918z" fill="#000"/><path opacity=".15" d="M259.227 435.667l-8.952-8.959-81.525 81.596 8.952 8.96 81.525-81.597zm-76.333 86.796l5.211 5.215 81.525-81.596-5.211-5.216-81.525 81.597z" fill="#fff"/><path opacity=".15" d="M401.585 256.379l36.652 36.685v107.839l-36.652 36.684H293.839l-36.652-36.684V293.064l36.652-36.685h107.746zm2.047-4.917H291.825l-1.441 1.442-36.652 36.685-1.442 1.442v111.905l1.442 1.442 36.652 36.685 1.441 1.442h111.807l1.441-1.442 36.652-36.685 1.442-1.442V291.031l-1.442-1.442-36.652-36.685-1.441-1.442z" fill="#000"/><path d="M398.883 262.936l32.82 32.849v102.414l-32.82 32.848H296.558l-32.82-32.848V295.785l32.82-32.849h102.325zm2.702-6.557H293.84l-36.653 36.685v107.839l36.653 36.684h107.745l36.652-36.684V293.064l-36.652-36.685z" fill="#fff"/><path d="M288.958 283.049a3.958 3.958 0 00-3.963 3.967 3.958 3.958 0 003.963 3.966 3.958 3.958 0 003.964-3.966 3.968 3.968 0 00-3.964-3.967zm117.508 0a3.958 3.958 0 00-3.964 3.967 3.958 3.958 0 003.964 3.966 3.958 3.958 0 003.963-3.966 3.968 3.968 0 00-3.963-3.967zM288.958 402.985a3.958 3.958 0 00-3.963 3.967 3.958 3.958 0 003.963 3.967 3.959 3.959 0 003.964-3.967 3.969 3.969 0 00-3.964-3.967zm117.508 0a3.958 3.958 0 00-3.964 3.967 3.959 3.959 0 003.964 3.967 3.958 3.958 0 003.963-3.967 3.969 3.969 0 00-3.963-3.967z" fill="#fff"/><path opacity=".25" d="M415.951 276.188l-15.726-15.74-140.006 140.128 15.726 15.74 140.006-140.128zM285.076 425.454l9.16 9.168 140.006-140.128-9.16-9.168-140.006 140.128z" fill="#fff"/><path d="M434.651 251.709l5.224 2.115 2.129 5.229-21.798 21.817-5.224-2.131-2.113-5.229 21.782-21.801z" fill="#fff"/><path d="M439.875 253.823l2.13 5.229-21.799 21.817-5.224-2.131" fill="url(#paint4_linear_2_285)"/><path d="M275.989 410.526l5.224 2.115 2.113 5.229-21.798 21.8-5.224-2.114-2.113-5.229 21.798-21.801z" fill="#fff"/><path d="M281.214 412.64l2.112 5.229-21.798 21.801-5.224-2.115" fill="url(#paint5_linear_2_285)"/><path d="M283.98 275.247l-2.112 5.229-5.225 2.114-21.781-21.801 2.112-5.228 5.225-2.115 21.781 21.801z" fill="#fff"/><path d="M281.868 280.476l-5.225 2.114-21.781-21.801 2.112-5.228" fill="url(#paint6_linear_2_285)"/><path d="M439.989 433.507l-2.112 5.228-5.225 2.115-21.798-21.801 2.113-5.229 5.224-2.131 21.798 21.818z" fill="#fff"/><path d="M437.877 438.735l-5.225 2.115-21.798-21.801 2.113-5.229" fill="url(#paint7_linear_2_285)"/><path d="M330.082 371h-9.459l-21.417-32.893V371h-9.459v-48h9.459l21.417 32.961V323h9.459v48zm37.116-47.931v7.759h-19.661v12.292h15.067v7.622h-15.067V371h-9.459v-47.931h29.12zm37.448 0v7.759H392.08V371h-9.459v-40.172h-12.567v-7.759h34.592z" fill="#fff"/><defs><linearGradient id="paint0_linear_2_285" x1="412.291" y1="264.077" x2="441.923" y2="258.635" gradientUnits="userSpaceOnUse"><stop offset=".826" stop-color="#29AFD9"/><stop offset=".944" stop-color="#29AFD9"/></linearGradient><linearGradient id="paint1_linear_2_285" x1="253.617" y1="422.89" x2="283.249" y2="417.447" gradientUnits="userSpaceOnUse"><stop offset=".826" stop-color="#29AFD9"/><stop offset=".944" stop-color="#29AFD9"/></linearGradient><linearGradient id="paint2_linear_2_285" x1="271.626" y1="252.861" x2="277.082" y2="282.515" gradientUnits="userSpaceOnUse"><stop offset=".826" stop-color="#29AFD9"/><stop offset=".944" stop-color="#29AFD9"/></linearGradient><linearGradient id="paint3_linear_2_285" x1="427.628" y1="411.119" x2="433.084" y2="440.773" gradientUnits="userSpaceOnUse"><stop offset=".826" stop-color="#29AFD9"/><stop offset=".944" stop-color="#29AFD9"/></linearGradient><linearGradient id="paint4_linear_2_285" x1="412.291" y1="264.077" x2="441.923" y2="258.635" gradientUnits="userSpaceOnUse"><stop offset=".826" stop-color="#4D4F9F"/></linearGradient><linearGradient id="paint5_linear_2_285" x1="253.613" y1="422.888" x2="283.243" y2="417.443" gradientUnits="userSpaceOnUse"><stop offset=".826" stop-color="#4D4F9F"/></linearGradient><linearGradient id="paint6_linear_2_285" x1="252.173" y1="265.808" x2="281.786" y2="260.369" gradientUnits="userSpaceOnUse"><stop offset=".826" stop-color="#4D4F9F"/></linearGradient><linearGradient id="paint7_linear_2_285" x1="408.164" y1="424.068" x2="437.794" y2="418.622" gradientUnits="userSpaceOnUse"><stop offset=".826" stop-color="#4D4F9F"/></linearGradient></defs></svg>