<svg width="992" height="777" fill="none" xmlns="http://www.w3.org/2000/svg"><g opacity=".5" stroke-width=".566" stroke-miterlimit="10"><path opacity=".5" d="M153 128.425c27.757-32.805 70.564-75.376 112.575-86.5 18.14-4.802 33.225-2.926 48.302 1.835 8.355 2.672 17.26 6.465 26.882 11.17 14.795 7.23 28.02 16.382 40.244 26.708 21.291 17.888 41.608 41.655 58.65 55.612 11.93 9.777 19.854 11.202 17.942 18.183-1.622 5.911-2.889 16.043-1.283 27.108 1.557 10.737 7.016 21.818 14.964 30.929 10.409 11.932 24.074 20.559 39.187 25.236 25.002 7.743 53.289 5.144 79.561-8.313 42.311-21.531 75.071-28.23 95.308-16.584a11.099 11.099 0 013.305 2.933c2.525 3.354 3.828 6.053 4.805 8.615 2.767 7.243-2.582 19.478-5.463 14.466-1.372-.294-2.389-1.13-2.998-2.364-5.116-5.908-1.626-18.639 13.58-22.839 12.487-3.45 31.349-2.288 43.222 12.557 4.233 5.282 7.319 11.412 9.663 18.223 19.927 58.158 53.538 150.543 231.26 99.074" stroke="url(#paint0_linear_9_1525)"/><path opacity=".5" d="M153.375 125.52c28.266-32.301 71.98-74.202 114.072-83.62 18.212-4.075 32.979-1.235 47.608 4.318 8.117 3.078 16.784 7.25 26.196 12.23 14.424 7.627 27.487 16.996 39.7 27.375 21.189 17.907 42.108 41.356 59.687 54.01 12.301 8.865 21.585 9.051 17.659 14.506-1.138 5.371-4.127 14.999-3.05 26.006 1.045 10.702 6.132 21.947 13.798 31.252 10.062 12.207 23.465 21.157 38.393 26.172 24.792 8.333 53.171 6.255 79.601-7.247 43.056-21.854 76.176-26.01 94.638-13.598a9.643 9.643 0 012.921 3.123c2.082 3.571 2.808 6.162 3.417 8.438 1.743 6.488-3.619 16.515-4.66 10.785-1.15-.367-1.94-1.242-2.328-2.489-4.171-5.94-.02-17.759 15.328-21.197 12.442-2.788 30.981-1.105 42.858 13.784 4.221 5.278 7.351 11.379 9.772 18.146 20.592 57.763 63.169 147.323 233.382 90.335" stroke="url(#paint1_linear_9_1525)"/><path opacity=".5" d="M153.754 122.615c28.774-31.797 73.396-73.024 115.569-80.743 18.285-3.345 32.729.484 46.91 6.795 7.875 3.502 16.303 8.038 25.51 13.292 14.053 8.022 26.951 17.609 39.151 28.04 21.089 17.928 42.613 41.057 60.72 52.412 12.673 7.957 22.186 6.489 17.377 10.83-1.658 4.645-5.37 13.954-4.821 24.901.532 10.665 5.244 22.08 12.636 31.575 9.711 12.485 22.851 21.753 37.597 27.108 24.579 8.926 53.059 7.364 79.646-6.186 43.807-22.181 77.282-23.722 93.973-10.616a8.538 8.538 0 012.533 3.309c1.63 3.805 1.784 6.258 2.03 8.26.706 5.713-4.66 13.55-3.857 7.105-.924-.439-1.489-1.355-1.663-2.614-3.227-5.976 1.586-16.887 17.079-19.551 12.394-2.13 30.61.077 42.499 15.015 4.204 5.27 7.38 11.347 9.881 18.07 21.258 57.367 72.803 144.098 235.508 81.594" stroke="url(#paint2_linear_9_1525)"/><path opacity=".5" d="M154.129 119.709c29.283-31.296 74.817-71.841 117.07-77.861 18.357-2.615 32.474 2.207 46.212 9.276 7.633 3.927 15.827 8.825 24.824 14.357 13.682 8.414 26.414 18.223 38.607 28.706 20.987 17.953 43.117 40.759 61.752 50.815 13.044 7.045 22.787 3.926 17.091 7.158-2.179 3.918-6.609 12.912-6.593 23.799.016 10.633 4.362 22.21 11.47 31.898 9.365 12.759 22.243 22.355 36.803 28.044 24.365 9.523 52.942 8.474 79.686-5.121 44.554-22.507 78.375-21.37 93.303-7.63a7.686 7.686 0 012.151 3.499c1.161 4.047.758 6.343.641 8.082-.327 4.911-5.697 10.588-3.054 3.426-.698-.513-1.041-1.469-.993-2.74-2.283-6.012 3.184-16.028 18.826-17.908 12.345-1.485 30.242 1.255 42.136 16.241 4.192 5.266 7.408 11.315 9.99 17.997 21.923 56.972 82.437 140.879 237.63 72.854" stroke="url(#paint3_linear_9_1525)"/><path opacity=".5" d="M154.509 116.808c29.787-30.792 76.236-70.655 118.567-74.985 18.43-1.884 32.22 3.926 45.513 11.759 7.392 4.354 15.352 9.611 24.139 15.418 13.314 8.805 25.881 18.836 38.058 29.372 20.886 17.972 43.621 40.464 62.789 49.216 13.415 6.134 23.388 1.36 16.808 3.482-2.699 3.192-7.851 11.868-8.364 22.694-.5 10.596 3.474 22.339 10.305 32.221 9.013 13.037 21.633 22.955 36.012 28.98 24.151 10.12 52.828 9.583 79.726-4.059 45.3-22.831 79.44-18.949 92.633-4.649 1.045 1.134 1.578 2.51 1.763 3.688.674 4.294-.258 6.416-.746 7.909-1.332 4.063-6.734 7.622-2.251-.25-.473-.585-.594-1.582-.327-2.865-1.336-6.049 4.781-15.176 20.572-16.266 12.293-.847 29.876 2.438 41.777 17.472 4.176 5.262 7.44 11.283 10.099 17.92 22.589 56.577 92.072 137.659 239.752 64.115" stroke="url(#paint4_linear_9_1525)"/><path opacity=".5" d="M154.884 113.903c30.295-30.288 77.657-69.469 120.064-72.104 18.502-1.15 31.965 5.65 44.82 14.236 7.149 4.778 14.875 10.395 23.448 16.484 12.947 9.192 25.345 19.445 37.513 30.037 20.786 17.993 44.126 40.166 63.823 47.619 13.786 5.221 23.989-1.203 16.525-.194-3.22 2.465-9.098 10.822-10.135 21.592-1.016 10.56 2.586 22.472 9.139 32.543 8.666 13.316 21.019 23.561 35.217 29.917 23.937 10.721 52.711 10.693 79.771-2.998 46.05-23.158 80.465-16.464 91.963-1.663.956 1.227 1.331 2.671 1.376 3.874.165 4.539-1.247 6.476-2.135 7.731-2.263 3.2-7.774 4.657-1.444-3.93-.246-.658-.145-1.695.343-2.99-.391-6.085 6.379-14.337 22.323-14.623 12.241-.218 29.505 3.619 41.415 18.702 4.163 5.258 7.467 11.25 10.207 17.844 23.255 56.181 101.702 134.438 241.874 55.374" stroke="url(#paint5_linear_9_1525)"/><path opacity=".5" d="M155.263 110.998c30.804-29.788 79.073-68.275 121.565-69.227 18.579-.416 31.711 7.372 44.122 16.718 6.907 5.2 14.399 11.177 22.762 17.544 12.58 9.58 24.813 20.059 36.965 30.704 20.685 18.012 44.626 39.867 64.859 46.02 14.161 4.314 24.59-3.764 16.243-3.865-3.74 1.739-10.341 9.777-11.906 20.486-1.537 10.528 1.699 22.605 7.976 32.866 8.315 13.595 20.407 24.167 34.423 30.853 23.723 11.322 52.598 11.807 79.811-1.933 46.797-23.485 81.433-13.925 91.294 1.323.855 1.324 1.085 2.829.992 4.064-.355 4.777-2.215 6.557-3.522 7.554-3.131 2.384-8.812 1.694-.642-7.611-.024-.734.303-1.807 1.009-3.115.553-6.121 7.976-13.509 24.07-12.977 12.188.404 29.137 4.798 41.055 19.93 4.148 5.254 7.497 11.217 10.317 17.766 23.92 55.786 111.337 131.219 244 46.63" stroke="url(#paint6_linear_9_1525)"/><path opacity=".5" d="M155.643 108.092c31.312-29.282 80.493-67.08 123.061-66.345 18.652.323 31.457 9.091 43.424 19.199 6.665 5.625 13.923 11.956 22.077 18.61 12.212 9.963 24.276 20.672 36.42 31.369 20.584 18.033 45.13 39.569 65.891 44.423 14.533 3.402 25.192-6.327 15.961-7.542-4.26 1.013-11.587 8.732-13.677 19.385-2.058 10.491.811 22.734 6.81 33.189 7.96 13.873 19.794 24.772 33.628 31.789 23.505 11.928 52.481 12.916 79.856-.872 47.543-23.807 82.336-11.355 90.623 4.306.755 1.424.832 2.986.606 4.253-.892 5.003-3.176 6.666-4.91 7.376-3.995 1.634-9.853-1.271.161-11.29.202-.807.75-1.921 1.678-3.241 1.501-6.157 9.578-12.694 25.821-11.334 12.136 1.017 28.766 5.98 40.693 21.16 4.135 5.25 7.528 11.185 10.425 17.69 24.586 55.394 120.971 127.994 246.122 37.89" stroke="url(#paint7_linear_9_1525)"/><path opacity=".5" d="M156.018 105.191c31.82-28.779 81.909-65.882 124.562-63.469 18.724 1.062 31.183 10.839 42.726 21.677 6.406 6.065 13.451 12.74 21.391 19.671 11.849 10.35 23.739 21.286 35.871 32.035 20.483 18.058 45.634 39.27 66.929 42.825 14.903 2.49 25.841-13.304 15.678-11.213-4.688.964-12.838 7.687-15.448 18.279-2.579 10.455-.077 22.867 5.644 33.512 7.609 14.155 19.18 25.376 32.833 32.724 23.287 12.534 52.364 14.027 79.896.194 48.293-24.134 83.172-8.772 89.958 7.292.645 1.525.577 3.135.222 4.442-1.433 5.218-4.148 6.795-6.298 7.203-4.89.924-10.889-4.233.964-14.966.428-.88 1.198-2.034 2.344-3.366 2.445-6.194 11.184-11.887 27.568-9.692 12.091 1.622 28.399 7.162 40.333 22.391 4.119 5.246 7.557 11.153 10.534 17.613 25.253 54.999 130.602 124.775 248.245 29.15" stroke="url(#paint8_linear_9_1525)"/><path opacity=".5" d="M156.397 102.286c32.329-28.278 83.329-64.68 126.059-60.587 18.797 1.8 30.929 12.557 42.032 24.158 6.165 6.488 12.979 13.517 20.705 20.736 11.486 10.734 23.207 21.899 35.326 32.701 20.379 18.077 46.139 38.975 67.962 41.227 15.275 1.582 26.705-12.682 15.396-14.89-5.221-1.017-14.085 6.642-17.219 17.178-3.099 10.419-.965 23 4.482 33.834 7.258 14.434 18.567 25.987 32.038 33.662 23.066 13.142 52.251 15.135 79.94 1.254 49.04-24.46 83.947-6.193 89.289 10.274.528 1.63.326 3.284-.166 4.628-1.977 5.419-5.152 6.731-7.686 7.025-5.785.67-10.239-5.439 1.768-18.646.774-.855 1.646-2.147 3.009-3.49 3.389-6.231 12.794-11.093 29.315-8.05 12.051 2.219 28.032 8.34 39.97 23.617 4.107 5.242 7.589 11.121 10.643 17.537 25.918 54.603 140.237 121.554 250.367 20.41" stroke="url(#paint9_linear_9_1525)"/><path opacity=".5" d="M156.772 99.38c32.837-27.773 84.741-63.472 127.556-57.71 18.869 2.542 30.67 14.276 41.334 26.64 5.922 6.912 12.507 14.296 20.019 21.798 11.127 11.113 22.67 22.508 34.782 33.366 20.277 18.098 46.643 38.677 68.998 39.625 15.646.67 27.334-15.031 15.114-18.565-5.701-1.651-15.336 5.592-18.991 16.072-3.623 10.382-1.856 23.133 3.316 34.157 6.904 14.712 17.95 26.595 31.248 34.597 22.843 13.756 52.134 16.246 79.98 2.32 49.787-24.783 84.665-3.643 88.619 13.26.403 1.731.073 3.434-.553 4.818-2.521 5.613-6.132 7.057-9.073 6.847-6.774-.484-11.688-8.683 2.57-22.326.976-.932 2.093-2.26 3.679-3.616 4.333-6.262 14.411-10.305 31.066-6.407 12.011 2.812 27.661 9.523 39.607 24.848 4.091 5.238 7.617 11.089 10.752 17.464 26.584 54.208 149.871 118.334 252.489 11.67" stroke="url(#paint10_linear_9_1525)"/><path opacity=".5" d="M157.151 96.475c33.346-27.269 86.158-62.266 129.057-54.829 18.938 3.285 30.416 15.995 40.636 29.117 5.68 7.336 12.039 15.076 19.329 22.86 10.768 11.496 22.134 23.121 34.233 34.032 20.177 18.118 47.144 38.378 70.032 38.027 16.017-.242 27.927-17.404 14.831-22.238-6.21-2.292-16.582 4.548-20.758 14.971-4.144 10.342-2.748 23.266 2.15 34.48a80.017 80.017 0 0030.453 35.533c22.622 14.365 52.021 17.355 80.025 3.382 50.536-25.111 85.338-1.126 87.949 16.245.274 1.828-.182 3.575-.936 5.008-3.063 5.798-7.129 7.186-10.462 6.674-7.738-1.195-13.023-11.9 3.373-26.007 1.178-1.016 2.542-2.372 4.345-3.744 5.281-6.299 16.037-9.527 32.813-4.762 11.983 3.402 27.294 10.705 39.248 26.075 4.079 5.234 7.645 11.057 10.861 17.388 27.249 53.812 159.501 115.114 254.615 2.929" stroke="url(#paint11_linear_9_1525)"/><path opacity=".5" d="M157.527 93.574c33.85-26.77 87.565-61.056 130.553-51.952 19.007 4.027 30.162 17.718 39.938 31.599 5.435 7.76 11.571 15.854 18.644 23.924 10.413 11.875 21.601 23.735 33.688 34.698 20.076 18.142 47.648 38.08 71.064 36.429 16.389-1.15 28.504-19.808 14.549-25.913-6.73-2.942-17.833 3.498-22.529 13.864-4.668 10.306-3.639 23.4.984 34.803a80.016 80.016 0 0029.658 36.47c22.396 14.978 51.905 18.465 80.066 4.447 51.283-25.434 85.976 1.339 87.279 19.227.141 1.921-.432 3.716-1.324 5.193-3.602 5.976-8.133 7.312-11.849 6.497-8.711-1.909-14.29-15.083 4.176-29.683 1.388-1.097 2.989-2.485 5.015-3.869 6.225-6.335 17.667-8.753 34.563-3.119 11.955 3.986 26.927 11.887 38.885 27.305 4.063 5.23 7.678 11.024 10.97 17.311 27.915 53.417 169.136 111.89 256.738-5.811" stroke="url(#paint12_linear_9_1525)"/><path opacity=".5" d="M157.906 90.669c34.358-26.265 88.974-59.845 132.05-49.071 19.076 4.77 29.908 19.437 39.244 34.08 5.193 8.184 11.103 16.633 17.958 24.986 10.058 12.255 21.064 24.348 33.14 35.364 19.975 18.162 48.152 37.781 72.101 34.831 16.759-2.062 29.069-22.234 14.266-29.586-7.258-3.607-19.084 2.45-24.3 12.763-5.193 10.266-4.531 23.529-.178 35.122 5.834 15.552 16.098 28.428 28.863 37.406 22.17 15.596 51.792 19.574 80.11 5.508 52.029-25.76 86.593 3.761 86.609 22.213 0 2.014-.681 3.858-1.706 5.383-4.14 6.154-9.138 7.433-13.238 6.319-9.686-2.631-15.504-18.239 4.979-33.362 1.602-1.183 3.438-2.595 5.681-3.995 7.169-6.372 19.309-7.986 36.311-1.477 11.938 4.572 26.555 13.066 38.525 28.536 4.047 5.226 7.706 10.992 11.079 17.235 28.581 53.021 178.77 108.67 258.86-14.551" stroke="url(#paint13_linear_9_1525)"/><path opacity=".5" d="M158.281 87.763C193.147 62 248.663 29.133 291.832 41.57c19.144 5.516 29.65 21.156 38.546 36.559 4.95 8.606 10.635 17.407 17.272 26.05 9.703 12.638 20.532 24.962 32.595 36.03 19.874 18.182 48.656 37.486 73.134 33.233 17.13-2.973 29.625-24.678 13.983-33.261-7.79-4.277-20.334 1.396-26.071 11.657-5.717 10.225-5.422 23.662-1.343 35.445 5.479 15.83 15.476 29.037 28.068 38.346 21.94 16.209 51.674 20.684 80.15 6.573 52.78-26.087 87.198 6.133 85.944 25.195-.137 2.099-.932 3.999-2.094 5.573-4.672 6.327-10.143 7.554-14.625 6.141-10.668-3.353-16.683-21.374 5.781-37.042 1.816-1.267 3.885-2.708 6.35-4.12 8.118-6.408 20.964-7.223 38.062.165 11.922 5.153 26.188 14.248 38.163 29.764 4.034 5.221 7.734 10.959 11.188 17.157 29.246 52.626 188.404 105.45 260.982-23.291" stroke="url(#paint14_linear_9_1525)"/><path opacity=".5" d="M158.66 84.862c35.375-25.26 91.786-57.416 135.048-43.313 19.213 6.263 29.396 22.88 37.848 39.04 4.708 9.03 10.171 18.186 16.586 27.112 9.352 13.017 19.995 25.571 32.046 36.695 19.774 18.203 49.161 37.188 74.171 31.636 17.502-3.882 30.183-27.14 13.701-36.938-8.331-4.951-21.584.347-27.842 10.556-6.241 10.181-6.314 23.795-2.509 35.768 5.12 16.112 14.855 29.65 27.277 39.282 21.706 16.826 51.561 21.797 80.195 7.634 53.526-26.41 87.799 8.458 85.273 28.181-.278 2.183-1.182 4.14-2.481 5.763-5.2 6.496-11.147 7.67-16.013 5.968-11.648-4.084-17.841-24.49 6.585-40.723 2.029-1.348 4.333-2.821 7.016-4.245 9.061-6.444 22.621-6.46 39.808 1.812 11.918 5.734 25.817 15.43 37.804 30.994 4.018 5.217 7.766 10.927 11.297 17.08 29.912 52.231 198.035 102.23 263.108-32.035" stroke="url(#paint15_linear_9_1525)"/><path opacity=".5" d="M159.035 81.957C194.918 57.2 252.221 25.76 295.584 41.52c19.277 7.009 29.142 24.598 37.15 41.521 4.462 9.455 9.707 18.965 15.9 28.178 9.005 13.396 19.459 26.184 31.502 37.361 19.672 18.227 49.661 36.889 75.204 30.037 17.872-4.793 30.735-29.613 13.414-40.609-8.872-5.633-22.835-.706-29.613 9.45-6.766 10.14-7.23 23.933-3.676 36.09 4.733 16.399 14.234 30.264 26.483 40.219 21.472 17.443 51.444 22.907 80.235 8.695 54.272-26.737 88.401 10.746 84.604 31.168a12.613 12.613 0 01-2.865 5.947c-5.725 6.666-12.156 7.788-17.4 5.791-12.629-4.81-18.975-27.592 7.387-44.403 2.247-1.432 4.781-2.933 7.686-4.37 10.005-6.48 24.287-5.697 41.555 3.454 11.914 6.315 25.45 16.609 37.441 32.221 4.006 5.209 7.794 10.895 11.405 17.008 30.578 51.835 207.67 99.01 265.231-40.775" stroke="url(#paint16_linear_9_1525)"/><path opacity=".5" d="M159.415 79.051c36.391-24.255 94.557-54.918 138.045-37.555 19.33 7.784 28.888 26.318 36.456 44 4.221 9.878 9.248 19.743 15.211 29.238 8.658 13.78 18.926 26.797 30.953 38.027 19.571 18.247 50.165 36.591 76.24 28.44 18.244-5.706 31.292-32.1 13.132-44.286-9.416-6.319-24.102-1.767-31.384 8.349-7.303 10.084-8.118 24.061-4.838 36.413 4.382 16.673 13.609 30.877 25.688 41.154 21.238 18.066 51.328 24.017 80.279 9.761 55.023-27.063 89.014 12.997 83.935 34.149a13.8 13.8 0 01-3.252 6.138c-6.249 6.835-13.165 7.917-18.789 5.613-13.616-5.52-20.096-30.683 8.19-48.079a80.59 80.59 0 018.352-4.495c10.954-6.517 25.962-4.939 43.306 5.096 11.918 6.896 25.083 17.791 37.078 33.452 3.99 5.205 7.823 10.858 11.514 16.931 31.244 51.44 217.304 95.786 267.353-49.515" stroke="url(#paint17_linear_9_1525)"/><path opacity=".5" d="M159.79 76.146c36.9-23.75 95.966-53.732 139.543-34.678 19.398 8.514 28.629 28.036 35.758 46.48 3.978 10.303 8.799 20.516 14.524 30.301 8.327 14.151 18.389 27.41 30.408 38.693 19.471 18.267 50.67 36.296 77.274 26.837 18.615-6.617 31.844-34.593 12.85-47.961-9.958-7.009-25.345-2.817-33.156 7.243-7.819 10.047-9.005 24.19-6.004 36.736 4.031 16.947 12.971 31.502 24.893 42.09 20.98 18.707 51.215 25.127 80.32 10.822 55.769-27.386 89.635 15.221 83.265 37.136-.702 2.409-1.925 4.555-3.635 6.327-6.774 7.005-14.17 8.025-20.177 5.435-14.593-6.267-21.21-33.762 8.997-51.759a80.77 80.77 0 019.021-4.62c11.898-6.549 27.645-4.176 45.054 6.739 11.93 7.477 24.711 18.973 36.718 34.682 3.978 5.201 7.855 10.826 11.623 16.854 31.91 51.049 226.935 92.566 269.475-58.255" stroke="url(#paint18_linear_9_1525)"/><path opacity=".5" d="M160.169 73.245c37.409-23.246 97.374-52.546 141.044-31.797 19.466 9.249 28.375 29.76 35.06 48.962 9.13 26.221 23.384 51.541 43.702 70.724 19.366 18.287 51.174 35.998 78.31 25.24 18.987-7.526 32.401-37.091 12.568-51.634-10.502-7.703-26.588-3.865-34.927 6.142-8.34 10.007-9.889 24.32-7.17 37.059 10.188 47.675 58.642 77.377 104.462 54.91 62.693-30.74 97.37 28.149 78.573 46.634-26.656 26.216-61.2-30.466-2.082-54.923 24.514-12.573 62.318 10.419 94.892 61.072 32.575 50.653 236.569 89.346 271.601-66.995" stroke="url(#paint19_linear_9_1525)"/><path opacity=".5" d="M161.291 70.913c36.197-22.496 94.287-48.733 137.42-26.93 18.95 9.579 27.846 29.803 34.556 48.885 9.158 26.038 23.339 51.181 43.46 70.316 19.232 18.299 50.581 35.949 77.507 25.897 18.857-7.025 32.369-35.46 13.762-49.466-4.22-3.18-9.429-4.314-14.613-3.805-6.911.665-13.766 4.237-18.164 9.749-7.75 9.656-8.864 23.464-5.914 35.779 11.034 46.037 59.069 75.191 104.575 53.845 61.643-28.916 96.07 28.532 78.492 47.175-24.865 26.373-57.872-28.291.193-51.602 24.684-11.762 61.656 11.157 94.937 59.724 33.946 49.531 235.137 84.871 269.172-69.65" stroke="url(#paint20_linear_9_1525)"/><path opacity=".5" d="M162.412 68.585c34.992-21.75 91.193-44.94 133.798-22.06 18.429 9.898 27.313 29.851 34.055 48.812 9.187 25.858 23.296 50.827 43.222 69.905 19.096 18.307 49.992 35.897 76.709 26.551 18.724-6.525 32.332-33.83 14.952-47.296-3.934-3.058-8.824-4.14-13.681-3.647-6.488.641-12.895 4.091-16.949 9.393-7.138 9.33-7.84 22.601-4.656 34.501 11.877 44.39 59.481 73.003 104.684 52.779 60.57-27.1 94.787 28.892 78.411 47.716-23.057 26.502-54.543-26.12 2.469-48.277 24.853-10.955 61.059 11.896 94.985 58.373 35.367 48.449 233.7 80.396 266.747-72.302" stroke="url(#paint21_linear_9_1525)"/><path opacity=".5" d="M163.53 66.252c33.785-20.999 88.086-41.166 130.174-17.193 17.913 10.204 26.781 29.9 33.551 48.74 9.219 25.675 23.251 50.471 42.984 69.493 18.958 18.319 49.399 35.848 75.91 27.205 18.595-6.025 32.3-32.201 16.146-45.125-3.647-2.934-8.214-3.967-12.749-3.487-6.064.622-12.035 3.943-15.735 9.035-6.536 8.99-6.818 21.737-3.401 33.221 12.717 42.74 59.877 70.821 104.797 51.715 59.481-25.297 93.524 29.222 78.326 48.26-21.233 26.599-51.218-23.945 4.745-44.956 25.026-10.144 60.53 12.63 95.029 57.025 36.84 47.405 232.269 75.917 264.323-74.957" stroke="url(#paint22_linear_9_1525)"/><path opacity=".5" d="M164.652 63.92c32.578-20.249 84.975-37.418 126.551-12.324 17.397 10.5 26.252 29.95 33.047 48.664 9.247 25.494 23.206 50.112 42.745 69.086 18.822 18.327 48.81 35.799 75.111 27.858 18.462-5.524 32.269-30.57 17.337-42.954-3.361-2.812-7.605-3.797-11.817-3.329-5.645.597-11.172 3.793-14.521 8.676-5.934 8.651-5.797 20.869-2.142 31.942 13.548 41.077 60.256 68.633 104.91 50.649 58.368-23.509 92.282 29.521 78.246 48.801-19.406 26.656-47.89-21.77 7.02-41.631 25.195-9.333 60.07 13.356 95.078 55.673 38.368 46.388 230.831 71.442 261.897-77.612" stroke="url(#paint23_linear_9_1525)"/><path opacity=".5" d="M165.773 61.592c31.373-19.498 81.861-33.69 122.928-7.457 16.881 10.781 25.72 29.993 32.543 48.591 9.275 25.308 23.166 49.757 42.504 68.674 18.684 18.335 48.216 35.751 74.308 28.512 18.333-5.024 32.203-28.904 18.53-40.787-3.082-2.68-7-3.624-10.885-3.168-5.221.573-10.308 3.64-13.31 8.321-5.329 8.312-4.777 20.002-.887 30.662 14.371 39.408 60.618 66.443 105.019 49.58 57.233-21.733 91.051 29.783 78.161 49.342-17.575 26.668-44.562-19.595 9.295-38.306 25.365-8.526 59.683 14.063 95.122 54.325 39.958 45.395 229.4 66.967 259.473-80.263" stroke="url(#paint24_linear_9_1525)"/><path opacity=".5" d="M166.895 59.26c30.166-18.748 78.738-29.986 119.305-2.587 16.364 11.052 25.192 30.041 32.043 48.518 9.303 25.127 23.121 49.402 42.265 68.262 18.551 18.348 47.628 35.703 73.51 29.166 18.199-4.523 32.163-27.265 19.72-38.616-2.8-2.554-6.39-3.454-9.949-3.01-4.801.549-9.445 3.49-12.095 7.961-4.725 7.97-3.761 19.131.367 29.384 15.186 37.728 60.962 64.251 105.132 48.514 56.08-19.978 89.829 30.01 78.08 49.883-15.747 26.631-41.237-17.42 11.567-34.985 25.535-7.715 59.368 14.753 95.171 52.977 41.608 44.423 227.967 62.492 257.044-82.918" stroke="url(#paint25_linear_9_1525)"/><path opacity=".5" d="M168.016 56.93c28.96-17.996 75.619-26.304 115.678 2.28 15.852 11.311 24.659 30.09 31.538 48.442 9.336 24.946 23.078 49.043 42.028 67.851 18.414 18.356 47.022 35.598 72.71 29.824 18.063-4.063 32.119-25.627 20.915-36.445-2.513-2.43-5.781-3.281-9.017-2.849-4.377.524-8.577 3.337-10.881 7.606-4.115 7.626-2.743 18.255 1.626 28.105 15.989 36.041 61.285 62.056 105.241 47.449 54.902-18.243 88.618 30.191 77.999 50.423-13.931 26.543-37.908-15.245 13.843-31.66 25.704-6.904 59.122 15.414 95.215 51.626 43.319 43.462 226.531 58.017 254.619-85.573" stroke="url(#paint26_linear_9_1525)"/><path opacity=".5" d="M169.138 54.599c27.753-17.246 72.5-22.645 112.055 7.15 15.343 11.556 24.131 30.138 31.034 48.369 9.364 24.764 23.033 48.688 41.785 67.443 18.277 18.368 46.434 35.546 71.912 30.478 17.929-3.567 32.074-23.989 22.105-34.279-2.231-2.304-5.172-3.107-8.085-2.691-3.958.5-7.71 3.183-9.667 7.247-3.506 7.283-1.735 17.375 2.881 26.825 16.775 34.347 61.591 59.853 105.354 46.384 53.703-16.528 87.404 30.332 77.914 50.968-12.139 26.402-34.58-13.07 16.118-28.339 25.874-6.097 58.949 16.048 95.264 50.278 45.094 42.502 225.099 53.538 252.194-88.224" stroke="url(#paint27_linear_9_1525)"/><path opacity=".5" d="M170.259 52.27c26.548-16.5 69.386-19.013 108.433 12.017 14.839 11.79 23.598 30.183 30.529 48.297 9.392 24.582 22.989 48.332 41.547 67.031 18.14 18.376 45.841 35.489 71.113 31.131 17.801-3.071 32.03-22.35 23.3-32.107-1.949-2.179-4.568-2.938-7.154-2.53-3.534.48-6.842 3.03-8.452 6.892-2.893 6.936-.726 16.495 4.135 25.546 17.547 32.644 61.878 57.642 105.467 45.319 52.477-14.838 86.186 30.428 77.834 51.508-10.385 26.204-31.251-10.895 18.394-25.014 26.043-5.286 58.839 16.645 95.308 48.926 46.929 41.542 223.662 49.063 249.769-90.879" stroke="url(#paint28_linear_9_1525)"/><path opacity=".5" d="M171.381 49.938c25.341-15.75 66.279-15.406 104.809 16.883 14.339 12.017 23.066 30.231 30.025 48.22 9.421 24.396 22.945 47.974 41.31 66.62 18.002 18.384 45.251 35.436 70.31 31.785 17.667-2.575 31.981-20.713 24.489-29.937-1.666-2.054-3.958-2.764-6.221-2.369-3.115.456-5.971 2.873-7.238 6.533-2.275 6.59.274 15.612 5.394 24.268 18.301 30.937 62.144 55.422 105.576 44.253 51.23-13.175 84.951 30.485 77.753 52.049-8.666 25.954-27.927-8.72 20.669-21.693 26.213-4.475 58.796 17.206 95.356 47.578 48.83 40.565 222.231 44.588 247.342-93.534" stroke="url(#paint29_linear_9_1525)"/><path opacity=".5" d="M172.503 47.61c24.134-14.999 63.18-11.823 101.186 21.753 13.842 12.23 22.537 30.28 29.524 48.147 9.453 24.215 22.9 47.619 41.072 66.213 17.869 18.396 44.662 35.38 69.511 32.438 17.538-2.074 31.925-19.074 25.684-27.769-1.384-1.929-3.349-2.591-5.289-2.212-2.692.432-5.1 2.712-6.024 6.178-1.658 6.234 1.271 14.728 6.649 22.988 19.035 29.231 62.394 53.187 105.688 43.184 49.964-11.544 83.693 30.502 77.669 52.59-6.996 25.655-24.598-6.545 22.945-18.368 26.381-3.664 58.811 17.727 95.4 46.231 50.791 39.564 220.794 40.113 244.917-96.19" stroke="url(#paint30_linear_9_1525)"/><path opacity=".5" d="M173.621 45.277c22.928-14.248 60.094-8.26 97.563 26.62 13.354 12.432 22.004 30.328 29.02 48.075 9.481 24.033 22.856 47.263 40.83 65.801 17.731 18.404 44.073 35.327 68.712 33.096 17.409-1.578 31.868-17.44 26.878-25.599-1.106-1.804-2.744-2.421-4.353-2.05-2.272.408-4.229 2.546-4.81 5.819-1.041 5.871 2.264 13.844 7.904 21.709 19.745 27.519 62.62 50.939 105.798 42.118 48.672-9.942 82.405 30.482 77.588 53.131-5.386 25.32-21.27-4.37 25.22-15.043 26.551-2.857 58.88 18.202 95.449 44.879 52.816 38.535 219.361 35.638 242.491-98.841" stroke="url(#paint31_linear_9_1525)"/><path opacity=".5" d="M174.742 42.95c21.718-13.498 57.02-4.726 93.94 31.49 12.874 12.625 21.476 30.376 28.516 47.997 9.509 23.852 22.815 46.905 40.591 65.39 17.595 18.416 43.485 35.275 67.914 33.75 17.275-1.082 31.808-15.814 28.068-23.428-.827-1.683-2.134-2.248-3.421-1.893-1.848.383-3.357 2.377-3.595 5.464-.424 5.499 3.248 12.956 9.162 20.429 20.435 25.813 62.83 48.672 105.911 41.054 47.361-8.377 81.074 30.433 77.503 53.675-3.833 24.949-17.945-2.195 27.496-11.722 26.72-2.046 59.001 18.63 95.493 43.531 54.898 37.462 217.929 31.159 240.067-101.495" stroke="url(#paint32_linear_9_1525)"/><path opacity=".5" d="M175.863 40.617c20.512-12.747 53.966-1.21 90.318 36.356 12.398 12.812 20.943 30.421 28.011 47.926 9.538 23.67 22.771 46.549 40.354 64.981 17.457 18.425 42.895 35.223 67.11 34.404 17.147-.581 31.74-14.192 29.263-21.261-.549-1.562-1.525-2.074-2.49-1.731-1.424.359-2.489 2.199-2.38 5.104.19 5.117 4.224 12.073 10.417 19.151 21.097 24.11 63.024 46.384 106.02 39.988 46.034-6.848 79.698 30.364 77.422 54.216-2.34 24.554-14.617-.024 29.767-8.397 26.89-1.235 59.166 19.014 95.542 42.183 57.04 36.333 216.493 26.685 237.642-104.15" stroke="url(#paint33_linear_9_1525)"/><path opacity=".5" d="M176.985 38.289c19.305-12 50.932 2.283 86.694 41.227 11.93 12.989 20.411 30.469 27.508 47.852 9.569 23.485 22.726 46.194 40.115 64.57 17.32 18.437 42.306 35.175 66.312 35.058 17.017-.081 31.671-12.586 30.452-19.091-.27-1.444-.916-1.904-1.557-1.573-1.005.339-1.626 2.017-1.166 4.745.795 4.725 5.196 11.189 11.676 17.872 21.734 22.415 63.201 44.071 106.132 38.922 44.687-5.358 78.262 30.284 77.342 54.757-.912 24.146-11.288 2.151 32.042-5.076 27.06-.428 59.373 19.344 95.587 40.831 59.231 35.146 215.06 22.21 235.213-106.801" stroke="url(#paint34_linear_9_1525)"/><path opacity=".5" d="M178.107 35.956c18.098-11.25 47.918 5.754 83.071 46.094 11.466 13.158 19.882 30.517 27.007 47.78 9.598 23.302 22.682 45.835 39.873 64.158 17.187 18.445 41.717 35.126 65.513 35.711 16.888.42 31.606-11 31.647-16.919.008-1.332-.311-1.731-.626-1.413-.581.315-.77 1.828.049 4.391 1.38 4.329 6.161 10.309 12.93 16.592 22.348 20.737 63.363 41.727 106.246 37.858 43.327-3.91 76.773 30.203 77.257 55.297.46 23.739-7.964 4.326 34.318-1.751 27.229.383 59.61 19.631 95.634 39.484 61.479 33.883 213.625 17.734 232.789-109.457" stroke="url(#paint35_linear_9_1525)"/><path opacity=".5" d="M179.228 33.628c16.893-10.5 44.929 9.208 79.448 50.964 11.015 13.324 19.35 30.566 26.503 47.703 9.627 23.121 22.638 45.48 39.635 63.747 17.05 18.453 41.128 35.074 64.714 36.369 16.76.92 31.567-9.43 32.837-14.753.291-1.222.299-1.557.307-1.255-.161.291.077 1.643 1.263 4.032 1.949 3.93 7.121 9.438 14.185 15.313 22.941 19.074 63.512 39.35 106.355 36.788 41.951-2.506 75.215 30.126 77.176 55.842 1.779 23.335-4.636 6.501 36.593 1.574 27.399 1.194 59.877 19.865 95.679 38.132 63.766 32.535 212.193 13.259 230.364-112.112" stroke="url(#paint36_linear_9_1525)"/><path opacity=".5" d="M180.35 31.296c15.686-9.75 41.967 12.642 75.825 55.83 10.566 13.481 18.821 30.61 25.999 47.63 9.658 22.94 22.593 45.125 39.397 63.34 16.913 18.465 40.539 35.025 63.915 37.022 16.63 1.421 31.562-7.864 34.031-12.581.585-1.114.908-1.388 1.243-1.094.262.266.912 1.461 2.477 3.676 2.497 3.539 8.073 8.567 15.444 14.03 23.509 17.432 63.649 36.934 106.467 35.723 40.568-1.146 73.602 30.07 77.096 56.383 3.046 22.952-1.307 8.676 38.869 4.895 27.568 2.001 60.163 20.054 95.723 36.784 66.098 31.095 210.756 8.781 227.939-114.763" stroke="url(#paint37_linear_9_1525)"/><path opacity=".5" d="M181.472 28.968c14.48-8.999 39.034 16.055 72.202 60.7 10.13 13.635 18.288 30.659 25.494 47.558 9.687 22.758 22.549 44.766 39.155 62.928 16.776 18.473 39.95 34.981 63.112 37.676 16.501 1.921 31.582-6.275 35.222-10.411.879-1 1.513-1.214 2.174-.936.682.242 1.739 1.287 3.688 3.317 3.038 3.164 9.021 7.707 16.699 12.751 24.062 15.814 63.782 34.476 106.576 34.658 39.179.165 71.924 30.041 77.011 56.923 4.277 22.593 2.017 10.851 41.144 8.22 27.738 2.812 60.462 20.192 95.772 35.437 68.462 29.553 209.324 4.305 225.514-117.419" stroke="url(#paint38_linear_9_1525)"/><path opacity=".5" d="M182.589 26.635c13.274-8.248 36.129 19.458 68.579 65.567 9.703 13.784 17.756 30.707 24.994 47.481 9.715 22.573 22.505 44.411 38.917 62.517 16.639 18.485 39.361 34.932 62.314 38.329 16.372 2.426 31.606-4.656 36.415-8.243 1.182-.88 2.122-1.041 3.107-.775 1.105.218 2.562 1.126 4.902 2.962 3.574 2.804 9.961 6.855 17.954 11.472 24.602 14.219 63.915 31.966 106.689 33.592 37.791 1.437 70.188 30.046 76.93 57.464 5.471 22.262 5.346 13.026 43.42 11.541 27.907 3.623 60.768 20.288 95.816 34.085 70.858 27.894 207.891-.17 223.085-120.074" stroke="url(#paint39_linear_9_1525)"/><path opacity=".5" d="M183.711 24.307c12.067-7.497 33.26 22.843 64.956 70.437 9.279 13.933 17.227 30.756 24.489 47.409 9.744 22.391 22.465 44.055 38.679 62.109 16.506 18.493 38.772 34.887 61.515 38.983 16.239 2.925 31.623-3.014 37.606-6.073 1.476-.754 2.731-.871 4.038-.613 1.525.194 3.385.972 6.117 2.602 4.111 2.458 10.901 6.013 19.212 10.193 25.139 12.654 64.052 29.404 106.802 32.527 36.404 2.656 68.402 30.09 76.846 58.005 6.645 21.964 8.674 15.201 45.695 14.866 28.076 4.434 61.079 20.337 95.865 32.737 73.271 26.119 206.455-4.645 220.66-122.725" stroke="url(#paint40_linear_9_1525)"/><path opacity=".5" d="M184.832 21.975c10.861-6.751 30.421 26.22 61.333 75.303 8.868 14.079 16.695 30.8 23.986 47.336 9.775 22.21 22.42 43.697 38.441 61.698 16.368 18.505 38.182 34.843 60.715 39.641 16.11 3.43 31.623-1.368 38.8-3.902 1.772-.626 3.341-.698 4.971-.456 1.949.173 4.216.827 7.331 2.247 4.66 2.123 11.841 5.177 20.467 8.914 25.672 11.117 64.201 26.785 106.911 31.458 35.028 3.833 66.574 30.183 76.765 58.55 7.799 21.704 11.999 17.375 47.967 18.19 28.245 5.242 61.385 20.341 95.909 31.385 75.7 24.215 205.022-9.119 218.236-125.379" stroke="url(#paint41_linear_9_1525)"/><path opacity=".5" d="M185.954 19.642c9.655-6 27.616 29.586 57.71 80.17 8.46 14.224 16.166 30.849 23.481 47.26 9.804 22.028 22.376 43.341 38.199 61.285 16.231 18.513 37.594 34.799 59.913 40.295 15.981 3.934 31.61.287 39.99-1.735 2.062-.496 3.946-.525 5.903-.295 2.368.15 5.051.686 8.545 1.889 5.212 1.796 12.781 4.358 21.722 7.634 26.208 9.608 64.367 24.098 107.024 30.393 33.664 4.967 64.71 30.32 76.684 59.09 8.941 21.483 15.327 19.551 50.242 21.512 28.415 6.052 61.68 20.308 95.958 30.037 78.128 22.177 203.586-13.598 215.811-128.034" stroke="url(#paint42_linear_9_1525)"/><path opacity=".5" d="M187.076 17.314c8.448-5.25 24.844 32.943 54.087 85.04 8.065 14.366 15.633 30.897 22.976 47.187 9.832 21.846 22.331 42.987 37.961 60.878 16.094 18.522 37.001 34.755 59.114 40.949 15.848 4.438 31.591 1.937 41.185.436 2.352-.368 4.555-.355 6.838-.138 2.792.125 5.891.545 9.76 1.534 5.777 1.469 13.721 3.543 22.98 6.355 26.753 8.127 64.557 21.346 107.134 29.327 32.32 6.061 62.821 30.51 76.599 59.632 10.078 21.301 18.656 21.725 52.518 24.836 28.588 6.864 61.958 20.236 96.001 28.69 80.554 19.998 202.155-18.074 213.383-130.686" stroke="url(#paint43_linear_9_1525)"/><path opacity=".5" d="M188.197 14.982c7.238-4.5 22.113 36.296 50.464 89.907 7.674 14.51 15.105 30.945 22.476 47.114 9.861 21.66 22.287 42.627 37.723 60.466 15.961 18.534 36.412 34.714 58.315 41.602 15.719 4.943 31.567 3.588 42.375 2.607 2.639-.238 5.164-.181 7.771.024 3.215.101 6.733.408 10.974 1.175 6.346 1.146 14.665 2.739 24.235 5.076 27.31 6.666 64.783 18.517 107.246 28.262 31.005 7.114 60.913 30.743 76.519 60.172 11.22 21.156 21.98 23.9 54.793 28.157 28.758 7.671 62.22 20.127 96.05 27.338 82.966 17.682 200.718-22.548 210.958-133.341" stroke="url(#paint44_linear_9_1525)"/><path opacity=".5" d="M189.319 12.653c6.031-3.748 19.414 39.645 46.841 94.777 7.29 14.656 14.572 30.99 21.972 47.038 9.892 21.479 22.242 42.272 37.481 60.055 15.823 18.541 35.818 34.674 57.516 42.256 15.585 5.447 31.542 5.237 43.569 4.773 2.925-.113 5.769-.008 8.702.182 3.635.077 7.577.27 12.189.819 6.919.823 15.613 1.945 25.49 3.797 27.882 5.226 65.053 15.616 107.355 27.197 29.718 8.135 58.993 31.026 76.438 60.712 12.366 21.048 25.309 26.071 57.068 31.483 28.928 8.481 62.455 19.99 96.095 25.99 85.351 15.22 199.286-27.023 208.533-135.996" stroke="url(#paint45_linear_9_1525)"/><path opacity=".5" d="M190.44 10.321c4.826-2.998 16.752 42.995 43.218 99.644 6.915 14.805 14.04 31.038 21.468 46.965 9.921 21.297 22.198 41.917 37.243 59.643 15.686 18.554 35.213 34.666 56.717 42.914 15.444 5.98 31.51 6.884 44.759 6.944 3.216.016 6.379.161 9.635.343 4.059.053 8.428.129 13.402.46 7.501.496 16.57 1.158 26.749 2.518 28.476 3.801 65.38 12.634 107.468 26.131 28.476 9.132 57.069 31.345 76.354 61.258 13.52 20.97 28.637 28.246 59.344 34.807 29.097 9.293 62.66 19.82 96.143 24.642 87.698 12.622 197.853-31.498 206.108-138.647" stroke="url(#paint46_linear_9_1525)"/><path opacity=".5" d="M191.558 7.993c3.619-2.252 14.125 46.34 39.595 104.514 6.548 14.954 13.511 31.087 20.963 46.892 9.949 21.116 22.154 41.558 37.005 59.236 15.549 18.561 34.62 34.617 55.915 43.567 15.311 6.481 31.477 8.526 45.953 9.116 3.498.141 6.988.334 10.566.5 4.479.032 9.276-.012 14.618.101 8.081.169 17.53.375 28.003 1.239 29.085 2.392 65.771 9.583 107.581 25.062 27.277 10.1 55.148 31.704 76.273 61.798 14.686 20.922 31.961 30.421 61.619 38.128 29.267 10.1 62.83 19.627 96.188 23.29 89.998 9.887 196.417-35.977 203.683-141.302" stroke="url(#paint47_linear_9_1525)"/><path opacity=".5" d="M192.68 5.66c2.412-1.5 11.53 49.693 35.972 109.381 6.184 15.107 12.979 31.135 20.463 46.816 9.977 20.934 22.109 41.202 36.766 58.824 15.412 18.573 34.032 34.569 55.116 44.221 15.182 6.98 31.445 10.192 47.144 11.282 3.784.274 7.597.508 11.498.662 4.902.008 10.131-.154 15.832-.255 8.666-.157 18.494-.399 29.262-.04 29.718.993 66.243 6.46 107.69 23.997 26.127 11.056 53.231 32.091 76.188 62.339 15.864 20.902 35.29 32.595 63.891 41.453 29.436 10.911 62.963 19.409 96.236 21.943 92.249 7.021 194.985-40.453 201.254-143.958" stroke="url(#paint48_linear_9_1525)"/><path opacity=".5" d="M193.801 3.332c1.207-.75 8.973 53.046 32.349 114.251 5.83 15.265 12.451 31.179 19.959 46.743 10.01 20.749 22.069 40.848 36.525 58.412 15.278 18.582 33.438 34.521 54.316 44.875 15.049 7.481 31.413 11.823 48.338 13.453 4.071.396 8.202.678 12.435.819 5.321-.016 10.982-.294 17.046-.613 9.251-.484 19.47-1.174 30.517-1.319 30.376-.4 66.799 3.268 107.802 22.931 25.035 12.005 51.328 32.511 76.108 62.88 17.058 20.906 38.618 34.77 66.166 44.773 29.606 11.723 63.056 19.175 96.28 20.592 94.437 4.035 193.549-44.927 198.83-146.613" stroke="url(#paint49_linear_9_1525)"/><path opacity=".5" d="M194.923 1s32.119 281.136 200.879 285.925c52.99-.371 135.528-31.078 233.971 81.72 98.442 112.802 354.099 82.873 361.175-81.921" stroke="url(#paint50_linear_9_1525)"/></g><g opacity=".5" stroke-width=".566" stroke-miterlimit="10"><path opacity=".5" d="M838.948 468.425c-27.757-32.805-70.564-75.376-112.575-86.501-18.139-4.801-33.225-2.925-48.302 1.836-8.355 2.672-17.259 6.465-26.882 11.17-14.794 7.23-28.02 16.382-40.244 26.708-21.29 17.888-41.608 41.655-58.65 55.612-11.93 9.777-19.854 11.202-17.942 18.183 1.622 5.911 2.889 16.043 1.283 27.108-1.557 10.737-7.016 21.818-14.964 30.929-10.409 11.932-24.074 20.559-39.187 25.236-25.002 7.743-53.288 5.144-79.561-8.313-42.31-21.531-75.071-28.23-95.308-16.584a11.082 11.082 0 00-3.304 2.933c-2.526 3.354-3.829 6.053-4.805 8.615-2.768 7.243 2.582 19.478 5.462 14.466 1.372-.294 2.389-1.13 2.998-2.364 5.116-5.908 1.626-18.639-13.58-22.839-12.487-3.45-31.349-2.288-43.222 12.557-4.232 5.282-7.319 11.412-9.663 18.223-19.927 58.158-53.538 150.543-231.26 99.074" stroke="url(#paint51_linear_9_1525)"/><path opacity=".5" d="M838.573 465.52c-28.266-32.301-71.98-74.202-114.072-83.62-18.212-4.075-32.979-1.235-47.608 4.318-8.117 3.078-16.783 7.251-26.196 12.23-14.423 7.627-27.487 16.996-39.7 27.374-21.189 17.908-42.108 41.357-59.687 54.011-12.301 8.865-21.584 9.051-17.659 14.506 1.138 5.371 4.128 14.999 3.05 26.006-1.045 10.702-6.132 21.947-13.798 31.252-10.062 12.207-23.465 21.157-38.392 26.172-24.793 8.333-53.172 6.255-79.602-7.247-43.056-21.854-76.176-26.01-94.638-13.598a9.654 9.654 0 00-2.921 3.123c-2.082 3.571-2.808 6.162-3.417 8.438-1.743 6.488 3.619 16.515 4.66 10.785 1.15-.367 1.94-1.242 2.328-2.489 4.171-5.94.02-17.759-15.327-21.197-12.443-2.788-30.982-1.105-42.859 13.784-4.22 5.278-7.351 11.379-9.772 18.146-20.592 57.763-63.169 147.323-233.382 90.335" stroke="url(#paint52_linear_9_1525)"/><path opacity=".5" d="M838.194 462.615c-28.774-31.797-73.396-73.024-115.569-80.743-18.285-3.345-32.728.484-46.91 6.795-7.875 3.502-16.303 8.038-25.51 13.292-14.052 8.022-26.951 17.609-39.151 28.04-21.089 17.928-42.613 41.057-60.72 52.412-12.672 7.957-22.186 6.489-17.377 10.83 1.659 4.645 5.37 13.954 4.822 24.901-.533 10.665-5.245 22.08-12.636 31.575-9.712 12.485-22.852 21.753-37.598 27.108-24.579 8.926-53.058 7.364-79.646-6.186-43.807-22.181-77.282-23.722-93.972-10.616a8.531 8.531 0 00-2.534 3.309c-1.63 3.805-1.783 6.258-2.029 8.26-.706 5.713 4.659 13.55 3.857 7.105.923-.439 1.488-1.355 1.662-2.614 3.227-5.976-1.586-16.887-17.078-19.551-12.394-2.13-30.61.077-42.5 15.015-4.204 5.27-7.379 11.347-9.881 18.07-21.258 57.367-72.803 144.098-235.507 81.594" stroke="url(#paint53_linear_9_1525)"/><path opacity=".5" d="M837.819 459.709c-29.283-31.296-74.816-71.841-117.07-77.861-18.357-2.615-32.474 2.207-46.212 9.276-7.633 3.927-15.827 8.825-24.824 14.357-13.681 8.414-26.414 18.223-38.607 28.706-20.987 17.953-43.117 40.759-61.752 50.815-13.044 7.045-22.787 3.926-17.09 7.158 2.178 3.918 6.608 12.912 6.592 23.799-.016 10.633-4.361 22.21-11.47 31.898-9.364 12.759-22.243 22.355-36.803 28.044-24.365 9.523-52.941 8.474-79.686-5.121-44.554-22.507-78.375-21.37-93.303-7.63a7.683 7.683 0 00-2.15 3.499c-1.162 4.047-.759 6.343-.642 8.082.327 4.911 5.697 10.588 3.054 3.426.698-.513 1.041-1.469.993-2.74 2.283-6.012-3.183-16.028-18.825-17.908-12.346-1.485-30.243 1.255-42.137 16.241-4.192 5.266-7.407 11.315-9.989 17.997-21.924 56.972-82.438 140.879-237.63 72.854" stroke="url(#paint54_linear_9_1525)"/><path opacity=".5" d="M837.44 456.808c-29.787-30.792-76.237-70.655-118.567-74.985-18.43-1.884-32.22 3.927-45.514 11.759-7.391 4.354-15.351 9.611-24.139 15.418-13.314 8.805-25.881 18.836-38.057 29.372-20.887 17.972-43.622 40.464-62.79 49.216-13.415 6.134-23.388 1.36-16.808 3.482 2.699 3.192 7.852 11.868 8.364 22.694.5 10.596-3.474 22.339-10.304 32.221-9.013 13.037-21.633 22.955-36.013 28.98-24.15 10.12-52.828 9.583-79.726-4.059-45.3-22.831-79.44-18.949-92.633-4.649-1.045 1.134-1.577 2.51-1.763 3.688-.674 4.294.258 6.416.746 7.909 1.332 4.063 6.734 7.622 2.252-.25.472-.585.593-1.582.327-2.865 1.335-6.049-4.781-15.176-20.573-16.266-12.293-.847-29.875 2.438-41.777 17.472-4.176 5.262-7.44 11.283-10.099 17.92-22.589 56.577-92.072 137.659-239.752 64.115" stroke="url(#paint55_linear_9_1525)"/><path opacity=".5" d="M837.065 453.903c-30.296-30.288-77.657-69.469-120.064-72.104-18.503-1.15-31.966 5.649-44.82 14.236-7.149 4.778-14.875 10.395-23.448 16.484-12.947 9.192-25.345 19.445-37.514 30.037-20.786 17.993-44.125 40.166-63.822 47.619-13.786 5.221-23.989-1.203-16.525-.194 3.219 2.465 9.098 10.822 10.134 21.592 1.017 10.56-2.586 22.472-9.138 32.543-8.666 13.316-21.02 23.561-35.217 29.917-23.937 10.721-52.711 10.693-79.771-2.998-46.05-23.158-80.465-16.464-91.963-1.663-.956 1.227-1.332 2.671-1.376 3.874-.165 4.539 1.247 6.476 2.134 7.731 2.264 3.2 7.775 4.657 1.445-3.93.246-.658.145-1.695-.343-2.99.391-6.085-6.379-14.337-22.323-14.623-12.241-.218-29.505 3.619-41.415 18.702-4.163 5.258-7.468 11.25-10.207 17.844-23.255 56.181-101.703 134.438-241.874 55.374" stroke="url(#paint56_linear_9_1525)"/><path opacity=".5" d="M836.685 450.998c-30.804-29.788-79.073-68.275-121.565-69.227-18.579-.416-31.711 7.372-44.121 16.718-6.907 5.201-14.4 11.177-22.763 17.544-12.58 9.58-24.813 20.059-36.965 30.704-20.685 18.012-44.626 39.867-64.859 46.02-14.161 4.314-24.59-3.764-16.243-3.865 3.74 1.739 10.341 9.777 11.906 20.486 1.537 10.528-1.698 22.605-7.976 32.866-8.315 13.595-20.407 24.167-34.423 30.853-23.723 11.322-52.598 11.807-79.811-1.933-46.796-23.485-81.433-13.925-91.293 1.323-.856 1.324-1.086 2.829-.993 4.064.355 4.777 2.215 6.557 3.522 7.554 3.131 2.384 8.812 1.694.642-7.611.024-.734-.303-1.807-1.009-3.115-.552-6.121-7.976-13.509-24.07-12.977-12.188.404-29.137 4.798-41.055 19.93-4.148 5.254-7.496 11.217-10.316 17.766-23.921 55.786-111.337 131.219-244.001 46.63" stroke="url(#paint57_linear_9_1525)"/><path opacity=".5" d="M836.305 448.092c-31.312-29.282-80.493-67.08-123.061-66.345-18.652.323-31.457 9.091-43.424 19.199-6.665 5.625-13.923 11.956-22.077 18.61-12.212 9.963-24.275 20.672-36.419 31.369-20.584 18.033-45.131 39.569-65.892 44.423-14.533 3.402-25.192-6.327-15.961-7.542 4.261 1.013 11.587 8.732 13.677 19.385 2.058 10.491-.811 22.734-6.81 33.189-7.96 13.873-19.794 24.772-33.628 31.789-23.505 11.928-52.481 12.916-79.855-.872-47.543-23.807-82.337-11.355-90.624 4.306-.755 1.424-.831 2.986-.605 4.253.891 5.003 3.175 6.666 4.91 7.376 3.994 1.634 9.852-1.271-.162-11.29-.201-.807-.75-1.921-1.678-3.241-1.501-6.157-9.578-12.694-25.821-11.334-12.136 1.017-28.766 5.98-40.692 21.16-4.136 5.25-7.529 11.185-10.426 17.69-24.586 55.394-120.971 127.994-246.122 37.89" stroke="url(#paint58_linear_9_1525)"/><path opacity=".5" d="M835.93 445.191c-31.82-28.778-81.909-65.882-124.562-63.468-18.724 1.061-31.183 10.838-42.725 21.676-6.407 6.065-13.451 12.739-21.391 19.672-11.85 10.35-23.74 21.285-35.872 32.034-20.483 18.058-45.634 39.27-66.928 42.825-14.904 2.49-25.842-13.304-15.679-11.213 4.689.964 12.838 7.687 15.449 18.279 2.578 10.455.076 22.867-5.645 33.512-7.609 14.155-19.18 25.376-32.833 32.724-23.287 12.534-52.364 14.027-79.896.194-48.293-24.134-83.171-8.772-89.958 7.292-.645 1.525-.576 3.135-.221 4.442 1.432 5.218 4.147 6.795 6.297 7.203 4.89.924 10.89-4.233-.964-14.966-.427-.88-1.198-2.034-2.344-3.366-2.445-6.194-11.184-11.887-27.568-9.692-12.091 1.622-28.399 7.162-40.333 22.391-4.119 5.246-7.557 11.153-10.534 17.613-25.252 54.999-130.602 124.775-248.245 29.15" stroke="url(#paint59_linear_9_1525)"/><path opacity=".5" d="M835.551 442.286c-32.329-28.278-83.329-64.679-126.059-60.588-18.797 1.8-30.929 12.558-42.032 24.159-6.164 6.488-12.979 13.517-20.705 20.736-11.486 10.734-23.206 21.899-35.326 32.701-20.379 18.077-46.139 38.975-67.962 41.227-15.275 1.582-26.704-12.683-15.396-14.89 5.221-1.017 14.085 6.642 17.22 17.178 3.098 10.418.964 23-4.483 33.834-7.258 14.434-18.567 25.986-32.038 33.661-23.065 13.143-52.251 15.136-79.94 1.255-49.04-24.461-83.947-6.194-89.288 10.274-.529 1.63-.327 3.284.165 4.628 1.977 5.419 5.152 6.731 7.686 7.025 5.785.67 10.239-5.439-1.767-18.646-.775-.856-1.646-2.147-3.01-3.491-3.389-6.23-12.794-11.092-29.315-8.05-12.051 2.22-28.032 8.341-39.97 23.618-4.107 5.242-7.589 11.121-10.643 17.537-25.918 54.603-140.237 121.554-250.367 20.409" stroke="url(#paint60_linear_9_1525)"/><path opacity=".5" d="M835.176 439.381c-32.837-27.774-84.741-63.473-127.556-57.711-18.869 2.542-30.67 14.276-41.333 26.64-5.923 6.912-12.507 14.296-20.02 21.798-11.127 11.113-22.67 22.508-34.781 33.366-20.278 18.098-46.644 38.677-68.999 39.625-15.646.67-27.334-15.031-15.113-18.565 5.7-1.651 15.335 5.592 18.99 16.072 3.623 10.382 1.856 23.133-3.316 34.157-6.903 14.712-17.95 26.595-31.248 34.597-22.843 13.756-52.134 16.246-79.98 2.32-49.786-24.783-84.665-3.643-88.619 13.26-.403 1.731-.072 3.434.553 4.818 2.522 5.613 6.132 7.057 9.074 6.847 6.774-.484 11.688-8.683-2.57-22.326-.977-.932-2.094-2.26-3.68-3.616-4.333-6.262-14.411-10.305-31.066-6.407-12.011 2.812-27.661 9.523-39.607 24.848-4.091 5.238-7.617 11.089-10.752 17.464-26.583 54.208-149.871 118.334-252.489 11.67" stroke="url(#paint61_linear_9_1525)"/><path opacity=".5" d="M834.797 436.475c-33.345-27.269-86.157-62.266-129.057-54.829-18.938 3.285-30.416 15.995-40.635 29.118-5.681 7.335-12.04 15.075-19.33 22.859-10.768 11.496-22.133 23.121-34.233 34.032-20.177 18.118-47.143 38.378-70.031 38.027-16.017-.242-27.927-17.404-14.831-22.238 6.209-2.292 16.582 4.548 20.757 14.971 4.144 10.342 2.748 23.266-2.15 34.48a80.011 80.011 0 01-30.453 35.533c-22.621 14.365-52.021 17.355-80.025 3.382-50.536-25.111-85.338-1.126-87.948 16.245-.275 1.828.181 3.575.936 5.008 3.062 5.798 7.129 7.186 10.461 6.674 7.738-1.195 13.024-11.9-3.373-26.007-1.178-1.016-2.542-2.372-4.345-3.744-5.281-6.299-16.037-9.527-32.813-4.762-11.982 3.402-27.293 10.705-39.248 26.075-4.079 5.234-7.645 11.057-10.861 17.388-27.249 53.812-159.501 115.114-254.615 2.929" stroke="url(#paint62_linear_9_1525)"/><path opacity=".5" d="M834.422 433.574c-33.85-26.769-87.566-61.056-130.554-51.952-19.006 4.027-30.162 17.718-39.937 31.599-5.435 7.759-11.571 15.854-18.644 23.924-10.413 11.875-21.601 23.735-33.688 34.698-20.076 18.142-47.648 38.08-71.065 36.429-16.388-1.15-28.504-19.808-14.548-25.913 6.729-2.942 17.832 3.498 22.529 13.864 4.668 10.306 3.639 23.4-.985 34.803a80.004 80.004 0 01-29.658 36.47c-22.395 14.978-51.904 18.465-80.065 4.447-51.283-25.434-85.976 1.339-87.279 19.227-.141 1.921.432 3.716 1.323 5.193 3.603 5.976 8.134 7.312 11.85 6.497 8.71-1.909 14.29-15.083-4.176-29.683-1.388-1.097-2.99-2.485-5.015-3.869-6.225-6.335-17.667-8.753-34.564-3.119-11.954 3.986-26.926 11.887-38.885 27.305-4.062 5.23-7.677 11.024-10.969 17.311-27.915 53.417-169.136 111.89-256.738-5.811" stroke="url(#paint63_linear_9_1525)"/><path opacity=".5" d="M834.042 430.669c-34.358-26.265-88.973-59.845-132.05-49.071-19.075 4.769-29.908 19.437-39.244 34.08-5.192 8.184-11.103 16.633-17.958 24.986-10.058 12.255-21.064 24.348-33.139 35.364-19.975 18.162-48.153 37.781-72.102 34.831-16.759-2.062-29.068-22.234-14.266-29.586 7.259-3.607 19.084 2.45 24.3 12.763 5.193 10.266 4.531 23.529.178 35.122-5.834 15.552-16.098 28.428-28.863 37.406-22.17 15.596-51.791 19.574-80.11 5.508-52.029-25.76-86.593 3.761-86.609 22.213 0 2.014.682 3.858 1.706 5.383 4.14 6.154 9.139 7.433 13.238 6.319 9.687-2.631 15.504-18.239-4.979-33.362-1.602-1.183-3.437-2.595-5.68-3.995-7.17-6.372-19.31-7.986-36.311-1.477-11.938 4.572-26.556 13.066-38.526 28.536-4.047 5.226-7.706 10.992-11.079 17.235-28.58 53.021-178.77 108.67-258.86-14.551" stroke="url(#paint64_linear_9_1525)"/><path opacity=".5" d="M833.667 427.764c-34.866-25.765-90.381-58.631-133.551-46.195-19.144 5.516-29.65 21.157-38.546 36.559-4.95 8.607-10.635 17.407-17.272 26.05-9.703 12.638-20.531 24.962-32.595 36.03-19.874 18.182-48.656 37.486-73.134 33.233-17.13-2.973-29.625-24.678-13.983-33.261 7.79-4.277 20.334 1.396 26.071 11.657 5.717 10.225 5.422 23.662 1.343 35.445-5.479 15.83-15.476 29.037-28.068 38.346-21.94 16.209-51.674 20.684-80.15 6.573-52.78-26.087-87.198 6.133-85.944 25.195.138 2.099.932 3.999 2.094 5.573 4.672 6.327 10.143 7.554 14.626 6.141 10.667-3.353 16.682-21.374-5.782-37.042-1.815-1.267-3.885-2.708-6.35-4.12-8.118-6.408-20.964-7.223-38.062.165-11.922 5.153-26.188 14.248-38.163 29.764-4.034 5.221-7.734 10.959-11.187 17.157-29.247 52.626-188.405 105.45-260.982-23.291" stroke="url(#paint65_linear_9_1525)"/><path opacity=".5" d="M833.288 424.862c-35.375-25.26-91.786-57.416-135.048-43.313-19.212 6.263-29.395 22.879-37.848 39.04-4.708 9.031-10.171 18.186-16.586 27.112-9.352 13.017-19.995 25.571-32.046 36.695-19.773 18.203-49.161 37.188-74.171 31.636-17.502-3.882-30.182-27.14-13.701-36.938 8.331-4.951 21.585.347 27.842 10.556 6.242 10.181 6.314 23.795 2.51 35.768-5.12 16.112-14.856 29.65-27.278 39.282-21.706 16.826-51.561 21.797-80.194 7.634-53.526-26.41-87.8 8.458-85.274 28.181.278 2.183 1.182 4.14 2.481 5.763 5.201 6.496 11.147 7.67 16.013 5.968 11.648-4.084 17.841-24.49-6.584-40.723-2.03-1.348-4.333-2.821-7.016-4.245-9.062-6.444-22.622-6.46-39.809 1.812-11.918 5.734-25.817 15.43-37.804 30.994-4.018 5.217-7.766 10.927-11.296 17.08-29.912 52.231-198.035 102.23-263.108-32.035" stroke="url(#paint66_linear_9_1525)"/><path opacity=".5" d="M832.913 421.957c-35.883-24.756-93.186-56.197-136.549-40.436-19.277 7.009-29.141 24.598-37.15 41.521-4.462 9.455-9.707 18.965-15.9 28.178-9.005 13.396-19.458 26.184-31.502 37.361-19.672 18.227-49.661 36.889-75.203 30.037-17.873-4.793-30.735-29.613-13.415-40.609 8.872-5.633 22.835-.706 29.613 9.45 6.766 10.14 7.23 23.933 3.676 36.09-4.733 16.399-14.234 30.264-26.483 40.219-21.472 17.443-51.444 22.907-80.235 8.695-54.272-26.737-88.4 10.746-84.604 31.168a12.613 12.613 0 002.865 5.947c5.725 6.666 12.156 7.788 17.401 5.791 12.628-4.81 18.974-27.592-7.388-44.403-2.247-1.432-4.78-2.933-7.685-4.37-10.006-6.48-24.288-5.697-41.556 3.454-11.914 6.315-25.45 16.609-37.44 32.221-4.007 5.209-7.795 10.895-11.406 17.008-30.578 51.835-207.67 99.01-265.23-40.775" stroke="url(#paint67_linear_9_1525)"/><path opacity=".5" d="M832.533 419.051c-36.391-24.255-94.557-54.918-138.045-37.555-19.33 7.784-28.887 26.318-36.456 44-4.22 9.878-9.247 19.743-15.21 29.238-8.658 13.78-18.926 26.797-30.953 38.027-19.572 18.247-50.166 36.591-76.241 28.44-18.244-5.706-31.292-32.1-13.132-44.286 9.416-6.319 24.102-1.767 31.384 8.349 7.303 10.084 8.118 24.061 4.838 36.413-4.382 16.673-13.609 30.877-25.688 41.154-21.238 18.066-51.327 24.017-80.279 9.761-55.023-27.063-89.014 12.997-83.935 34.149a13.81 13.81 0 003.252 6.138c6.25 6.835 13.165 7.917 18.789 5.613 13.617-5.52 20.096-30.683-8.19-48.079a80.59 80.59 0 00-8.352-4.495c-10.953-6.517-25.962-4.939-43.306 5.096-11.918 6.896-25.083 17.791-37.078 33.452-3.99 5.205-7.823 10.858-11.514 16.931-31.244 51.44-217.304 95.786-267.352-49.515" stroke="url(#paint68_linear_9_1525)"/><path opacity=".5" d="M832.158 416.146c-36.9-23.751-95.965-53.732-139.542-34.678-19.398 8.514-28.629 28.036-35.758 46.481-3.978 10.302-8.8 20.515-14.525 30.3-8.327 14.151-18.389 27.41-30.408 38.693-19.471 18.267-50.67 36.296-77.273 26.837-18.616-6.617-31.845-34.593-12.85-47.961 9.957-7.009 25.345-2.817 33.156 7.243 7.818 10.047 9.005 24.19 6.003 36.736-4.031 16.947-12.971 31.502-24.893 42.09-20.98 18.707-51.215 25.127-80.32 10.822-55.769-27.386-89.635 15.221-83.264 37.136.702 2.409 1.924 4.555 3.635 6.327 6.774 7.005 14.169 8.025 20.176 5.435 14.593-6.267 21.21-33.762-8.997-51.759a80.77 80.77 0 00-9.021-4.62c-11.898-6.549-27.644-4.176-45.053 6.739-11.93 7.477-24.712 18.973-36.719 34.682-3.978 5.201-7.855 10.826-11.623 16.854-31.909 51.049-226.935 92.566-269.475-58.255" stroke="url(#paint69_linear_9_1525)"/><path opacity=".5" d="M831.779 413.245c-37.408-23.246-97.374-52.545-141.043-31.797-19.467 9.249-28.375 29.759-35.06 48.962-9.131 26.221-23.385 51.541-43.703 70.724-19.365 18.287-51.174 35.998-78.31 25.24-18.986-7.526-32.401-37.091-12.567-51.634 10.501-7.703 26.587-3.865 34.927 6.142 8.339 10.007 9.888 24.32 7.169 37.059-10.187 47.675-58.642 77.377-104.462 54.91-62.693-30.74-97.37 28.149-78.573 46.634 26.656 26.216 61.2-30.466 2.082-54.923-24.514-12.573-62.317 10.419-94.892 61.072-32.575 50.653-236.57 89.346-271.6-66.995" stroke="url(#paint70_linear_9_1525)"/><path opacity=".5" d="M830.657 410.913c-36.198-22.496-94.287-48.733-137.42-26.931-18.95 9.58-27.846 29.804-34.556 48.886-9.158 26.038-23.34 51.181-43.46 70.316-19.232 18.299-50.581 35.949-77.507 25.897-18.858-7.025-32.369-35.46-13.762-49.466 4.22-3.18 9.429-4.314 14.613-3.805 6.911.665 13.766 4.237 18.163 9.749 7.751 9.656 8.864 23.464 5.915 35.779-11.034 46.037-59.07 75.191-104.575 53.845-61.644-28.916-96.07 28.532-78.492 47.175 24.865 26.373 57.871-28.291-.194-51.602-24.683-11.762-61.655 11.157-94.936 59.724-33.947 49.531-235.137 84.871-269.172-69.65" stroke="url(#paint71_linear_9_1525)"/><path opacity=".5" d="M829.536 408.584c-34.992-21.749-91.193-44.939-133.797-22.06-18.43 9.898-27.314 29.852-34.056 48.813-9.186 25.857-23.295 50.827-43.222 69.905-19.095 18.307-49.992 35.896-76.708 26.551-18.725-6.525-32.333-33.831-14.952-47.296 3.933-3.058 8.823-4.14 13.681-3.648 6.487.642 12.894 4.092 16.949 9.394 7.137 9.329 7.839 22.601 4.656 34.501-11.878 44.39-59.482 73.003-104.684 52.779-60.571-27.1-94.788 28.892-78.412 47.715 23.058 26.503 54.543-26.119-2.469-48.276-24.852-10.955-61.058 11.896-94.985 58.372-35.366 48.45-233.7 80.396-266.747-72.301" stroke="url(#paint72_linear_9_1525)"/><path opacity=".5" d="M828.418 406.252c-33.785-20.999-88.086-41.166-130.174-17.194-17.913 10.205-26.781 29.901-33.551 48.741-9.219 25.675-23.251 50.471-42.984 69.493-18.959 18.319-49.399 35.848-75.91 27.205-18.595-6.025-32.3-32.201-16.146-45.125 3.647-2.934 8.214-3.967 12.749-3.487 6.064.622 12.035 3.943 15.735 9.035 6.536 8.99 6.818 21.737 3.401 33.221-12.717 42.74-59.877 70.821-104.797 51.715-59.481-25.297-93.525 29.222-78.327 48.26 21.234 26.599 51.219-23.945-4.744-44.956-25.026-10.144-60.53 12.63-95.03 57.025-36.839 47.405-232.268 75.917-264.322-74.957" stroke="url(#paint73_linear_9_1525)"/><path opacity=".5" d="M827.297 403.92c-32.579-20.249-84.976-37.418-126.551-12.324-17.397 10.5-26.253 29.949-33.047 48.664-9.248 25.494-23.207 50.112-42.746 69.086-18.821 18.327-48.81 35.799-75.111 27.858-18.462-5.524-32.268-30.57-17.337-42.954 3.361-2.812 7.606-3.797 11.818-3.329 5.644.597 11.171 3.793 14.52 8.676 5.935 8.651 5.798 20.869 2.142 31.942-13.548 41.077-60.255 68.633-104.91 50.649-58.367-23.509-92.282 29.521-78.245 48.801 19.406 26.656 47.889-21.77-7.021-41.631-25.195-9.333-60.07 13.356-95.077 55.673-38.369 46.388-230.832 71.442-261.898-77.612" stroke="url(#paint74_linear_9_1525)"/><path opacity=".5" d="M826.175 401.591c-31.372-19.497-81.861-33.689-122.928-7.456-16.881 10.781-25.72 29.993-32.543 48.591-9.275 25.308-23.166 49.757-42.503 68.674-18.684 18.335-48.217 35.751-74.308 28.512-18.333-5.024-32.204-28.904-18.531-40.787 3.082-2.68 7-3.624 10.885-3.168 5.221.573 10.308 3.64 13.31 8.321 5.33 8.312 4.777 20.002.888 30.662-14.371 39.408-60.619 66.443-105.019 49.58-57.234-21.733-91.052 29.783-78.161 49.342 17.574 26.668 44.561-19.595-9.296-38.306-25.365-8.526-59.683 14.063-95.122 54.325-39.958 45.395-229.4 66.967-259.473-80.263" stroke="url(#paint75_linear_9_1525)"/><path opacity=".5" d="M825.053 399.259c-30.166-18.747-78.738-29.985-119.305-2.586-16.364 11.052-25.192 30.041-32.042 48.518-9.304 25.127-23.122 49.402-42.266 68.262-18.551 18.348-47.628 35.703-73.509 29.166-18.2-4.523-32.164-27.265-19.721-38.616 2.8-2.554 6.391-3.454 9.949-3.01 4.801.549 9.445 3.49 12.096 7.961 4.724 7.97 3.76 19.131-.367 29.384-15.186 37.728-60.962 64.251-105.132 48.514-56.08-19.978-89.829 30.01-78.081 49.883 15.747 26.631 41.237-17.42-11.567-34.985-25.534-7.715-59.368 14.753-95.17 52.977C228.33 699.15 41.97 717.219 12.894 571.809" stroke="url(#paint76_linear_9_1525)"/><path opacity=".5" d="M823.932 396.931c-28.96-17.997-75.619-26.305-115.678 2.28-15.852 11.31-24.659 30.09-31.538 48.441-9.336 24.946-23.078 49.043-42.028 67.851-18.413 18.356-47.022 35.598-72.71 29.824-18.063-4.063-32.119-25.627-20.915-36.445 2.513-2.43 5.781-3.281 9.017-2.849 4.378.524 8.577 3.337 10.881 7.606 4.115 7.626 2.744 18.255-1.626 28.105-15.989 36.041-61.284 62.056-105.241 47.449-54.901-18.243-88.618 30.191-77.999 50.423 13.931 26.543 37.908-15.245-13.843-31.66-25.704-6.904-59.122 15.414-95.215 51.626-43.318 43.462-226.53 58.017-254.619-85.573" stroke="url(#paint77_linear_9_1525)"/><path opacity=".5" d="M822.81 394.599c-27.753-17.246-72.5-22.645-112.055 7.15-15.343 11.557-24.13 30.138-31.033 48.369-9.365 24.764-23.034 48.688-41.786 67.443-18.277 18.368-46.434 35.546-71.912 30.478-17.929-3.567-32.074-23.989-22.105-34.279 2.231-2.304 5.172-3.107 8.085-2.691 3.958.5 7.71 3.183 9.667 7.247 3.506 7.283 1.735 17.375-2.881 26.825-16.775 34.347-61.591 59.853-105.353 46.384-53.704-16.528-87.404 30.332-77.915 50.968 12.14 26.402 34.58-13.07-16.118-28.339-25.874-6.097-58.949 16.048-95.264 50.278-45.094 42.502-225.098 53.538-252.194-88.224" stroke="url(#paint78_linear_9_1525)"/><path opacity=".5" d="M821.688 392.27c-26.547-16.499-69.386-19.013-108.432 12.017-14.839 11.791-23.598 30.183-30.529 48.297-9.392 24.582-22.989 48.332-41.548 67.031-18.139 18.376-45.84 35.489-71.112 31.131-17.801-3.071-32.031-22.35-23.3-32.107 1.949-2.179 4.567-2.938 7.153-2.53 3.535.48 6.843 3.03 8.453 6.892 2.893 6.936.726 16.495-4.136 25.546-17.546 32.644-61.877 57.642-105.466 45.319-52.478-14.838-86.186 30.428-77.835 51.508 10.385 26.204 31.252-10.895-18.393-25.014-26.043-5.286-58.84 16.645-95.308 48.926-46.929 41.542-223.662 49.063-249.77-90.879" stroke="url(#paint79_linear_9_1525)"/><path opacity=".5" d="M820.567 389.938c-25.341-15.749-66.279-15.406-104.809 16.883-14.339 12.017-23.065 30.231-30.025 48.22-9.421 24.396-22.944 47.974-41.31 66.62-18.002 18.384-45.251 35.436-70.309 31.785-17.668-2.575-31.982-20.713-24.49-29.937 1.666-2.054 3.958-2.764 6.221-2.369 3.115.456 5.971 2.873 7.238 6.533 2.276 6.59-.274 15.612-5.394 24.268-18.301 30.937-62.144 55.422-105.576 44.253-51.23-13.175-84.951 30.485-77.753 52.049 8.666 25.954 27.927-8.72-20.669-21.693-26.212-4.475-58.795 17.206-95.356 47.578-48.83 40.565-222.23 44.588-247.341-93.534" stroke="url(#paint80_linear_9_1525)"/><path opacity=".5" d="M819.446 387.61c-24.135-14.999-63.181-11.823-101.187 21.753-13.842 12.231-22.536 30.28-29.524 48.147-9.453 24.215-22.9 47.619-41.072 66.213-17.869 18.396-44.662 35.38-69.511 32.438-17.538-2.074-31.925-19.074-25.684-27.769 1.384-1.929 3.349-2.591 5.29-2.212 2.691.432 5.099 2.712 6.023 6.178 1.658 6.234-1.271 14.728-6.649 22.988-19.035 29.231-62.394 53.187-105.688 43.184-49.964-11.544-83.693 30.502-77.669 52.59 6.996 25.655 24.599-6.545-22.944-18.368-26.382-3.664-58.812 17.727-95.401 46.231-50.791 39.564-220.794 40.113-244.916-96.19" stroke="url(#paint81_linear_9_1525)"/><path opacity=".5" d="M818.328 385.277c-22.929-14.248-60.095-8.259-97.563 26.62-13.355 12.432-22.005 30.328-29.021 48.075-9.481 24.033-22.856 47.263-40.829 65.801-17.732 18.404-44.074 35.327-68.712 33.096-17.409-1.578-31.869-17.44-26.879-25.599 1.106-1.804 2.744-2.421 4.354-2.05 2.271.408 4.228 2.546 4.809 5.819 1.041 5.871-2.263 13.844-7.904 21.709-19.745 27.519-62.62 50.939-105.797 42.118-48.673-9.942-82.406 30.482-77.588 53.131 5.386 25.32 21.27-4.37-25.22-15.043-26.552-2.857-58.88 18.202-95.449 44.879-52.816 38.535-219.362 35.638-242.492-98.841" stroke="url(#paint82_linear_9_1525)"/><path opacity=".5" d="M817.206 382.949c-21.717-13.497-57.02-4.725-93.94 31.491-12.874 12.625-21.475 30.376-28.516 47.997-9.509 23.852-22.815 46.905-40.591 65.39-17.595 18.416-43.484 35.275-67.913 33.75-17.276-1.082-31.809-15.814-28.069-23.428.827-1.683 2.135-2.248 3.422-1.893 1.847.383 3.356 2.377 3.594 5.464.424 5.499-3.247 12.956-9.162 20.429-20.435 25.813-62.83 48.672-105.911 41.054-47.361-8.377-81.073 30.433-77.503 53.675 3.833 24.949 17.946-2.195-27.495-11.722-26.721-2.046-59.001 18.63-95.494 43.531C194.73 726.149 31.699 719.846 9.562 587.192" stroke="url(#paint83_linear_9_1525)"/><path opacity=".5" d="M816.085 380.617c-20.512-12.747-53.966-1.211-90.317 36.356-12.398 12.812-20.944 30.421-28.012 47.926-9.538 23.67-22.771 46.549-40.353 64.981-17.458 18.425-42.896 35.223-67.111 34.404-17.147-.581-31.74-14.192-29.262-21.261.548-1.562 1.525-2.074 2.489-1.731 1.424.359 2.489 2.199 2.38 5.104-.189 5.117-4.224 12.073-10.417 19.151-21.096 24.11-63.023 46.384-106.019 39.988-46.034-6.848-79.698 30.364-77.423 54.216 2.34 24.554 14.617-.024-29.767-8.397-26.89-1.235-59.166 19.014-95.542 42.183-57.04 36.333-216.493 26.685-237.642-104.15" stroke="url(#paint84_linear_9_1525)"/><path opacity=".5" d="M814.963 378.289c-19.305-12.001-50.932 2.284-86.694 41.227-11.93 12.989-20.411 30.469-27.507 47.852-9.57 23.485-22.727 46.194-40.116 64.57-17.32 18.437-42.306 35.175-66.311 35.058-17.018-.081-31.671-12.586-30.453-19.091.27-1.444.916-1.904 1.557-1.573 1.005.339 1.626 2.017 1.166 4.745-.794 4.725-5.196 11.189-11.676 17.872-21.734 22.415-63.201 44.071-106.132 38.922-44.687-5.358-78.262 30.284-77.342 54.757.912 24.146 11.289 2.151-32.042-5.076-27.06-.428-59.373 19.344-95.587 40.831-59.23 35.146-215.06 22.21-235.213-106.801" stroke="url(#paint85_linear_9_1525)"/><path opacity=".5" d="M813.842 375.956c-18.099-11.25-47.919 5.754-83.071 46.094-11.467 13.158-19.883 30.517-27.008 47.78-9.598 23.302-22.682 45.835-39.873 64.158-17.187 18.445-41.717 35.126-65.513 35.711-16.888.42-31.606-11-31.646-16.919-.008-1.332.31-1.731.625-1.413.581.315.77 1.828-.049 4.391-1.379 4.329-6.16 10.309-12.93 16.592-22.347 20.737-63.363 41.727-106.246 37.858-43.326-3.91-76.773 30.203-77.257 55.297-.46 23.739 7.964 4.326-34.318-1.751-27.229.383-59.61 19.631-95.634 39.484-61.478 33.883-213.625 17.734-232.789-109.457" stroke="url(#paint86_linear_9_1525)"/><path opacity=".5" d="M812.72 373.628c-16.893-10.499-44.929 9.208-79.448 50.964-11.014 13.324-19.35 30.566-26.503 47.703-9.626 23.121-22.638 45.48-39.635 63.747-17.05 18.453-41.128 35.074-64.714 36.369-16.76.92-31.566-9.43-32.837-14.753-.291-1.222-.299-1.557-.307-1.255.162.291-.076 1.643-1.263 4.032-1.948 3.93-7.121 9.438-14.185 15.313-22.94 19.074-63.512 39.35-106.354 36.788-41.951-2.506-75.216 30.126-77.177 55.842-1.779 23.335 4.636 6.501-36.593 1.574-27.399 1.194-59.877 19.865-95.679 38.132-63.766 32.535-212.192 13.259-230.364-112.112" stroke="url(#paint87_linear_9_1525)"/><path opacity=".5" d="M811.598 371.296c-15.686-9.749-41.967 12.642-75.825 55.83-10.566 13.481-18.821 30.61-25.998 47.63-9.659 22.94-22.594 45.125-39.398 63.34-16.912 18.465-40.538 35.025-63.915 37.022-16.63 1.421-31.562-7.864-34.031-12.581-.585-1.114-.908-1.388-1.243-1.094-.262.266-.911 1.461-2.477 3.676-2.497 3.539-8.073 8.567-15.444 14.03-23.509 17.432-63.649 36.934-106.467 35.723-40.567-1.146-73.602 30.07-77.096 56.383-3.046 22.952 1.307 8.676-38.869 4.895-27.568 2.001-60.163 20.054-95.723 36.784-66.098 31.095-210.756 8.781-227.94-114.763" stroke="url(#paint88_linear_9_1525)"/><path opacity=".5" d="M810.477 368.968c-14.48-8.999-39.034 16.055-72.202 60.7-10.131 13.635-18.289 30.659-25.494 47.558-9.687 22.758-22.55 44.766-39.156 62.928-16.775 18.473-39.95 34.981-63.112 37.676-16.501 1.921-31.582-6.275-35.221-10.411-.88-1-1.513-1.214-2.175-.936-.682.242-1.739 1.287-3.688 3.317-3.038 3.164-9.021 7.707-16.698 12.751-24.062 15.814-63.782 34.476-106.577 34.658-39.179.165-71.923 30.041-77.011 56.923-4.276 22.593-2.017 10.851-41.144 8.22-27.737 2.812-60.462 20.192-95.772 35.437-68.462 29.553-209.323 4.305-225.514-117.419" stroke="url(#paint89_linear_9_1525)"/><path opacity=".5" d="M809.359 366.635c-13.274-8.248-36.129 19.458-68.579 65.567-9.703 13.784-17.756 30.707-24.994 47.481-9.715 22.573-22.504 44.411-38.917 62.517-16.638 18.485-39.361 34.932-62.313 38.329-16.372 2.426-31.607-4.656-36.416-8.243-1.182-.88-2.122-1.041-3.107-.775-1.105.218-2.562 1.126-4.902 2.962-3.574 2.804-9.961 6.855-17.953 11.472-24.603 14.219-63.915 31.966-106.689 33.592-37.792 1.437-70.189 30.046-76.931 57.464-5.471 22.262-5.346 13.026-43.42 11.541-27.906 3.623-60.768 20.288-95.816 34.085-70.858 27.894-207.891-.17-223.085-120.074" stroke="url(#paint90_linear_9_1525)"/><path opacity=".5" d="M808.238 364.307c-12.068-7.497-33.261 22.843-64.956 70.437-9.28 13.933-17.228 30.756-24.49 47.409-9.743 22.391-22.464 44.055-38.679 62.109-16.505 18.493-38.772 34.887-61.515 38.983-16.239 2.925-31.622-3.014-37.605-6.073-1.477-.754-2.732-.871-4.039-.613-1.525.194-3.385.972-6.116 2.602-4.112 2.458-10.902 6.013-19.213 10.193-25.139 12.654-64.052 29.404-106.802 32.527-36.404 2.656-68.401 30.09-76.846 58.005-6.645 21.964-8.674 15.201-45.695 14.866-28.076 4.434-61.079 20.337-95.864 32.737-73.272 26.119-206.456-4.645-220.661-122.725" stroke="url(#paint91_linear_9_1525)"/><path opacity=".5" d="M807.116 361.975c-10.861-6.751-30.42 26.22-61.333 75.303-8.868 14.079-16.695 30.8-23.985 47.336-9.776 22.21-22.42 43.697-38.441 61.698-16.368 18.505-38.183 34.843-60.716 39.641-16.11 3.43-31.623-1.368-38.8-3.902-1.771-.626-3.341-.698-4.971-.456-1.948.173-4.216.827-7.33 2.247-4.66 2.123-11.842 5.177-20.468 8.914-25.671 11.117-64.201 26.785-106.911 31.458-35.028 3.833-66.574 30.183-76.765 58.55-7.799 21.704-11.999 17.375-47.966 18.19-28.246 5.242-61.386 20.341-95.909 31.385-75.7 24.215-205.023-9.119-218.236-125.379" stroke="url(#paint92_linear_9_1525)"/><path opacity=".5" d="M805.994 359.642c-9.654-6-27.616 29.586-57.71 80.17-8.46 14.224-16.166 30.849-23.481 47.26-9.804 22.028-22.375 43.341-38.199 61.285-16.231 18.513-37.594 34.799-59.913 40.295-15.98 3.934-31.61.287-39.99-1.735-2.062-.496-3.946-.525-5.902-.295-2.369.15-5.052.686-8.546 1.889-5.212 1.796-12.781 4.358-21.721 7.634-26.209 9.608-64.367 24.098-107.025 30.393-33.664 4.967-64.709 30.32-76.684 59.09-8.94 21.483-15.327 19.551-50.242 21.512-28.415 6.052-61.68 20.308-95.957 30.037-78.129 22.177-203.587-13.598-215.811-128.034" stroke="url(#paint93_linear_9_1525)"/><path opacity=".5" d="M804.873 357.314c-8.449-5.25-24.845 32.943-54.087 85.04-8.065 14.366-15.634 30.897-22.977 47.187-9.832 21.846-22.331 42.987-37.961 60.878-16.094 18.522-37.001 34.755-59.114 40.949-15.848 4.438-31.59 1.937-41.184.436-2.353-.368-4.555-.355-6.839-.138-2.792.125-5.89.545-9.76 1.534-5.777 1.469-13.721 3.543-22.98 6.355-26.753 8.127-64.557 21.346-107.133 29.327-32.321 6.061-62.822 30.51-76.6 59.632-10.078 21.301-18.656 21.725-52.517 24.836-28.589 6.864-61.959 20.236-96.002 28.69-80.554 19.998-202.154-18.074-213.383-130.686" stroke="url(#paint94_linear_9_1525)"/><path opacity=".5" d="M803.751 354.982c-7.238-4.499-22.113 36.296-50.464 89.907-7.673 14.51-15.105 30.945-22.476 47.114-9.861 21.66-22.287 42.627-37.723 60.466-15.961 18.534-36.412 34.714-58.315 41.602-15.719 4.943-31.566 3.588-42.375 2.607-2.638-.238-5.164-.181-7.77.024-3.216.101-6.734.408-10.974 1.175-6.347 1.146-14.666 2.739-24.236 5.076-27.31 6.666-64.782 18.517-107.246 28.262-31.005 7.114-60.913 30.743-76.519 60.172-11.22 21.156-21.98 23.9-54.793 28.157-28.758 7.671-62.22 20.127-96.05 27.338-82.966 17.682-200.718-22.548-210.957-133.341" stroke="url(#paint95_linear_9_1525)"/><path opacity=".5" d="M802.629 352.653c-6.031-3.748-19.414 39.645-46.841 94.777-7.29 14.656-14.572 30.99-21.972 47.038-9.892 21.479-22.242 42.272-37.48 60.055-15.824 18.541-35.819 34.674-57.517 42.256-15.585 5.447-31.542 5.237-43.569 4.773-2.925-.113-5.769-.008-8.702.182-3.635.077-7.577.27-12.188.819-6.92.823-15.614 1.945-25.491 3.797-27.882 5.226-65.052 15.616-107.355 27.197-29.718 8.135-58.992 31.026-76.438 60.712-12.366 21.048-25.308 26.071-57.068 31.483-28.928 8.481-62.455 19.99-96.095 25.99-85.35 15.22-199.286-27.023-208.533-135.996" stroke="url(#paint96_linear_9_1525)"/><path opacity=".5" d="M801.508 350.321c-4.825-2.998-16.751 42.995-43.218 99.644-6.915 14.805-14.04 31.038-21.468 46.965-9.921 21.297-22.198 41.917-37.242 59.643-15.687 18.554-35.214 34.666-56.718 42.914-15.444 5.98-31.51 6.884-44.759 6.944-3.216.016-6.379.161-9.635.343-4.058.053-8.428.129-13.402.46-7.5.496-16.57 1.158-26.749 2.518-28.476 3.801-65.38 12.634-107.468 26.131-28.476 9.132-57.068 31.345-76.354 61.258-13.519 20.97-28.637 28.246-59.344 34.807-29.097 9.293-62.66 19.82-96.142 24.642C121.31 769.212 11.155 725.092 2.9 617.943" stroke="url(#paint97_linear_9_1525)"/><path opacity=".5" d="M800.39 347.993c-3.619-2.252-14.125 46.339-39.595 104.514-6.548 14.954-13.511 31.087-20.963 46.892-9.949 21.116-22.154 41.558-37.005 59.236-15.549 18.561-34.62 34.617-55.914 43.567-15.311 6.481-31.478 8.526-45.954 9.116-3.498.141-6.988.334-10.566.5-4.478.032-9.276-.012-14.617.101-8.081.169-17.53.375-28.004 1.239-29.085 2.392-65.771 9.583-107.581 25.062-27.277 10.1-55.148 31.704-76.273 61.798-14.685 20.922-31.961 30.421-61.619 38.128-29.267 10.1-62.83 19.627-96.187 23.29-89.999 9.887-196.418-35.977-203.684-141.302" stroke="url(#paint98_linear_9_1525)"/><path opacity=".5" d="M799.269 345.661c-2.413-1.501-11.531 49.692-35.972 109.38-6.185 15.107-12.979 31.135-20.463 46.816-9.978 20.934-22.11 41.202-36.767 58.824-15.412 18.573-34.031 34.569-55.116 44.221-15.182 6.98-31.445 10.192-47.143 11.282-3.785.274-7.597.508-11.499.662-4.902.008-10.131-.154-15.831-.255-8.667-.157-18.495-.399-29.263-.04-29.718.993-66.243 6.46-107.69 23.997-26.127 11.056-53.231 32.091-76.188 62.339-15.863 20.902-35.29 32.595-63.891 41.453-29.436 10.911-62.963 19.409-96.235 21.943-92.25 7.021-194.985-40.453-201.255-143.958" stroke="url(#paint99_linear_9_1525)"/><path opacity=".5" d="M798.147 343.332c-1.206-.75-8.973 53.046-32.349 114.251-5.83 15.265-12.45 31.179-19.959 46.743-10.009 20.749-22.068 40.848-36.524 58.412-15.279 18.582-33.438 34.521-54.317 44.875-15.049 7.481-31.413 11.823-48.338 13.453-4.071.396-8.202.678-12.434.819-5.322-.016-10.982-.294-17.046-.613-9.251-.484-19.471-1.174-30.517-1.319-30.376-.4-66.8 3.268-107.803 22.931-25.034 12.005-51.327 32.511-76.108 62.88-17.058 20.906-38.618 34.77-66.166 44.773-29.605 11.723-63.056 19.175-96.28 20.592-94.436 4.035-193.549-44.927-198.83-146.613" stroke="url(#paint100_linear_9_1525)"/><path opacity=".5" d="M797.026 341s-32.119 281.136-200.88 285.925c-52.989-.371-135.528-31.078-233.971 81.72C263.733 821.447 8.077 791.518 1 626.724" stroke="url(#paint101_linear_9_1525)"/></g><defs><linearGradient id="paint0_linear_9_1525" x1="721.441" y1="82.123" x2="412.976" y2="389.411" gradientUnits="userSpaceOnUse"><stop stop-color="#1BA4E5" stop-opacity=".5"/><stop offset="1" stop-color="#B40FE7"/></linearGradient><linearGradient id="paint1_linear_9_1525" x1="722.432" y1="76.844" x2="412.473" y2="385.62" gradientUnits="userSpaceOnUse"><stop stop-color="#1BA4E5" stop-opacity=".5"/><stop offset="1" stop-color="#B40FE7"/></linearGradient><linearGradient id="paint2_linear_9_1525" x1="723.372" y1="71.515" x2="411.919" y2="381.779" gradientUnits="userSpaceOnUse"><stop stop-color="#1BA4E5" stop-opacity=".5"/><stop offset="1" stop-color="#B40FE7"/></linearGradient><linearGradient id="paint3_linear_9_1525" x1="724.261" y1="66.136" x2="411.316" y2="377.887" gradientUnits="userSpaceOnUse"><stop stop-color="#1BA4E5" stop-opacity=".5"/><stop offset="1" stop-color="#B40FE7"/></linearGradient><linearGradient id="paint4_linear_9_1525" x1="725.101" y1="60.708" x2="410.663" y2="373.946" gradientUnits="userSpaceOnUse"><stop stop-color="#1BA4E5" stop-opacity=".5"/><stop offset="1" stop-color="#B40FE7"/></linearGradient><linearGradient id="paint5_linear_9_1525" x1="725.893" y1="55.231" x2="409.962" y2="369.956" gradientUnits="userSpaceOnUse"><stop stop-color="#1BA4E5" stop-opacity=".5"/><stop offset="1" stop-color="#B40FE7"/></linearGradient><linearGradient id="paint6_linear_9_1525" x1="726.656" y1="49.726" x2="409.23" y2="365.94" gradientUnits="userSpaceOnUse"><stop stop-color="#1BA4E5" stop-opacity=".5"/><stop offset="1" stop-color="#B40FE7"/></linearGradient><linearGradient id="paint7_linear_9_1525" x1="727.418" y1="44.221" x2="408.497" y2="361.925" gradientUnits="userSpaceOnUse"><stop stop-color="#1BA4E5" stop-opacity=".5"/><stop offset="1" stop-color="#B40FE7"/></linearGradient><linearGradient id="paint8_linear_9_1525" x1="728.18" y1="38.717" x2="407.764" y2="357.909" gradientUnits="userSpaceOnUse"><stop stop-color="#1BA4E5" stop-opacity=".5"/><stop offset="1" stop-color="#B40FE7"/></linearGradient><linearGradient id="paint9_linear_9_1525" x1="728.941" y1="33.212" x2="407.031" y2="353.893" gradientUnits="userSpaceOnUse"><stop stop-color="#1BA4E5" stop-opacity=".5"/><stop offset="1" stop-color="#B40FE7"/></linearGradient><linearGradient id="paint10_linear_9_1525" x1="729.725" y1="27.723" x2="406.317" y2="349.896" gradientUnits="userSpaceOnUse"><stop stop-color="#1BA4E5" stop-opacity=".5"/><stop offset="1" stop-color="#B40FE7"/></linearGradient><linearGradient id="paint11_linear_9_1525" x1="730.753" y1="22.466" x2="405.841" y2="346.138" gradientUnits="userSpaceOnUse"><stop stop-color="#1BA4E5" stop-opacity=".5"/><stop offset="1" stop-color="#B40FE7"/></linearGradient><linearGradient id="paint12_linear_9_1525" x1="732.032" y1="17.46" x2="405.615" y2="342.63" gradientUnits="userSpaceOnUse"><stop stop-color="#1BA4E5" stop-opacity=".5"/><stop offset="1" stop-color="#B40FE7"/></linearGradient><linearGradient id="paint13_linear_9_1525" x1="733.51" y1="12.655" x2="405.589" y2="339.324" gradientUnits="userSpaceOnUse"><stop stop-color="#1BA4E5" stop-opacity=".5"/><stop offset="1" stop-color="#B40FE7"/></linearGradient><linearGradient id="paint14_linear_9_1525" x1="735.152" y1="8.014" x2="405.727" y2="336.182" gradientUnits="userSpaceOnUse"><stop stop-color="#1BA4E5" stop-opacity=".5"/><stop offset="1" stop-color="#B40FE7"/></linearGradient><linearGradient id="paint15_linear_9_1525" x1="736.929" y1="3.509" x2="406" y2="333.175" gradientUnits="userSpaceOnUse"><stop stop-color="#1BA4E5" stop-opacity=".5"/><stop offset="1" stop-color="#B40FE7"/></linearGradient><linearGradient id="paint16_linear_9_1525" x1="738.819" y1="-.882" x2="406.386" y2="330.282" gradientUnits="userSpaceOnUse"><stop stop-color="#1BA4E5" stop-opacity=".5"/><stop offset="1" stop-color="#B40FE7"/></linearGradient><linearGradient id="paint17_linear_9_1525" x1="740.804" y1="-5.176" x2="406.868" y2="327.485" gradientUnits="userSpaceOnUse"><stop stop-color="#1BA4E5" stop-opacity=".5"/><stop offset="1" stop-color="#B40FE7"/></linearGradient><linearGradient id="paint18_linear_9_1525" x1="742.872" y1="-9.389" x2="407.432" y2="324.77" gradientUnits="userSpaceOnUse"><stop stop-color="#1BA4E5" stop-opacity=".5"/><stop offset="1" stop-color="#B40FE7"/></linearGradient><linearGradient id="paint19_linear_9_1525" x1="745.008" y1="-13.53" x2="408.066" y2="322.126" gradientUnits="userSpaceOnUse"><stop stop-color="#1BA4E5" stop-opacity=".5"/><stop offset="1" stop-color="#B40FE7"/></linearGradient><linearGradient id="paint20_linear_9_1525" x1="744.566" y1="-12.255" x2="410.21" y2="320.824" gradientUnits="userSpaceOnUse"><stop stop-color="#1BA4E5" stop-opacity=".5"/><stop offset="1" stop-color="#B40FE7"/></linearGradient><linearGradient id="paint21_linear_9_1525" x1="744.13" y1="-10.975" x2="412.361" y2="319.527" gradientUnits="userSpaceOnUse"><stop stop-color="#1BA4E5" stop-opacity=".5"/><stop offset="1" stop-color="#B40FE7"/></linearGradient><linearGradient id="paint22_linear_9_1525" x1="743.698" y1="-9.69" x2="414.516" y2="318.235" gradientUnits="userSpaceOnUse"><stop stop-color="#1BA4E5" stop-opacity=".5"/><stop offset="1" stop-color="#B40FE7"/></linearGradient><linearGradient id="paint23_linear_9_1525" x1="743.272" y1="-8.4" x2="416.677" y2="316.948" gradientUnits="userSpaceOnUse"><stop stop-color="#1BA4E5" stop-opacity=".5"/><stop offset="1" stop-color="#B40FE7"/></linearGradient><linearGradient id="paint24_linear_9_1525" x1="742.852" y1="-7.103" x2="418.844" y2="315.668" gradientUnits="userSpaceOnUse"><stop stop-color="#1BA4E5" stop-opacity=".5"/><stop offset="1" stop-color="#B40FE7"/></linearGradient><linearGradient id="paint25_linear_9_1525" x1="742.439" y1="-5.8" x2="421.018" y2="314.393" gradientUnits="userSpaceOnUse"><stop stop-color="#1BA4E5" stop-opacity=".5"/><stop offset="1" stop-color="#B40FE7"/></linearGradient><linearGradient id="paint26_linear_9_1525" x1="742.031" y1="-4.491" x2="423.197" y2="313.126" gradientUnits="userSpaceOnUse"><stop stop-color="#1BA4E5" stop-opacity=".5"/><stop offset="1" stop-color="#B40FE7"/></linearGradient><linearGradient id="paint27_linear_9_1525" x1="741.631" y1="-3.174" x2="425.384" y2="311.865" gradientUnits="userSpaceOnUse"><stop stop-color="#1BA4E5" stop-opacity=".5"/><stop offset="1" stop-color="#B40FE7"/></linearGradient><linearGradient id="paint28_linear_9_1525" x1="741.237" y1="-1.851" x2="427.578" y2="310.611" gradientUnits="userSpaceOnUse"><stop stop-color="#1BA4E5" stop-opacity=".5"/><stop offset="1" stop-color="#B40FE7"/></linearGradient><linearGradient id="paint29_linear_9_1525" x1="740.852" y1="-.52" x2="429.779" y2="309.365" gradientUnits="userSpaceOnUse"><stop stop-color="#1BA4E5" stop-opacity=".5"/><stop offset="1" stop-color="#B40FE7"/></linearGradient><linearGradient id="paint30_linear_9_1525" x1="740.473" y1=".819" x2="431.988" y2="308.127" gradientUnits="userSpaceOnUse"><stop stop-color="#1BA4E5" stop-opacity=".5"/><stop offset="1" stop-color="#B40FE7"/></linearGradient><linearGradient id="paint31_linear_9_1525" x1="740.104" y1="2.165" x2="434.205" y2="306.896" gradientUnits="userSpaceOnUse"><stop stop-color="#1BA4E5" stop-opacity=".5"/><stop offset="1" stop-color="#B40FE7"/></linearGradient><linearGradient id="paint32_linear_9_1525" x1="739.741" y1="3.52" x2="436.429" y2="305.674" gradientUnits="userSpaceOnUse"><stop stop-color="#1BA4E5" stop-opacity=".5"/><stop offset="1" stop-color="#B40FE7"/></linearGradient><linearGradient id="paint33_linear_9_1525" x1="739.387" y1="4.883" x2="438.663" y2="304.46" gradientUnits="userSpaceOnUse"><stop stop-color="#1BA4E5" stop-opacity=".5"/><stop offset="1" stop-color="#B40FE7"/></linearGradient><linearGradient id="paint34_linear_9_1525" x1="739.042" y1="6.255" x2="440.904" y2="303.254" gradientUnits="userSpaceOnUse"><stop stop-color="#1BA4E5" stop-opacity=".5"/><stop offset="1" stop-color="#B40FE7"/></linearGradient><linearGradient id="paint35_linear_9_1525" x1="738.705" y1="7.635" x2="439.282" y2="305.915" gradientUnits="userSpaceOnUse"><stop stop-color="#1BA4E5" stop-opacity=".5"/><stop offset="1" stop-color="#B40FE7"/></linearGradient><linearGradient id="paint36_linear_9_1525" x1="738.378" y1="9.024" x2="437.141" y2="309.11" gradientUnits="userSpaceOnUse"><stop stop-color="#1BA4E5" stop-opacity=".5"/><stop offset="1" stop-color="#B40FE7"/></linearGradient><linearGradient id="paint37_linear_9_1525" x1="738.058" y1="10.421" x2="435.006" y2="312.316" gradientUnits="userSpaceOnUse"><stop stop-color="#1BA4E5" stop-opacity=".5"/><stop offset="1" stop-color="#B40FE7"/></linearGradient><linearGradient id="paint38_linear_9_1525" x1="737.747" y1="11.827" x2="432.876" y2="315.534" gradientUnits="userSpaceOnUse"><stop stop-color="#1BA4E5" stop-opacity=".5"/><stop offset="1" stop-color="#B40FE7"/></linearGradient><linearGradient id="paint39_linear_9_1525" x1="737.445" y1="13.242" x2="430.752" y2="318.764" gradientUnits="userSpaceOnUse"><stop stop-color="#1BA4E5" stop-opacity=".5"/><stop offset="1" stop-color="#B40FE7"/></linearGradient><linearGradient id="paint40_linear_9_1525" x1="737.151" y1="14.664" x2="428.631" y2="322.005" gradientUnits="userSpaceOnUse"><stop stop-color="#1BA4E5" stop-opacity=".5"/><stop offset="1" stop-color="#B40FE7"/></linearGradient><linearGradient id="paint41_linear_9_1525" x1="736.864" y1="16.094" x2="426.515" y2="325.258" gradientUnits="userSpaceOnUse"><stop stop-color="#1BA4E5" stop-opacity=".5"/><stop offset="1" stop-color="#B40FE7"/></linearGradient><linearGradient id="paint42_linear_9_1525" x1="736.585" y1="17.532" x2="424.402" y2="328.523" gradientUnits="userSpaceOnUse"><stop stop-color="#1BA4E5" stop-opacity=".5"/><stop offset="1" stop-color="#B40FE7"/></linearGradient><linearGradient id="paint43_linear_9_1525" x1="736.312" y1="18.976" x2="422.291" y2="331.799" gradientUnits="userSpaceOnUse"><stop stop-color="#1BA4E5" stop-opacity=".5"/><stop offset="1" stop-color="#B40FE7"/></linearGradient><linearGradient id="paint44_linear_9_1525" x1="736.046" y1="20.427" x2="420.18" y2="335.087" gradientUnits="userSpaceOnUse"><stop stop-color="#1BA4E5" stop-opacity=".5"/><stop offset="1" stop-color="#B40FE7"/></linearGradient><linearGradient id="paint45_linear_9_1525" x1="735.785" y1="21.883" x2="418.069" y2="338.386" gradientUnits="userSpaceOnUse"><stop stop-color="#1BA4E5" stop-opacity=".5"/><stop offset="1" stop-color="#B40FE7"/></linearGradient><linearGradient id="paint46_linear_9_1525" x1="735.53" y1="23.345" x2="415.954" y2="341.701" gradientUnits="userSpaceOnUse"><stop stop-color="#1BA4E5" stop-opacity=".5"/><stop offset="1" stop-color="#B40FE7"/></linearGradient><linearGradient id="paint47_linear_9_1525" x1="735.279" y1="24.811" x2="413.839" y2="345.024" gradientUnits="userSpaceOnUse"><stop stop-color="#1BA4E5" stop-opacity=".5"/><stop offset="1" stop-color="#B40FE7"/></linearGradient><linearGradient id="paint48_linear_9_1525" x1="735.033" y1="26.281" x2="411.72" y2="348.36" gradientUnits="userSpaceOnUse"><stop stop-color="#1BA4E5" stop-opacity=".5"/><stop offset="1" stop-color="#B40FE7"/></linearGradient><linearGradient id="paint49_linear_9_1525" x1="734.79" y1="27.755" x2="409.595" y2="351.709" gradientUnits="userSpaceOnUse"><stop stop-color="#1BA4E5" stop-opacity=".5"/><stop offset="1" stop-color="#B40FE7"/></linearGradient><linearGradient id="paint50_linear_9_1525" x1="734.566" y1="29.248" x2="407.477" y2="355.088" gradientUnits="userSpaceOnUse"><stop stop-color="#1BA4E5" stop-opacity=".5"/><stop offset="1" stop-color="#B40FE7"/></linearGradient><linearGradient id="paint51_linear_9_1525" x1="270.507" y1="422.123" x2="578.973" y2="729.411" gradientUnits="userSpaceOnUse"><stop stop-color="#1BA4E5" stop-opacity=".5"/><stop offset="1" stop-color="#B40FE7"/></linearGradient><linearGradient id="paint52_linear_9_1525" x1="269.516" y1="416.844" x2="579.475" y2="725.62" gradientUnits="userSpaceOnUse"><stop stop-color="#1BA4E5" stop-opacity=".5"/><stop offset="1" stop-color="#B40FE7"/></linearGradient><linearGradient id="paint53_linear_9_1525" x1="268.577" y1="411.515" x2="580.029" y2="721.779" gradientUnits="userSpaceOnUse"><stop stop-color="#1BA4E5" stop-opacity=".5"/><stop offset="1" stop-color="#B40FE7"/></linearGradient><linearGradient id="paint54_linear_9_1525" x1="267.687" y1="406.136" x2="580.633" y2="717.887" gradientUnits="userSpaceOnUse"><stop stop-color="#1BA4E5" stop-opacity=".5"/><stop offset="1" stop-color="#B40FE7"/></linearGradient><linearGradient id="paint55_linear_9_1525" x1="266.847" y1="400.708" x2="581.285" y2="713.946" gradientUnits="userSpaceOnUse"><stop stop-color="#1BA4E5" stop-opacity=".5"/><stop offset="1" stop-color="#B40FE7"/></linearGradient><linearGradient id="paint56_linear_9_1525" x1="266.056" y1="395.231" x2="581.987" y2="709.956" gradientUnits="userSpaceOnUse"><stop stop-color="#1BA4E5" stop-opacity=".5"/><stop offset="1" stop-color="#B40FE7"/></linearGradient><linearGradient id="paint57_linear_9_1525" x1="265.293" y1="389.726" x2="582.719" y2="705.94" gradientUnits="userSpaceOnUse"><stop stop-color="#1BA4E5" stop-opacity=".5"/><stop offset="1" stop-color="#B40FE7"/></linearGradient><linearGradient id="paint58_linear_9_1525" x1="264.53" y1="384.221" x2="583.451" y2="701.925" gradientUnits="userSpaceOnUse"><stop stop-color="#1BA4E5" stop-opacity=".5"/><stop offset="1" stop-color="#B40FE7"/></linearGradient><linearGradient id="paint59_linear_9_1525" x1="263.769" y1="378.717" x2="584.184" y2="697.909" gradientUnits="userSpaceOnUse"><stop stop-color="#1BA4E5" stop-opacity=".5"/><stop offset="1" stop-color="#B40FE7"/></linearGradient><linearGradient id="paint60_linear_9_1525" x1="263.007" y1="373.212" x2="584.917" y2="693.893" gradientUnits="userSpaceOnUse"><stop stop-color="#1BA4E5" stop-opacity=".5"/><stop offset="1" stop-color="#B40FE7"/></linearGradient><linearGradient id="paint61_linear_9_1525" x1="262.223" y1="367.723" x2="585.631" y2="689.896" gradientUnits="userSpaceOnUse"><stop stop-color="#1BA4E5" stop-opacity=".5"/><stop offset="1" stop-color="#B40FE7"/></linearGradient><linearGradient id="paint62_linear_9_1525" x1="261.195" y1="362.466" x2="586.107" y2="686.138" gradientUnits="userSpaceOnUse"><stop stop-color="#1BA4E5" stop-opacity=".5"/><stop offset="1" stop-color="#B40FE7"/></linearGradient><linearGradient id="paint63_linear_9_1525" x1="259.917" y1="357.46" x2="586.334" y2="682.63" gradientUnits="userSpaceOnUse"><stop stop-color="#1BA4E5" stop-opacity=".5"/><stop offset="1" stop-color="#B40FE7"/></linearGradient><linearGradient id="paint64_linear_9_1525" x1="258.438" y1="352.655" x2="586.359" y2="679.324" gradientUnits="userSpaceOnUse"><stop stop-color="#1BA4E5" stop-opacity=".5"/><stop offset="1" stop-color="#B40FE7"/></linearGradient><linearGradient id="paint65_linear_9_1525" x1="256.796" y1="348.014" x2="586.221" y2="676.182" gradientUnits="userSpaceOnUse"><stop stop-color="#1BA4E5" stop-opacity=".5"/><stop offset="1" stop-color="#B40FE7"/></linearGradient><linearGradient id="paint66_linear_9_1525" x1="255.019" y1="343.509" x2="585.949" y2="673.175" gradientUnits="userSpaceOnUse"><stop stop-color="#1BA4E5" stop-opacity=".5"/><stop offset="1" stop-color="#B40FE7"/></linearGradient><linearGradient id="paint67_linear_9_1525" x1="253.13" y1="339.118" x2="585.562" y2="670.282" gradientUnits="userSpaceOnUse"><stop stop-color="#1BA4E5" stop-opacity=".5"/><stop offset="1" stop-color="#B40FE7"/></linearGradient><linearGradient id="paint68_linear_9_1525" x1="251.144" y1="334.824" x2="585.08" y2="667.485" gradientUnits="userSpaceOnUse"><stop stop-color="#1BA4E5" stop-opacity=".5"/><stop offset="1" stop-color="#B40FE7"/></linearGradient><linearGradient id="paint69_linear_9_1525" x1="249.077" y1="330.611" x2="584.517" y2="664.77" gradientUnits="userSpaceOnUse"><stop stop-color="#1BA4E5" stop-opacity=".5"/><stop offset="1" stop-color="#B40FE7"/></linearGradient><linearGradient id="paint70_linear_9_1525" x1="246.94" y1="326.47" x2="583.883" y2="662.126" gradientUnits="userSpaceOnUse"><stop stop-color="#1BA4E5" stop-opacity=".5"/><stop offset="1" stop-color="#B40FE7"/></linearGradient><linearGradient id="paint71_linear_9_1525" x1="247.382" y1="327.745" x2="581.737" y2="660.824" gradientUnits="userSpaceOnUse"><stop stop-color="#1BA4E5" stop-opacity=".5"/><stop offset="1" stop-color="#B40FE7"/></linearGradient><linearGradient id="paint72_linear_9_1525" x1="247.819" y1="329.024" x2="579.587" y2="659.526" gradientUnits="userSpaceOnUse"><stop stop-color="#1BA4E5" stop-opacity=".5"/><stop offset="1" stop-color="#B40FE7"/></linearGradient><linearGradient id="paint73_linear_9_1525" x1="248.25" y1="330.31" x2="577.432" y2="658.235" gradientUnits="userSpaceOnUse"><stop stop-color="#1BA4E5" stop-opacity=".5"/><stop offset="1" stop-color="#B40FE7"/></linearGradient><linearGradient id="paint74_linear_9_1525" x1="248.676" y1="331.6" x2="575.271" y2="656.948" gradientUnits="userSpaceOnUse"><stop stop-color="#1BA4E5" stop-opacity=".5"/><stop offset="1" stop-color="#B40FE7"/></linearGradient><linearGradient id="paint75_linear_9_1525" x1="249.096" y1="332.897" x2="573.104" y2="655.668" gradientUnits="userSpaceOnUse"><stop stop-color="#1BA4E5" stop-opacity=".5"/><stop offset="1" stop-color="#B40FE7"/></linearGradient><linearGradient id="paint76_linear_9_1525" x1="249.51" y1="334.2" x2="570.93" y2="654.393" gradientUnits="userSpaceOnUse"><stop stop-color="#1BA4E5" stop-opacity=".5"/><stop offset="1" stop-color="#B40FE7"/></linearGradient><linearGradient id="paint77_linear_9_1525" x1="249.917" y1="335.509" x2="568.751" y2="653.126" gradientUnits="userSpaceOnUse"><stop stop-color="#1BA4E5" stop-opacity=".5"/><stop offset="1" stop-color="#B40FE7"/></linearGradient><linearGradient id="paint78_linear_9_1525" x1="250.318" y1="336.826" x2="566.564" y2="651.865" gradientUnits="userSpaceOnUse"><stop stop-color="#1BA4E5" stop-opacity=".5"/><stop offset="1" stop-color="#B40FE7"/></linearGradient><linearGradient id="paint79_linear_9_1525" x1="250.71" y1="338.149" x2="564.37" y2="650.611" gradientUnits="userSpaceOnUse"><stop stop-color="#1BA4E5" stop-opacity=".5"/><stop offset="1" stop-color="#B40FE7"/></linearGradient><linearGradient id="paint80_linear_9_1525" x1="251.097" y1="339.48" x2="562.169" y2="649.365" gradientUnits="userSpaceOnUse"><stop stop-color="#1BA4E5" stop-opacity=".5"/><stop offset="1" stop-color="#B40FE7"/></linearGradient><linearGradient id="paint81_linear_9_1525" x1="251.475" y1="340.819" x2="559.961" y2="648.127" gradientUnits="userSpaceOnUse"><stop stop-color="#1BA4E5" stop-opacity=".5"/><stop offset="1" stop-color="#B40FE7"/></linearGradient><linearGradient id="paint82_linear_9_1525" x1="251.845" y1="342.165" x2="557.743" y2="646.896" gradientUnits="userSpaceOnUse"><stop stop-color="#1BA4E5" stop-opacity=".5"/><stop offset="1" stop-color="#B40FE7"/></linearGradient><linearGradient id="paint83_linear_9_1525" x1="252.207" y1="343.52" x2="555.519" y2="645.674" gradientUnits="userSpaceOnUse"><stop stop-color="#1BA4E5" stop-opacity=".5"/><stop offset="1" stop-color="#B40FE7"/></linearGradient><linearGradient id="paint84_linear_9_1525" x1="252.561" y1="344.883" x2="553.286" y2="644.46" gradientUnits="userSpaceOnUse"><stop stop-color="#1BA4E5" stop-opacity=".5"/><stop offset="1" stop-color="#B40FE7"/></linearGradient><linearGradient id="paint85_linear_9_1525" x1="252.906" y1="346.255" x2="551.044" y2="643.254" gradientUnits="userSpaceOnUse"><stop stop-color="#1BA4E5" stop-opacity=".5"/><stop offset="1" stop-color="#B40FE7"/></linearGradient><linearGradient id="paint86_linear_9_1525" x1="253.243" y1="347.635" x2="552.666" y2="645.915" gradientUnits="userSpaceOnUse"><stop stop-color="#1BA4E5" stop-opacity=".5"/><stop offset="1" stop-color="#B40FE7"/></linearGradient><linearGradient id="paint87_linear_9_1525" x1="253.571" y1="349.024" x2="554.807" y2="649.11" gradientUnits="userSpaceOnUse"><stop stop-color="#1BA4E5" stop-opacity=".5"/><stop offset="1" stop-color="#B40FE7"/></linearGradient><linearGradient id="paint88_linear_9_1525" x1="253.89" y1="350.421" x2="556.942" y2="652.316" gradientUnits="userSpaceOnUse"><stop stop-color="#1BA4E5" stop-opacity=".5"/><stop offset="1" stop-color="#B40FE7"/></linearGradient><linearGradient id="paint89_linear_9_1525" x1="254.201" y1="351.827" x2="559.072" y2="655.534" gradientUnits="userSpaceOnUse"><stop stop-color="#1BA4E5" stop-opacity=".5"/><stop offset="1" stop-color="#B40FE7"/></linearGradient><linearGradient id="paint90_linear_9_1525" x1="254.503" y1="353.241" x2="561.197" y2="658.764" gradientUnits="userSpaceOnUse"><stop stop-color="#1BA4E5" stop-opacity=".5"/><stop offset="1" stop-color="#B40FE7"/></linearGradient><linearGradient id="paint91_linear_9_1525" x1="254.798" y1="354.664" x2="563.317" y2="662.005" gradientUnits="userSpaceOnUse"><stop stop-color="#1BA4E5" stop-opacity=".5"/><stop offset="1" stop-color="#B40FE7"/></linearGradient><linearGradient id="paint92_linear_9_1525" x1="255.084" y1="356.094" x2="565.433" y2="665.258" gradientUnits="userSpaceOnUse"><stop stop-color="#1BA4E5" stop-opacity=".5"/><stop offset="1" stop-color="#B40FE7"/></linearGradient><linearGradient id="paint93_linear_9_1525" x1="255.363" y1="357.532" x2="567.546" y2="668.523" gradientUnits="userSpaceOnUse"><stop stop-color="#1BA4E5" stop-opacity=".5"/><stop offset="1" stop-color="#B40FE7"/></linearGradient><linearGradient id="paint94_linear_9_1525" x1="255.636" y1="358.976" x2="569.658" y2="671.799" gradientUnits="userSpaceOnUse"><stop stop-color="#1BA4E5" stop-opacity=".5"/><stop offset="1" stop-color="#B40FE7"/></linearGradient><linearGradient id="paint95_linear_9_1525" x1="255.902" y1="360.427" x2="571.768" y2="675.087" gradientUnits="userSpaceOnUse"><stop stop-color="#1BA4E5" stop-opacity=".5"/><stop offset="1" stop-color="#B40FE7"/></linearGradient><linearGradient id="paint96_linear_9_1525" x1="256.163" y1="361.883" x2="573.879" y2="678.386" gradientUnits="userSpaceOnUse"><stop stop-color="#1BA4E5" stop-opacity=".5"/><stop offset="1" stop-color="#B40FE7"/></linearGradient><linearGradient id="paint97_linear_9_1525" x1="256.418" y1="363.345" x2="575.994" y2="681.701" gradientUnits="userSpaceOnUse"><stop stop-color="#1BA4E5" stop-opacity=".5"/><stop offset="1" stop-color="#B40FE7"/></linearGradient><linearGradient id="paint98_linear_9_1525" x1="256.669" y1="364.811" x2="578.109" y2="685.024" gradientUnits="userSpaceOnUse"><stop stop-color="#1BA4E5" stop-opacity=".5"/><stop offset="1" stop-color="#B40FE7"/></linearGradient><linearGradient id="paint99_linear_9_1525" x1="256.915" y1="366.281" x2="580.229" y2="688.36" gradientUnits="userSpaceOnUse"><stop stop-color="#1BA4E5" stop-opacity=".5"/><stop offset="1" stop-color="#B40FE7"/></linearGradient><linearGradient id="paint100_linear_9_1525" x1="257.158" y1="367.755" x2="582.354" y2="691.709" gradientUnits="userSpaceOnUse"><stop stop-color="#1BA4E5" stop-opacity=".5"/><stop offset="1" stop-color="#B40FE7"/></linearGradient><linearGradient id="paint101_linear_9_1525" x1="257.382" y1="369.248" x2="584.472" y2="695.088" gradientUnits="userSpaceOnUse"><stop stop-color="#1BA4E5" stop-opacity=".5"/><stop offset="1" stop-color="#B40FE7"/></linearGradient></defs></svg>