<svg width="1920" height="1080" fill="none" xmlns="http://www.w3.org/2000/svg"><g opacity=".5" stroke-width=".566" stroke-miterlimit="10"><path opacity=".5" d="M-49 316.837c68.8-81.312 174.9-186.828 279.03-214.402 44.96-11.902 82.35-7.251 119.72 4.551 20.71 6.621 42.78 16.022 66.63 27.684 36.67 17.922 69.45 40.606 99.75 66.2 52.77 44.336 103.13 103.245 145.37 137.84 29.57 24.234 49.21 27.764 44.47 45.067-4.02 14.652-7.16 39.766-3.18 67.19 3.86 26.614 17.39 54.078 37.09 76.661 25.8 29.574 59.67 50.958 97.13 62.549 61.97 19.193 132.08 12.752 197.2-20.603 104.87-53.368 186.07-69.97 236.23-41.106 3.48 2.001 6.23 4.661 8.19 7.271 6.26 8.311 9.49 15.003 11.91 21.353 6.86 17.953-6.4 48.278-13.54 35.856-3.4-.73-5.92-2.801-7.43-5.861-12.68-14.642-4.03-46.197 33.66-56.609 30.95-8.551 77.7-5.67 107.13 31.125 10.49 13.092 18.14 28.284 23.95 45.167 49.39 144.151 132.7 373.135 573.2 245.566" stroke="url(#paint0_linear_2_109)"/><path opacity=".5" d="M-48.07 309.636c70.06-80.062 178.41-183.917 282.74-207.261 45.14-10.101 81.74-3.06 118 10.702 20.12 7.631 41.6 17.972 64.93 30.314 35.75 18.903 68.13 42.126 98.4 67.85 52.52 44.387 104.37 102.505 147.94 133.87 30.49 21.973 53.5 22.433 43.77 35.955-2.82 13.312-10.23 37.176-7.56 64.46 2.59 26.524 15.2 54.398 34.2 77.461 24.94 30.255 58.16 52.438 95.16 64.87 61.45 20.653 131.79 15.502 197.3-17.963 106.72-54.168 188.81-64.469 234.57-33.705 3.26 2.191 5.67 5.041 7.24 7.741 5.16 8.852 6.96 15.273 8.47 20.914 4.32 16.082-8.97 40.936-11.55 26.734-2.85-.911-4.81-3.081-5.77-6.171-10.34-14.723-.05-44.017 37.99-52.538 30.84-6.911 76.79-2.741 106.23 34.165 10.46 13.082 18.22 28.204 24.22 44.976 51.04 143.172 156.57 365.155 578.46 223.904" stroke="url(#paint1_linear_2_109)"/><path opacity=".5" d="M-47.13 302.435c71.32-78.812 181.92-180.997 286.45-200.13 45.32-8.291 81.12 1.2 116.27 16.843 19.52 8.681 40.41 19.922 63.23 32.944 34.83 19.883 66.8 43.647 97.04 69.501 52.27 44.436 105.62 101.765 150.5 129.909 31.41 19.723 54.99 16.082 43.07 26.844-4.11 11.512-13.31 34.585-11.95 61.719 1.32 26.434 13 54.728 31.32 78.262 24.07 30.944 56.64 53.918 93.19 67.19 60.92 22.123 131.51 18.252 197.41-15.333 108.58-54.978 191.55-58.798 232.92-26.314 3.04 2.391 5.09 5.431 6.28 8.202 4.04 9.431 4.42 15.512 5.03 20.473 1.75 14.162-11.55 33.585-9.56 17.612-2.29-1.09-3.69-3.36-4.12-6.481-8-14.812 3.93-41.856 42.33-48.457 30.72-5.281 75.87.19 105.34 37.216 10.42 13.062 18.29 28.124 24.49 44.786 52.69 142.191 180.45 357.163 583.73 202.24" stroke="url(#paint2_linear_2_109)"/><path opacity=".5" d="M-46.2 295.234c72.58-77.572 185.44-178.067 290.17-192.989 45.5-6.481 80.49 5.471 114.54 22.993 18.92 9.732 39.23 21.874 61.53 35.586 33.91 20.853 65.47 45.166 95.69 71.15 52.02 44.497 106.87 101.025 153.06 125.949 32.33 17.462 56.48 9.731 42.36 17.742-5.4 9.712-16.38 32.005-16.34 58.989.04 26.354 10.81 55.048 28.43 79.062 23.21 31.625 55.13 55.408 91.22 69.51 60.39 23.604 131.22 21.003 197.51-12.692 110.43-55.788 194.26-52.968 231.26-18.913 2.82 2.591 4.51 5.821 5.33 8.672 2.88 10.031 1.88 15.722 1.59 20.033-.81 12.172-14.12 26.244-7.57 8.491-1.73-1.27-2.58-3.641-2.46-6.791-5.66-14.902 7.89-39.726 46.66-44.387 30.6-3.68 74.96 3.111 104.44 40.256 10.39 13.052 18.36 28.045 24.76 44.607 54.34 141.211 204.33 349.182 588.99 180.577" stroke="url(#paint3_linear_2_109)"/><path opacity=".5" d="M-45.26 288.042c73.83-76.321 188.96-175.126 293.88-185.857 45.68-4.67 79.86 9.731 112.81 29.144 18.32 10.792 38.05 23.824 59.83 38.216 33 21.823 64.15 46.687 94.33 72.801 51.77 44.546 108.12 100.294 155.63 121.988 33.25 15.202 57.97 3.37 41.66 8.631-6.69 7.911-19.46 29.414-20.73 56.248-1.24 26.264 8.61 55.369 25.54 79.862 22.34 32.315 53.62 56.899 89.26 71.831 59.86 25.083 130.94 23.753 197.61-10.062 112.28-56.588 196.9-46.967 229.6-11.521 2.59 2.81 3.91 6.221 4.37 9.141 1.67 10.642-.64 15.902-1.85 19.603-3.3 10.071-16.69 18.893-5.58-.62-1.17-1.45-1.47-3.921-.81-7.101-3.31-14.992 11.85-37.616 50.99-40.316 30.47-2.101 74.05 6.041 103.55 43.306 10.35 13.042 18.44 27.964 25.03 44.417 55.99 140.23 228.21 341.2 594.25 158.913" stroke="url(#paint4_linear_2_109)"/><path opacity=".5" d="M-44.33 280.841c75.09-75.071 192.48-172.185 297.59-178.716 45.86-2.85 79.23 14.002 111.09 35.285 17.72 11.842 36.87 25.764 58.12 40.856 32.09 22.784 62.82 48.197 92.98 74.451 51.52 44.597 109.37 99.555 158.19 118.028 34.17 12.942 59.46-2.981 40.96-.48-7.98 6.11-22.55 26.824-25.12 53.517-2.52 26.174 6.41 55.699 22.65 80.662 21.48 33.005 52.1 58.399 87.29 74.151 59.33 26.574 130.65 26.504 197.72-7.431 114.14-57.398 199.44-40.806 227.94-4.12 2.37 3.04 3.3 6.621 3.41 9.601.41 11.252-3.09 16.053-5.29 19.163-5.61 7.931-19.27 11.542-3.58-9.741-.61-1.631-.36-4.201.85-7.412-.97-15.082 15.81-35.535 55.33-36.245 30.34-.54 73.13 8.971 102.65 46.357 10.32 13.032 18.51 27.884 25.3 44.226 57.64 139.251 252.08 333.22 599.51 137.251" stroke="url(#paint5_linear_2_109)"/><path opacity=".5" d="M-43.39 273.641C32.96 199.81 152.6 104.415 257.92 102.055c46.05-1.03 78.6 18.273 109.36 41.436 17.12 12.892 35.69 27.704 56.42 43.487 31.18 23.743 61.5 49.717 91.62 76.101 51.27 44.646 110.61 98.815 160.76 114.067 35.1 10.691 60.95-9.332 40.26-9.582-9.27 4.311-25.63 24.234-29.51 50.778-3.81 26.094 4.21 56.028 19.77 81.462 20.61 33.695 50.58 59.899 85.32 76.471 58.8 28.064 130.37 29.265 197.82-4.79 115.99-58.209 201.84-34.516 226.28 3.28 2.12 3.281 2.69 7.011 2.46 10.072-.88 11.841-5.49 16.252-8.73 18.722-7.76 5.911-21.84 4.201-1.59-18.862-.06-1.821.75-4.481 2.5-7.722 1.37-15.172 19.77-33.485 59.66-32.164 30.21 1 72.22 11.891 101.76 49.397 10.28 13.022 18.58 27.804 25.57 44.036 59.29 138.271 275.96 325.239 604.78 115.578" stroke="url(#paint6_linear_2_109)"/><path opacity=".5" d="M-42.45 266.439c77.61-72.581 199.51-166.264 305.02-164.444 46.23.8 77.97 22.533 107.63 47.587 16.52 13.942 34.51 29.634 54.72 46.127 30.27 24.693 60.17 51.237 90.27 77.751 51.02 44.697 111.86 98.075 163.32 110.107 36.02 8.431 62.44-15.683 39.56-18.693-10.56 2.51-28.72 21.643-33.9 48.047-5.1 26.004 2.01 56.348 16.88 82.262 19.73 34.385 49.06 61.399 83.35 78.792 58.26 29.564 130.08 32.014 197.93-2.161 117.84-59.008 204.08-28.144 224.62 10.672 1.87 3.53 2.06 7.401 1.5 10.542-2.21 12.401-7.87 16.522-12.17 18.282-9.9 4.051-24.42-3.15.4-27.984.5-2 1.86-4.761 4.16-8.031 3.72-15.262 23.74-31.465 64-28.094 30.08 2.52 71.3 14.822 100.86 52.448 10.25 13.011 18.66 27.724 25.84 43.846 60.94 137.3 299.84 317.247 610.04 93.914" stroke="url(#paint7_linear_2_109)"/><path opacity=".5" d="M-41.52 259.248c78.87-71.33 203.02-163.294 308.74-157.313 46.41 2.63 77.29 26.864 105.9 53.728 15.88 15.032 33.34 31.575 53.02 48.757 29.37 25.654 58.84 52.758 88.91 79.402 50.77 44.757 113.11 97.334 165.89 106.146 36.94 6.171 64.05-32.975 38.86-27.794-11.62 2.39-31.82 19.052-38.29 45.306-6.39 25.914-.19 56.679 13.99 83.063 18.86 35.085 47.54 62.899 81.38 81.112 57.72 31.064 129.79 34.765 198.03.48 119.7-59.819 206.15-21.744 222.97 18.072 1.6 3.781 1.43 7.771.55 11.012-3.55 12.932-10.28 16.842-15.61 17.853-12.12 2.29-26.99-10.492 2.39-37.096 1.06-2.18 2.97-5.041 5.81-8.341 6.06-15.352 27.72-29.465 68.33-24.024 29.97 4.021 70.39 17.753 99.97 55.499 10.21 13.001 18.73 27.644 26.11 43.656 62.59 136.32 323.71 309.266 615.3 72.251" stroke="url(#paint8_linear_2_109)"/><path opacity=".5" d="M-40.58 252.047c80.13-70.09 206.54-160.313 312.45-150.172 46.59 4.461 76.66 31.125 104.18 59.879 15.28 16.082 32.17 33.505 51.32 51.397 28.47 26.604 57.52 54.278 87.56 81.052 50.51 44.807 114.36 96.605 168.45 102.186 37.86 3.92 66.19-31.435 38.16-36.906-12.94-2.52-34.91 16.463-42.68 42.576-7.68 25.824-2.39 57.009 11.11 83.863 17.99 35.775 46.02 64.409 79.41 83.432 57.17 32.575 129.51 37.516 198.14 3.111 121.55-60.629 208.07-15.353 221.31 25.463 1.31 4.041.81 8.142-.41 11.472-4.9 13.432-12.77 16.683-19.05 17.413-14.34 1.66-25.38-13.482 4.38-46.217 1.92-2.12 4.08-5.321 7.46-8.651 8.4-15.443 31.71-27.495 72.66-19.953 29.87 5.5 69.48 20.673 99.07 58.538 10.18 12.992 18.81 27.564 26.38 43.467 64.24 135.34 347.59 301.284 620.56 50.587" stroke="url(#paint9_linear_2_109)"/><path opacity=".5" d="M-39.65 244.846c81.39-68.84 210.04-157.323 316.16-143.041 46.77 6.301 76.02 35.385 102.45 66.03 14.68 17.132 31 35.435 49.62 54.028 27.58 27.544 56.19 55.788 86.21 82.702 50.26 44.857 115.61 95.864 171.02 98.214 38.78 1.661 67.75-37.255 37.46-46.016-14.13-4.091-38.01 13.862-47.07 39.835-8.98 25.734-4.6 57.339 8.22 84.663 17.11 36.465 44.49 65.92 77.45 85.753 56.62 34.095 129.22 40.266 198.24 5.75 123.4-61.429 209.85-9.031 219.65 32.865 1 4.291.18 8.512-1.37 11.942-6.25 13.912-15.2 17.493-22.49 16.973-16.79-1.201-28.97-21.523 6.37-55.338 2.42-2.311 5.19-5.601 9.12-8.962 10.74-15.522 35.72-25.544 77-15.882 29.77 6.971 68.56 23.603 98.17 61.589 10.14 12.982 18.88 27.484 26.65 43.286 65.89 134.36 371.47 293.304 625.82 28.925" stroke="url(#paint10_linear_2_109)"/><path opacity=".5" d="M-38.71 237.645c82.65-67.59 213.55-154.333 319.88-135.9 46.94 8.141 75.39 39.646 100.72 72.171 14.08 18.182 29.84 37.365 47.91 56.658 26.69 28.494 54.86 57.309 84.85 84.353 50.01 44.906 116.85 95.124 173.58 94.254 39.7-.601 69.22-43.137 36.76-55.119-15.39-5.68-41.1 11.272-51.45 37.106-10.27 25.634-6.81 57.668 5.33 85.462 16.23 37.156 42.96 67.431 75.48 88.074 56.07 35.605 128.94 43.016 198.35 8.381 125.26-62.239 211.52-2.791 217.99 40.266.68 4.53-.45 8.861-2.32 12.412-7.59 14.372-17.67 17.812-25.93 16.542-19.18-2.96-32.28-29.494 8.36-64.459 2.92-2.521 6.3-5.881 10.77-9.282 13.09-15.612 39.75-23.613 81.33-11.802 29.7 8.432 67.65 26.534 97.28 64.63 10.11 12.972 18.95 27.404 26.92 43.096 67.54 133.38 395.34 285.322 631.09 7.261" stroke="url(#paint11_linear_2_109)"/><path opacity=".5" d="M-37.78 230.454c83.9-66.35 217.04-151.332 323.59-128.769 47.11 9.982 74.76 43.917 98.99 78.322 13.47 19.233 28.68 39.296 46.21 59.299 25.81 29.434 53.54 58.828 83.5 86.002 49.76 44.967 118.1 94.384 176.14 90.294 40.62-2.851 70.65-49.098 36.06-64.23-16.68-7.291-44.2 8.671-55.84 34.365-11.57 25.544-9.02 57.999 2.44 86.263 15.35 37.855 41.43 68.94 73.51 90.393 55.51 37.126 128.65 45.767 198.45 11.022 127.11-63.039 213.1 3.32 216.33 47.657.35 4.761-1.07 9.211-3.28 12.872-8.93 14.812-20.16 18.123-29.37 16.102-21.59-4.73-35.42-37.385 10.35-73.571 3.44-2.72 7.41-6.161 12.43-9.591 15.43-15.702 43.79-21.693 85.67-7.731 29.63 9.881 66.74 29.464 96.38 67.68 10.07 12.962 19.03 27.324 27.19 42.906 69.19 132.4 419.22 277.331 636.35-14.402" stroke="url(#paint12_linear_2_109)"/><path opacity=".5" d="M-36.84 223.253c85.16-65.1 220.53-148.332 327.3-121.628 47.28 11.822 74.13 48.177 97.27 84.472 12.87 20.283 27.52 41.227 44.51 61.93 24.93 30.374 52.21 60.349 82.14 87.653 49.51 45.016 119.35 93.643 178.71 86.332 41.54-5.11 72.05-55.108 35.36-73.33-17.99-8.942-47.3 6.07-60.23 31.634-12.87 25.444-11.23 58.319-.44 87.053 14.46 38.546 39.9 70.461 71.54 92.714 54.95 38.656 128.37 48.517 198.56 13.652 128.96-63.85 214.63 9.321 214.67 55.058 0 4.991-1.69 9.561-4.23 13.342-10.26 15.252-22.65 18.423-32.81 15.662-24.01-6.521-38.43-45.206 12.34-82.692 3.97-2.93 8.52-6.431 14.08-9.901 17.77-15.793 47.86-19.793 90-3.661 29.59 11.332 65.82 32.385 95.49 70.73 10.03 12.952 19.1 27.245 27.46 42.717 70.84 131.419 443.1 269.35 641.61-36.066" stroke="url(#paint13_linear_2_109)"/><path opacity=".5" d="M-35.91 216.052c86.42-63.86 224.02-145.322 331.02-114.497 47.45 13.672 73.49 52.438 95.54 90.613 12.27 21.333 26.36 43.147 42.81 64.57 24.05 31.324 50.89 61.869 80.79 89.303 49.26 45.067 120.6 92.914 181.27 82.372 42.46-7.371 73.43-61.169 34.66-82.442-19.31-10.602-50.4 3.461-64.62 28.894-14.17 25.344-13.44 58.649-3.33 87.853 13.58 39.236 38.36 71.971 69.57 95.044 54.38 40.176 128.08 51.268 198.66 16.293 130.82-64.66 216.13 15.202 213.02 62.449-.34 5.201-2.31 9.912-5.19 13.812-11.58 15.682-25.14 18.723-36.25 15.222-26.44-8.311-41.35-52.977 14.33-91.813 4.5-3.141 9.63-6.711 15.74-10.212 20.12-15.882 51.96-17.902 94.34.41 29.55 12.772 64.91 35.316 94.59 73.771 10 12.942 19.17 27.164 27.73 42.527 72.49 130.439 466.98 261.368 646.87-57.729" stroke="url(#paint14_linear_2_109)"/><path opacity=".5" d="M-34.97 208.861c87.68-62.61 227.5-142.311 334.73-107.356 47.62 15.522 72.86 56.708 93.81 96.764 11.67 22.383 25.21 45.077 41.11 67.2 23.18 32.265 49.56 63.379 79.43 90.954 49.01 45.116 121.85 92.173 183.84 78.411 43.38-9.621 74.81-67.27 33.96-91.553-20.65-12.272-53.5.86-69.01 26.163-15.47 25.234-15.65 58.979-6.22 88.654 12.69 39.935 36.82 73.491 67.61 97.364 53.8 41.706 127.8 54.028 198.77 18.923 132.67-65.46 217.62 20.963 211.36 69.85-.69 5.411-2.93 10.262-6.15 14.282-12.89 16.103-27.63 19.013-39.69 14.792-28.87-10.121-44.22-60.699 16.32-100.935 5.03-3.34 10.74-6.99 17.39-10.521 22.46-15.972 56.07-16.012 98.67 4.491 29.54 14.212 63.99 38.245 93.7 76.821 9.96 12.932 19.25 27.084 28 42.336 74.14 129.459 490.85 253.388 652.14-79.401" stroke="url(#paint15_linear_2_109)"/><path opacity=".5" d="M-34.04 201.66C54.9 140.301 196.93 62.37 304.41 101.435c47.78 17.373 72.23 60.969 92.08 102.915 11.06 23.434 24.06 47.007 39.41 69.84 22.32 33.205 48.23 64.9 78.08 92.604 48.76 45.177 123.09 91.434 186.4 74.451 44.3-11.882 76.18-73.401 33.25-100.655-21.99-13.962-56.6-1.75-73.4 23.424-16.77 25.134-17.92 59.319-9.11 89.453 11.73 40.646 35.28 75.011 65.64 99.685 53.22 43.236 127.51 56.778 198.87 21.553 134.52-66.27 219.11 26.634 209.7 77.251-1.04 5.601-3.54 10.602-7.1 14.743-14.19 16.522-30.13 19.302-43.13 14.352-31.3-11.922-47.03-68.39 18.31-110.057 5.57-3.55 11.85-7.271 19.05-10.831 24.8-16.062 60.2-14.122 103 8.561 29.53 15.653 63.08 41.166 92.8 79.862 9.93 12.912 19.32 27.004 28.27 42.156 75.79 128.479 514.73 245.407 657.4-101.065" stroke="url(#paint16_linear_2_109)"/><path opacity=".5" d="M-33.1 194.459c90.2-60.119 234.37-136.12 342.16-93.084 47.91 19.293 71.6 65.229 90.36 109.056 10.46 24.484 22.92 48.937 37.7 72.471 21.46 34.155 46.91 66.42 76.72 94.254 48.51 45.226 124.34 90.693 188.97 70.49 45.22-14.142 77.56-79.562 32.55-109.766-23.34-15.663-59.74-4.381-77.79 20.693-18.1 24.994-20.12 59.639-11.99 90.253 10.86 41.326 33.73 76.532 63.67 102.005 52.64 44.777 127.22 59.529 198.98 24.194 136.38-67.08 220.63 32.215 208.04 84.642-1.39 5.791-4.16 10.952-8.06 15.213-15.49 16.942-32.63 19.623-46.57 13.912-33.75-13.682-49.81-76.052 20.3-119.168 6.11-3.76 12.96-7.551 20.7-11.142 27.15-16.152 64.35-12.241 107.34 12.632 29.54 17.093 62.17 44.097 91.9 82.913 9.89 12.901 19.39 26.914 28.54 41.966 77.44 127.499 538.61 237.415 662.66-122.728" stroke="url(#paint17_linear_2_109)"/><path opacity=".5" d="M-32.17 187.258c91.46-58.869 237.86-133.18 345.87-85.953 48.08 21.103 70.96 69.49 88.63 115.207 9.86 25.534 21.81 50.847 36 75.101 20.64 35.075 45.58 67.94 75.37 95.904 48.26 45.277 125.59 89.964 191.53 66.52 46.14-16.402 78.93-85.743 31.85-118.878-24.68-17.372-62.82-6.981-82.18 17.953-19.38 24.904-22.32 59.959-14.88 91.054 9.99 42.006 32.15 78.081 61.7 104.325 52 46.367 126.94 62.279 199.08 26.824 138.23-67.88 222.17 37.726 206.38 92.044-1.74 5.971-4.77 11.291-9.01 15.682-16.79 17.363-35.12 19.893-50.01 13.472-36.17-15.532-52.57-83.682 22.3-128.289 6.65-3.961 14.07-7.831 22.36-11.452 29.49-16.232 68.52-10.351 111.67 16.703 29.57 18.533 61.25 47.027 91.01 85.963 9.86 12.891 19.47 26.834 28.81 41.776 79.09 126.528 562.48 229.434 667.92-144.392" stroke="url(#paint18_linear_2_109)"/><path opacity=".5" d="M-31.23 180.066c92.72-57.618 241.35-130.239 349.59-78.811 48.25 22.923 70.33 73.761 86.9 121.358 22.63 64.989 57.96 127.749 108.32 175.296 48 45.327 126.84 89.223 194.1 62.559 47.06-18.653 80.31-91.934 31.15-127.979-26.03-19.093-65.9-9.581-86.57 15.222-20.67 24.804-24.51 60.279-17.77 91.854 25.25 118.167 145.35 191.788 258.92 136.1 155.39-76.191 241.34 69.77 194.75 115.587-66.07 64.98-151.69-75.511-5.16-136.13 60.76-31.165 154.46 25.824 235.2 151.373 80.74 125.548 586.36 221.452 673.19-166.055" stroke="url(#paint19_linear_2_109)"/><path opacity=".5" d="M-28.45 174.286c89.72-55.758 233.7-120.788 340.61-66.75 46.97 23.743 69.02 73.871 85.65 121.168 22.7 64.539 57.85 126.859 107.72 174.286 47.67 45.356 125.37 89.103 192.11 64.189 46.74-17.412 80.23-87.893 34.11-122.608-10.46-7.881-23.37-10.692-36.22-9.431-17.13 1.65-34.12 10.501-45.02 24.163-19.21 23.934-21.97 58.159-14.66 88.683 27.35 114.107 146.41 186.368 259.2 133.46 152.79-71.671 238.12 70.721 194.55 116.927-61.63 65.37-143.44-70.12.48-127.898 61.18-29.155 152.82 27.653 235.31 148.031 84.14 122.768 582.81 210.361 667.17-172.635" stroke="url(#paint20_linear_2_109)"/><path opacity=".5" d="M-25.67 168.515c86.73-53.908 226.03-111.387 331.63-54.678 45.68 24.533 67.7 73.991 84.41 120.987 22.77 64.09 57.74 125.979 107.13 173.266 47.33 45.377 123.91 88.973 190.13 65.81 46.41-16.172 80.14-83.852 37.06-117.227-9.75-7.582-21.87-10.262-33.91-9.042-16.08 1.59-31.96 10.142-42.01 23.284-17.69 23.123-19.43 56.018-11.54 85.512 29.44 110.027 147.43 180.947 259.47 130.82 150.13-67.17 234.94 71.61 194.35 118.267-57.15 65.69-135.19-64.739 6.12-119.657 61.6-27.154 151.34 29.484 235.43 144.681 87.66 120.088 579.25 199.269 661.16-179.207" stroke="url(#paint21_linear_2_109)"/><path opacity=".5" d="M-22.9 162.734c83.74-52.048 218.33-102.035 322.65-42.616 44.4 25.294 66.38 74.111 83.16 120.808 22.85 63.639 57.63 125.098 106.54 172.245 46.99 45.407 122.44 88.853 188.15 67.43 46.09-14.932 80.06-79.812 40.02-111.846-9.04-7.272-20.36-9.832-31.6-8.642-15.03 1.54-29.83 9.772-39 22.394-16.2 22.283-16.9 53.878-8.43 82.342C670.11 570.784 787 640.385 898.34 593.028c147.43-62.7 231.81 72.43 194.14 119.617-52.63 65.93-126.95-59.348 11.76-111.426 62.03-25.144 150.03 31.305 235.54 141.341 91.31 117.497 575.7 188.168 655.15-185.788" stroke="url(#paint22_linear_2_109)"/><path opacity=".5" d="M-20.12 156.953c80.75-50.187 210.62-92.743 313.67-30.544 43.12 26.024 65.07 74.231 81.91 120.618 22.92 63.189 57.52 124.208 105.95 171.235 46.65 45.427 120.98 88.733 186.17 69.05 45.76-13.692 79.98-75.771 42.97-106.466-8.33-6.971-18.85-9.411-29.29-8.251-13.99 1.48-27.69 9.402-35.99 21.503-14.71 21.443-14.37 51.728-5.31 79.172 33.58 101.815 149.35 170.115 260.03 125.539 144.67-58.269 228.73 73.17 193.94 120.957-48.1 66.07-118.7-53.957 17.4-103.185 62.45-23.133 148.89 33.105 235.66 137.991 95.1 114.977 572.14 177.076 649.14-192.369" stroke="url(#paint23_linear_2_109)"/><path opacity=".5" d="M-17.34 151.182c77.76-48.327 202.9-83.502 304.69-18.482 41.84 26.724 63.75 74.341 80.66 120.437 22.99 62.73 57.42 123.329 105.35 170.216 46.31 45.446 119.51 88.613 184.18 70.67 45.44-12.452 79.82-71.64 45.93-101.095-7.64-6.641-17.35-8.981-26.98-7.851-12.94 1.42-25.55 9.021-32.99 20.623-13.21 20.603-11.84 49.577-2.2 76.001 35.62 97.675 150.25 164.685 260.3 122.889 141.86-53.868 225.68 73.82 193.73 122.298-43.56 66.099-110.45-48.568 23.04-94.944 62.87-21.134 147.93 34.855 235.77 134.649 99.04 112.517 568.59 165.985 643.13-198.939" stroke="url(#paint24_linear_2_109)"/><path opacity=".5" d="M-14.56 145.401c74.77-46.466 195.16-74.32 295.71-6.411 40.56 27.395 62.44 74.461 79.42 120.258 23.06 62.279 57.31 122.448 104.76 169.195 45.98 45.477 118.05 88.493 182.2 72.291 45.11-11.212 79.72-67.58 48.88-95.714-6.94-6.331-15.84-8.561-24.66-7.461-11.9 1.36-23.41 8.651-29.98 19.733-11.71 19.753-9.32 47.417.91 72.83 37.64 93.514 151.1 159.254 260.58 120.248 139-49.517 222.65 74.381 193.53 123.638-39.03 66.01-102.21-43.176 28.67-86.712 63.29-19.123 147.15 36.565 235.89 131.309 103.13 110.106 565.04 154.893 637.11-205.52" stroke="url(#paint25_linear_2_109)"/><path opacity=".5" d="M-11.78 139.631c71.78-44.607 187.43-65.2 286.72 5.65 39.29 28.035 61.12 74.581 78.17 120.068 23.14 61.829 57.2 121.558 104.17 168.175 45.64 45.497 116.55 88.233 180.22 73.921 44.77-10.072 79.61-63.519 51.84-90.333-6.23-6.021-14.33-8.132-22.35-7.061-10.85 1.3-21.26 8.271-26.97 18.852-10.2 18.903-6.8 45.247 4.03 69.661 39.63 89.333 151.9 153.812 260.85 117.607 136.08-45.217 219.65 74.831 193.33 124.979-34.53 65.789-93.96-37.786 34.31-78.472 63.71-17.113 146.54 38.206 236 127.959 107.37 107.726 561.48 143.801 631.1-212.102" stroke="url(#paint26_linear_2_109)"/><path opacity=".5" d="M-9 133.85c68.79-42.746 179.7-56.128 277.74 17.722 38.03 28.645 59.81 74.701 76.92 119.888 23.21 61.379 57.09 120.678 103.57 167.165 45.3 45.527 115.09 88.103 178.24 75.541 44.44-8.841 79.5-59.459 54.79-84.962-5.53-5.711-12.82-7.702-20.04-6.671-9.81 1.24-19.11 7.891-23.96 17.962-8.69 18.053-4.3 43.067 7.14 66.49 41.58 85.133 152.66 148.352 261.13 114.967 133.11-40.966 216.64 75.181 193.12 126.329-30.09 65.439-85.71-32.395 39.95-70.241 64.13-15.112 146.11 39.776 236.12 124.619 111.77 105.345 557.93 132.7 625.09-218.673" stroke="url(#paint27_linear_2_109)"/><path opacity=".5" d="M-6.22 128.079c65.8-40.896 171.98-47.127 268.76 29.784 36.78 29.225 58.49 74.811 75.67 119.708 23.28 60.929 56.98 119.798 102.98 166.145 44.96 45.546 113.62 87.963 176.26 77.161 44.12-7.611 79.39-55.398 57.75-79.582-4.83-5.401-11.32-7.281-17.73-6.271-8.76 1.19-16.96 7.511-20.95 17.083-7.17 17.192-1.8 40.886 10.25 63.319 43.49 80.912 153.37 142.871 261.41 112.327 130.07-36.776 213.62 75.421 192.92 127.669-25.74 64.949-77.46-27.004 45.59-61.999 64.55-13.102 145.84 41.256 236.23 121.267 116.32 102.966 554.37 121.609 619.08-225.253" stroke="url(#paint28_linear_2_109)"/><path opacity=".5" d="M-3.44 122.298c62.81-39.036 164.28-38.186 259.78 41.846 35.54 29.785 57.17 74.931 74.42 119.518 23.35 60.469 56.87 118.908 102.39 165.124 44.62 45.567 112.16 87.833 174.27 78.782 43.79-6.381 79.27-51.338 60.7-74.201-4.13-5.091-9.81-6.851-15.42-5.871-7.72 1.13-14.8 7.121-17.94 16.193-5.64 16.332.68 38.695 13.37 60.148 45.36 76.682 154.03 137.371 261.68 109.687 126.98-32.655 210.56 75.561 192.72 129.009-21.48 64.329-69.22-21.613 51.23-53.768 64.97-11.092 145.73 42.646 236.35 117.927 121.03 100.545 550.82 110.517 613.06-231.834" stroke="url(#paint29_linear_2_109)"/><path opacity=".5" d="M-.66 116.527c59.82-37.175 156.6-29.304 250.8 53.918 34.31 30.314 55.86 75.051 73.18 119.338 23.43 60.019 56.76 118.027 101.8 164.114 44.29 45.597 110.7 87.693 172.29 80.402 43.47-5.141 79.13-47.277 63.66-68.83-3.43-4.781-8.3-6.421-13.11-5.481-6.67 1.07-12.64 6.721-14.93 15.312-4.11 15.452 3.15 36.505 16.48 56.979 47.18 72.45 154.65 131.829 261.96 107.035 123.84-28.614 207.44 75.602 192.51 130.35-17.34 63.589-60.97-16.223 56.87-45.527 65.39-9.081 145.77 43.936 236.46 114.587 125.89 98.064 547.26 99.425 607.05-238.415" stroke="url(#paint30_linear_2_109)"/><path opacity=".5" d="M2.11 110.746c56.83-35.315 148.95-20.473 241.82 65.98 33.1 30.815 54.54 75.171 71.93 119.158 23.5 59.569 56.65 117.147 101.2 163.094 43.95 45.617 109.24 87.563 170.31 82.032 43.15-3.911 78.99-43.226 66.62-63.449-2.74-4.471-6.8-6.001-10.79-5.081-5.63 1.01-10.48 6.311-11.92 14.422-2.58 14.552 5.61 34.315 19.59 53.808 48.94 68.21 155.21 126.259 262.23 104.395 120.64-24.643 204.25 75.552 192.31 131.69-13.35 62.759-52.72-10.832 62.51-37.286 65.81-7.081 145.94 45.117 236.58 111.237 130.91 95.514 543.71 88.333 601.04-244.986" stroke="url(#paint31_linear_2_109)"/><path opacity=".5" d="M4.89 104.975c53.83-33.454 141.33-11.711 232.84 78.052 31.91 31.295 53.23 75.291 70.68 118.968 23.57 59.118 56.55 116.257 100.61 162.074 43.61 45.646 107.78 87.433 168.33 83.652 42.82-2.68 78.84-39.196 69.57-58.069-2.05-4.17-5.29-5.57-8.48-4.69-4.58.95-8.32 5.891-8.91 13.542-1.05 13.632 8.05 32.114 22.71 50.637 50.65 63.98 155.73 120.638 262.51 101.755 117.39-20.763 200.95 75.431 192.1 133.04-9.5 61.839-44.48-5.441 68.15-29.054 66.23-5.071 146.24 46.176 236.69 107.896 136.07 92.853 540.16 77.231 595.03-251.568" stroke="url(#paint32_linear_2_109)"/><path opacity=".5" d="M7.67 99.194c50.84-31.594 133.76-3 223.86 90.114 30.73 31.754 51.91 75.401 69.43 118.787 23.64 58.669 56.44 115.378 100.02 161.064 43.27 45.667 106.32 87.303 166.34 85.273 42.5-1.44 78.67-35.175 72.53-52.698-1.36-3.871-3.78-5.141-6.17-4.291-3.53.891-6.17 5.451-5.9 12.652.47 12.682 10.47 29.925 25.82 47.467 52.29 59.759 156.21 114.967 262.78 99.115 114.1-16.972 197.54 75.261 191.9 134.38-5.8 60.859-36.23-.06 73.78-20.813 66.65-3.061 146.65 47.127 236.81 104.555 141.38 90.054 536.6 66.14 589.02-258.148" stroke="url(#paint33_linear_2_109)"/><path opacity=".5" d="M10.45 93.424c47.85-29.745 126.24 5.66 214.88 102.185 29.57 32.195 50.59 75.521 68.18 118.607 23.72 58.209 56.33 114.497 99.43 160.044 42.93 45.697 104.86 87.183 164.36 86.893 42.18-.2 78.5-31.195 75.48-47.317-.67-3.581-2.27-4.721-3.86-3.901-2.49.84-4.03 5.001-2.89 11.762 1.97 11.712 12.88 27.734 28.94 44.297 53.87 55.558 156.65 109.236 263.06 96.474 110.76-13.282 193.98 75.061 191.7 135.72-2.26 59.849-27.98 5.331 79.42-12.582 67.07-1.06 147.16 47.947 236.92 101.205 146.81 87.113 533.05 55.048 583-264.719" stroke="url(#paint34_linear_2_109)"/><path opacity=".5" d="M13.23 87.643C58.09 59.759 132 101.905 219.13 201.89c28.42 32.615 49.28 75.641 66.94 118.427 23.79 57.759 56.22 113.607 98.83 159.024 42.6 45.717 103.4 87.063 162.38 88.513 41.86 1.04 78.34-27.264 78.44-41.936.02-3.301-.77-4.291-1.55-3.501-1.44.78-1.91 4.531.12 10.882 3.42 10.731 15.27 25.554 32.05 41.126 55.39 51.397 157.05 103.425 263.34 93.834 107.39-9.692 190.29 74.861 191.49 137.06 1.14 58.839-19.74 10.722 85.06-4.341 67.49.951 147.75 48.658 237.04 97.865 152.38 83.982 529.49 43.956 576.99-271.3" stroke="url(#paint35_linear_2_109)"/><path opacity=".5" d="M16.01 81.872c41.87-26.024 111.36 22.823 196.92 126.319 27.3 33.024 47.96 75.761 65.69 118.237 23.86 57.309 56.11 112.727 98.24 158.004 42.26 45.736 101.94 86.932 160.4 90.143 41.54 2.28 78.24-23.374 81.39-36.566.72-3.03.74-3.86.76-3.11-.4.72.19 4.071 3.13 9.991 4.83 9.742 17.65 23.394 35.16 37.956 56.86 47.277 157.42 97.534 263.61 91.184 103.98-6.211 186.43 74.671 191.29 138.41 4.41 57.839-11.49 16.112 90.7 3.901 67.91 2.96 148.41 49.237 237.15 94.514 158.05 80.642 525.94 32.865 570.98-277.881" stroke="url(#paint36_linear_2_109)"/><path opacity=".5" d="M18.79 76.091c38.88-24.163 104.02 31.335 187.94 138.381 26.19 33.414 46.65 75.871 64.44 118.057 23.94 56.858 56 111.847 97.65 156.993 41.92 45.767 100.48 86.813 158.42 91.764 41.22 3.52 78.23-19.493 84.35-31.185 1.45-2.76 2.25-3.44 3.08-2.71.65.66 2.26 3.62 6.14 9.111 6.19 8.771 20.01 21.233 38.28 34.775 58.27 43.207 157.76 91.544 263.89 88.543 100.55-2.84 182.43 74.531 191.09 139.751 7.55 56.889-3.24 21.503 96.34 12.132 68.33 4.961 149.12 49.707 237.26 91.173 163.83 77.072 522.38 21.764 564.97-284.452" stroke="url(#paint37_linear_2_109)"/><path opacity=".5" d="M21.57 70.32c35.89-22.303 96.75 39.796 178.96 150.453 25.11 33.795 45.33 75.991 63.19 117.877 24.01 56.408 55.89 110.956 97.05 155.973 41.58 45.787 99.02 86.703 156.43 93.384 40.9 4.761 78.28-15.552 87.3-25.804 2.18-2.48 3.75-3.01 5.39-2.32 1.69.6 4.31 3.19 9.14 8.221 7.53 7.841 22.36 19.103 41.39 31.605 59.64 39.196 158.09 85.452 264.16 85.902 97.11.411 178.27 74.461 190.88 141.091 10.6 55.999 5 26.894 101.98 20.373 68.75 6.971 149.86 50.048 237.38 87.833 169.69 73.252 518.83 10.672 558.96-291.033" stroke="url(#paint38_linear_2_109)"/><path opacity=".5" d="M24.34 64.54c32.9-20.444 89.55 48.227 169.98 162.514 24.05 34.165 44.01 76.111 61.95 117.687 24.08 55.948 55.78 110.076 96.46 154.953 41.24 45.817 97.56 86.583 154.45 95.004 40.58 6.011 78.34-11.542 90.26-20.433 2.93-2.18 5.26-2.58 7.7-1.92 2.74.54 6.35 2.79 12.15 7.341 8.86 6.951 24.69 16.992 44.5 28.434 60.98 35.245 158.42 79.232 264.44 83.262 93.67 3.561 173.97 74.471 190.68 142.431 13.56 55.178 13.25 32.285 107.62 28.604 69.17 8.982 150.62 50.288 237.49 84.483 175.63 69.14 515.28-.42 552.94-297.614" stroke="url(#paint39_linear_2_109)"/><path opacity=".5" d="M27.12 58.769c29.91-18.583 82.44 56.618 161 174.585 23 34.535 42.7 76.232 60.7 117.508 24.15 55.498 55.68 109.196 95.87 153.943 40.91 45.836 96.1 86.472 152.47 96.624 40.25 7.251 78.38-7.471 93.21-15.052 3.66-1.871 6.77-2.161 10.01-1.521 3.78.481 8.39 2.411 15.16 6.451 10.19 6.091 27.02 14.903 47.62 25.264 62.31 31.365 158.76 72.881 264.72 80.622 90.23 6.581 169.54 74.581 190.47 143.771 16.47 54.438 21.5 37.676 113.26 36.846 69.59 10.991 151.39 50.407 237.61 81.142 181.61 64.738 511.72-11.512 546.93-304.185" stroke="url(#paint40_linear_2_109)"/><path opacity=".5" d="M29.9 52.988c26.92-16.733 75.4 64.989 152.02 186.647 21.98 34.896 41.38 76.342 59.45 117.328 24.23 55.048 55.57 108.306 95.28 152.922 40.57 45.867 94.64 86.363 150.49 98.255 39.93 8.501 78.38-3.391 96.17-9.671 4.39-1.551 8.28-1.731 12.32-1.131 4.83.43 10.45 2.051 18.17 5.571 11.55 5.261 29.35 12.832 50.73 22.093 63.63 27.554 159.13 66.39 264.99 77.972 86.82 9.501 165.01 74.811 190.27 145.121 19.33 53.798 29.74 43.067 118.89 45.087 70.01 12.992 152.15 50.418 237.72 77.792 187.63 60.016 508.17-22.604 540.92-310.766" stroke="url(#paint41_linear_2_109)"/><path opacity=".5" d="M32.68 47.207c23.93-14.872 68.45 73.331 143.04 198.709 20.97 35.255 40.07 76.462 58.2 117.138 24.3 54.598 55.46 107.425 94.68 151.902 40.23 45.887 93.18 86.253 148.5 99.875 39.61 9.751 78.35.71 99.12-4.301 5.11-1.23 9.78-1.3 14.63-.73 5.87.37 12.52 1.7 21.18 4.681 12.92 4.45 31.68 10.801 53.84 18.923 64.96 23.813 159.54 59.728 265.27 75.331 83.44 12.312 160.39 75.151 190.07 146.461 22.16 53.248 37.99 48.458 124.53 53.318 70.43 15.003 152.88 50.338 237.84 74.451 193.65 54.965 504.61-33.705 534.91-317.347" stroke="url(#paint42_linear_2_109)"/><path opacity=".5" d="M35.46 41.436c20.94-13.012 61.58 81.652 134.06 210.781 19.99 35.605 38.75 76.582 56.95 116.958 24.37 54.148 55.35 106.545 94.09 150.892 39.89 45.907 91.71 86.143 146.52 101.495 39.28 11.002 78.3 4.801 102.08 1.08 5.83-.91 11.29-.88 16.95-.34 6.92.31 14.6 1.35 24.19 3.801 14.32 3.64 34.01 8.781 56.96 15.752 66.31 20.143 160.01 52.908 265.54 72.691 80.11 15.022 155.71 75.621 189.86 147.802 24.98 52.797 46.24 53.848 130.17 61.559 70.86 17.012 153.57 50.157 237.95 71.11 199.66 49.563 501.06-44.796 528.89-323.918" stroke="url(#paint43_linear_2_109)"/><path opacity=".5" d="M38.24 35.655c17.94-11.152 54.81 89.963 125.08 222.843 19.02 35.965 37.44 76.702 55.71 116.777 24.44 53.688 55.24 105.656 93.5 149.873 39.56 45.936 90.25 86.042 144.54 103.115 38.96 12.252 78.24 8.891 105.03 6.461 6.54-.59 12.8-.45 19.26.06 7.97.25 16.69 1.01 27.2 2.91 15.73 2.841 36.35 6.791 60.07 12.582 67.69 16.523 160.57 45.897 265.82 70.051 76.85 17.632 150.98 76.201 189.66 149.142 27.81 52.437 54.48 59.238 135.81 69.79 71.28 19.013 154.22 49.887 238.07 67.761 205.64 43.83 497.5-55.889 522.88-330.5" stroke="url(#paint44_linear_2_109)"/><path opacity=".5" d="M41.02 29.884c14.95-9.291 48.12 98.265 116.1 234.915 18.07 36.325 36.12 76.811 54.46 116.587 24.52 53.238 55.13 104.776 92.9 148.852 39.22 45.957 88.78 85.943 142.56 104.736 38.63 13.502 78.18 12.982 107.99 11.832 7.25-.281 14.3-.021 21.57.45 9.01.19 18.78.67 30.21 2.03 17.15 2.04 38.7 4.821 63.18 9.411 69.11 12.952 161.24 38.706 266.09 67.41 73.66 20.163 146.22 76.902 189.46 150.483 30.65 52.167 62.73 64.619 141.45 78.031 71.7 21.023 154.8 49.549 238.18 64.419 211.55 37.73 493.95-66.979 516.87-337.079" stroke="url(#paint45_linear_2_109)"/><path opacity=".5" d="M43.8 24.104c11.96-7.431 41.52 106.565 107.12 246.976 17.14 36.696 34.8 76.932 53.21 116.407 24.59 52.788 55.02 103.896 92.31 147.832 38.88 45.987 87.28 85.923 140.58 106.366 38.28 14.822 78.1 17.063 110.94 17.213 7.97.04 15.81.4 23.88.85 10.06.13 20.89.32 33.22 1.14 18.59 1.23 41.07 2.87 66.3 6.241 70.58 9.421 162.05 31.314 266.37 64.769 70.58 22.634 141.45 77.692 189.25 151.833 33.51 51.978 70.98 70.01 147.09 86.273 72.12 23.033 155.31 49.126 238.3 61.076 217.37 31.29 490.4-78.069 510.86-343.648" stroke="url(#paint46_linear_2_109)"/><path opacity=".5" d="M46.57 18.333c8.97-5.581 35.01 114.857 98.14 259.048 16.23 37.065 33.49 77.051 51.96 116.227 24.66 52.338 54.91 103.005 91.72 146.822 38.54 46.007 85.81 85.803 138.59 107.986 37.95 16.062 78.02 21.133 113.9 22.593 8.67.35 17.32.83 26.19 1.24 11.1.08 22.99-.03 36.23.25 20.03.42 43.45.931 69.41 3.071 72.09 5.931 163.02 23.753 266.65 62.119 67.61 25.034 136.69 78.582 189.05 153.173 36.4 51.857 79.22 75.401 152.73 94.504 72.54 25.034 155.73 48.644 238.41 57.724 223.07 24.51 486.84-89.169 504.85-350.227" stroke="url(#paint47_linear_2_109)"/><path opacity=".5" d="M49.35 12.552c5.98-3.72 28.58 123.168 89.16 271.11 15.33 37.446 32.17 77.171 50.72 116.037 24.73 51.888 54.8 102.125 91.13 145.802 38.2 46.036 84.35 85.682 136.61 109.606 37.63 17.303 77.94 25.264 116.85 27.964 9.38.68 18.83 1.26 28.5 1.64 12.15.02 25.11-.38 39.24-.63 21.48-.39 45.84-.99 72.53-.1 73.66 2.461 164.19 16.013 266.92 59.479 64.76 27.404 131.94 79.542 188.84 154.513 39.32 51.808 87.47 80.792 158.36 102.747 72.96 27.04 156.06 48.11 238.53 54.39 228.65 17.4 483.29-100.269 498.83-356.817" stroke="url(#paint48_linear_2_109)"/><path opacity=".5" d="M52.13 6.78c2.99-1.86 22.24 131.48 80.18 283.183 14.45 37.835 30.86 77.281 49.47 115.857 24.81 51.427 54.7 101.245 90.53 144.781 37.87 46.057 82.88 85.563 134.63 111.227 37.3 18.542 77.86 29.304 119.81 33.345 10.09.98 20.33 1.68 30.82 2.03 13.19-.04 27.22-.73 42.25-1.52 22.93-1.2 48.26-2.911 75.64-3.271 75.29-.99 165.57 8.102 267.2 56.839 62.05 29.754 127.22 80.582 188.64 155.853 42.28 51.817 95.72 86.182 164 110.976 73.38 29.05 156.29 47.53 238.64 51.04 234.07 10 479.73-111.359 492.82-363.396" stroke="url(#paint49_linear_2_109)"/><path opacity=".5" d="M54.91 1s79.61 696.823 497.9 708.695c131.34-.92 335.92-77.031 579.92 202.55 244 279.595 877.67 205.415 895.21-203.05" stroke="url(#paint50_linear_2_109)"/></g><defs><linearGradient id="paint0_linear_2_109" x1="1359.94" y1="202.072" x2="595.376" y2="963.715" gradientUnits="userSpaceOnUse"><stop stop-color="#1BA4E5" stop-opacity=".5"/><stop offset="1" stop-color="#B40FE7"/></linearGradient><linearGradient id="paint1_linear_2_109" x1="1362.39" y1="188.988" x2="594.13" y2="954.32" gradientUnits="userSpaceOnUse"><stop stop-color="#1BA4E5" stop-opacity=".5"/><stop offset="1" stop-color="#B40FE7"/></linearGradient><linearGradient id="paint2_linear_2_109" x1="1364.72" y1="175.78" x2="592.758" y2="944.799" gradientUnits="userSpaceOnUse"><stop stop-color="#1BA4E5" stop-opacity=".5"/><stop offset="1" stop-color="#B40FE7"/></linearGradient><linearGradient id="paint3_linear_2_109" x1="1366.93" y1="162.447" x2="591.262" y2="935.153" gradientUnits="userSpaceOnUse"><stop stop-color="#1BA4E5" stop-opacity=".5"/><stop offset="1" stop-color="#B40FE7"/></linearGradient><linearGradient id="paint4_linear_2_109" x1="1369.01" y1="148.992" x2="589.644" y2="925.384" gradientUnits="userSpaceOnUse"><stop stop-color="#1BA4E5" stop-opacity=".5"/><stop offset="1" stop-color="#B40FE7"/></linearGradient><linearGradient id="paint5_linear_2_109" x1="1370.97" y1="135.417" x2="587.905" y2="915.495" gradientUnits="userSpaceOnUse"><stop stop-color="#1BA4E5" stop-opacity=".5"/><stop offset="1" stop-color="#B40FE7"/></linearGradient><linearGradient id="paint6_linear_2_109" x1="1372.86" y1="121.773" x2="586.091" y2="905.542" gradientUnits="userSpaceOnUse"><stop stop-color="#1BA4E5" stop-opacity=".5"/><stop offset="1" stop-color="#B40FE7"/></linearGradient><linearGradient id="paint7_linear_2_109" x1="1374.75" y1="108.128" x2="584.275" y2="895.588" gradientUnits="userSpaceOnUse"><stop stop-color="#1BA4E5" stop-opacity=".5"/><stop offset="1" stop-color="#B40FE7"/></linearGradient><linearGradient id="paint8_linear_2_109" x1="1376.64" y1="94.484" x2="582.459" y2="885.635" gradientUnits="userSpaceOnUse"><stop stop-color="#1BA4E5" stop-opacity=".5"/><stop offset="1" stop-color="#B40FE7"/></linearGradient><linearGradient id="paint9_linear_2_109" x1="1378.53" y1="80.84" x2="580.643" y2="875.681" gradientUnits="userSpaceOnUse"><stop stop-color="#1BA4E5" stop-opacity=".5"/><stop offset="1" stop-color="#B40FE7"/></linearGradient><linearGradient id="paint10_linear_2_109" x1="1380.47" y1="67.235" x2="578.873" y2="865.774" gradientUnits="userSpaceOnUse"><stop stop-color="#1BA4E5" stop-opacity=".5"/><stop offset="1" stop-color="#B40FE7"/></linearGradient><linearGradient id="paint11_linear_2_109" x1="1383.02" y1="54.205" x2="577.693" y2="856.458" gradientUnits="userSpaceOnUse"><stop stop-color="#1BA4E5" stop-opacity=".5"/><stop offset="1" stop-color="#B40FE7"/></linearGradient><linearGradient id="paint12_linear_2_109" x1="1386.19" y1="41.797" x2="577.132" y2="847.764" gradientUnits="userSpaceOnUse"><stop stop-color="#1BA4E5" stop-opacity=".5"/><stop offset="1" stop-color="#B40FE7"/></linearGradient><linearGradient id="paint13_linear_2_109" x1="1389.85" y1="29.887" x2="577.068" y2="839.569" gradientUnits="userSpaceOnUse"><stop stop-color="#1BA4E5" stop-opacity=".5"/><stop offset="1" stop-color="#B40FE7"/></linearGradient><linearGradient id="paint14_linear_2_109" x1="1393.92" y1="18.385" x2="577.409" y2="831.781" gradientUnits="userSpaceOnUse"><stop stop-color="#1BA4E5" stop-opacity=".5"/><stop offset="1" stop-color="#B40FE7"/></linearGradient><linearGradient id="paint15_linear_2_109" x1="1398.33" y1="7.22" x2="578.086" y2="824.329" gradientUnits="userSpaceOnUse"><stop stop-color="#1BA4E5" stop-opacity=".5"/><stop offset="1" stop-color="#B40FE7"/></linearGradient><linearGradient id="paint16_linear_2_109" x1="1403.01" y1="-3.664" x2="579.043" y2="817.159" gradientUnits="userSpaceOnUse"><stop stop-color="#1BA4E5" stop-opacity=".5"/><stop offset="1" stop-color="#B40FE7"/></linearGradient><linearGradient id="paint17_linear_2_109" x1="1407.93" y1="-14.308" x2="580.238" y2="810.227" gradientUnits="userSpaceOnUse"><stop stop-color="#1BA4E5" stop-opacity=".5"/><stop offset="1" stop-color="#B40FE7"/></linearGradient><linearGradient id="paint18_linear_2_109" x1="1413.06" y1="-24.749" x2="581.635" y2="803.498" gradientUnits="userSpaceOnUse"><stop stop-color="#1BA4E5" stop-opacity=".5"/><stop offset="1" stop-color="#B40FE7"/></linearGradient><linearGradient id="paint19_linear_2_109" x1="1418.35" y1="-35.014" x2="583.206" y2="796.945" gradientUnits="userSpaceOnUse"><stop stop-color="#1BA4E5" stop-opacity=".5"/><stop offset="1" stop-color="#B40FE7"/></linearGradient><linearGradient id="paint20_linear_2_109" x1="1417.26" y1="-31.854" x2="588.523" y2="793.716" gradientUnits="userSpaceOnUse"><stop stop-color="#1BA4E5" stop-opacity=".5"/><stop offset="1" stop-color="#B40FE7"/></linearGradient><linearGradient id="paint21_linear_2_109" x1="1416.17" y1="-28.683" x2="593.852" y2="790.5" gradientUnits="userSpaceOnUse"><stop stop-color="#1BA4E5" stop-opacity=".5"/><stop offset="1" stop-color="#B40FE7"/></linearGradient><linearGradient id="paint22_linear_2_109" x1="1415.1" y1="-25.497" x2="599.195" y2="787.298" gradientUnits="userSpaceOnUse"><stop stop-color="#1BA4E5" stop-opacity=".5"/><stop offset="1" stop-color="#B40FE7"/></linearGradient><linearGradient id="paint23_linear_2_109" x1="1414.05" y1="-22.298" x2="604.551" y2="784.11" gradientUnits="userSpaceOnUse"><stop stop-color="#1BA4E5" stop-opacity=".5"/><stop offset="1" stop-color="#B40FE7"/></linearGradient><linearGradient id="paint24_linear_2_109" x1="1413.01" y1="-19.084" x2="609.923" y2="780.936" gradientUnits="userSpaceOnUse"><stop stop-color="#1BA4E5" stop-opacity=".5"/><stop offset="1" stop-color="#B40FE7"/></linearGradient><linearGradient id="paint25_linear_2_109" x1="1411.98" y1="-15.855" x2="615.309" y2="777.777" gradientUnits="userSpaceOnUse"><stop stop-color="#1BA4E5" stop-opacity=".5"/><stop offset="1" stop-color="#B40FE7"/></linearGradient><linearGradient id="paint26_linear_2_109" x1="1410.97" y1="-12.609" x2="620.712" y2="774.635" gradientUnits="userSpaceOnUse"><stop stop-color="#1BA4E5" stop-opacity=".5"/><stop offset="1" stop-color="#B40FE7"/></linearGradient><linearGradient id="paint27_linear_2_109" x1="1409.98" y1="-9.346" x2="626.132" y2="771.51" gradientUnits="userSpaceOnUse"><stop stop-color="#1BA4E5" stop-opacity=".5"/><stop offset="1" stop-color="#B40FE7"/></linearGradient><linearGradient id="paint28_linear_2_109" x1="1409.01" y1="-6.066" x2="631.569" y2="768.403" gradientUnits="userSpaceOnUse"><stop stop-color="#1BA4E5" stop-opacity=".5"/><stop offset="1" stop-color="#B40FE7"/></linearGradient><linearGradient id="paint29_linear_2_109" x1="1408.05" y1="-2.767" x2="637.025" y2="765.314" gradientUnits="userSpaceOnUse"><stop stop-color="#1BA4E5" stop-opacity=".5"/><stop offset="1" stop-color="#B40FE7"/></linearGradient><linearGradient id="paint30_linear_2_109" x1="1407.11" y1=".55" x2="642.5" y2="762.244" gradientUnits="userSpaceOnUse"><stop stop-color="#1BA4E5" stop-opacity=".5"/><stop offset="1" stop-color="#B40FE7"/></linearGradient><linearGradient id="paint31_linear_2_109" x1="1406.2" y1="3.888" x2="647.994" y2="759.194" gradientUnits="userSpaceOnUse"><stop stop-color="#1BA4E5" stop-opacity=".5"/><stop offset="1" stop-color="#B40FE7"/></linearGradient><linearGradient id="paint32_linear_2_109" x1="1405.3" y1="7.246" x2="653.509" y2="756.165" gradientUnits="userSpaceOnUse"><stop stop-color="#1BA4E5" stop-opacity=".5"/><stop offset="1" stop-color="#B40FE7"/></linearGradient><linearGradient id="paint33_linear_2_109" x1="1404.42" y1="10.624" x2="659.044" y2="753.156" gradientUnits="userSpaceOnUse"><stop stop-color="#1BA4E5" stop-opacity=".5"/><stop offset="1" stop-color="#B40FE7"/></linearGradient><linearGradient id="paint34_linear_2_109" x1="1403.57" y1="14.024" x2="664.6" y2="750.168" gradientUnits="userSpaceOnUse"><stop stop-color="#1BA4E5" stop-opacity=".5"/><stop offset="1" stop-color="#B40FE7"/></linearGradient><linearGradient id="paint35_linear_2_109" x1="1402.73" y1="17.445" x2="660.58" y2="756.762" gradientUnits="userSpaceOnUse"><stop stop-color="#1BA4E5" stop-opacity=".5"/><stop offset="1" stop-color="#B40FE7"/></linearGradient><linearGradient id="paint36_linear_2_109" x1="1401.92" y1="20.887" x2="655.273" y2="764.682" gradientUnits="userSpaceOnUse"><stop stop-color="#1BA4E5" stop-opacity=".5"/><stop offset="1" stop-color="#B40FE7"/></linearGradient><linearGradient id="paint37_linear_2_109" x1="1401.13" y1="24.351" x2="649.98" y2="772.629" gradientUnits="userSpaceOnUse"><stop stop-color="#1BA4E5" stop-opacity=".5"/><stop offset="1" stop-color="#B40FE7"/></linearGradient><linearGradient id="paint38_linear_2_109" x1="1400.36" y1="27.836" x2="644.702" y2="780.605" gradientUnits="userSpaceOnUse"><stop stop-color="#1BA4E5" stop-opacity=".5"/><stop offset="1" stop-color="#B40FE7"/></linearGradient><linearGradient id="paint39_linear_2_109" x1="1399.61" y1="31.342" x2="639.436" y2="788.61" gradientUnits="userSpaceOnUse"><stop stop-color="#1BA4E5" stop-opacity=".5"/><stop offset="1" stop-color="#B40FE7"/></linearGradient><linearGradient id="paint40_linear_2_109" x1="1398.88" y1="34.868" x2="634.181" y2="796.644" gradientUnits="userSpaceOnUse"><stop stop-color="#1BA4E5" stop-opacity=".5"/><stop offset="1" stop-color="#B40FE7"/></linearGradient><linearGradient id="paint41_linear_2_109" x1="1398.17" y1="38.413" x2="628.935" y2="804.707" gradientUnits="userSpaceOnUse"><stop stop-color="#1BA4E5" stop-opacity=".5"/><stop offset="1" stop-color="#B40FE7"/></linearGradient><linearGradient id="paint42_linear_2_109" x1="1397.47" y1="41.976" x2="623.697" y2="812.798" gradientUnits="userSpaceOnUse"><stop stop-color="#1BA4E5" stop-opacity=".5"/><stop offset="1" stop-color="#B40FE7"/></linearGradient><linearGradient id="paint43_linear_2_109" x1="1396.8" y1="45.556" x2="618.464" y2="820.919" gradientUnits="userSpaceOnUse"><stop stop-color="#1BA4E5" stop-opacity=".5"/><stop offset="1" stop-color="#B40FE7"/></linearGradient><linearGradient id="paint44_linear_2_109" x1="1396.14" y1="49.151" x2="613.233" y2="829.069" gradientUnits="userSpaceOnUse"><stop stop-color="#1BA4E5" stop-opacity=".5"/><stop offset="1" stop-color="#B40FE7"/></linearGradient><linearGradient id="paint45_linear_2_109" x1="1395.49" y1="52.761" x2="608.001" y2="837.247" gradientUnits="userSpaceOnUse"><stop stop-color="#1BA4E5" stop-opacity=".5"/><stop offset="1" stop-color="#B40FE7"/></linearGradient><linearGradient id="paint46_linear_2_109" x1="1394.86" y1="56.384" x2="602.759" y2="845.461" gradientUnits="userSpaceOnUse"><stop stop-color="#1BA4E5" stop-opacity=".5"/><stop offset="1" stop-color="#B40FE7"/></linearGradient><linearGradient id="paint47_linear_2_109" x1="1394.24" y1="60.018" x2="597.516" y2="853.698" gradientUnits="userSpaceOnUse"><stop stop-color="#1BA4E5" stop-opacity=".5"/><stop offset="1" stop-color="#B40FE7"/></linearGradient><linearGradient id="paint48_linear_2_109" x1="1393.63" y1="63.662" x2="592.263" y2="861.967" gradientUnits="userSpaceOnUse"><stop stop-color="#1BA4E5" stop-opacity=".5"/><stop offset="1" stop-color="#B40FE7"/></linearGradient><linearGradient id="paint49_linear_2_109" x1="1393.03" y1="67.316" x2="586.996" y2="870.269" gradientUnits="userSpaceOnUse"><stop stop-color="#1BA4E5" stop-opacity=".5"/><stop offset="1" stop-color="#B40FE7"/></linearGradient><linearGradient id="paint50_linear_2_109" x1="1392.47" y1="71.015" x2="581.746" y2="878.644" gradientUnits="userSpaceOnUse"><stop stop-color="#1BA4E5" stop-opacity=".5"/><stop offset="1" stop-color="#B40FE7"/></linearGradient></defs></svg>