<svg width="107" height="28" fill="none" xmlns="http://www.w3.org/2000/svg"><path d="M78.098 6.915a9.723 9.723 0 013.993-.242c1.349.19 2.581.62 3.698 1.286 1.11.641 2.085 1.498 2.925 2.57a9.724 9.724 0 011.787 3.579l.445 1.66-16.031 4.297a6.724 6.724 0 001.367 1.703c.57.482 1.185.87 1.843 1.163a7.31 7.31 0 002.113.468 6.676 6.676 0 002.218-.221c1.159-.31 2.13-.86 2.912-1.65.808-.796 1.194-1.163 1.557-2.282l3.366-.91a.484.484 0 01.59.623c-.56 1.593-1.49 3.57-3.104 5.07-1.277 1.187-2.72 2.054-4.42 2.51-1.34.358-2.683.442-4.032.252a10.765 10.765 0 01-3.688-1.248 10.766 10.766 0 01-2.924-2.57 10.009 10.009 0 01-1.798-3.617 9.722 9.722 0 01-.241-3.993c.19-1.348.606-2.578 1.247-3.688a10.403 10.403 0 012.56-2.963 10.008 10.008 0 013.617-1.797zm8.404 6.484a6.2 6.2 0 00-1.406-1.693 6.195 6.195 0 00-1.795-1.134 6.073 6.073 0 00-2.123-.508 6.558 6.558 0 00-2.18.211c-.746.2-1.423.506-2.03.917a6.71 6.71 0 00-1.586 1.502 6.884 6.884 0 00-1.025 1.89 6.725 6.725 0 00-.333 2.158L86.502 13.4z" fill="#fff"/><path fill-rule="evenodd" clip-rule="evenodd" d="M12.308.932v14.6c0 1.093-.213 2.12-.64 3.08-.4.96-.96 1.8-1.68 2.519a7.796 7.796 0 01-2.479 1.72c-.96.4-1.986.6-3.08.6H0v3.439h4.43c1.546 0 3.013-.293 4.4-.88 1.386-.613 2.585-1.426 3.598-2.44a11.467 11.467 0 002.44-3.599c.613-1.386.92-2.866.92-4.439V0l-3.48.932z" fill="#fff"/><path d="M24.053 6.915a9.722 9.722 0 013.992-.242c1.349.19 2.581.62 3.699 1.286 1.11.641 2.085 1.498 2.924 2.57a9.723 9.723 0 011.787 3.579l.445 1.66-16.031 4.297a6.724 6.724 0 001.367 1.703c.57.482 1.185.87 1.843 1.163a7.31 7.31 0 002.113.468 6.676 6.676 0 002.218-.221c1.16-.31 2.13-.86 2.912-1.65.808-.796 1.195-1.163 1.557-2.282l3.366-.91a.484.484 0 01.591.623c-.561 1.593-1.49 3.57-3.105 5.07-1.277 1.187-2.72 2.054-4.42 2.51-1.34.358-2.683.442-4.032.252a10.766 10.766 0 01-3.688-1.248 10.766 10.766 0 01-2.924-2.57 10.007 10.007 0 01-1.797-3.617 9.72 9.72 0 01-.242-3.993c.19-1.348.607-2.578 1.247-3.688a10.404 10.404 0 012.56-2.963 10.008 10.008 0 013.618-1.797zm8.403 6.484a6.197 6.197 0 00-1.406-1.693 6.195 6.195 0 00-1.794-1.134 6.073 6.073 0 00-2.124-.508 6.558 6.558 0 00-2.179.211c-.747.2-1.424.506-2.031.917a6.71 6.71 0 00-1.585 1.502 6.883 6.883 0 00-1.026 1.89 6.725 6.725 0 00-.332 2.158L32.456 13.4z" fill="#fff"/><path fill-rule="evenodd" clip-rule="evenodd" d="M55.69 7.624c0 1.114.354 1.963 1.063 2.545.709.558 1.588 1.013 2.638 1.368 1.076.33 2.23.633 3.464.912s2.375.684 3.425 1.216a7.09 7.09 0 012.677 2.165c.71.912 1.063 2.191 1.063 3.838 0 1.165-.236 2.203-.708 3.115a6.95 6.95 0 01-1.811 2.318c-.761.608-1.654 1.076-2.677 1.406a10.49 10.49 0 01-3.229.494 11.92 11.92 0 01-3.425-.494 9.783 9.783 0 01-2.953-1.52 7.793 7.793 0 01-2.047-2.432 6.983 6.983 0 01-.71-1.963l3.294-.883a4.39 4.39 0 00.526 1.517 4.83 4.83 0 001.3 1.405c.55.355 1.168.62 1.85.798a9.05 9.05 0 002.205.266c.603 0 1.207-.076 1.81-.228a4.876 4.876 0 001.615-.722 3.94 3.94 0 001.142-1.216c.288-.48.433-1.063.433-1.747 0-.861-.21-1.545-.63-2.052-.394-.532-.932-.962-1.614-1.292a9.922 9.922 0 00-2.323-.835 124.5 124.5 0 00-2.638-.684 45.383 45.383 0 01-2.638-.836 9.083 9.083 0 01-2.283-1.292 6.437 6.437 0 01-1.654-2.052c-.393-.836-.59-1.887-.59-3.153 0-1.14.223-2.153.669-3.04a6.99 6.99 0 011.85-2.28A7.85 7.85 0 0157.501.862 10.35 10.35 0 0160.69.367c1.207 0 2.362.177 3.464.532 1.103.33 2.074.823 2.914 1.482a7.67 7.67 0 011.186 1.155l-3.849 1.031a5.873 5.873 0 00-1.629-.667 8.42 8.42 0 00-2.126-.266c-.63 0-1.246.09-1.85.266a4.876 4.876 0 00-1.614.722c-.446.304-.814.71-1.102 1.216-.263.507-.394 1.102-.394 1.786zM39.932 6.453V3.277l3.425-.917v8.118l6.82-1.828v3.556l-6.82 1.828v6.239c0 .432.08.85.24 1.256a3.871 3.871 0 001.712 1.743c.398.162.81.243 1.234.243.77 0 1.434-.243 1.992-.73.204-.147.588-.649.497-1.477l3.322-.687c.55 2.284-.971 4.508-1.629 4.88-1.221 1-2.615 1.5-4.182 1.5a6.328 6.328 0 01-2.588-.528 7.114 7.114 0 01-2.111-1.418 7.26 7.26 0 01-1.394-2.148 6.653 6.653 0 01-.518-2.634V14.95l-1.898.509v-3.556l1.898-.51V6.454zm54.007.003V3.28l3.425-.917v8.134l6.885-1.844v3.556l-6.885 1.845v6.222c0 .432.08.85.239 1.256a3.873 3.873 0 001.713 1.743c.398.162.809.243 1.234.243.77 0 1.434-.243 1.991-.73.204-.147.589-.649.497-1.477l3.322-.687c.55 2.284-.971 4.508-1.628 4.88-1.221 1-2.615 1.5-4.182 1.5a6.35 6.35 0 01-2.589-.528 7.116 7.116 0 01-2.11-1.418 7.258 7.258 0 01-1.394-2.148 6.652 6.652 0 01-.518-2.634v-5.304l-1.833.49v-3.556l1.833-.49v-4.96z" fill="#fff"/></svg>