<svg width="1920" height="1251" fill="none" xmlns="http://www.w3.org/2000/svg"><g opacity=".5" stroke-width=".566" stroke-miterlimit="10"><path opacity=".5" d="M2002.78 105.493s-436.09-190.18-513.29 156.803c-52.23 234.723-22.92 414.48-112.92 524.984-75.64 92.877-262.19 86.904-356.38 56.599-131.323-42.251-266.504-205.1-401.113-236.088C337.695 543.025 98.839 1061.16 356.246 1362" stroke="url(#paint0_linear_2_217)"/><path opacity=".5" d="M2003 109.906s-430.07-186.669-511.77 150.293c-55.18 227.579-30.59 403.204-120.94 513.635-17.12 20.943-39.76 36.961-65.64 48.919-16.28 7.534-33.79 13.471-51.97 18.018-79.97 20.016-173.58 12.653-231.8-4.17-129.087-37.107-262.063-191.605-395.063-219.497-277.25-58.927-515.229 442.916-277.299 728.986" stroke="url(#paint1_linear_2_217)"/><path opacity=".5" d="M2003.22 114.306s-424.04-183.182-510.25 143.796C1434.86 478.526 1454.7 650.03 1364 760.376c-17.01 20.735-39.35 36.766-64.79 48.907-16.01 7.656-33.17 13.812-50.94 18.639-78.18 21.272-169.52 15.969-226.69 1.402-126.85-31.975-257.693-177.758-389.023-202.918-273.252-52.357-510.207 432.474-291.766 703.764" stroke="url(#paint2_linear_2_217)"/><path opacity=".5" d="M2003.42 118.707s-417.98-179.72-508.72 137.299c-61.03 213.243-45.95 380.652-137.01 490.924-16.9 20.541-38.93 36.571-63.92 48.895-15.75 7.79-32.56 14.153-49.92 19.249-76.38 22.515-165.47 19.285-221.59 6.96-124.617-26.83-253.266-164.092-382.975-186.327C370.128 589.542 134.1 1057.73 333.051 1314.25" stroke="url(#paint3_linear_2_217)"/><path opacity=".5" d="M2003.64 123.12s-411.9-176.283-507.19 130.789c-63.94 206.051-53.63 369.376-145.04 479.575-16.8 20.346-38.53 36.376-63.08 48.871-15.48 7.912-31.93 14.494-48.87 19.87-74.59 23.771-161.39 22.455-216.51 12.532-122.309-22.016-248.837-150.428-376.925-169.749-265.049-39.984-500.176 411.582-320.701 653.322" stroke="url(#paint4_linear_2_217)"/><path opacity=".5" d="M2003.85 127.521s-405.8-172.882-505.68 124.291c-66.83 198.835-61.32 358.088-153.08 468.227-16.7 20.15-38.11 36.18-62.22 48.858-15.21 8.046-31.31 14.836-47.85 20.48-72.79 25.014-157.33 25.733-211.4 18.09-120.078-16.957-244.4-136.774-370.879-153.158-260.929-33.816-495.154 401.131-335.169 628.101" stroke="url(#paint5_linear_2_217)"/><path opacity=".5" d="M2004.07 131.922S1604.4-37.583 1499.91 249.716c-69.69 191.618-69 346.811-161.11 456.877-16.59 19.943-37.7 35.985-61.37 48.846-14.95 8.168-30.69 15.177-46.81 21.101-70.99 26.27-153.28 29.013-206.3 23.662-117.853-11.898-239.956-123.122-364.839-136.58-256.785-27.671-490.145 390.688-349.649 602.888" stroke="url(#paint6_linear_2_217)"/><path opacity=".5" d="M2004.29 136.334S1610.8-29.831 1501.65 247.619c-72.53 184.377-76.68 335.536-169.14 445.516-16.48 19.748-37.28 35.79-60.51 48.834-14.69 8.301-30.08 15.518-45.78 21.723-69.2 27.513-149.24 32.292-201.21 29.22-115.63-6.827-235.503-109.481-358.788-119.989-252.63-21.54-485.124 380.237-364.117 577.667" stroke="url(#paint7_linear_2_217)"/><path opacity=".5" d="M2004.5 140.735s-387.29-162.85-501.12 104.787c-75.33 177.112-84.35 324.26-177.17 434.167-16.38 19.553-36.87 35.596-59.66 48.822-14.42 8.423-29.46 15.859-44.76 22.332-67.39 28.769-145.2 35.584-196.1 34.791-113.409-1.755-231.039-95.851-352.74-103.409C424.489 666.792 192.848 1052 294.365 1234.67" stroke="url(#paint8_linear_2_217)"/><path opacity=".5" d="M2004.72 145.148s-381.03-159.558-499.59 98.29c-78.11 169.846-92.27 312.788-185.21 422.817-16.32 19.322-36.45 35.401-58.81 48.798-14.15 8.557-28.83 16.201-43.72 22.954-65.59 30.012-141.15 38.862-191 40.362-111.208 3.328-226.583-82.223-346.7-86.819-244.268-9.35-475.092 359.33-393.052 527.23" stroke="url(#paint9_linear_2_217)"/><path opacity=".5" d="M2004.92 149.548s-374.7-156.29-498.08 91.781c-80.83 162.556-99.95 301.488-193.23 411.468-16.21 19.115-36.07 35.169-57.96 48.786a464.72 464.72 0 01-42.68 23.563c-63.79 31.268-137.12 42.154-185.91 45.921-109.001 8.411-222.11-68.619-340.654-70.24-240.076-3.292-470.071 348.883-407.52 502.003" stroke="url(#paint10_linear_2_217)"/><path opacity=".5" d="M2005.14 153.949S1636.81.901 1508.59 239.232c-83.53 155.267-107.65 290.2-201.27 400.12-16.11 18.919-35.65 34.961-57.1 48.773-13.64 8.777-27.6 16.883-41.66 24.185-62.01 32.524-133.09 45.457-180.81 51.492-106.803 13.506-217.62-55.015-334.604-53.65-235.858 2.743-465.062 338.438-421.988 476.788" stroke="url(#paint11_linear_2_217)"/><path opacity=".5" d="M2005.36 158.362s-361.9-149.818-495.03 78.785c-86.17 147.965-115.34 278.913-209.3 388.759-16 18.712-35.25 34.766-56.25 48.761-13.37 8.911-27 17.188-40.62 24.807-60.27 33.645-129.05 48.748-175.71 57.05-104.614 18.602-213.14-41.435-328.564-37.071-231.641 8.753-460.04 327.987-436.455 451.567" stroke="url(#paint12_linear_2_217)"/><path opacity=".5" d="M2005.57 162.763s-355.39-146.6-493.51 72.288c-88.77 140.663-123.03 267.624-217.33 377.409-15.91 18.517-34.83 34.571-55.4 48.749a724.374 724.374 0 01-39.58 25.416c-58.48 34.889-125.02 52.053-170.62 62.621-102.43 23.723-208.652-27.854-322.516-20.479-227.399 14.726-455.018 317.543-450.923 426.343" stroke="url(#paint13_linear_2_217)"/><path opacity=".5" d="M2005.79 167.176s-348.8-143.382-491.99 65.778c-91.3 133.373-130.72 256.348-225.36 366.06-15.8 18.322-34.42 34.377-54.54 48.725a896.132 896.132 0 01-38.57 26.038c-56.69 36.144-120.99 55.368-165.52 68.18-100.233 28.842-204.152-14.299-316.468-3.901-223.158 20.674-450.009 307.094-465.39 401.114" stroke="url(#paint14_linear_2_217)"/><path opacity=".5" d="M2006 171.576s-342.12-140.15-490.48 59.281c-93.79 126.084-138.4 245.06-233.39 354.711-15.7 18.115-34.01 34.182-53.69 48.713a1218.103 1218.103 0 01-37.53 26.647c-54.9 37.388-116.96 58.684-160.41 73.751-98.059 33.986-199.662-.756-310.43 12.69-218.916 26.587-444.987 296.651-479.87 375.901" stroke="url(#paint15_linear_2_217)"/><path opacity=".5" d="M2006.22 175.977s-335.36-136.909-488.95 52.784c-96.22 118.818-146.08 233.784-241.43 343.362-15.59 17.919-33.59 33.986-52.84 48.699-12.32 9.423-24.52 18.554-36.49 27.27-53.11 38.643-112.93 61.999-155.32 79.31-95.86 39.13-195.159 12.763-304.38 29.268-214.674 32.463-439.977 286.2-494.338 350.69" stroke="url(#paint16_linear_2_217)"/><path opacity=".5" d="M2006.44 180.39s-328.49-133.617-487.43 46.274c-98.57 111.577-153.77 222.508-249.46 332.001-15.49 17.724-33.19 33.791-51.99 48.687-12.05 9.545-23.9 18.895-35.46 27.879-51.32 39.887-108.9 65.328-150.23 84.881-93.664 44.299-190.659 26.27-298.332 45.86-210.421 38.289-434.956 275.738-508.805 325.468" stroke="url(#paint17_linear_2_217)"/><path opacity=".5" d="M2006.64 184.79s-321.54-130.276-485.9 39.777c-100.87 104.361-161.44 211.232-257.49 320.652-15.38 17.517-32.78 33.596-51.13 48.675-11.79 9.679-23.28 19.236-34.44 28.501-49.52 41.142-104.85 68.655-145.11 90.439-91.463 49.468-186.167 39.753-292.292 62.439-206.179 44.092-429.934 265.297-523.273 300.247" stroke="url(#paint18_linear_2_217)"/><path opacity=".5" d="M2006.86 189.191s-314.5-126.876-484.38 33.279c-103.11 97.205-169.11 199.956-265.52 309.303-15.27 17.322-32.36 33.413-50.28 48.651-11.52 9.801-22.67 19.577-33.41 29.122-47.73 42.398-100.81 71.996-140.02 96.01-89.255 54.649-181.679 53.223-286.244 79.03-201.95 49.858-424.924 254.844-537.74 275.024" stroke="url(#paint19_linear_2_217)"/><path opacity=".5" d="M2007.07 193.604s-307.37-123.377-482.87 26.77c-105.29 90.098-176.78 188.68-273.56 297.953-15.16 17.127-31.94 33.219-49.42 48.639-11.25 9.935-22.05 19.919-32.37 29.732-45.94 43.653-96.77 75.336-134.93 101.569-87.036 59.842-177.193 66.668-280.198 95.62-197.732 55.575-419.903 244.403-552.208 249.803" stroke="url(#paint20_linear_2_217)"/><path opacity=".5" d="M2007.29 198.005s-300.15-119.77-481.35 20.272c-107.44 83.04-184.46 177.416-281.59 286.604-15.06 16.932-31.53 33.024-48.57 48.627-10.99 10.057-21.42 20.26-31.33 30.354-44.14 44.921-92.72 78.675-129.82 107.14-84.796 65.034-172.723 80.089-274.155 112.198-193.528 61.268-414.894 233.96-566.676 224.58" stroke="url(#paint21_linear_2_217)"/><path opacity=".5" d="M2007.51 202.417s-292.88-116.05-479.82 13.775c-109.55 76.067-192.12 166.153-289.62 275.243-14.96 16.737-31.12 32.829-47.72 48.615-10.73 10.191-20.81 20.601-30.31 30.963-42.34 46.177-88.66 82.016-124.73 112.699-82.563 70.24-168.248 93.499-268.108 128.789-189.334 66.912-409.872 223.509-581.143 199.359" stroke="url(#paint22_linear_2_217)"/><path opacity=".5" d="M2007.72 206.818s-285.54-112.187-478.3 7.278c-111.62 69.167-199.78 154.889-297.66 263.894-14.84 16.542-30.7 32.645-46.86 48.602-10.46 10.325-20.18 20.955-29.28 31.585-40.54 47.432-84.6 85.356-119.63 118.269-80.306 75.446-163.796 106.884-262.059 145.369-185.179 72.532-404.851 213.065-595.612 174.137" stroke="url(#paint23_linear_2_217)"/><path opacity=".5" d="M2007.93 211.219s-278.17-108.164-476.77.768c-113.68 62.353-207.45 143.625-305.69 252.545-14.73 16.347-30.27 32.45-46.01 48.59-10.19 10.447-19.55 21.308-28.24 32.207-38.63 48.76-80.54 88.708-114.52 123.828-78.042 80.65-159.363 120.256-256.017 161.959-181.047 78.115-399.841 202.614-610.091 148.916" stroke="url(#paint24_linear_2_217)"/><path opacity=".5" d="M2008.14 215.631s-270.8-103.982-475.26-5.729c-115.75 55.624-214.91 132.544-313.72 241.196-14.6 16.176-29.84 32.292-45.16 48.566-9.89 10.605-18.93 21.649-27.21 32.816-36.85 50.016-76.47 92.048-109.43 129.399-75.777 85.856-154.94 133.605-249.961 178.538-176.94 83.674-394.82 192.163-624.559 123.694" stroke="url(#paint25_linear_2_217)"/><path opacity=".5" d="M2008.36 220.032s-263.45-99.642-473.74-12.226c-117.82 48.98-222.58 121.268-321.75 229.846-14.49 15.969-29.42 32.097-44.3 48.554-9.64 10.727-18.31 21.991-26.18 33.438-35.05 51.26-72.4 95.388-104.34 134.958-73.48 91.061-150.535 146.941-243.911 195.128-172.868 89.196-389.81 181.72-639.026 98.485" stroke="url(#paint26_linear_2_217)"/><path opacity=".5" d="M2008.58 224.445s-256.14-95.145-472.22-18.736c-119.93 42.422-230.26 109.992-329.78 218.485-14.39 15.774-29.01 31.902-43.45 48.542-9.37 10.861-17.68 22.332-25.14 34.047-33.25 52.515-68.32 98.728-99.24 140.529-71.194 96.254-146.153 160.265-237.871 211.707-168.834 94.706-384.788 171.261-653.494 73.264" stroke="url(#paint27_linear_2_217)"/><path opacity=".5" d="M2008.79 228.846s-248.88-90.5-470.69-25.234c-122.1 35.925-237.95 98.717-337.82 207.136-14.28 15.579-28.59 31.707-42.6 48.53-9.1 10.983-17.06 22.673-24.12 34.669-31.46 53.758-64.24 102.068-94.13 146.087-68.9 101.447-141.787 173.565-231.823 228.299-164.848 100.191-379.766 160.817-667.961 48.041" stroke="url(#paint28_linear_2_217)"/><path opacity=".5" d="M2009.01 233.247s-241.71-85.722-469.17-31.732c-124.3 29.501-245.62 87.429-345.85 195.787-14.19 15.385-28.18 31.512-41.74 48.518-8.84 11.117-16.46 23.015-23.09 35.29-29.65 55.015-60.09 105.458-89.03 151.659-66.443 106.737-137.465 186.876-225.782 244.877-160.9 105.665-374.758 150.364-682.43 22.82" stroke="url(#paint29_linear_2_217)"/><path opacity=".5" d="M2009.23 237.659s-234.64-80.821-467.66-38.24c-126.58 23.137-253.3 76.152-353.88 184.438a665.707 665.707 0 00-40.89 48.492c-8.57 11.24-15.83 23.357-22.05 35.901-27.86 56.258-56.04 108.761-83.94 157.217-64.21 111.87-133.148 200.163-219.735 261.468-156.986 111.138-369.735 139.915-696.897-2.402" stroke="url(#paint30_linear_2_217)"/><path opacity=".5" d="M2009.43 242.06S1415.2 44.152 1141.36 418.892c-8.31 11.373-15.21 23.697-21.02 36.522C925.579 885.216 738.365 1150.48 116.439 868.625" stroke="url(#paint31_linear_2_217)"/><path opacity=".5" d="M2004.53 248.387c-2.47-2.158-95.03-33.353-222.68-49.651-123.74-15.811-279.52-18.2-420.8 35.815-87.02 32.986-168.84 87.635-233.12 173.613-8.45 11.312-15.49 23.588-21.46 36.351-57.89 124.109-112.843 236.271-177.259 325.503-31.519 43.398-65.354 81.395-102.907 112.906-97.8 82.053-220.415 120.546-392.967 94.609-92.473-13.909-198.975-47.189-320.969-101.691" stroke="url(#paint32_linear_2_217)"/><path opacity=".5" d="M1999.65 254.714c-4.95-4.304-97.28-35.852-223.37-54.137-124.93-18.127-281.01-23.966-423.91 26.575-88.29 31.219-172.2 84.405-237.82 170.26-8.58 11.264-15.79 23.479-21.9 36.181-59.17 123.292-112.845 236.746-175.725 327.332-30.495 43.921-63.416 82.454-99.957 114.795-95.118 84.222-214.65 126.72-386.214 105.043-92.998-11.751-200.585-44.08-322.408-97.729" stroke="url(#paint33_linear_2_217)"/><path opacity=".5" d="M1994.75 261.053c-7.43-6.461-99.52-38.412-224.06-58.623-126.14-20.48-282.6-29.927-427.02 17.334-89.64 29.33-175.55 81.187-242.54 166.921-8.72 11.215-16.07 23.356-22.34 36.01-60.43 122.463-112.977 237.136-174.199 329.148-29.545 44.397-61.491 83.527-96.996 116.697-92.437 86.392-208.934 132.93-379.462 115.478-93.546-9.569-202.193-40.971-323.846-93.767" stroke="url(#paint34_linear_2_217)"/><path opacity=".5" d="M1989.85 267.379c-9.89-8.618-101.76-41.032-224.76-63.109-127.35-22.868-284.19-35.912-430.13 8.095-90.97 27.428-178.91 77.956-247.26 163.58-8.85 11.167-16.35 23.247-22.78 35.84-61.7 121.646-113.111 237.502-172.664 330.964-28.594 44.872-59.565 84.588-94.034 118.587-89.767 88.562-203.242 139.204-372.709 125.912-94.119-7.375-203.803-37.85-325.285-89.805" stroke="url(#paint35_linear_2_217)"/><path opacity=".5" d="M1984.95 273.706c-12.36-10.776-104.02-43.714-225.45-67.595-128.59-25.294-285.81-41.898-433.24-1.146-92.33 25.527-182.46 74.592-251.97 160.229-9.01 11.093-16.64 23.137-23.23 35.68-62.979 120.818-113.256 237.868-171.139 332.781-27.643 45.336-57.639 85.661-91.084 120.488-87.086 90.732-197.574 145.515-365.957 136.348-94.704-5.157-205.411-34.742-326.723-85.844" stroke="url(#paint36_linear_2_217)"/><path opacity=".5" d="M1980.06 280.033c-14.83-12.922-106.28-46.457-226.13-72.081-129.83-27.769-287.43-47.908-436.35-10.386-93.68 23.612-185.85 71.337-256.7 156.888-9.14 11.044-16.94 23.015-23.67 35.51-64.499 119.866-113.399 238.209-169.599 334.597-26.693 45.787-55.714 86.721-88.123 122.378-84.404 92.901-191.943 151.902-359.204 146.782-95.302-2.913-207.021-31.633-328.161-81.881" stroke="url(#paint37_linear_2_217)"/><path opacity=".5" d="M1975.16 286.359c-17.31-15.079-108.54-49.248-226.83-76.566-131.07-30.281-289.06-53.93-439.45-19.627-95.05 21.687-189.22 68.095-261.42 153.536-9.28 10.996-17.23 22.906-24.11 35.34-65.801 119.025-113.555 238.55-168.062 336.413-25.754 46.25-53.787 87.782-85.172 124.279-81.724 95.06-186.325 158.339-352.44 157.218-95.923-.646-208.63-28.525-329.612-77.908" stroke="url(#paint38_linear_2_217)"/><path opacity=".5" d="M1970.26 292.686c-19.78-17.237-110.79-52.089-227.52-81.053-132.33-32.828-290.69-59.975-442.56-28.854-96.41 19.748-192.6 64.84-266.14 150.196-9.42 10.934-17.51 22.795-24.54 35.169-67.101 118.184-113.734 238.891-166.547 338.23-24.827 46.7-51.861 88.854-82.21 126.168-79.042 97.23-180.742 164.836-345.688 167.648-96.545 1.65-210.238-25.412-331.05-73.941" stroke="url(#paint39_linear_2_217)"/><path opacity=".5" d="M1965.36 299.013c-22.26-19.395-113.03-54.99-228.22-85.539-133.58-35.437-292.32-66.022-445.66-38.094-97.78 17.81-195.98 61.609-270.86 146.855-9.55 10.886-17.8 22.674-24.982 34.998-68.402 117.343-113.913 239.209-165.007 340.047-23.889 47.139-49.924 89.915-79.261 128.07-76.373 99.399-175.16 171.395-338.936 178.09-97.19 3.97-211.847-22.311-332.488-69.987" stroke="url(#paint40_linear_2_217)"/><path opacity=".5" d="M1960.47 305.34c-24.73-21.541-115.29-57.941-228.9-90.025-134.84-38.083-293.98-72.093-448.77-47.335-99.16 15.86-199.36 58.367-275.57 143.503-9.691 10.837-18.088 22.565-25.426 34.828-69.681 116.514-114.096 239.525-163.483 341.862-22.963 47.591-47.998 90.988-76.3 129.96-73.691 101.569-169.589 178.014-332.183 188.527-97.836 6.32-213.455-19.205-333.926-66.027" stroke="url(#paint41_linear_2_217)"/><path opacity=".5" d="M1955.57 311.678c-27.2-23.697-117.52-60.938-229.59-94.51-136.1-40.764-295.63-78.176-451.89-56.575-100.53 13.897-202.71 55.124-280.28 140.163-9.836 10.776-18.38 22.454-25.876 34.669-70.973 115.673-114.291 239.843-161.948 343.679-22.049 48.029-46.072 92.048-73.337 131.861-71.01 103.739-164.044 184.682-325.431 198.955-98.483 8.72-215.065-16.089-335.365-62.058" stroke="url(#paint42_linear_2_217)"/><path opacity=".5" d="M1950.67 318.005c-29.68-25.855-119.75-63.986-230.28-98.997-137.34-43.507-297.29-84.271-455-65.815-101.91 11.922-206.09 51.894-285 136.811-9.97 10.727-18.66 22.345-26.315 34.498-72.253 114.845-114.498 240.148-160.424 345.496-21.122 48.468-44.146 93.109-70.388 133.763-68.328 105.896-158.486 191.411-318.678 209.389-99.141 11.13-216.674-12.98-336.803-58.084" stroke="url(#paint43_linear_2_217)"/><path opacity=".5" d="M1945.79 324.332c-32.15-28.001-121.97-67.071-230.99-103.483-138.57-46.286-298.94-90.39-458.1-75.055-103.28 9.947-209.46 48.651-289.717 133.471-10.104 10.678-18.953 22.235-26.754 34.327-73.532 114.015-114.705 240.44-158.888 347.324-20.22 48.895-42.22 94.182-67.426 135.653-65.647 108.066-152.928 198.201-311.926 219.841-99.799 13.58-218.282-9.86-338.24-54.127" stroke="url(#paint44_linear_2_217)"/><path opacity=".5" d="M1940.89 330.658c-34.62-30.158-124.19-70.203-231.67-107.968-139.79-49.115-300.6-96.51-461.21-84.296-104.67 7.961-212.81 45.421-294.434 130.131-10.239 10.63-19.234 22.113-27.193 34.157-74.812 113.186-114.936 240.732-157.364 349.14-19.307 49.334-40.295 95.242-64.477 137.554-62.978 110.237-147.382 205.04-305.174 230.274-100.457 16.07-219.903-6.75-339.678-50.163" stroke="url(#paint45_linear_2_217)"/><path opacity=".5" d="M1935.99 336.985c-37.09-32.316-126.39-73.373-232.36-112.454-140.99-52.004-302.26-102.642-464.32-93.524-106.05 5.961-216.18 42.203-299.154 126.779-10.372 10.569-19.526 22.003-27.631 33.986-76.08 112.357-115.168 241.025-155.829 350.956-18.404 49.761-38.369 96.315-61.515 139.444-60.296 112.406-141.812 211.927-298.421 240.708-101.103 18.58-221.512-3.64-341.117-46.201" stroke="url(#paint46_linear_2_217)"/><path opacity=".5" d="M1931.09 343.312c-39.57-34.474-128.57-76.567-233.06-116.941-142.16-54.929-303.92-108.797-467.42-102.763-107.43 3.962-219.53 38.972-303.873 123.438-10.507 10.52-19.806 21.894-28.082 33.828-77.348 111.528-115.413 241.305-154.306 352.773-17.515 50.187-36.431 97.375-58.553 141.345-57.615 114.576-136.242 218.876-291.669 251.148-101.749 21.12-223.121-.54-342.555-42.244" stroke="url(#paint47_linear_2_217)"/><path opacity=".5" d="M1926.2 349.639c-42.04-36.62-130.73-79.809-233.75-121.427-143.34-57.916-305.58-114.966-470.53-112.004-108.82 1.951-222.881 35.754-308.59 120.098-10.641 10.472-20.087 21.784-28.521 33.658-78.615 110.711-115.681 241.598-152.77 354.589-16.613 50.614-34.505 98.448-55.603 143.235-54.934 116.746-130.66 225.86-284.905 261.582-102.382 23.69-224.73 2.57-343.993-38.282" stroke="url(#paint48_linear_2_217)"/><path opacity=".5" d="M1921.3 355.978c-44.51-38.777-132.88-83.077-234.43-125.913-144.47-60.939-307.24-121.134-473.64-121.244-110.2-.073-226.234 32.523-313.308 116.746-10.774 10.422-20.379 21.674-28.96 33.486-79.882 109.883-115.948 241.879-151.246 356.406-15.735 51.04-32.579 99.509-52.641 145.137-52.252 118.903-125.053 232.894-278.152 272.014-103.004 26.3-226.339 5.68-345.432-34.305" stroke="url(#paint49_linear_2_217)"/><path opacity=".5" d="M1916.4 362.304c-46.99-40.935-135.02-86.38-235.13-130.398-145.59-64.024-308.89-127.327-476.75-130.485-111.57-2.096-229.578 29.306-318.017 113.406-10.909 10.374-20.66 21.564-29.399 33.316-81.138 109.066-116.229 242.146-149.71 358.222-14.846 51.467-30.654 100.569-49.692 147.026-49.583 121.073-119.435 239.976-271.4 282.449-103.613 28.95-227.947 8.79-346.87-30.34" stroke="url(#paint50_linear_2_217)"/><path opacity=".5" d="M1911.5 368.631c-49.46-43.092-137.13-89.708-235.82-134.885-146.68-67.143-310.54-133.519-479.86-139.724-112.95-4.132-232.932 26.099-322.737 110.053-11.042 10.326-20.939 21.455-29.837 33.146-82.394 108.249-116.521 242.427-148.187 360.038-13.968 51.894-28.728 101.642-46.73 148.928-46.901 123.243-113.791 247.096-264.647 292.883-104.211 31.63-229.557 11.9-348.309-26.38" stroke="url(#paint51_linear_2_217)"/><path opacity=".5" d="M1906.61 374.958c-51.92-45.238-139.24-93.06-236.51-139.371-147.73-70.325-312.2-139.724-482.97-148.964-114.33-6.18-236.272 22.881-327.454 106.713-11.177 10.276-21.22 21.345-30.288 32.974-83.649 107.445-116.826 242.708-146.651 361.855-13.103 52.32-26.803 102.703-43.781 150.817-44.22 125.413-108.123 254.252-257.895 303.318-104.796 34.33-231.165 15.02-349.746-22.42" stroke="url(#paint52_linear_2_217)"/><path opacity=".5" d="M1901.71 381.285c-54.39-47.396-141.31-96.437-237.2-143.857-148.74-73.556-313.84-145.942-486.08-158.193-115.7-8.228-239.615 19.675-332.173 103.373-11.311 10.228-21.501 21.236-30.728 32.817-84.904 106.627-117.142 242.975-145.115 363.67-12.225 52.747-24.876 103.776-40.819 152.719-41.538 127.583-102.443 261.432-251.142 313.756-105.357 37.05-232.774 18.12-351.185-18.46" stroke="url(#paint53_linear_2_217)"/><path opacity=".5" d="M1896.81 387.611c-56.87-49.553-143.37-99.838-237.89-148.342-149.72-76.835-315.47-152.17-489.19-167.433-117.07-10.289-242.969 16.469-336.893 100.021-11.445 10.179-21.793 21.125-31.165 32.645-86.16 105.823-117.46 243.256-143.592 365.5-11.36 53.173-22.939 104.835-37.857 154.608-38.857 129.741-96.728 268.66-244.39 324.19-105.893 39.82-234.384 21.23-352.636-14.49" stroke="url(#paint54_linear_2_217)"/><path opacity=".5" d="M1891.91 393.938c-59.34-51.699-145.42-103.263-238.59-152.829-150.67-80.163-317.11-158.411-492.3-176.673-118.43-12.348-246.301 13.263-341.602 96.681-11.579 10.13-22.074 21.016-31.605 32.475-87.403 105.019-117.801 243.524-142.056 367.316-10.506 53.588-21.013 105.896-34.907 156.51-36.188 131.91-90.975 275.901-237.638 334.622-106.417 42.6-235.992 24.34-354.073-10.52" stroke="url(#paint55_linear_2_217)"/><path opacity=".5" d="M1887.03 400.277c-61.82-53.856-147.44-106.701-239.29-157.315-151.57-83.539-318.75-164.653-495.41-185.913-119.8-14.42-249.47 10.252-346.319 93.341a296.634 296.634 0 00-32.044 32.304c-88.646 104.214-118.142 243.804-140.532 369.132-9.654 54.015-19.087 106.969-31.946 158.4-33.506 134.08-85.209 283.166-230.885 345.054-106.905 45.42-237.601 27.45-355.512-6.56" stroke="url(#paint56_linear_2_217)"/><path opacity=".5" d="M1882.13 406.604c-64.3-56.014-149.43-110.151-239.98-161.801-152.44-86.965-320.37-170.907-498.52-195.153-121.17-16.494-252.824 7.021-351.039 89.988-11.822 10.057-22.609 20.821-32.482 32.133-89.707 103.568-118.508 244.085-138.997 370.949-8.8 54.441-17.161 108.029-28.996 160.301-30.824 136.25-79.407 290.469-224.133 355.489-107.379 48.25-239.209 30.56-356.95-2.59" stroke="url(#paint57_linear_2_217)"/><path opacity=".5" d="M1877.23 412.931c-66.77-58.172-151.41-113.625-240.66-166.287-153.26-90.427-322-177.16-501.63-204.394-122.52-18.578-256.189 3.804-355.756 86.648-11.957 10.009-22.902 20.712-32.933 31.963-90.987 102.752-118.874 244.365-137.473 372.765-7.947 54.88-15.236 109.102-26.035 162.191-28.143 138.42-73.569 297.77-217.38 365.923-107.831 51.1-240.819 33.67-358.388 1.37" stroke="url(#paint58_linear_2_217)"/><path opacity=".5" d="M1872.34 419.257c-69.24-60.317-153.37-117.099-241.36-170.773-154.02-93.95-323.61-183.426-504.73-213.633-123.87-20.663-259.553.573-360.473 83.295a319.4 319.4 0 00-33.372 31.805c-92.254 101.922-119.252 244.645-135.938 374.581-7.106 55.307-13.309 110.163-23.072 164.092-25.462 140.59-67.707 305.11-210.616 376.366-108.258 53.97-242.428 36.77-359.827 5.32" stroke="url(#paint59_linear_2_217)"/><path opacity=".5" d="M1867.44 425.584c-71.71-62.475-155.29-120.598-242.05-175.259-154.75-97.509-325.18-189.984-507.84-222.861-125.191-22.943-262.908-2.646-365.193 79.955a326.696 326.696 0 00-33.811 31.634C625.012 240.158 598.917 383.991 584.132 515.45c-6.264 55.734-11.384 111.224-20.123 165.982-22.792 142.748-61.807 312.448-203.863 386.798-108.66 56.87-244.036 39.88-361.265 9.3" stroke="url(#paint60_linear_2_217)"/><path opacity=".5" d="M1862.54 431.911c-74.18-64.633-157.21-124.097-242.75-179.745-155.41-101.118-326.8-196.117-510.95-232.102-126.548-24.941-266.264-5.876-369.902 76.615a331.498 331.498 0 00-34.25 31.464C609.887 228.431 584.511 373.361 571.81 506.356c-5.497 56.161-9.446 112.297-17.161 167.884-20.111 144.917-55.884 319.798-197.111 397.23-109.038 59.78-245.645 43.01-362.703 13.26" stroke="url(#paint61_linear_2_217)"/><path opacity=".5" d="M1857.64 438.237c-76.65-66.79-159.1-127.607-243.43-184.23-156.02-104.763-328.43-202.248-514.06-241.343-127.914-26.94-269.629-9.093-374.62 73.264-125.199 98.216-153.915 261.894-166.042 411.322-4.595 56.599-7.521 113.357-14.212 169.773-17.43 147.088-49.924 327.162-190.359 407.667-109.391 62.71-247.254 46.11-364.14 17.22" stroke="url(#paint62_linear_2_217)"/></g><defs><linearGradient id="paint0_linear_2_217" x1="717.793" y1="318.601" x2="1322.67" y2="862.318" gradientUnits="userSpaceOnUse"><stop stop-color="#1BA4E5" stop-opacity=".5"/><stop offset="1" stop-color="#B40FE7"/></linearGradient><linearGradient id="paint1_linear_2_217" x1="728.389" y1="325.754" x2="1326.16" y2="863.082" gradientUnits="userSpaceOnUse"><stop stop-color="#1BA4E5" stop-opacity=".5"/><stop offset="1" stop-color="#B40FE7"/></linearGradient><linearGradient id="paint2_linear_2_217" x1="739.055" y1="332.97" x2="1329.65" y2="863.846" gradientUnits="userSpaceOnUse"><stop stop-color="#1BA4E5" stop-opacity=".5"/><stop offset="1" stop-color="#B40FE7"/></linearGradient><linearGradient id="paint3_linear_2_217" x1="749.598" y1="340.076" x2="1333.14" y2="864.611" gradientUnits="userSpaceOnUse"><stop stop-color="#1BA4E5" stop-opacity=".5"/><stop offset="1" stop-color="#B40FE7"/></linearGradient><linearGradient id="paint4_linear_2_217" x1="760.069" y1="347.116" x2="1336.63" y2="865.374" gradientUnits="userSpaceOnUse"><stop stop-color="#1BA4E5" stop-opacity=".5"/><stop offset="1" stop-color="#B40FE7"/></linearGradient><linearGradient id="paint5_linear_2_217" x1="770.453" y1="354.078" x2="1340.11" y2="866.138" gradientUnits="userSpaceOnUse"><stop stop-color="#1BA4E5" stop-opacity=".5"/><stop offset="1" stop-color="#B40FE7"/></linearGradient><linearGradient id="paint6_linear_2_217" x1="780.733" y1="360.946" x2="1343.6" y2="866.902" gradientUnits="userSpaceOnUse"><stop stop-color="#1BA4E5" stop-opacity=".5"/><stop offset="1" stop-color="#B40FE7"/></linearGradient><linearGradient id="paint7_linear_2_217" x1="790.884" y1="367.697" x2="1347.09" y2="867.665" gradientUnits="userSpaceOnUse"><stop stop-color="#1BA4E5" stop-opacity=".5"/><stop offset="1" stop-color="#B40FE7"/></linearGradient><linearGradient id="paint8_linear_2_217" x1="800.878" y1="374.306" x2="1350.58" y2="868.428" gradientUnits="userSpaceOnUse"><stop stop-color="#1BA4E5" stop-opacity=".5"/><stop offset="1" stop-color="#B40FE7"/></linearGradient><linearGradient id="paint9_linear_2_217" x1="810.673" y1="380.735" x2="1354.07" y2="869.189" gradientUnits="userSpaceOnUse"><stop stop-color="#1BA4E5" stop-opacity=".5"/><stop offset="1" stop-color="#B40FE7"/></linearGradient><linearGradient id="paint10_linear_2_217" x1="820.213" y1="386.931" x2="1357.57" y2="869.949" gradientUnits="userSpaceOnUse"><stop stop-color="#1BA4E5" stop-opacity=".5"/><stop offset="1" stop-color="#B40FE7"/></linearGradient><linearGradient id="paint11_linear_2_217" x1="829.415" y1="392.821" x2="1361.06" y2="870.708" gradientUnits="userSpaceOnUse"><stop stop-color="#1BA4E5" stop-opacity=".5"/><stop offset="1" stop-color="#B40FE7"/></linearGradient><linearGradient id="paint12_linear_2_217" x1="838.157" y1="398.291" x2="1364.56" y2="871.463" gradientUnits="userSpaceOnUse"><stop stop-color="#1BA4E5" stop-opacity=".5"/><stop offset="1" stop-color="#B40FE7"/></linearGradient><linearGradient id="paint13_linear_2_217" x1="846.239" y1="403.16" x2="1368.06" y2="872.213" gradientUnits="userSpaceOnUse"><stop stop-color="#1BA4E5" stop-opacity=".5"/><stop offset="1" stop-color="#B40FE7"/></linearGradient><linearGradient id="paint14_linear_2_217" x1="853.307" y1="407.105" x2="1371.56" y2="872.957" gradientUnits="userSpaceOnUse"><stop stop-color="#1BA4E5" stop-opacity=".5"/><stop offset="1" stop-color="#B40FE7"/></linearGradient><linearGradient id="paint15_linear_2_217" x1="858.609" y1="409.45" x2="1375.08" y2="873.694" gradientUnits="userSpaceOnUse"><stop stop-color="#1BA4E5" stop-opacity=".5"/><stop offset="1" stop-color="#B40FE7"/></linearGradient><linearGradient id="paint16_linear_2_217" x1="859.669" y1="407.971" x2="1378.59" y2="874.425" gradientUnits="userSpaceOnUse"><stop stop-color="#1BA4E5" stop-opacity=".5"/><stop offset="1" stop-color="#B40FE7"/></linearGradient><linearGradient id="paint17_linear_2_217" x1="849.171" y1="396.203" x2="1382.06" y2="875.211" gradientUnits="userSpaceOnUse"><stop stop-color="#1BA4E5" stop-opacity=".5"/><stop offset="1" stop-color="#B40FE7"/></linearGradient><linearGradient id="paint18_linear_2_217" x1="838.157" y1="383.973" x2="1385.53" y2="875.998" gradientUnits="userSpaceOnUse"><stop stop-color="#1BA4E5" stop-opacity=".5"/><stop offset="1" stop-color="#B40FE7"/></linearGradient><linearGradient id="paint19_linear_2_217" x1="827.154" y1="371.741" x2="1389" y2="876.778" gradientUnits="userSpaceOnUse"><stop stop-color="#1BA4E5" stop-opacity=".5"/><stop offset="1" stop-color="#B40FE7"/></linearGradient><linearGradient id="paint20_linear_2_217" x1="816.156" y1="359.503" x2="1392.48" y2="877.554" gradientUnits="userSpaceOnUse"><stop stop-color="#1BA4E5" stop-opacity=".5"/><stop offset="1" stop-color="#B40FE7"/></linearGradient><linearGradient id="paint21_linear_2_217" x1="805.159" y1="347.258" x2="1395.96" y2="878.325" gradientUnits="userSpaceOnUse"><stop stop-color="#1BA4E5" stop-opacity=".5"/><stop offset="1" stop-color="#B40FE7"/></linearGradient><linearGradient id="paint22_linear_2_217" x1="794.16" y1="335.008" x2="1399.45" y2="879.094" gradientUnits="userSpaceOnUse"><stop stop-color="#1BA4E5" stop-opacity=".5"/><stop offset="1" stop-color="#B40FE7"/></linearGradient><linearGradient id="paint23_linear_2_217" x1="783.161" y1="322.754" x2="1402.94" y2="879.86" gradientUnits="userSpaceOnUse"><stop stop-color="#1BA4E5" stop-opacity=".5"/><stop offset="1" stop-color="#B40FE7"/></linearGradient><linearGradient id="paint24_linear_2_217" x1="772.16" y1="310.496" x2="1406.42" y2="880.626" gradientUnits="userSpaceOnUse"><stop stop-color="#1BA4E5" stop-opacity=".5"/><stop offset="1" stop-color="#B40FE7"/></linearGradient><linearGradient id="paint25_linear_2_217" x1="761.158" y1="298.235" x2="1409.91" y2="881.391" gradientUnits="userSpaceOnUse"><stop stop-color="#1BA4E5" stop-opacity=".5"/><stop offset="1" stop-color="#B40FE7"/></linearGradient><linearGradient id="paint26_linear_2_217" x1="750.155" y1="285.973" x2="1413.4" y2="882.156" gradientUnits="userSpaceOnUse"><stop stop-color="#1BA4E5" stop-opacity=".5"/><stop offset="1" stop-color="#B40FE7"/></linearGradient><linearGradient id="paint27_linear_2_217" x1="739.15" y1="273.708" x2="1416.89" y2="882.921" gradientUnits="userSpaceOnUse"><stop stop-color="#1BA4E5" stop-opacity=".5"/><stop offset="1" stop-color="#B40FE7"/></linearGradient><linearGradient id="paint28_linear_2_217" x1="728.145" y1="261.443" x2="1420.38" y2="883.685" gradientUnits="userSpaceOnUse"><stop stop-color="#1BA4E5" stop-opacity=".5"/><stop offset="1" stop-color="#B40FE7"/></linearGradient><linearGradient id="paint29_linear_2_217" x1="717.139" y1="249.177" x2="1423.87" y2="884.45" gradientUnits="userSpaceOnUse"><stop stop-color="#1BA4E5" stop-opacity=".5"/><stop offset="1" stop-color="#B40FE7"/></linearGradient><linearGradient id="paint30_linear_2_217" x1="706.133" y1="236.91" x2="1427.37" y2="885.215" gradientUnits="userSpaceOnUse"><stop stop-color="#1BA4E5" stop-opacity=".5"/><stop offset="1" stop-color="#B40FE7"/></linearGradient><linearGradient id="paint31_linear_2_217" x1="695.126" y1="224.642" x2="1430.86" y2="885.98" gradientUnits="userSpaceOnUse"><stop stop-color="#1BA4E5" stop-opacity=".5"/><stop offset="1" stop-color="#B40FE7"/></linearGradient><linearGradient id="paint32_linear_2_217" x1="691.112" y1="231.798" x2="1425.82" y2="892.217" gradientUnits="userSpaceOnUse"><stop stop-color="#1BA4E5" stop-opacity=".5"/><stop offset="1" stop-color="#B40FE7"/></linearGradient><linearGradient id="paint33_linear_2_217" x1="687.087" y1="238.968" x2="1420.9" y2="898.578" gradientUnits="userSpaceOnUse"><stop stop-color="#1BA4E5" stop-opacity=".5"/><stop offset="1" stop-color="#B40FE7"/></linearGradient><linearGradient id="paint34_linear_2_217" x1="683.061" y1="246.137" x2="1415.97" y2="904.938" gradientUnits="userSpaceOnUse"><stop stop-color="#1BA4E5" stop-opacity=".5"/><stop offset="1" stop-color="#B40FE7"/></linearGradient><linearGradient id="paint35_linear_2_217" x1="679.036" y1="253.306" x2="1411.05" y2="911.298" gradientUnits="userSpaceOnUse"><stop stop-color="#1BA4E5" stop-opacity=".5"/><stop offset="1" stop-color="#B40FE7"/></linearGradient><linearGradient id="paint36_linear_2_217" x1="675.01" y1="260.475" x2="1406.12" y2="917.659" gradientUnits="userSpaceOnUse"><stop stop-color="#1BA4E5" stop-opacity=".5"/><stop offset="1" stop-color="#B40FE7"/></linearGradient><linearGradient id="paint37_linear_2_217" x1="670.984" y1="267.645" x2="1401.19" y2="924.019" gradientUnits="userSpaceOnUse"><stop stop-color="#1BA4E5" stop-opacity=".5"/><stop offset="1" stop-color="#B40FE7"/></linearGradient><linearGradient id="paint38_linear_2_217" x1="666.959" y1="274.814" x2="1396.27" y2="930.38" gradientUnits="userSpaceOnUse"><stop stop-color="#1BA4E5" stop-opacity=".5"/><stop offset="1" stop-color="#B40FE7"/></linearGradient><linearGradient id="paint39_linear_2_217" x1="662.933" y1="281.983" x2="1391.34" y2="936.741" gradientUnits="userSpaceOnUse"><stop stop-color="#1BA4E5" stop-opacity=".5"/><stop offset="1" stop-color="#B40FE7"/></linearGradient><linearGradient id="paint40_linear_2_217" x1="658.907" y1="289.152" x2="1386.42" y2="943.101" gradientUnits="userSpaceOnUse"><stop stop-color="#1BA4E5" stop-opacity=".5"/><stop offset="1" stop-color="#B40FE7"/></linearGradient><linearGradient id="paint41_linear_2_217" x1="654.882" y1="296.321" x2="1381.49" y2="949.461" gradientUnits="userSpaceOnUse"><stop stop-color="#1BA4E5" stop-opacity=".5"/><stop offset="1" stop-color="#B40FE7"/></linearGradient><linearGradient id="paint42_linear_2_217" x1="650.856" y1="303.491" x2="1376.57" y2="955.822" gradientUnits="userSpaceOnUse"><stop stop-color="#1BA4E5" stop-opacity=".5"/><stop offset="1" stop-color="#B40FE7"/></linearGradient><linearGradient id="paint43_linear_2_217" x1="646.83" y1="310.66" x2="1371.64" y2="962.182" gradientUnits="userSpaceOnUse"><stop stop-color="#1BA4E5" stop-opacity=".5"/><stop offset="1" stop-color="#B40FE7"/></linearGradient><linearGradient id="paint44_linear_2_217" x1="642.805" y1="317.829" x2="1366.72" y2="968.543" gradientUnits="userSpaceOnUse"><stop stop-color="#1BA4E5" stop-opacity=".5"/><stop offset="1" stop-color="#B40FE7"/></linearGradient><linearGradient id="paint45_linear_2_217" x1="638.779" y1="324.998" x2="1361.79" y2="974.903" gradientUnits="userSpaceOnUse"><stop stop-color="#1BA4E5" stop-opacity=".5"/><stop offset="1" stop-color="#B40FE7"/></linearGradient><linearGradient id="paint46_linear_2_217" x1="634.753" y1="332.167" x2="1356.87" y2="981.264" gradientUnits="userSpaceOnUse"><stop stop-color="#1BA4E5" stop-opacity=".5"/><stop offset="1" stop-color="#B40FE7"/></linearGradient><linearGradient id="paint47_linear_2_217" x1="630.728" y1="339.336" x2="1351.94" y2="987.624" gradientUnits="userSpaceOnUse"><stop stop-color="#1BA4E5" stop-opacity=".5"/><stop offset="1" stop-color="#B40FE7"/></linearGradient><linearGradient id="paint48_linear_2_217" x1="626.702" y1="346.506" x2="1347.02" y2="993.985" gradientUnits="userSpaceOnUse"><stop stop-color="#1BA4E5" stop-opacity=".5"/><stop offset="1" stop-color="#B40FE7"/></linearGradient><linearGradient id="paint49_linear_2_217" x1="622.677" y1="353.675" x2="1342.09" y2="1000.34" gradientUnits="userSpaceOnUse"><stop stop-color="#1BA4E5" stop-opacity=".5"/><stop offset="1" stop-color="#B40FE7"/></linearGradient><linearGradient id="paint50_linear_2_217" x1="618.651" y1="360.844" x2="1337.16" y2="1006.71" gradientUnits="userSpaceOnUse"><stop stop-color="#1BA4E5" stop-opacity=".5"/><stop offset="1" stop-color="#B40FE7"/></linearGradient><linearGradient id="paint51_linear_2_217" x1="614.625" y1="368.013" x2="1332.24" y2="1013.07" gradientUnits="userSpaceOnUse"><stop stop-color="#1BA4E5" stop-opacity=".5"/><stop offset="1" stop-color="#B40FE7"/></linearGradient><linearGradient id="paint52_linear_2_217" x1="610.6" y1="375.182" x2="1327.31" y2="1019.43" gradientUnits="userSpaceOnUse"><stop stop-color="#1BA4E5" stop-opacity=".5"/><stop offset="1" stop-color="#B40FE7"/></linearGradient><linearGradient id="paint53_linear_2_217" x1="606.574" y1="382.351" x2="1322.39" y2="1025.79" gradientUnits="userSpaceOnUse"><stop stop-color="#1BA4E5" stop-opacity=".5"/><stop offset="1" stop-color="#B40FE7"/></linearGradient><linearGradient id="paint54_linear_2_217" x1="602.549" y1="389.52" x2="1317.46" y2="1032.15" gradientUnits="userSpaceOnUse"><stop stop-color="#1BA4E5" stop-opacity=".5"/><stop offset="1" stop-color="#B40FE7"/></linearGradient><linearGradient id="paint55_linear_2_217" x1="598.523" y1="396.689" x2="1312.54" y2="1038.51" gradientUnits="userSpaceOnUse"><stop stop-color="#1BA4E5" stop-opacity=".5"/><stop offset="1" stop-color="#B40FE7"/></linearGradient><linearGradient id="paint56_linear_2_217" x1="583.43" y1="393.907" x2="1307.61" y2="1044.87" gradientUnits="userSpaceOnUse"><stop stop-color="#1BA4E5" stop-opacity=".5"/><stop offset="1" stop-color="#B40FE7"/></linearGradient><linearGradient id="paint57_linear_2_217" x1="565.039" y1="388.159" x2="1302.69" y2="1051.22" gradientUnits="userSpaceOnUse"><stop stop-color="#1BA4E5" stop-opacity=".5"/><stop offset="1" stop-color="#B40FE7"/></linearGradient><linearGradient id="paint58_linear_2_217" x1="546.614" y1="382.382" x2="1297.77" y2="1057.58" gradientUnits="userSpaceOnUse"><stop stop-color="#1BA4E5" stop-opacity=".5"/><stop offset="1" stop-color="#B40FE7"/></linearGradient><linearGradient id="paint59_linear_2_217" x1="528.167" y1="376.584" x2="1292.84" y2="1063.94" gradientUnits="userSpaceOnUse"><stop stop-color="#1BA4E5" stop-opacity=".5"/><stop offset="1" stop-color="#B40FE7"/></linearGradient><linearGradient id="paint60_linear_2_217" x1="509.693" y1="370.762" x2="1287.92" y2="1070.3" gradientUnits="userSpaceOnUse"><stop stop-color="#1BA4E5" stop-opacity=".5"/><stop offset="1" stop-color="#B40FE7"/></linearGradient><linearGradient id="paint61_linear_2_217" x1="491.189" y1="364.913" x2="1283" y2="1076.66" gradientUnits="userSpaceOnUse"><stop stop-color="#1BA4E5" stop-opacity=".5"/><stop offset="1" stop-color="#B40FE7"/></linearGradient><linearGradient id="paint62_linear_2_217" x1="472.66" y1="359.041" x2="1278.07" y2="1083.02" gradientUnits="userSpaceOnUse"><stop stop-color="#1BA4E5" stop-opacity=".5"/><stop offset="1" stop-color="#B40FE7"/></linearGradient></defs></svg>