<svg width="375" height="1181" fill="none" xmlns="http://www.w3.org/2000/svg"><g opacity=".5" stroke-width=".566" stroke-miterlimit="10"><path opacity=".5" d="M-23.963 4.888S-135.052 259.62 67.63 304.716c137.109 30.507 242.11 13.385 306.659 65.956 54.252 44.184 50.763 153.157 33.061 208.177-24.68 76.707-119.805 155.671-137.906 234.299C231.612 977.512 534.269 1117.03 710 966.676" stroke="url(#paint0_linear_2_707)"/><path opacity=".5" d="M-21.385 4.76s-109.039 251.215 87.79 298.937c132.936 32.231 235.524 17.871 300.03 70.648 12.233 9.996 21.59 23.224 28.575 38.339 4.401 9.512 7.868 19.736 10.524 30.358 11.692 46.712 7.392 101.391-2.435 135.401-21.675 75.404-111.923 153.079-128.215 230.768-34.421 161.95 258.723 300.959 425.823 161.978" stroke="url(#paint1_linear_2_707)"/><path opacity=".5" d="M-18.814 4.63S-125.817 252.323 65.18 302.68c128.756 33.946 228.936 22.356 293.393 75.34 12.112 9.932 21.476 22.982 28.568 37.84 4.472 9.356 8.068 19.38 10.887 29.76 12.426 45.666 9.328 99.02.819 132.418-18.677 74.094-103.833 150.523-118.53 227.237-30.584 159.614 252.62 298.026 411.09 170.429" stroke="url(#paint2_linear_2_707)"/><path opacity=".5" d="M-16.244 4.51s-104.98 244.16 80.2 297.158c124.562 35.655 222.35 26.841 286.764 80.032 11.998 9.875 21.362 22.74 28.561 37.342 4.55 9.199 8.267 19.017 11.243 29.155 13.152 44.619 11.265 96.656 4.066 129.442-15.672 72.791-95.851 147.938-108.839 223.705-26.966 157.222 246.517 295.096 396.357 178.88" stroke="url(#paint3_linear_2_707)"/><path opacity=".5" d="M-13.666 4.382S-116.638 244.989 62.732 300.65c120.36 37.35 215.763 31.326 280.134 84.724 11.884 9.81 21.248 22.505 28.546 36.844 4.622 9.041 8.467 18.653 11.607 28.549 13.885 43.565 13.116 94.271 7.32 126.466-12.86 71.445-87.869 145.354-99.155 220.174-23.356 154.823 240.415 292.163 381.625 187.331" stroke="url(#paint4_linear_2_707)"/><path opacity=".5" d="M-11.095 4.26s-100.986 237.041 72.602 295.386c116.145 39.037 209.17 35.819 273.505 89.415 11.77 9.754 21.134 22.263 28.539 36.346 4.7 8.885 8.666 18.29 11.963 27.952 14.612 42.518 15.032 91.9 10.567 123.482-9.905 70.143-79.894 142.763-89.464 216.643C276.864 945.9 530.93 1082.72 663.509 989.266" stroke="url(#paint5_linear_2_707)"/><path opacity=".5" d="M-8.525 4.133s-99.013 233.459 68.807 294.495c111.93 40.71 202.583 40.304 266.876 94.107 11.649 9.69 21.02 22.021 28.532 35.847 4.771 8.736 8.865 17.928 12.326 27.347 15.345 41.464 16.947 89.536 13.821 120.506-6.95 68.84-71.919 140.164-79.78 213.112-16.164 149.996 228.21 286.303 352.167 204.24" stroke="url(#paint6_linear_2_707)"/><path opacity=".5" d="M-5.947 4.005S-103.01 233.854 59.057 297.61c107.7 42.369 195.997 44.79 260.239 98.799 11.536 9.626 20.907 21.779 28.526 35.349 4.849 8.579 9.064 17.571 12.689 26.741 16.071 40.418 18.862 87.173 17.068 117.531-3.988 67.543-63.951 137.565-70.089 209.58-12.582 147.568 222.108 283.37 337.434 212.691" stroke="url(#paint7_linear_2_707)"/><path opacity=".5" d="M-3.377 3.883S-98.502 230.11 57.833 296.6c103.456 44.006 189.409 49.275 253.609 103.491 11.422 9.568 20.792 21.537 28.518 34.85 4.921 8.423 9.264 17.208 13.045 26.143 16.805 39.365 20.786 84.816 20.323 114.548-1.026 66.248-55.99 134.959-60.405 206.048-9.015 145.134 215.998 280.441 322.702 221.141" stroke="url(#paint8_linear_2_707)"/><path opacity=".5" d="M-.8 3.755S-94 226.321 56.616 295.581c99.212 45.622 182.709 53.896 246.98 108.183 11.286 9.533 20.678 21.294 28.504 34.352 4.999 8.265 9.463 16.845 13.408 25.538 17.531 38.317 22.701 82.452 23.577 111.571 1.944 64.959-48.029 132.354-50.714 202.517-5.461 142.684 209.896 277.518 307.969 229.598" stroke="url(#paint9_linear_2_707)"/><path opacity=".5" d="M1.771 3.635s-91.293 218.878 53.612 290.942c94.954 47.218 176.108 58.388 240.351 112.875 11.165 9.469 20.543 21.067 28.497 33.853a272.392 272.392 0 0113.764 24.933c18.265 37.264 24.623 80.096 26.824 108.596 4.913 63.67-40.083 129.74-41.03 198.986-1.922 140.235 203.794 274.58 293.236 238.04" stroke="url(#paint10_linear_2_707)"/><path opacity=".5" d="M4.342 3.506s-89.4 215.155 49.816 290.053c90.696 48.791 169.515 62.881 233.722 117.566 11.051 9.413 20.422 20.825 28.49 33.356a303.337 303.337 0 0114.127 24.335c18.998 36.217 26.553 77.739 30.078 105.612 7.889 62.389-32.136 127.121-31.338 195.455 1.602 137.771 197.691 271.657 278.503 246.497" stroke="url(#paint11_linear_2_707)"/><path opacity=".5" d="M6.92 3.378s-87.514 211.396 46.02 289.163c86.431 50.336 162.921 67.373 227.085 122.258 10.931 9.348 20.309 20.59 28.483 32.857a357.46 357.46 0 0114.491 23.73c19.653 35.206 28.475 75.382 33.324 102.636 10.867 61.108-24.203 124.501-21.654 191.924 5.113 135.308 191.589 268.724 263.771 254.944" stroke="url(#paint12_linear_2_707)"/><path opacity=".5" d="M9.49 3.257S-76.143 210.85 51.716 291.53c82.165 51.852 156.327 71.865 220.456 126.95 10.816 9.291 20.194 20.347 28.475 32.358a423.448 423.448 0 0114.847 23.125c20.379 34.16 30.405 73.025 36.579 99.66 13.856 59.833-16.271 121.881-11.963 188.392 8.602 132.831 185.486 265.785 249.038 263.395" stroke="url(#paint13_linear_2_707)"/><path opacity=".5" d="M12.068 3.129S-71.685 206.871 50.49 290.512c77.907 53.333 149.74 76.358 213.826 131.642 10.703 9.227 20.081 20.105 28.462 31.86a522.114 522.114 0 0115.21 22.526c21.112 33.114 32.342 70.677 39.825 96.685 16.848 58.551-8.352 119.253-2.278 184.86 12.076 130.353 179.384 262.865 234.305 271.845" stroke="url(#paint14_linear_2_707)"/><path opacity=".5" d="M14.638 3.008s-81.866 199.84 34.628 286.5c73.649 54.786 143.147 80.843 207.197 136.333 10.582 9.171 19.967 19.864 28.454 31.362a706.89 706.89 0 0115.566 21.922c21.839 32.066 34.279 68.319 43.08 93.701 19.853 57.277-.441 116.626 7.413 181.329 15.53 127.876 173.281 259.935 219.573 280.305" stroke="url(#paint15_linear_2_707)"/><path opacity=".5" d="M17.21 2.88s-79.973 195.889 30.832 285.61c69.405 56.202 136.56 85.329 200.567 141.025 10.468 9.106 19.853 19.622 28.447 30.864a1136.19 1136.19 0 0115.929 21.316c22.573 31.02 36.216 65.963 46.327 90.725 22.858 55.996 7.456 113.999 17.097 177.798 18.963 125.398 167.179 257.002 204.848 288.762" stroke="url(#paint16_linear_2_707)"/><path opacity=".5" d="M19.787 2.751s-78.05 191.881 27.03 284.721c65.175 57.576 129.973 89.821 193.931 145.717 10.354 9.049 19.739 19.387 28.44 30.365 5.576 7.041 11.037 13.962 16.285 20.718 23.299 29.974 38.16 63.607 49.581 87.749 25.877 54.714 15.345 111.372 26.788 174.267 22.366 122.913 161.07 254.072 190.115 297.212" stroke="url(#paint17_linear_2_707)"/><path opacity=".5" d="M22.357 2.63S-53.74 190.453 45.592 286.461c60.96 58.922 123.387 94.299 187.302 150.409 10.232 8.985 19.625 19.144 28.433 29.866 5.654 6.885 11.236 13.599 16.648 20.113 24.032 28.927 40.103 61.25 52.828 84.766 28.896 53.426 23.221 108.745 36.472 170.736 25.756 120.435 154.967 251.137 175.382 305.659" stroke="url(#paint18_linear_2_707)"/><path opacity=".5" d="M24.928 2.503s-74.112 183.707 19.44 282.94c56.78 60.232 116.8 98.785 180.672 155.101 10.119 8.921 19.518 18.902 28.419 29.368 5.725 6.728 11.435 13.243 17.011 19.515 24.766 27.88 42.055 58.886 56.082 81.79 31.922 52.137 31.089 106.125 46.164 167.204 29.123 117.965 148.864 248.211 160.649 314.109" stroke="url(#paint19_linear_2_707)"/><path opacity=".5" d="M27.506 2.382s-72.069 179.542 15.637 282.057c52.629 61.506 110.213 103.263 174.043 159.793 10.005 8.857 19.404 18.66 28.411 28.87 5.804 6.571 11.636 12.879 17.368 18.909 25.499 26.834 44.005 56.523 59.329 78.814 34.955 50.842 38.943 103.505 55.855 163.673C410.612 850 520.911 979.776 524.065 1057.06" stroke="url(#paint20_linear_2_707)"/><path opacity=".5" d="M30.076 2.253s-69.96 175.328 11.842 281.168c48.506 62.759 103.634 107.748 167.414 164.484 9.891 8.8 19.29 18.419 28.404 28.372 5.875 6.422 11.835 12.516 17.731 18.304 26.239 25.781 45.957 54.159 62.583 75.831 37.989 49.532 46.783 100.892 65.539 160.142 35.788 113.045 136.66 242.351 131.184 331.016" stroke="url(#paint21_linear_2_707)"/><path opacity=".5" d="M32.654 2.125S-35.135 173.202 40.7 282.403c44.433 63.991 97.055 112.219 160.778 169.176 9.776 8.736 19.176 18.176 28.397 27.873 5.953 6.265 12.034 12.153 18.086 17.707 26.974 24.726 47.908 51.788 65.831 72.855 41.029 48.228 54.616 98.279 75.23 156.61 39.085 110.596 130.557 239.418 116.451 339.466" stroke="url(#paint22_linear_2_707)"/><path opacity=".5" d="M35.224 2.004s-65.53 166.791 4.252 279.388C79.878 346.593 129.95 398.09 193.624 455.26c9.663 8.672 19.069 17.934 28.39 27.375 6.031 6.109 12.24 11.79 18.449 17.101 27.707 23.68 49.859 49.417 69.085 69.879 44.07 46.911 62.434 95.681 84.914 153.079 42.368 108.168 124.455 236.485 101.719 347.916" stroke="url(#paint23_linear_2_707)"/><path opacity=".5" d="M37.795 1.876s-63.182 162.491.448 278.498c36.423 66.405 83.896 121.176 147.519 178.56 9.549 8.607 18.956 17.685 28.383 26.876 6.103 5.952 12.447 11.42 18.813 16.496 28.483 22.57 51.817 47.047 72.332 66.896 47.11 45.587 70.245 93.089 94.605 149.548 45.629 105.754 118.353 233.559 86.986 356.37" stroke="url(#paint24_linear_2_707)"/><path opacity=".5" d="M40.373 1.755s-60.74 158.184-3.347 277.615c32.492 67.615 77.423 125.533 140.889 183.252 9.45 8.529 18.863 17.429 28.369 26.378 6.195 5.781 12.647 11.057 19.169 15.898 29.216 21.523 53.768 44.668 75.586 63.92 50.151 44.263 78.042 90.504 104.289 146.009 48.876 103.355 112.25 230.625 72.254 364.823" stroke="url(#paint25_linear_2_707)"/><path opacity=".5" d="M42.943 1.627s-58.204 153.89-7.142 276.725c28.611 68.825 70.837 130.018 134.26 187.943 9.328 8.465 18.749 17.187 28.362 25.88 6.266 5.631 12.846 10.693 19.532 15.293 29.942 20.469 55.719 42.29 78.833 60.944 53.191 42.924 85.832 87.934 113.98 142.477 52.102 100.978 106.148 227.7 57.528 373.271" stroke="url(#paint26_linear_2_707)"/><path opacity=".5" d="M45.52 1.499s-55.576 149.618-10.944 275.835c24.78 70.057 64.25 134.503 127.624 192.635 9.214 8.408 18.635 16.944 28.355 25.381 6.344 5.475 13.045 10.331 19.888 14.688 30.675 19.422 57.67 39.905 82.087 57.968 56.224 41.585 93.615 85.371 123.664 138.946 55.321 98.621 100.038 224.766 42.795 381.728" stroke="url(#paint27_linear_2_707)"/><path opacity=".5" d="M48.091 1.378s-52.864 145.375-14.74 274.945C54.336 347.64 91.015 415.312 154.346 473.65c9.1 8.344 18.521 16.703 28.347 24.883 6.416 5.318 13.245 9.968 20.251 14.09 31.402 18.376 59.622 37.527 85.334 54.985 59.259 40.247 101.384 82.822 133.356 135.415 58.525 96.292 93.936 221.832 28.063 390.177" stroke="url(#paint28_linear_2_707)"/><path opacity=".5" d="M50.662 1.25S.589 142.439 32.127 275.305c17.232 72.606 51.07 143.474 114.365 202.019 8.986 8.287 18.407 16.46 28.34 24.384 6.494 5.162 13.444 9.612 20.614 13.485 32.136 17.322 61.601 35.1 88.589 52.009 62.348 38.809 109.159 80.295 143.04 131.883 61.721 93.986 87.833 218.907 13.329 398.625" stroke="url(#paint29_linear_2_707)"/><path opacity=".5" d="M53.24 1.121S6.03 138.181 30.902 274.293c13.515 73.938 44.483 147.96 107.736 206.711a388.66 388.66 0 0028.326 23.886c6.565 5.006 13.643 9.249 20.97 12.88 32.862 16.275 63.531 32.736 91.835 49.033 65.347 37.506 116.922 77.774 152.732 128.352 64.919 91.7 81.731 215.973-1.403 407.075" stroke="url(#paint30_linear_2_707)"/><path opacity=".5" d="M55.81 1S-59.794 348.11 159.103 508.066c6.643 4.855 13.842 8.885 21.333 12.281 251.061 113.764 406.006 223.122 241.369 586.403" stroke="url(#paint31_linear_2_707)"/><path opacity=".5" d="M59.506 3.862c-1.26 1.446-19.482 55.512-29.003 130.076-9.235 72.278-10.63 163.274 20.92 245.804 19.27 50.827 51.191 98.621 101.413 136.17 6.608 4.934 13.779 9.049 21.234 12.537 72.496 33.811 138.013 65.914 190.136 103.541 25.35 18.411 47.545 38.175 65.952 60.111 47.929 57.128 70.416 128.751 55.263 229.543-8.124 54.017-27.564 116.226-59.4 187.486" stroke="url(#paint32_linear_2_707)"/><path opacity=".5" d="M63.202 6.717C60.688 9.607 42.26 63.54 31.579 137.191c-10.589 72.976-14 164.15 15.523 247.62 18.236 51.575 49.303 100.586 99.454 138.918 6.579 5.012 13.714 9.22 21.134 12.794 72.019 34.559 138.291 65.914 191.204 102.644 25.656 17.813 48.164 37.043 67.055 58.388 49.197 55.561 74.02 125.383 61.359 225.599-6.864 54.322-25.748 117.166-57.086 188.326" stroke="url(#paint33_linear_2_707)"/><path opacity=".5" d="M66.904 9.58c-3.773 4.335-22.437 58.131-34.243 130.879C20.698 214.14 15.18 305.535 42.787 389.895c17.132 52.357 47.423 102.543 97.503 141.673 6.551 5.09 13.643 9.384 21.034 13.05 71.535 35.299 138.519 65.992 192.266 101.754 25.933 17.257 48.79 35.918 68.166 56.657 50.464 53.996 77.65 122.045 67.454 221.655-5.59 54.643-23.933 118.106-54.772 189.166" stroke="url(#paint34_linear_2_707)"/><path opacity=".5" d="M70.6 12.441c-5.034 5.774-23.968 59.442-36.864 131.286-13.358 74.393-20.977 166.008 4.729 251.251C54.486 448.119 84 499.487 134.017 539.413c6.522 5.169 13.579 9.548 20.935 13.307 71.057 36.039 138.731 66.07 193.326 100.856 26.211 16.703 49.41 34.794 69.269 54.928 51.732 52.436 81.311 118.72 73.55 217.711-4.308 54.977-22.11 119.045-52.458 190.005" stroke="url(#paint35_linear_2_707)"/><path opacity=".5" d="M74.296 15.304C68 22.523 48.76 76.062 34.812 146.995c-14.776 75.112-24.474 166.948-.67 253.067 14.91 53.931 43.572 106.58 93.594 147.183 6.48 5.262 13.515 9.719 20.842 13.57 70.573 36.787 138.946 66.156 194.387 99.967 26.482 16.147 50.037 33.668 70.381 53.205 52.999 50.869 84.999 115.408 79.645 213.766-3.012 55.319-20.294 119.987-50.144 190.847" stroke="url(#paint36_linear_2_707)"/><path opacity=".5" d="M77.99 18.159c-7.547 8.664-27.136 62.082-42.104 132.09-16.22 75.838-27.984 167.894-6.066 254.882 13.792 54.721 41.67 108.559 91.643 149.946 6.451 5.34 13.443 9.896 20.742 13.826 70.018 37.677 139.145 66.241 195.448 99.07 26.745 15.591 50.656 32.543 71.484 51.474 54.267 49.304 88.731 112.12 85.74 209.822-1.701 55.668-18.478 120.931-47.829 191.691" stroke="url(#paint37_linear_2_707)"/><path opacity=".5" d="M81.687 21.02c-8.809 10.11-28.768 63.4-44.725 132.496C19.274 230.081 5.46 322.365 25.497 410.214c12.668 55.519 39.777 110.532 89.685 152.701 6.423 5.425 13.38 10.067 20.643 14.083 69.526 38.439 139.344 66.333 196.509 98.172 27.016 15.044 51.276 31.419 72.595 49.752 55.527 47.737 92.491 108.837 91.836 205.871-.378 56.031-16.663 121.867-45.509 192.537" stroke="url(#paint38_linear_2_707)"/><path opacity=".5" d="M85.383 23.883C75.314 35.438 54.956 88.6 38.037 156.784 18.861 234.082 3.004 326.587 21.183 415.297c11.535 56.317 37.874 112.504 87.733 155.457 6.388 5.504 13.316 10.231 20.543 14.339 69.035 39.193 139.544 66.433 197.57 97.282 27.28 14.503 51.903 30.294 73.699 48.022 56.795 46.171 96.286 105.577 97.931 201.926.961 56.395-14.847 122.807-43.194 193.377" stroke="url(#paint39_linear_2_707)"/><path opacity=".5" d="M89.078 26.745c-11.329 13-32.121 66.027-49.966 133.308C18.412 238.084.547 330.809 16.86 420.381c10.404 57.114 35.988 114.476 85.783 158.212 6.359 5.582 13.244 10.402 20.443 14.595 68.544 39.956 139.729 66.54 198.631 96.386 27.536 13.954 52.522 29.162 74.81 46.298 58.062 44.612 100.117 102.316 104.026 197.983 2.321 56.771-13.031 123.745-40.88 194.215" stroke="url(#paint40_linear_2_707)"/><path opacity=".5" d="M92.774 29.6C80.19 44.046 58.929 96.944 40.187 163.306 17.944 242.071-1.923 335.031 12.538 425.45c9.264 57.918 34.094 116.449 83.824 160.968 6.331 5.66 13.181 10.565 20.344 14.851 68.06 40.703 139.914 66.647 199.692 95.495 27.799 13.414 53.149 28.037 75.913 44.569 59.33 43.045 103.984 99.062 110.122 194.038 3.695 57.149-11.215 124.689-38.566 195.059" stroke="url(#paint41_linear_2_707)"/><path opacity=".5" d="M96.476 32.462C82.634 48.352 60.88 101.109 41.27 166.574 17.458 246.072-4.395 339.26 8.223 430.534c8.117 58.722 32.2 118.413 81.873 163.722 6.295 5.746 13.117 10.736 20.251 15.115 67.568 41.458 140.1 66.761 200.753 94.598 28.056 12.88 53.768 26.912 77.025 42.839 60.596 41.479 107.878 95.823 116.216 190.094 5.091 57.526-9.399 125.628-36.251 195.898" stroke="url(#paint42_linear_2_707)"/><path opacity=".5" d="M100.172 35.324c-15.103 17.337-37.377 69.95-57.827 134.518C16.93 250.066-6.88 343.497 3.9 435.617c6.964 59.527 30.313 120.386 79.916 166.478 6.266 5.824 13.052 10.9 20.151 15.371 67.084 42.205 140.277 66.882 201.814 93.709 28.312 12.338 54.388 25.787 78.135 41.115 61.857 39.913 111.809 92.577 122.312 186.15 6.501 57.911-7.584 126.57-33.93 196.74" stroke="url(#paint43_linear_2_707)"/><path opacity=".5" d="M103.868 38.179C87.512 56.953 64.69 109.425 43.42 173.102 16.383 254.045-9.38 347.725-.422 440.693c5.81 60.331 28.419 122.35 77.965 169.233 6.237 5.902 12.988 11.071 20.051 15.627 66.6 42.953 140.448 67.003 202.882 92.812 28.561 11.811 55.015 24.662 79.239 39.385 63.125 38.347 115.775 89.33 128.414 182.205 7.933 58.296-5.76 127.505-31.616 197.575" stroke="url(#paint44_linear_2_707)"/><path opacity=".5" d="M107.563 41.041c-17.617 20.22-41.008 72.542-63.068 135.322C15.806 258.018-11.879 351.954-4.744 445.77c4.65 61.143 26.532 124.308 76.013 171.988 6.21 5.98 12.917 11.235 19.952 15.884 66.116 43.7 140.619 67.138 203.943 91.921 28.818 11.278 55.634 23.538 80.35 37.663 64.392 36.787 119.769 86.09 134.509 178.261 9.385 58.683-3.945 128.453-29.301 198.413" stroke="url(#paint45_linear_2_707)"/><path opacity=".5" d="M111.259 43.903c-18.877 21.664-42.86 73.823-65.688 135.728C15.194 261.983-14.385 356.19-9.06 450.852c3.482 61.948 24.652 126.274 74.055 174.744 6.174 6.059 12.853 11.406 19.852 16.14 65.632 44.441 140.79 67.274 205.004 91.025 29.067 10.75 56.261 22.412 81.454 35.932 65.659 35.221 123.792 82.837 140.604 174.317 10.852 59.06-2.129 129.39-26.987 199.26" stroke="url(#paint46_linear_2_707)"/><path opacity=".5" d="M114.955 46.765c-20.138 23.11-44.725 75.098-68.309 136.134C14.56 265.942-16.906 360.426-13.38 455.936c2.314 62.752 22.765 128.231 72.104 177.499 6.145 6.137 12.788 11.569 19.76 16.404 65.147 45.181 140.953 67.415 206.065 90.134 29.315 10.231 56.879 21.28 82.564 34.203 66.927 33.654 127.851 79.583 146.7 170.372 12.34 59.432-.314 130.332-24.673 200.092" stroke="url(#paint47_linear_2_707)"/><path opacity=".5" d="M118.65 49.62c-21.39 24.555-46.619 76.365-70.929 136.54-33.83 83.726-67.155 178.496-65.424 274.852 1.139 63.564 20.884 130.19 70.152 180.255 6.117 6.215 12.725 11.733 19.66 16.66 64.67 45.921 141.125 67.572 207.126 89.237 29.565 9.704 57.507 20.155 83.668 32.479 68.195 32.089 131.932 76.323 152.795 166.421 13.843 59.806 1.503 131.276-22.359 200.936" stroke="url(#paint48_linear_2_707)"/><path opacity=".5" d="M122.353 52.482c-22.65 26-48.527 77.618-73.55 136.939-35.596 84.388-70.757 179.464-70.822 276.668-.042 64.368 18.998 132.147 68.195 183.009 6.088 6.294 12.66 11.904 19.56 16.917 64.186 46.662 141.289 67.728 208.187 88.347 29.815 9.191 58.126 19.031 84.779 30.749 69.455 30.522 136.04 73.048 158.891 162.477 15.366 60.172 3.318 132.212-20.038 201.772" stroke="url(#paint49_linear_2_707)"/><path opacity=".5" d="M126.049 55.344c-23.912 27.446-50.458 78.871-76.17 137.345-37.398 85.043-74.376 180.432-76.22 278.483-1.225 65.173 17.118 134.105 66.244 185.765 6.06 6.372 12.596 12.068 19.46 17.172 63.709 47.396 141.445 67.893 209.248 87.451 30.064 8.671 58.746 17.905 85.883 29.026 70.722 28.963 140.177 69.765 164.985 158.533 16.912 60.521 5.135 133.151-17.723 202.621" stroke="url(#paint50_linear_2_707)"/><path opacity=".5" d="M129.744 58.206c-25.172 28.891-52.401 80.103-78.79 137.75-39.22 85.678-77.993 181.394-81.617 280.299-2.414 65.978 15.245 136.063 64.285 188.521 6.031 6.45 12.533 12.231 19.361 17.428 63.232 48.129 141.609 68.064 210.309 86.561 30.313 8.159 59.372 16.781 86.993 27.296 71.99 27.396 144.336 66.469 171.081 154.588 18.479 60.871 6.95 134.091-15.409 203.461" stroke="url(#paint51_linear_2_707)"/><path opacity=".5" d="M133.44 61.06c-26.425 30.33-54.36 81.335-81.41 138.157-41.08 86.29-81.618 182.362-87.015 282.114-3.61 66.782 13.365 138.014 62.334 191.276 6.003 6.529 12.468 12.395 19.261 17.692 62.762 48.862 141.773 68.242 211.37 85.663 30.562 7.654 59.992 15.656 88.097 25.574 73.258 25.83 148.516 63.158 177.176 150.644 20.052 61.21 8.773 135.03-13.094 204.3" stroke="url(#paint52_linear_2_707)"/><path opacity=".5" d="M137.136 63.923c-27.686 31.775-56.332 82.545-84.031 138.555C10.139 289.366-32.144 385.801-39.3 486.415c-4.807 67.58 11.492 139.965 60.383 194.031 5.974 6.607 12.404 12.559 19.169 17.948 62.284 49.596 141.929 68.427 212.431 84.767 30.811 7.14 60.618 14.531 89.207 23.843 74.525 24.264 152.71 59.84 183.272 146.7 21.647 61.546 10.588 135.966-10.781 205.136" stroke="url(#paint53_linear_2_707)"/><path opacity=".5" d="M140.831 66.786c-28.946 33.22-58.318 83.748-86.651 138.96-44.882 87.457-88.888 184.277-97.803 285.753-6.01 68.384 9.62 141.922 58.425 196.786 5.946 6.685 12.34 12.73 19.07 18.205 61.814 50.328 142.092 68.611 213.498 83.876 31.061 6.635 61.238 13.399 90.312 22.113 75.785 22.698 156.932 56.502 189.367 142.756 23.263 61.855 12.404 136.905-8.46 205.985" stroke="url(#paint54_linear_2_707)"/><path opacity=".5" d="M144.527 69.648c-30.199 34.665-60.32 84.944-89.272 139.366-46.826 88.013-92.533 185.238-103.2 287.568-7.213 69.181 7.747 143.873 56.474 199.542 5.917 6.763 12.276 12.893 18.97 18.461 61.344 51.054 142.249 68.811 214.559 82.979 31.303 6.137 61.858 12.274 91.423 20.39 77.052 21.138 161.162 53.141 195.462 138.811 24.887 62.165 14.22 137.855-6.145 206.825" stroke="url(#paint55_linear_2_707)"/><path opacity=".5" d="M148.23 72.503c-31.459 36.11-62.328 86.119-91.893 139.772C7.54 300.814-39.84 398.467-52.26 501.659c-8.424 69.978 5.989 145.724 54.523 202.296a173.29 173.29 0 0018.87 18.718c60.874 51.781 142.413 69.01 215.621 82.089 31.551 5.639 62.484 11.149 92.526 18.66 78.32 19.572 165.406 49.773 201.557 134.867 26.532 62.451 16.036 138.791-3.831 207.661" stroke="url(#paint56_linear_2_707)"/><path opacity=".5" d="M151.925 75.365c-32.719 37.556-64.342 87.286-94.513 140.178C6.614 304.588-42.419 402.682-56.582 506.742c-9.634 70.776 4.101 147.682 52.565 205.052a179.787 179.787 0 0018.77 18.974c60.497 52.4 142.577 69.224 216.681 81.192 31.801 5.14 63.104 10.024 93.637 16.937 79.588 18.006 169.671 46.384 207.653 130.923 28.184 62.72 17.851 139.73-1.517 208.5" stroke="url(#paint57_linear_2_707)"/><path opacity=".5" d="M155.62 78.227c-33.979 39.001-66.371 88.439-97.133 140.576C5.667 308.325-44.997 406.889-60.905 511.818c-10.852 71.566 2.222 149.647 50.614 207.807a183.735 183.735 0 0018.67 19.237C68.4 792.01 151.12 808.3 226.122 819.165c32.057 4.642 63.73 8.899 94.741 15.207 80.855 16.439 173.936 42.974 213.748 126.978 29.849 62.99 19.667 140.67.797 209.35" stroke="url(#paint58_linear_2_707)"/><path opacity=".5" d="M159.316 81.082c-35.233 40.446-68.4 89.586-99.753 140.982-54.88 89.971-107.145 189.033-124.79 294.831-12.07 72.356.335 151.612 48.656 210.562a186.54 186.54 0 0018.577 19.494c59.536 53.888 142.905 69.658 218.804 79.405 32.307 4.15 64.35 7.774 95.852 13.477 82.122 14.873 178.223 39.549 219.843 123.027 31.53 63.24 21.483 141.61 3.112 210.19" stroke="url(#paint59_linear_2_707)"/><path opacity=".5" d="M163.012 83.944c-36.493 41.884-70.445 90.711-102.374 141.388C3.68 315.723-50.338 415.276-69.542 521.978c-13.401 73.125-1.545 153.57 46.705 213.317a190.748 190.748 0 0018.478 19.75c59.058 54.636 143.075 69.879 219.864 78.515 32.556 3.66 64.969 6.65 96.955 11.755 83.383 13.313 182.51 36.103 225.939 119.082 33.218 63.473 23.299 142.553 5.433 211.023" stroke="url(#paint60_linear_2_707)"/><path opacity=".5" d="M166.707 86.806c-37.753 43.33-72.488 91.829-104.994 141.794C2.647 319.382-52.844 419.498-73.864 527.061c-14.569 73.923-3.432 155.535 44.753 216.073a193.685 193.685 0 0018.379 20.006c58.581 55.377 143.239 70.2 220.925 77.618 32.805 3.211 65.596 5.518 98.066 10.025 84.651 11.747 186.804 32.643 232.034 115.138 34.92 63.689 25.122 143.489 7.748 211.869" stroke="url(#paint61_linear_2_707)"/><path opacity=".5" d="M170.403 89.668C131.389 134.443 95.864 182.6 62.789 231.86 1.594 322.999-55.351 423.706-78.186 532.137c-15.737 74.721-5.312 157.5 42.795 218.829 57.371 73.132 152.98 89.906 240.265 96.99 33.062 2.684 66.215 4.393 99.17 8.302 85.918 10.181 191.104 29.162 238.129 111.194 36.629 63.898 26.938 144.428 10.062 212.708" stroke="url(#paint62_linear_2_707)"/></g><defs><linearGradient id="paint0_linear_2_707" x1="100.52" y1="755.485" x2="418.121" y2="402.158" gradientUnits="userSpaceOnUse"><stop stop-color="#1BA4E5" stop-opacity=".5"/><stop offset="1" stop-color="#B40FE7"/></linearGradient><linearGradient id="paint1_linear_2_707" x1="104.698" y1="749.296" x2="418.567" y2="400.12" gradientUnits="userSpaceOnUse"><stop stop-color="#1BA4E5" stop-opacity=".5"/><stop offset="1" stop-color="#B40FE7"/></linearGradient><linearGradient id="paint2_linear_2_707" x1="108.914" y1="743.065" x2="419.014" y2="398.082" gradientUnits="userSpaceOnUse"><stop stop-color="#1BA4E5" stop-opacity=".5"/><stop offset="1" stop-color="#B40FE7"/></linearGradient><linearGradient id="paint3_linear_2_707" x1="113.064" y1="736.907" x2="419.46" y2="396.045" gradientUnits="userSpaceOnUse"><stop stop-color="#1BA4E5" stop-opacity=".5"/><stop offset="1" stop-color="#B40FE7"/></linearGradient><linearGradient id="paint4_linear_2_707" x1="117.176" y1="730.79" x2="419.906" y2="394.007" gradientUnits="userSpaceOnUse"><stop stop-color="#1BA4E5" stop-opacity=".5"/><stop offset="1" stop-color="#B40FE7"/></linearGradient><linearGradient id="paint5_linear_2_707" x1="121.243" y1="724.725" x2="420.353" y2="391.969" gradientUnits="userSpaceOnUse"><stop stop-color="#1BA4E5" stop-opacity=".5"/><stop offset="1" stop-color="#B40FE7"/></linearGradient><linearGradient id="paint6_linear_2_707" x1="125.255" y1="718.72" x2="420.799" y2="389.931" gradientUnits="userSpaceOnUse"><stop stop-color="#1BA4E5" stop-opacity=".5"/><stop offset="1" stop-color="#B40FE7"/></linearGradient><linearGradient id="paint7_linear_2_707" x1="129.199" y1="712.79" x2="421.245" y2="387.893" gradientUnits="userSpaceOnUse"><stop stop-color="#1BA4E5" stop-opacity=".5"/><stop offset="1" stop-color="#B40FE7"/></linearGradient><linearGradient id="paint8_linear_2_707" x1="133.059" y1="706.952" x2="421.69" y2="385.854" gradientUnits="userSpaceOnUse"><stop stop-color="#1BA4E5" stop-opacity=".5"/><stop offset="1" stop-color="#B40FE7"/></linearGradient><linearGradient id="paint9_linear_2_707" x1="136.814" y1="701.231" x2="422.134" y2="383.815" gradientUnits="userSpaceOnUse"><stop stop-color="#1BA4E5" stop-opacity=".5"/><stop offset="1" stop-color="#B40FE7"/></linearGradient><linearGradient id="paint10_linear_2_707" x1="140.434" y1="695.659" x2="422.579" y2="381.776" gradientUnits="userSpaceOnUse"><stop stop-color="#1BA4E5" stop-opacity=".5"/><stop offset="1" stop-color="#B40FE7"/></linearGradient><linearGradient id="paint11_linear_2_707" x1="143.874" y1="690.284" x2="423.022" y2="379.735" gradientUnits="userSpaceOnUse"><stop stop-color="#1BA4E5" stop-opacity=".5"/><stop offset="1" stop-color="#B40FE7"/></linearGradient><linearGradient id="paint12_linear_2_707" x1="147.069" y1="685.178" x2="423.463" y2="377.693" gradientUnits="userSpaceOnUse"><stop stop-color="#1BA4E5" stop-opacity=".5"/><stop offset="1" stop-color="#B40FE7"/></linearGradient><linearGradient id="paint13_linear_2_707" x1="149.914" y1="680.456" x2="423.901" y2="375.647" gradientUnits="userSpaceOnUse"><stop stop-color="#1BA4E5" stop-opacity=".5"/><stop offset="1" stop-color="#B40FE7"/></linearGradient><linearGradient id="paint14_linear_2_707" x1="152.218" y1="676.328" x2="424.335" y2="373.6" gradientUnits="userSpaceOnUse"><stop stop-color="#1BA4E5" stop-opacity=".5"/><stop offset="1" stop-color="#B40FE7"/></linearGradient><linearGradient id="paint15_linear_2_707" x1="153.587" y1="673.231" x2="424.766" y2="371.547" gradientUnits="userSpaceOnUse"><stop stop-color="#1BA4E5" stop-opacity=".5"/><stop offset="1" stop-color="#B40FE7"/></linearGradient><linearGradient id="paint16_linear_2_707" x1="152.724" y1="672.611" x2="425.193" y2="369.492" gradientUnits="userSpaceOnUse"><stop stop-color="#1BA4E5" stop-opacity=".5"/><stop offset="1" stop-color="#B40FE7"/></linearGradient><linearGradient id="paint17_linear_2_707" x1="145.849" y1="678.743" x2="425.652" y2="367.466" gradientUnits="userSpaceOnUse"><stop stop-color="#1BA4E5" stop-opacity=".5"/><stop offset="1" stop-color="#B40FE7"/></linearGradient><linearGradient id="paint18_linear_2_707" x1="138.706" y1="685.177" x2="426.112" y2="365.441" gradientUnits="userSpaceOnUse"><stop stop-color="#1BA4E5" stop-opacity=".5"/><stop offset="1" stop-color="#B40FE7"/></linearGradient><linearGradient id="paint19_linear_2_707" x1="131.561" y1="691.604" x2="426.568" y2="363.412" gradientUnits="userSpaceOnUse"><stop stop-color="#1BA4E5" stop-opacity=".5"/><stop offset="1" stop-color="#B40FE7"/></linearGradient><linearGradient id="paint20_linear_2_707" x1="124.412" y1="698.029" x2="427.021" y2="361.38" gradientUnits="userSpaceOnUse"><stop stop-color="#1BA4E5" stop-opacity=".5"/><stop offset="1" stop-color="#B40FE7"/></linearGradient><linearGradient id="paint21_linear_2_707" x1="117.26" y1="704.453" x2="427.471" y2="359.346" gradientUnits="userSpaceOnUse"><stop stop-color="#1BA4E5" stop-opacity=".5"/><stop offset="1" stop-color="#B40FE7"/></linearGradient><linearGradient id="paint22_linear_2_707" x1="110.104" y1="710.877" x2="427.92" y2="357.31" gradientUnits="userSpaceOnUse"><stop stop-color="#1BA4E5" stop-opacity=".5"/><stop offset="1" stop-color="#B40FE7"/></linearGradient><linearGradient id="paint23_linear_2_707" x1="102.946" y1="717.302" x2="428.368" y2="355.274" gradientUnits="userSpaceOnUse"><stop stop-color="#1BA4E5" stop-opacity=".5"/><stop offset="1" stop-color="#B40FE7"/></linearGradient><linearGradient id="paint24_linear_2_707" x1="95.785" y1="723.728" x2="428.815" y2="353.236" gradientUnits="userSpaceOnUse"><stop stop-color="#1BA4E5" stop-opacity=".5"/><stop offset="1" stop-color="#B40FE7"/></linearGradient><linearGradient id="paint25_linear_2_707" x1="88.624" y1="730.155" x2="429.262" y2="351.198" gradientUnits="userSpaceOnUse"><stop stop-color="#1BA4E5" stop-opacity=".5"/><stop offset="1" stop-color="#B40FE7"/></linearGradient><linearGradient id="paint26_linear_2_707" x1="81.461" y1="736.582" x2="429.709" y2="349.16" gradientUnits="userSpaceOnUse"><stop stop-color="#1BA4E5" stop-opacity=".5"/><stop offset="1" stop-color="#B40FE7"/></linearGradient><linearGradient id="paint27_linear_2_707" x1="74.297" y1="743.01" x2="430.156" y2="347.121" gradientUnits="userSpaceOnUse"><stop stop-color="#1BA4E5" stop-opacity=".5"/><stop offset="1" stop-color="#B40FE7"/></linearGradient><linearGradient id="paint28_linear_2_707" x1="67.132" y1="749.439" x2="430.602" y2="345.082" gradientUnits="userSpaceOnUse"><stop stop-color="#1BA4E5" stop-opacity=".5"/><stop offset="1" stop-color="#B40FE7"/></linearGradient><linearGradient id="paint29_linear_2_707" x1="59.967" y1="755.867" x2="431.049" y2="343.043" gradientUnits="userSpaceOnUse"><stop stop-color="#1BA4E5" stop-opacity=".5"/><stop offset="1" stop-color="#B40FE7"/></linearGradient><linearGradient id="paint30_linear_2_707" x1="52.802" y1="762.296" x2="431.496" y2="341.003" gradientUnits="userSpaceOnUse"><stop stop-color="#1BA4E5" stop-opacity=".5"/><stop offset="1" stop-color="#B40FE7"/></linearGradient><linearGradient id="paint31_linear_2_707" x1="45.636" y1="768.726" x2="431.943" y2="338.963" gradientUnits="userSpaceOnUse"><stop stop-color="#1BA4E5" stop-opacity=".5"/><stop offset="1" stop-color="#B40FE7"/></linearGradient><linearGradient id="paint32_linear_2_707" x1="49.816" y1="771.07" x2="435.586" y2="341.905" gradientUnits="userSpaceOnUse"><stop stop-color="#1BA4E5" stop-opacity=".5"/><stop offset="1" stop-color="#B40FE7"/></linearGradient><linearGradient id="paint33_linear_2_707" x1="54.004" y1="773.422" x2="439.301" y2="344.783" gradientUnits="userSpaceOnUse"><stop stop-color="#1BA4E5" stop-opacity=".5"/><stop offset="1" stop-color="#B40FE7"/></linearGradient><linearGradient id="paint34_linear_2_707" x1="58.192" y1="775.773" x2="443.017" y2="347.66" gradientUnits="userSpaceOnUse"><stop stop-color="#1BA4E5" stop-opacity=".5"/><stop offset="1" stop-color="#B40FE7"/></linearGradient><linearGradient id="paint35_linear_2_707" x1="62.38" y1="778.125" x2="446.732" y2="350.536" gradientUnits="userSpaceOnUse"><stop stop-color="#1BA4E5" stop-opacity=".5"/><stop offset="1" stop-color="#B40FE7"/></linearGradient><linearGradient id="paint36_linear_2_707" x1="66.567" y1="780.476" x2="450.447" y2="353.414" gradientUnits="userSpaceOnUse"><stop stop-color="#1BA4E5" stop-opacity=".5"/><stop offset="1" stop-color="#B40FE7"/></linearGradient><linearGradient id="paint37_linear_2_707" x1="70.755" y1="782.828" x2="454.162" y2="356.291" gradientUnits="userSpaceOnUse"><stop stop-color="#1BA4E5" stop-opacity=".5"/><stop offset="1" stop-color="#B40FE7"/></linearGradient><linearGradient id="paint38_linear_2_707" x1="74.943" y1="785.179" x2="457.878" y2="359.168" gradientUnits="userSpaceOnUse"><stop stop-color="#1BA4E5" stop-opacity=".5"/><stop offset="1" stop-color="#B40FE7"/></linearGradient><linearGradient id="paint39_linear_2_707" x1="79.131" y1="787.531" x2="461.594" y2="362.045" gradientUnits="userSpaceOnUse"><stop stop-color="#1BA4E5" stop-opacity=".5"/><stop offset="1" stop-color="#B40FE7"/></linearGradient><linearGradient id="paint40_linear_2_707" x1="83.318" y1="789.883" x2="465.309" y2="364.922" gradientUnits="userSpaceOnUse"><stop stop-color="#1BA4E5" stop-opacity=".5"/><stop offset="1" stop-color="#B40FE7"/></linearGradient><linearGradient id="paint41_linear_2_707" x1="87.506" y1="792.234" x2="469.024" y2="367.799" gradientUnits="userSpaceOnUse"><stop stop-color="#1BA4E5" stop-opacity=".5"/><stop offset="1" stop-color="#B40FE7"/></linearGradient><linearGradient id="paint42_linear_2_707" x1="91.694" y1="794.585" x2="472.739" y2="370.676" gradientUnits="userSpaceOnUse"><stop stop-color="#1BA4E5" stop-opacity=".5"/><stop offset="1" stop-color="#B40FE7"/></linearGradient><linearGradient id="paint43_linear_2_707" x1="95.881" y1="796.937" x2="476.455" y2="373.553" gradientUnits="userSpaceOnUse"><stop stop-color="#1BA4E5" stop-opacity=".5"/><stop offset="1" stop-color="#B40FE7"/></linearGradient><linearGradient id="paint44_linear_2_707" x1="100.069" y1="799.288" x2="480.17" y2="376.43" gradientUnits="userSpaceOnUse"><stop stop-color="#1BA4E5" stop-opacity=".5"/><stop offset="1" stop-color="#B40FE7"/></linearGradient><linearGradient id="paint45_linear_2_707" x1="104.257" y1="801.64" x2="483.885" y2="379.307" gradientUnits="userSpaceOnUse"><stop stop-color="#1BA4E5" stop-opacity=".5"/><stop offset="1" stop-color="#B40FE7"/></linearGradient><linearGradient id="paint46_linear_2_707" x1="108.445" y1="803.991" x2="487.601" y2="382.184" gradientUnits="userSpaceOnUse"><stop stop-color="#1BA4E5" stop-opacity=".5"/><stop offset="1" stop-color="#B40FE7"/></linearGradient><linearGradient id="paint47_linear_2_707" x1="112.632" y1="806.343" x2="491.316" y2="385.061" gradientUnits="userSpaceOnUse"><stop stop-color="#1BA4E5" stop-opacity=".5"/><stop offset="1" stop-color="#B40FE7"/></linearGradient><linearGradient id="paint48_linear_2_707" x1="116.82" y1="808.694" x2="495.031" y2="387.938" gradientUnits="userSpaceOnUse"><stop stop-color="#1BA4E5" stop-opacity=".5"/><stop offset="1" stop-color="#B40FE7"/></linearGradient><linearGradient id="paint49_linear_2_707" x1="121.008" y1="811.046" x2="498.747" y2="390.815" gradientUnits="userSpaceOnUse"><stop stop-color="#1BA4E5" stop-opacity=".5"/><stop offset="1" stop-color="#B40FE7"/></linearGradient><linearGradient id="paint50_linear_2_707" x1="125.195" y1="813.397" x2="502.462" y2="393.692" gradientUnits="userSpaceOnUse"><stop stop-color="#1BA4E5" stop-opacity=".5"/><stop offset="1" stop-color="#B40FE7"/></linearGradient><linearGradient id="paint51_linear_2_707" x1="129.383" y1="815.748" x2="506.177" y2="396.569" gradientUnits="userSpaceOnUse"><stop stop-color="#1BA4E5" stop-opacity=".5"/><stop offset="1" stop-color="#B40FE7"/></linearGradient><linearGradient id="paint52_linear_2_707" x1="133.571" y1="818.1" x2="509.893" y2="399.446" gradientUnits="userSpaceOnUse"><stop stop-color="#1BA4E5" stop-opacity=".5"/><stop offset="1" stop-color="#B40FE7"/></linearGradient><linearGradient id="paint53_linear_2_707" x1="137.758" y1="820.452" x2="513.608" y2="402.323" gradientUnits="userSpaceOnUse"><stop stop-color="#1BA4E5" stop-opacity=".5"/><stop offset="1" stop-color="#B40FE7"/></linearGradient><linearGradient id="paint54_linear_2_707" x1="141.946" y1="822.803" x2="517.323" y2="405.2" gradientUnits="userSpaceOnUse"><stop stop-color="#1BA4E5" stop-opacity=".5"/><stop offset="1" stop-color="#B40FE7"/></linearGradient><linearGradient id="paint55_linear_2_707" x1="146.134" y1="825.155" x2="521.038" y2="408.077" gradientUnits="userSpaceOnUse"><stop stop-color="#1BA4E5" stop-opacity=".5"/><stop offset="1" stop-color="#B40FE7"/></linearGradient><linearGradient id="paint56_linear_2_707" x1="144.509" y1="833.971" x2="524.753" y2="410.953" gradientUnits="userSpaceOnUse"><stop stop-color="#1BA4E5" stop-opacity=".5"/><stop offset="1" stop-color="#B40FE7"/></linearGradient><linearGradient id="paint57_linear_2_707" x1="141.151" y1="844.714" x2="528.467" y2="413.83" gradientUnits="userSpaceOnUse"><stop stop-color="#1BA4E5" stop-opacity=".5"/><stop offset="1" stop-color="#B40FE7"/></linearGradient><linearGradient id="paint58_linear_2_707" x1="137.776" y1="855.476" x2="532.181" y2="416.705" gradientUnits="userSpaceOnUse"><stop stop-color="#1BA4E5" stop-opacity=".5"/><stop offset="1" stop-color="#B40FE7"/></linearGradient><linearGradient id="paint59_linear_2_707" x1="134.389" y1="866.252" x2="535.895" y2="419.581" gradientUnits="userSpaceOnUse"><stop stop-color="#1BA4E5" stop-opacity=".5"/><stop offset="1" stop-color="#B40FE7"/></linearGradient><linearGradient id="paint60_linear_2_707" x1="130.989" y1="877.043" x2="539.609" y2="422.457" gradientUnits="userSpaceOnUse"><stop stop-color="#1BA4E5" stop-opacity=".5"/><stop offset="1" stop-color="#B40FE7"/></linearGradient><linearGradient id="paint61_linear_2_707" x1="127.572" y1="887.851" x2="543.323" y2="425.333" gradientUnits="userSpaceOnUse"><stop stop-color="#1BA4E5" stop-opacity=".5"/><stop offset="1" stop-color="#B40FE7"/></linearGradient><linearGradient id="paint62_linear_2_707" x1="124.142" y1="898.675" x2="547.037" y2="428.209" gradientUnits="userSpaceOnUse"><stop stop-color="#1BA4E5" stop-opacity=".5"/><stop offset="1" stop-color="#B40FE7"/></linearGradient></defs></svg>