<svg width="349" height="414" fill="none" xmlns="http://www.w3.org/2000/svg"><path d="M175 146.531V101" stroke="#fff" stroke-width="3" stroke-linecap="round" stroke-dasharray="6 6"/><path d="M175 142.571c-1.662 0-3 1.332-3 2.965 0 1.632 1.338 2.964 3 2.964s3-1.332 3-2.964c0-1.633-1.338-2.965-3-2.965z" fill="#7579FF" stroke="#fff"/><path d="M312.5 247H332c8.284 0 15 6.716 15 15v70c0 20.987-17.013 38-38 38h-45" stroke="#7579FF" stroke-width="3" stroke-linecap="round"/><circle cx="312" cy="247.5" r="3" transform="rotate(90 312 247.5)" fill="#7579FF" stroke="#fff"/><path d="M265.5 372.084v-3.169c0-.66-.687-1.103-1.299-.836l-3.15 1.376a.91.91 0 00-.088 1.629l3.151 1.793c.616.351 1.386-.089 1.386-.793z" fill="#7579FF" stroke="#fff" stroke-linecap="round"/><path d="M36.5 247h-19c-8.284 0-15 6.716-15 15v110c0 20.987 17.013 38 38 38h8" stroke="#7579FF" stroke-width="3" stroke-linecap="round"/><circle cx="37" cy="247.5" r="3" transform="rotate(90 37 247.5)" fill="#7579FF" stroke="#fff"/><path d="M48.5 412.084v-3.169c0-.66.687-1.103 1.298-.836l3.151 1.376a.91.91 0 01.087 1.629l-3.15 1.793c-.616.351-1.386-.089-1.386-.793z" fill="#7579FF" stroke="#fff" stroke-linecap="round"/><path d="M36.5 167H17c-8.284 0-15-6.716-15-15V82c0-20.987 17.013-38 38-38h23.5" stroke="#7579FF" stroke-width="3" stroke-linecap="round"/><circle cx="37" cy="166.5" r="3" transform="rotate(-90 37 166.5)" fill="#7579FF" stroke="#fff"/><path d="M64 41.916v3.169c0 .66.687 1.103 1.299.836l3.15-1.376a.91.91 0 00.088-1.629l-3.15-1.793c-.617-.35-1.387.09-1.387.793z" fill="#7579FF" stroke="#fff" stroke-linecap="round"/><path d="M313 167h19c8.284 0 15-6.716 15-15V42c0-20.987-17.013-38-38-38h-39" stroke="#7579FF" stroke-width="3" stroke-linecap="round"/><circle cx="312.5" cy="166.5" r="3" transform="rotate(-90 312.5 166.5)" fill="#7579FF" stroke="#fff"/><path d="M272 1.916v3.169c0 .66-.687 1.103-1.299.836l-3.15-1.376a.91.91 0 01-.088-1.629l3.151-1.793c.616-.35 1.386.09 1.386.793z" fill="#7579FF" stroke="#fff" stroke-linecap="round"/><path d="M174.5 267.469V313" stroke="#fff" stroke-width="3" stroke-linecap="round" stroke-dasharray="6 6"/><path d="M174.5 271.429c1.662 0 3-1.332 3-2.965 0-1.632-1.338-2.964-3-2.964s-3 1.332-3 2.964c0 1.633 1.338 2.965 3 2.965z" fill="#7579FF" stroke="#fff"/></svg>