<svg width="678" height="270" fill="none" xmlns="http://www.w3.org/2000/svg"><path d="M480.014 135h81.568" stroke="#fff" stroke-width="3" stroke-linecap="round" stroke-dasharray="6 6"/><path d="M485.46 135a3.49 3.49 0 00-3.48-3.5 3.49 3.49 0 00-3.48 3.5 3.49 3.49 0 003.48 3.5 3.49 3.49 0 003.48-3.5z" fill="#7579FF" stroke="#fff"/><path d="M480.985 95.5h46.577c20.987 0 38-17.013 38-38V42c0-20.987 17.013-38 38-38h72.448" stroke="#7579FF" stroke-width="3" stroke-linecap="round"/><path d="M484.465 95.5c0 1.66-1.338 3-2.982 3a2.992 2.992 0 01-2.983-3c0-1.66 1.338-3 2.983-3a2.991 2.991 0 012.982 3zM677.5 3.5c0 1.66-1.338 3-2.983 3a2.991 2.991 0 01-2.982-3c0-1.66 1.338-3 2.982-3a2.992 2.992 0 012.983 3z" fill="#7579FF" stroke="#fff"/><path d="M480.985 174.031h46.577c20.987 0 38 17.013 38 38v16.433c0 20.987 17.013 38 38 38h72.448" stroke="#7579FF" stroke-width="3" stroke-linecap="round"/><path d="M677.5 266.464c0 1.684-1.342 3.036-2.983 3.036-1.64 0-2.982-1.352-2.982-3.036 0-1.683 1.342-3.035 2.982-3.035 1.641 0 2.983 1.352 2.983 3.035zm-193.035-91.928c0 1.683-1.342 3.035-2.982 3.035-1.641 0-2.983-1.352-2.983-3.035 0-1.684 1.342-3.036 2.983-3.036 1.64 0 2.982 1.352 2.982 3.036z" fill="#7579FF" stroke="#fff"/><path d="M197.986 135h-81.568" stroke="#fff" stroke-width="3" stroke-linecap="round" stroke-dasharray="6 6"/><path d="M192.54 135a3.49 3.49 0 003.48 3.5 3.49 3.49 0 003.48-3.5 3.49 3.49 0 00-3.48-3.5 3.49 3.49 0 00-3.48 3.5z" fill="#7579FF" stroke="#fff"/><path d="M197.015 174.5h-46.577c-20.987 0-38 17.013-38 38V228c0 20.987-17.013 38-38 38H1.99" stroke="#7579FF" stroke-width="3" stroke-linecap="round"/><path d="M193.535 174.5c0-1.659 1.338-3 2.982-3a2.992 2.992 0 012.983 3c0 1.659-1.338 3-2.983 3a2.992 2.992 0 01-2.982-3zM.5 266.5c0-1.659 1.338-3 2.983-3a2.991 2.991 0 012.982 3c0 1.659-1.337 3-2.982 3a2.991 2.991 0 01-2.983-3z" fill="#7579FF" stroke="#fff"/><path d="M197.015 95.97h-46.577c-20.987 0-38-17.014-38-38V41.535c0-20.987-17.013-38-38-38H1.99" stroke="#7579FF" stroke-width="3" stroke-linecap="round"/><path d="M.5 3.536C.5 1.852 1.842.5 3.483.5c1.64 0 2.982 1.352 2.982 3.036 0 1.683-1.342 3.035-2.982 3.035C1.843 6.571.5 5.22.5 3.536zm193.035 91.928c0-1.683 1.342-3.035 2.982-3.035 1.641 0 2.983 1.352 2.983 3.035 0 1.684-1.342 3.036-2.983 3.036-1.64 0-2.982-1.352-2.982-3.036z" fill="#7579FF" stroke="#fff"/></svg>