<svg width="74" height="74" fill="none" xmlns="http://www.w3.org/2000/svg"><path fill-rule="evenodd" clip-rule="evenodd" d="M57.287 23.184c-.159.189-9.504 8.302-9.767 8.543-.264.242-.056.215-.004.456.053.242-.478.727-.584.885a.237.237 0 00-.028.125c.405.583 1.699 2.634 1.376 4.659.879-1.062 1.476-2.828 1.527-4.849.006.137.011.274.011.413 0 3.66-1.598 6.626-3.57 6.626-1.12 0-2.12-.96-2.774-2.46l-2.687 2.166c.3.597.347 1.17.092 1.314-.271.153-.778-.24-1.135-.878-.233-.42-.34-.84-.31-1.122l-.117-.293c-5.39 2.758-18.827 10.215-19.506 10.504-.824.348-3.295.992-3.8.992-.504 0 16.255-10.09 16.653-10.412.167-.133.052-.177-.19-.177-.342 0-.939.085-1.373.121-.289.024-1.068.083-2.317.244-.453.046-.91.065-1.366.059-.451 0-.944-.011-1.415-.028.04.058.076.119.107.183.182.376.177.755-.009.847-.186.092-.485-.14-.667-.515a1.223 1.223 0 01-.133-.544c-.817-.039-1.472-.087-1.591-.109-.2-.037-.213-.123-.287-.123a.366.366 0 00-.167.07c-.265.16-2.311 1.636-2.976 1.797-.544.131-1.482.391-1.758.391-.061 0-.09-.013-.076-.042.08-.16 4.206-3.197 4.439-3.54.215-.319-1.341-5.862-1.143-6.303.117-.259 1.485-.726 1.816-.726.045 0 .07.009.07.028 0 .16 2.206 4.747 2.551 4.855h.03c.48 0 3.858-2.125 4.195-2.31.285-.155 1.893-.73 2.205-.727.067 0 .084.038 0 .087-.699.407-2.267 1.453-1.63 1.355.013 0 .399.006.428-.005.283-.1 2.317-1.558 4.51-2.65 1.315-.656 2.771-1.175 3.044-1.222.21-.036.424-.055.638-.055 1.164 0 2.171.51 2.577.778a.411.411 0 00.133.012c.117 0 .3-.01.513-.026.429-2.765 1.8-4.79 3.428-4.79.03 0 .055.007.086.008-1.556.139-2.834 2.151-3.183 4.753.61-.056 1.311-.148 1.467-.228.043-.021.27-.183.624-.439-.373-.709-.66-1.562-.566-2.442.68-1.465 1.945-1.914 2.072-1.577-.802.692-.852 2.152-.702 3.433 2.672-1.96 8.193-6.08 8.662-6.47.454-.379 1.89-.826 2.422-.826.186 0 .264.051.156.18l-.001.005zm-17.75 15.62a.247.247 0 01.055-.053c.253-.144.71.193 1.06.756l.732-1.723c-.283.096-.963.423-1.914.908l.066.111zM34.96 35.43c-.04-.09-.222-1.13-.24-1.256-.027-.207-.277-.193-.31-.191-.152.022-1.242.575-1.214.814.053.381.136.758.249 1.126a.287.287 0 00.244.19.163.163 0 00.055-.009c.111-.04.917-.28 1.136-.352.22-.073.12-.23.08-.322zm1.915-2.18c-.27 0-1.797.267-1.711.733.055.308.263 1.36.333 1.472.01.013.046.02.106.02.428 0 1.923-.468 2.028-.618.12-.171-.622-1.529-.71-1.6a.086.086 0 00-.045-.007zm3.875-2.013c-.222-.06-.772-.12-1.216-.12-.234 0-.438.018-.548.057-.319.12-.512.207-.658.341-.407.376-.837.926-.847 1.278-.01.352.698 1.7.847 1.76a.66.66 0 00.24.05.347.347 0 00.318-.18c.14-.242 2.71-2.474 2.92-2.535.21-.06-.717-.563-1.056-.654v.003zm2.56 5.934c-.498.193-1.006.359-1.52.498l-.802 1.615 2.395-1.931c-.024-.061-.05-.12-.074-.182zm.585-.25l.007.014.044-.035a2.778 2.778 0 01-.053.022h.002zm.116.23c.598 1.082 1.428 1.755 2.356 1.755a2.13 2.13 0 00.196-.018c.713-1.27.546-3.582.374-4.892-.003.041 0 .074-.005.118-.033.229-.326.605-.705 1 .237.5.278.995.094 1.118-.152.098-.41-.089-.635-.43l-1.675 1.348z" fill="#fff"/></svg>