<svg width="25" height="25" fill="none" xmlns="http://www.w3.org/2000/svg"><path fill-rule="evenodd" clip-rule="evenodd" d="M12.916 3.4a9.517 9.517 0 100 19.034 9.517 9.517 0 000-19.035zm-12 9.517c0-6.628 5.373-12 12-12 6.628 0 12 5.372 12 12 0 6.627-5.372 12-12 12-6.627 0-12-5.373-12-12z" fill="#fff"/><path fill-rule="evenodd" clip-rule="evenodd" d="M10.684 8.24a1.241 1.241 0 011.756.002l3.787 3.798a1.241 1.241 0 010 1.753l-3.787 3.798a1.241 1.241 0 01-1.758-1.753l2.913-2.921-2.913-2.922a1.241 1.241 0 01.002-1.755z" fill="#fff"/></svg>