<svg width="74" height="74" fill="none" xmlns="http://www.w3.org/2000/svg"><path d="M31.56 42.214s-1.127-.94-3.567-1.784c-2.44-.752-4.413-.939-3.944-2.253 0 0-.469.751 1.878 1.22 2.253.563 3.943.75 5.82 2.065h11.358c1.972-1.315 3.568-1.502 5.915-2.066 2.347-.47 1.878-1.219 1.878-1.219.375 1.314-1.69 1.596-4.131 2.347-2.441.75-3.381 1.69-3.381 1.69H31.56z" fill="#fff"/><path d="M37.85 35.83h-.753c-1.126 0-3.285.094-4.6.28 0 0-1.408.095-.093 2.067 0 0-.564-1.033-.188-1.502 0 0 .094-.282.75-.376 0 0 2.348-.188 4.131-.188h.657c1.785 0 4.131.188 4.131.188.751.094.751.376.751.376.375.469-.188 1.502-.188 1.502 1.315-1.972-.093-2.066-.093-2.066-1.315-.187-3.474-.282-4.507-.282h.001zm13.236 4.6l-5.54 1.218v1.596s-.093 1.033.376.94h4.788s.376 0 .376-.846V40.43zm-27.131 0l5.54 1.218v1.596s.093 1.033-.376.94H24.33s-.376 0-.376-.846V40.43z" fill="#fff"/><path d="M44.796 29.634a6.994 6.994 0 013.381 3.191h.56v-1.032c.845 0 2.439 0 2.816.282.376.187.282.938.282.938l-3.473.282.093.187c.796.17 1.58.39 2.348.658-.188.281-.846.656-.94.75a9.242 9.242 0 01-1.501.47c-1.127.188-2.348.375-2.91 1.127 0 0 2.815 1.126 4.787 0 0 0 .376-.752.094-1.596.188-.188.376-.282.563-.47.47 1.502 0 2.348 0 2.348-.47.844-1.408.844-4.13 1.595-2.723.751-4.037 2.348-4.037 2.348h-1.127c.658-.752 2.253-2.817 2.44-4.32 0 0 .375-.75-1.597-.938a89.567 89.567 0 00-10.044 0c-1.972.188-1.597.939-1.597.939.188 1.502 1.878 3.567 2.44 4.319h-1.127s-1.22-1.597-3.943-2.348c-2.817-.75-3.756-.75-4.225-1.595 0 0-.376-.846.094-2.348.094.188.282.282.47.47-.282.844.093 1.596.093 1.596 1.972 1.126 4.882 0 4.882 0-.657-.752-1.877-.939-3.004-1.127-.487-.1-.96-.257-1.408-.47-.188-.094-.845-.469-.94-.75.74-.26 1.492-.48 2.254-.658l.094-.187-3.474-.282s-.093-.751.282-.938c.376-.282 1.971-.282 2.816-.282v1.032h.657a7.159 7.159 0 013.286-3.192 43.182 43.182 0 0114.74 0h.005zm-7.322 5.35l.281-2.16c2.066.093 5.915.28 8.074.375-1.315 1.126-1.878 2.347-1.878 2.347.563-.845 2.253-1.784 3.192-2.253-.376-1.877-2.534-3.098-2.534-3.098-4.32-.939-10.046-.939-14.27 0 0 0-2.162 1.22-2.63 3.098 1.034.47 2.63 1.408 3.287 2.253 0 0-.657-1.22-1.971-2.347 2.159-.094 6.008-.282 8.073-.376l.376 2.162z" fill="#fff"/></svg>