<svg width="24" height="24" fill="none" xmlns="http://www.w3.org/2000/svg"><path fill-rule="evenodd" clip-rule="evenodd" d="M12 2.12c-5.457 0-9.88 4.423-9.88 9.88 0 5.457 4.423 9.88 9.88 9.88 5.457 0 9.88-4.423 9.88-9.88 0-5.457-4.423-9.88-9.88-9.88zM1.88 12C1.88 6.41 6.41 1.88 12 1.88c5.59 0 10.12 4.53 10.12 10.12 0 5.59-4.53 10.12-10.12 10.12-5.59 0-10.12-4.53-10.12-10.12z" fill="#000"/><path fill-rule="evenodd" clip-rule="evenodd" d="M12 5.88a.12.12 0 01.12.12v5.926l3.934 1.967a.12.12 0 11-.108.214l-4-2A.12.12 0 0111.88 12V6a.12.12 0 01.12-.12z" fill="#000"/></svg>