<svg width="49" height="48" fill="none" xmlns="http://www.w3.org/2000/svg"><path d="M34.909 24.9v6.284a2.335 2.335 0 01-2.352 2.318h-4.023a2.332 2.332 0 01-2.351-2.318V24.9c0-4.75-3.908-8.6-8.729-8.6-4.82 0-8.728 3.85-8.728 8.6v6.283a2.333 2.333 0 01-2.352 2.318H2.352A2.332 2.332 0 010 31.184V24.9C0 15.4 7.814 7.699 17.454 7.699S34.91 15.4 34.91 24.901z" fill="#fff"/><path d="M48.002 30.78V0h-8.948l.136 30.78c0 4.75-3.908 8.599-8.726 8.599-4.819 0-8.728-3.85-8.728-8.6v-6.283a2.335 2.335 0 00-2.354-2.319h-4.015a2.337 2.337 0 00-2.354 2.319v6.283c0 9.5 7.834 17.202 17.494 17.202s17.495-7.702 17.495-17.202z" fill="#fff"/></svg>