<svg width="74" height="74" fill="none" xmlns="http://www.w3.org/2000/svg"><path d="M48.142 32.573l-.678 1.696h-.66l-.453-1.994 1.79.298zm-13.748 1.23l.142-.028.474.316a5.775 5.775 0 01-6.304-.745l.93.266c1.548.44 3.179.505 4.758.191zm-7.25 1.783l4.195 1.945a2.615 2.615 0 011.433 3.06H30.4a4.751 4.751 0 00-3.417-4.03l.161-.975zm1.127 5.006a2.64 2.64 0 00-1.639-1.926l.177-1.06a3.691 3.691 0 012.526 2.986H28.27zm-1.098 1.054a1.577 1.577 0 11-1.76-2.08l-.347 2.08h2.107zm-.862-1.054l.142-.848c.334.186.59.487.72.848h-.862zm-.623 4.215a3.688 3.688 0 010-7.377c.027 0 .053.004.08.005l-.177 1.06a2.63 2.63 0 102.68 3.15h1.064a3.692 3.692 0 01-3.647 3.162zM42.591 36.7l-2.096 5.026a1.579 1.579 0 01-1.458.974h-6.13l.548-.987a3.69 3.69 0 00-1.673-5.137l-4.895-2.266-3.583-1.448.824-.165 2.787.349-.018.017.685.685a6.826 6.826 0 008.434.986l.716-.44a2.927 2.927 0 013.15.057 12.406 12.406 0 002.957 1.446l.632.21-.685.457a.528.528 0 00-.196.236zm1.989-1.43l-1.408-.47a11.364 11.364 0 01-2.707-1.324 3.984 3.984 0 00-4.288-.077l-.158.098-.744-.496.211-.632a.532.532 0 01.385-.348l3.59-.797a1.58 1.58 0 01.843.043l.991.33 2.45 1.225a1.578 1.578 0 001.621-.126l.405 1.781-1.191.793zm3.24 9.538a3.688 3.688 0 01-1.323-7.128l.238 1.045a2.623 2.623 0 101.084-.24c-.02 0-.037.005-.057.005l-.237-1.045a3.688 3.688 0 11.294 7.362zm-.514-3.572l1.027-.234-.328-1.445a1.575 1.575 0 11-1.029.23l.33 1.449z" fill="#fff"/><path d="M47.82 39.539c.062.002.124.008.185.019l-.242-1.067a2.604 2.604 0 00-1.028.234l.242 1.062c.251-.161.544-.248.843-.248zm-.53-3.131l-.247-1.085-.24-1.054h-.564a.532.532 0 00-.292.088l-.178.118.25 1.1.244 1.07.235 1.035c.33-.128.675-.206 1.027-.235l-.235-1.037zm-1.192-5.243L45.7 29.41a.527.527 0 00-.514-.41h-2.107v1.054h1.686l.33 1.453.27 1.187c.072-.05.14-.108.203-.17l.325-.325.457.077-.25-1.111z" fill="#fff"/></svg>