<svg width="35" height="35" fill="none" xmlns="http://www.w3.org/2000/svg"><path fill-rule="evenodd" clip-rule="evenodd" d="M16.703 30.363a2.386 2.386 0 101.591 0V24.66a.797.797 0 00-1.59 0v5.703zm.797 3.046a.797.797 0 11-.002-1.594.797.797 0 01.002 1.594zm-13.524-9.41a2.387 2.387 0 101.59 0v-1.726h5.57a.796.796 0 000-1.591h-5.57a1.59 1.59 0 00-1.59 1.59V24zm25.455 0a2.386 2.386 0 101.591 0v-1.726a1.59 1.59 0 00-1.59-1.591h-5.569a.798.798 0 00-.763 1.107.792.792 0 00.763.484h5.568V24zm-24.66 3.046a.795.795 0 110-1.59.795.795 0 010 1.59zm25.455 0a.795.795 0 110-1.59.795.795 0 010 1.59zm-12.319-15a.789.789 0 00-.817 0l-3.977 2.386a.793.793 0 00-.387.682v4.773a.79.79 0 00.387.682l3.977 2.387a.788.788 0 00.817 0l3.978-2.387a.793.793 0 00.386-.682v-4.773a.795.795 0 00-.386-.682l-3.978-2.386zm-13.27 6.25h6.501a.793.793 0 00.763-.484.797.797 0 00-.763-1.107h-6.5a2.386 2.386 0 100 1.59zm25.73-1.591h-6.505a.796.796 0 000 1.592h6.5a2.387 2.387 0 100-1.592h.004zm-27.98 0a.797.797 0 11-.007 0h.007zm30.228 0a.796.796 0 11-.003 0h.003zM29.433 11v1.727h-5.57a.796.796 0 100 1.591h5.567a1.59 1.59 0 001.59-1.59v-1.727a2.387 2.387 0 10-1.59 0l.003-.001zM3.979 11v1.727A1.59 1.59 0 005.57 14.32h5.57a.796.796 0 000-1.59H5.57V11a2.387 2.387 0 10-1.59 0zm12.728-6.364v5.703a.796.796 0 101.592 0V4.637a2.387 2.387 0 10-1.592 0zM4.774 7.956a.796.796 0 11-.003-.002l.003.002zm25.456 0a.796.796 0 11-.004-.002l.004.002zM17.502 1.592a.797.797 0 11-.004-.001l.004.001z" fill="#fff"/></svg>