<svg width="74" height="74" fill="none" xmlns="http://www.w3.org/2000/svg"><path d="M28.52 29.122a1.122 1.122 0 01-1.121 1.121h-2.082a1.122 1.122 0 010-2.243H27.4a1.122 1.122 0 011.121 1.122zm7.79 3.371a.832.832 0 100-1.665h-5.761c-.34 0-.665.135-.905.375a1.28 1.28 0 01-.904.374h-3.926a.841.841 0 00-.824.982.84.84 0 00.815.696l5.702.063a1.405 1.405 0 001.013-.412 1.41 1.41 0 01.997-.413h3.792zm11.438 3.944a.623.623 0 00-.364-.117h-9.628a.791.791 0 110-1.582h5.84a.498.498 0 00.289-.907.497.497 0 00-.288-.092H33.018c-.374 0-.733.149-.998.414a1.411 1.411 0 01-1.013.413l-8.058-.075a.752.752 0 00-.746.635.748.748 0 00.741.861h8.998a.794.794 0 01.777.637.791.791 0 01-.777.945H21.567a.876.876 0 00-.875.874.874.874 0 00.875.874h15.387a3.12 3.12 0 001.51-.39l1.897-1.051c.368-.204.783-.31 1.203-.31h5.819a.625.625 0 00.363-1.133l.002.004zm1.835 8.461c.115 0 .29.096.39.039l7.614-4.396c.658-.38.388-1.386-.372-1.387H41.534a.743.743 0 00-.36.092l-2.828 1.564a.74.74 0 01-.36.092H19.418a.744.744 0 00-.61.317l-1.672 2.39a.778.778 0 00.181 1.066l.256.192a.85.85 0 01.08.07.615.615 0 00.961-.036c1.082-.833 2.248-1.332 3.497-1.332 1.248 0 2.413.5 3.497 1.332.166.167.332.25.499.25a.915.915 0 00.499-.25c1.082-.833 2.248-1.332 3.497-1.332 1.248 0 2.414.5 3.496 1.332.167.167.333.25.5.25a.912.912 0 00.5-.25c1.082-.833 2.247-1.332 3.495-1.332 1.249 0 2.415.5 3.497 1.332.084.083.333.25.5.25.167 0 .416-.167.5-.25 1.082-.833 2.247-1.332 3.496-1.332 1.248 0 2.414.5 3.496 1.332v-.003z" fill="#fff"/></svg>