<svg width="74" height="74" viewBox="0 0 74 74" fill="none" xmlns="http://www.w3.org/2000/svg">
<path fill-rule="evenodd" clip-rule="evenodd" d="M57.2867 23.1845C57.1284 23.3729 47.7835 31.4856 47.5196 31.7271C47.2556 31.9687 47.464 31.9419 47.5162 32.1834C47.5685 32.425 47.0377 32.9103 46.9316 33.068C46.911 33.1063 46.9014 33.1497 46.9038 33.1932C47.3095 33.7764 48.6027 35.8268 48.2804 37.852C49.159 36.7897 49.7564 35.0239 49.807 33.0031C49.8126 33.1401 49.8181 33.2771 49.8181 33.4163C49.8181 37.0759 48.2198 40.0422 46.248 40.0422C45.1276 40.0422 44.1284 39.0827 43.4743 37.582L40.7873 39.7481C41.0868 40.3447 41.1341 40.9178 40.879 41.0615C40.6078 41.2153 40.101 40.8222 39.7442 40.1837C39.5108 39.7632 39.4046 39.3449 39.4346 39.062L39.3174 38.769C33.9267 41.5267 20.4899 48.9841 19.8108 49.2726C18.9872 49.6209 16.5158 50.2651 16.0112 50.2651C15.5066 50.2651 32.2661 40.1747 32.664 39.8532C32.8307 39.7196 32.7162 39.6765 32.4734 39.6765C32.1322 39.6765 31.5353 39.761 31.1013 39.7973C30.8123 39.8208 30.0331 39.88 28.7844 40.0405C28.3305 40.0865 27.8744 40.1063 27.4183 40.0998C26.9665 40.0998 26.4736 40.0886 26.0029 40.0718C26.0432 40.1299 26.0788 40.191 26.1096 40.2547C26.2919 40.631 26.2874 41.0101 26.1012 41.1018C25.9151 41.1935 25.6161 40.9626 25.4343 40.5868C25.3487 40.4185 25.3032 40.2324 25.3015 40.0433C24.4835 40.0042 23.8288 39.9561 23.7099 39.9343C23.5104 39.8974 23.4965 39.8113 23.4231 39.8113C23.3627 39.8201 23.3054 39.8439 23.2564 39.8806C22.9907 40.0416 20.945 41.5167 20.2804 41.6777C19.7357 41.8091 18.7977 42.0691 18.522 42.0691C18.4609 42.0691 18.432 42.0562 18.4464 42.0272C18.5265 41.8667 22.6523 38.8305 22.8846 38.4872C23.1002 38.1685 21.5436 32.6246 21.742 32.1845C21.8587 31.9251 23.2275 31.4576 23.5576 31.4576C23.6026 31.4576 23.6282 31.4666 23.6282 31.4862C23.6282 31.6466 25.8339 36.2333 26.179 36.3407C26.1888 36.3419 26.1987 36.3419 26.2085 36.3407C26.6892 36.3407 30.0665 34.2159 30.4038 34.0308C30.6889 33.8759 32.2967 33.3006 32.6095 33.3039C32.6757 33.3039 32.6929 33.3425 32.6095 33.3906C31.9104 33.7982 30.3421 34.8444 30.9795 34.7465C30.9923 34.7465 31.378 34.7516 31.4069 34.7409C31.6898 34.6403 33.7244 33.1832 35.9162 32.0906C37.2317 31.4353 38.6883 30.9164 38.9606 30.8694C39.1715 30.8328 39.3851 30.8141 39.5991 30.8135C40.7628 30.8135 41.7704 31.3246 42.1755 31.5918C42.2192 31.6031 42.2645 31.607 42.3095 31.6036C42.4262 31.6036 42.6096 31.5941 42.8219 31.5784C43.2509 28.8134 44.6214 26.7882 46.2497 26.7882C46.2797 26.7882 46.3053 26.7949 46.3364 26.796C44.7803 26.9347 43.5021 28.9471 43.1525 31.5488C43.7639 31.4929 44.4641 31.4006 44.6203 31.3212C44.6625 31.3 44.8898 31.1384 45.2438 30.8823C44.8709 30.1733 44.5847 29.32 44.678 28.4405C45.3577 26.975 46.6231 26.526 46.7504 26.8626C45.9479 27.5554 45.8979 29.0147 46.048 30.2963C48.7205 28.3354 54.2413 24.2161 54.7103 23.8253C55.1644 23.4473 56.5998 23 57.1322 23C57.3179 23 57.3962 23.0514 57.2884 23.1806L57.2867 23.1845ZM39.5363 38.8031C39.552 38.7828 39.5708 38.7651 39.5919 38.7506C39.8448 38.6074 40.3021 38.944 40.6511 39.5065L41.3836 37.7844C41.1007 37.8805 40.4211 38.2071 39.4696 38.6919L39.5363 38.8031ZM34.9603 35.4315C34.9203 35.3409 34.738 34.3009 34.7208 34.1745C34.693 33.9682 34.4429 33.9816 34.4107 33.9839C34.2579 34.0057 33.1681 34.5587 33.1958 34.798C33.2486 35.1795 33.3318 35.5561 33.4448 35.9241C33.463 35.976 33.4957 36.0217 33.539 36.0555C33.5822 36.0893 33.6342 36.1098 33.6888 36.1148C33.7077 36.1149 33.7265 36.1117 33.7444 36.1053C33.8555 36.065 34.6613 35.8257 34.8803 35.753C35.0993 35.6803 34.9998 35.5221 34.9603 35.4315ZM36.8754 33.2508C36.6048 33.2508 35.0781 33.5181 35.1637 33.9839C35.2193 34.2919 35.4272 35.3448 35.4972 35.4561C35.5061 35.4695 35.5433 35.4757 35.6033 35.4757C36.0312 35.4757 37.5262 35.0082 37.6312 34.8578C37.7507 34.6867 37.0088 33.3291 36.921 33.2586C36.9069 33.252 36.8914 33.2493 36.876 33.2508H36.8754ZM40.7501 31.2379C40.5278 31.1786 39.9776 31.1188 39.5341 31.1188C39.3001 31.1188 39.0962 31.1356 38.9856 31.1747C38.6671 31.2949 38.4737 31.3822 38.3281 31.5163C37.9213 31.8915 37.4912 32.4417 37.4806 32.794C37.4701 33.1463 38.1786 34.4932 38.3281 34.5536C38.404 34.5849 38.4851 34.6018 38.5671 34.6034C38.6316 34.606 38.6956 34.5906 38.7519 34.5588C38.8082 34.527 38.8547 34.4801 38.8861 34.4233C39.0261 34.1818 41.5965 31.9497 41.806 31.8893C42.0155 31.8289 41.0891 31.3257 40.7501 31.2351V31.2379ZM43.3093 37.1721C42.8115 37.3646 42.3042 37.5309 41.7893 37.6703L40.9879 39.2846L43.3832 37.3538C43.3587 37.2929 43.3326 37.2342 43.3093 37.1721ZM43.895 36.9227L43.9017 36.9361L43.9456 36.9009C43.93 36.9076 43.9111 36.9155 43.8933 36.9227H43.895ZM44.0106 37.1514C44.6086 38.2345 45.4394 38.9066 46.367 38.9066C46.4326 38.9042 46.4981 38.8984 46.5631 38.8892C47.2761 37.6183 47.1094 35.3068 46.9371 33.9973C46.9344 34.0381 46.9371 34.0711 46.9316 34.1147C46.8994 34.3439 46.6059 34.7203 46.2269 35.115C46.4637 35.6143 46.5048 36.1097 46.3214 36.2333C46.1691 36.3312 45.9107 36.1444 45.6862 35.8039L44.0106 37.1514Z" fill="white"/>
</svg>
