<svg width="25" height="25" viewBox="0 0 25 25" fill="none" xmlns="http://www.w3.org/2000/svg">
<path fill-rule="evenodd" clip-rule="evenodd" d="M12.9165 3.39938C7.66028 3.39938 3.39926 7.6604 3.39926 12.9166C3.39926 18.1729 7.66028 22.4339 12.9165 22.4339C18.1727 22.4339 22.4337 18.1729 22.4337 12.9166C22.4337 7.6604 18.1727 3.39938 12.9165 3.39938ZM0.916504 12.9166C0.916504 6.28921 6.28909 0.916626 12.9165 0.916626C19.5439 0.916626 24.9165 6.28921 24.9165 12.9166C24.9165 19.544 19.5439 24.9166 12.9165 24.9166C6.28909 24.9166 0.916504 19.544 0.916504 12.9166Z" fill="white"/>
<path fill-rule="evenodd" clip-rule="evenodd" d="M10.6843 8.23979C11.1698 7.75569 11.9558 7.7568 12.4399 8.24228L16.2269 12.0401C16.71 12.5246 16.71 13.3087 16.2269 13.7932L12.4399 17.5909C11.9558 18.0764 11.1698 18.0775 10.6843 17.5934C10.1988 17.1093 10.1977 16.3233 10.6818 15.8379L13.5948 12.9166L10.6818 9.99536C10.1977 9.50989 10.1988 8.72389 10.6843 8.23979Z" fill="white"/>
</svg>
