<svg width="74" height="74" viewBox="0 0 74 74" fill="none" xmlns="http://www.w3.org/2000/svg">
<path d="M31.5597 42.2137C31.5597 42.2137 30.4329 41.2747 27.9925 40.4301C25.5538 39.6785 23.58 39.4911 24.0495 38.177C24.0495 38.177 23.5801 38.928 25.9268 39.3964C28.1798 39.96 29.8698 40.1474 31.7465 41.4621H43.1054C45.0769 40.1474 46.6726 39.96 49.0199 39.3964C51.3666 38.9269 50.8977 38.177 50.8977 38.177C51.2729 39.4911 49.2078 39.7727 46.7668 40.5237C44.3259 41.2747 43.3859 42.2137 43.3859 42.2137H31.5597Z" fill="white"/>
<path d="M37.8491 35.8293H37.0975C35.9713 35.8293 33.8119 35.9236 32.4972 36.1109C32.4972 36.1109 31.0894 36.2051 32.4035 38.1766C32.4035 38.1766 31.8404 37.1435 32.2156 36.6746C32.2156 36.6746 32.3098 36.393 32.9666 36.2988C32.9666 36.2988 35.3139 36.1115 37.0975 36.1115H37.7543C39.5385 36.1115 41.8852 36.2988 41.8852 36.2988C42.6362 36.393 42.6362 36.6746 42.6362 36.6746C43.0114 37.144 42.4483 38.1766 42.4483 38.1766C43.7625 36.2051 42.3546 36.1109 42.3546 36.1109C41.0399 35.9236 38.8811 35.8293 37.848 35.8293H37.8491Z" fill="white"/>
<path d="M51.0859 40.4291L45.5467 41.6484V43.2441C45.5467 43.2441 45.453 44.2773 45.9224 44.1831H50.7101C50.7101 44.1831 51.0859 44.1831 51.0859 43.3384V40.4291Z" fill="white"/>
<path d="M23.9551 40.4291L29.4943 41.6485V43.2442C29.4943 43.2442 29.588 44.2773 29.1186 44.1831H24.3309C24.3309 44.1831 23.9551 44.1831 23.9551 43.3384V40.4291Z" fill="white"/>
<path d="M44.796 29.6335C46.2541 30.2808 47.447 31.407 48.177 32.8255H48.7368V31.7929C49.5821 31.7929 51.1756 31.7929 51.553 32.0745C51.9288 32.2618 51.8351 33.0128 51.8351 33.0128L48.3616 33.2949L48.4552 33.4823C49.2505 33.6529 50.0343 33.8724 50.8025 34.1396C50.6146 34.4212 49.9573 34.7964 49.8636 34.8906C49.3772 35.0895 48.8747 35.2466 48.3616 35.3601C47.2348 35.548 46.0143 35.7353 45.4512 36.4869C45.4512 36.4869 48.2673 37.6132 50.2394 36.4869C50.2394 36.4869 50.6146 35.7353 50.333 34.8906C50.5209 34.7028 50.7088 34.6091 50.8962 34.4212C51.3656 35.9232 50.8962 36.7685 50.8962 36.7685C50.4267 37.6132 49.4883 37.6132 46.7658 38.3642C44.0433 39.1152 42.7292 40.7115 42.7292 40.7115H41.6024C42.2597 39.9599 43.8554 37.8947 44.0411 36.3927C44.0411 36.3927 44.4169 35.6417 42.4454 35.4538C39.0998 35.2659 35.7463 35.2659 32.4006 35.4538C30.4291 35.6417 30.8044 36.3927 30.8044 36.3927C30.9923 37.8947 32.6822 39.9599 33.2431 40.7115H32.1169C32.1169 40.7115 30.8975 39.1152 28.1739 38.3642C25.3571 37.6132 24.4182 37.6132 23.9488 36.7685C23.9488 36.7685 23.5735 35.9232 24.043 34.4212C24.1367 34.6091 24.3245 34.7028 24.5124 34.8906C24.2309 35.7353 24.6061 36.4869 24.6061 36.4869C26.5776 37.6132 29.488 36.4869 29.488 36.4869C28.8307 35.7353 27.6107 35.548 26.4839 35.3601C25.9974 35.2604 25.5246 35.1028 25.0756 34.8906C24.8882 34.7964 24.2309 34.4212 24.1367 34.1396C24.8754 33.8799 25.6277 33.6604 26.3902 33.4823L26.4839 33.2949L23.0104 33.0128C23.0104 33.0128 22.9167 32.2618 23.292 32.0745C23.6677 31.7929 25.2634 31.7929 26.1081 31.7929V32.8255H26.7655C27.4815 31.4304 28.6359 30.3089 30.0511 29.6335C34.9279 28.7888 39.9137 28.7888 44.7905 29.6335H44.796ZM37.4738 34.9849L37.7553 32.8233C39.8205 32.9175 43.6697 33.1048 45.8286 33.1991C44.5144 34.3253 43.9514 35.5458 43.9514 35.5458C44.5145 34.7011 46.2044 33.7622 47.1433 33.2927C46.7675 31.4155 44.6087 30.195 44.6087 30.195C40.2899 29.2561 34.5634 29.2561 30.3388 30.195C30.3388 30.195 28.1772 31.4144 27.7099 33.2927C28.743 33.7622 30.3388 34.7011 30.9961 35.5458C30.9961 35.5458 30.3388 34.3264 29.0247 33.1991C31.1835 33.1048 35.0328 32.9175 37.0979 32.8233L37.4738 34.9849Z" fill="white"/>
</svg>
