<svg width="24" height="24" viewBox="0 0 24 24" fill="none" xmlns="http://www.w3.org/2000/svg">
<path fill-rule="evenodd" clip-rule="evenodd" d="M12 2.12C6.54343 2.12 2.12 6.54343 2.12 12C2.12 17.4566 6.54343 21.88 12 21.88C17.4566 21.88 21.88 17.4566 21.88 12C21.88 6.54343 17.4566 2.12 12 2.12ZM1.88 12C1.88 6.41088 6.41088 1.88 12 1.88C17.5891 1.88 22.12 6.41088 22.12 12C22.12 17.5891 17.5891 22.12 12 22.12C6.41088 22.12 1.88 17.5891 1.88 12Z" fill="black"/>
<path fill-rule="evenodd" clip-rule="evenodd" d="M12 5.88C12.0663 5.88 12.12 5.93373 12.12 6V11.9258L16.0537 13.8927C16.1129 13.9223 16.137 13.9944 16.1073 14.0537C16.0777 14.1129 16.0056 14.137 15.9463 14.1073L11.9463 12.1073C11.9057 12.087 11.88 12.0455 11.88 12V6C11.88 5.93373 11.9337 5.88 12 5.88Z" fill="black"/>
</svg>
