<svg width="49" height="48" viewBox="0 0 49 48" fill="none" xmlns="http://www.w3.org/2000/svg">
<path d="M34.9087 24.9007V31.1837C34.9066 31.4905 34.8442 31.7937 34.7249 32.0762C34.6057 32.3588 34.4318 32.6152 34.2133 32.8305C33.9949 33.0459 33.7364 33.2159 33.452 33.3312C33.1678 33.4466 32.8637 33.5047 32.557 33.5024H28.5343C28.2275 33.5047 27.9235 33.4466 27.6393 33.3312C27.3551 33.2159 27.0964 33.0459 26.8779 32.8305C26.6595 32.6152 26.4856 32.3588 26.3664 32.0762C26.2471 31.7937 26.1845 31.4905 26.1825 31.1837V24.9007C26.1825 20.1505 22.2746 16.3009 17.4544 16.3009C12.6341 16.3009 8.72619 20.1505 8.72619 24.9007V31.1837C8.72415 31.4905 8.66171 31.7937 8.54239 32.0762C8.42309 32.3588 8.24925 32.6152 8.03084 32.8305C7.81243 33.0459 7.55372 33.2159 7.2695 33.3312C6.98529 33.4466 6.68115 33.5047 6.37445 33.5024H2.35172C2.04502 33.5047 1.74089 33.4466 1.45668 33.3312C1.17246 33.2159 0.913764 33.0459 0.695356 32.8305C0.476948 32.6152 0.303103 32.3588 0.183788 32.0762C0.0644736 31.7937 0.00203607 31.4905 0 31.1837V24.9007C0 15.4003 7.81391 7.69922 17.4544 7.69922C27.0948 7.69922 34.9087 15.4003 34.9087 24.9007Z" fill="white"/>
<path d="M48.002 30.7791V0H39.0541L39.19 30.7791C39.19 35.5293 35.2821 39.3788 30.4638 39.3788C25.6455 39.3788 21.7357 35.5293 21.7357 30.7791V24.496C21.7337 24.1893 21.6711 23.8858 21.5517 23.603C21.4322 23.3203 21.2583 23.064 21.0397 22.8486C20.821 22.6333 20.5621 22.4631 20.2777 22.3479C19.9933 22.2328 19.6889 22.1748 19.382 22.1773H15.3672C15.0603 22.1748 14.7559 22.2328 14.4715 22.3479C14.187 22.4631 13.9281 22.6333 13.7095 22.8486C13.4909 23.064 13.3169 23.3203 13.1974 23.603C13.078 23.8858 13.0155 24.1893 13.0134 24.496V30.7791C13.0134 40.2795 20.8467 47.9806 30.5066 47.9806C40.1665 47.9806 48.002 40.2795 48.002 30.7791Z" fill="white"/>
</svg>
