<svg width="74" height="74" viewBox="0 0 74 74" fill="none" xmlns="http://www.w3.org/2000/svg">
<path d="M48.1415 32.5733L47.4636 34.2688H46.8037L46.3507 32.275L48.1415 32.5733ZM34.3938 33.8031L34.5361 33.7746L35.0103 34.0908C34.0016 34.5963 32.8668 34.7953 31.7464 34.6631C30.6258 34.5307 29.5686 34.0729 28.7055 33.3463L29.6356 33.6123C31.1842 34.052 32.8148 34.1174 34.3938 33.8031L34.3938 33.8031ZM27.1444 35.5862L31.3394 37.5306C31.9016 37.7889 32.354 38.2384 32.6162 38.799C32.8783 39.3593 32.9333 39.9947 32.7715 40.5919H30.4003C30.294 39.6571 29.9124 38.7747 29.3041 38.057C28.6957 37.3393 27.8879 36.8185 26.9832 36.5604L27.1444 35.5862ZM28.2705 40.592C28.0874 39.7131 27.4702 38.9877 26.6323 38.6661L26.8087 37.6055C27.4672 37.8169 28.0529 38.2091 28.4993 38.7372C28.9458 39.2651 29.2354 39.9078 29.3349 40.5921L28.2705 40.592ZM27.1728 41.6459C27.0488 41.9964 26.8051 42.292 26.4845 42.4802C26.1639 42.6686 25.787 42.7378 25.4203 42.6752C25.0538 42.6129 24.7212 42.4228 24.481 42.1389C24.2407 41.855 24.1086 41.4955 24.1076 41.1236C24.1069 40.7517 24.2375 40.3916 24.4763 40.1067C24.7153 39.8216 25.0472 39.6301 25.4134 39.5661L25.0662 41.6458L27.1728 41.6459ZM26.3114 40.592L26.4525 39.7437C26.7872 39.9298 27.0432 40.2314 27.1723 40.592H26.3114ZM25.6884 44.8074C24.3706 44.8074 23.153 44.1043 22.4942 42.9632C21.8353 41.8221 21.8353 40.4158 22.4942 39.2747C23.153 38.1335 24.3706 37.4304 25.6884 37.4304C25.7153 37.4304 25.7411 37.4342 25.7684 37.4346L25.5913 38.4944H25.5915C24.9305 38.5198 24.3033 38.7932 23.835 39.2604C23.3667 39.7273 23.0914 40.3537 23.0644 41.0148C23.0371 41.6756 23.2598 42.3225 23.6882 42.8266C24.1166 43.3304 24.7192 43.6546 25.3758 43.7341C26.0325 43.8138 26.6949 43.643 27.2315 43.2561C27.7678 42.8691 28.1388 42.2942 28.2703 41.6459H29.3348C29.2075 42.5228 28.7693 43.3246 28.0998 43.9051C27.4303 44.4855 26.5745 44.8059 25.6884 44.8075L25.6884 44.8074ZM42.5906 36.7005L40.4951 41.7264C40.3756 42.0145 40.1733 42.2608 39.9138 42.4342C39.6541 42.6073 39.349 42.6998 39.037 42.6995H32.9072L33.4546 41.7132C33.9523 40.8172 34.0549 39.7544 33.7376 38.7798C33.4202 37.8052 32.7115 37.0066 31.7816 36.5756L26.8875 34.3098L23.3043 32.8617L24.1279 32.6972L26.9148 33.0456L26.8973 33.063L27.5824 33.748H27.5826C28.6703 34.8407 30.0958 35.5328 31.6272 35.712C33.1587 35.891 34.7055 35.5466 36.0161 34.7344L36.7317 34.2945C37.2076 34.0026 37.7571 33.853 38.3153 33.8631C38.8735 33.8732 39.4172 34.0426 39.8822 34.3514C40.7992 34.9624 41.7935 35.4483 42.8389 35.7967L43.4713 36.0075L42.7863 36.4638C42.699 36.5215 42.631 36.6038 42.5905 36.7005L42.5906 36.7005ZM44.5797 35.2698L43.1723 34.8007C42.2149 34.4813 41.3043 34.036 40.4645 33.4761C39.8317 33.056 39.0919 32.8252 38.3323 32.8116C37.5727 32.798 36.8252 33.0017 36.1773 33.3988L36.0192 33.4973L35.2752 33.0014L35.486 32.3691H35.4862C35.5453 32.1939 35.6911 32.0619 35.8713 32.0207L39.4612 31.2235C39.7409 31.1612 40.0324 31.1762 40.3043 31.2668L41.2954 31.5971L43.7447 32.8217C44.0008 32.9499 44.2871 33.0059 44.5729 32.9838C44.8585 32.9615 45.1328 32.862 45.3662 32.6959L45.7708 34.4773L44.5797 35.2698ZM47.8194 44.8076C46.6639 44.8043 45.5769 44.2597 44.8824 43.3364C44.1878 42.4128 43.9662 41.2173 44.2833 40.1063C44.6006 38.9955 45.42 38.0972 46.4974 37.6798L46.735 38.7248V38.7246C45.9441 39.0887 45.3857 39.8215 45.244 40.6805C45.1024 41.5396 45.3964 42.4128 46.0287 43.0112C46.6608 43.6099 47.5488 43.8555 48.399 43.6673C49.2489 43.4789 49.9501 42.8812 50.2703 42.0715C50.5904 41.2621 50.4881 40.3463 49.9969 39.6274C49.5057 38.9085 48.69 38.4804 47.8193 38.4844C47.7998 38.4844 47.7819 38.4896 47.7624 38.4903L47.5248 37.4453C47.6222 37.438 47.7198 37.4305 47.8193 37.4305C49.1371 37.4305 50.3548 38.1336 51.0136 39.2748C51.6725 40.4159 51.6725 41.8222 51.0136 42.9633C50.3548 44.1044 49.1371 44.8075 47.8193 44.8075L47.8194 44.8076ZM47.3056 41.2359L48.3331 41.0019L48.0047 39.5571V39.5573C48.5006 39.6175 48.9382 39.9094 49.1847 40.3437C49.431 40.7782 49.4569 41.3035 49.2543 41.7601C49.052 42.2165 48.6451 42.55 48.1577 42.659C47.6702 42.7676 47.1603 42.6392 46.7827 42.3122C46.4054 41.9852 46.2052 41.4988 46.2433 41.0008C46.2814 40.503 46.5533 40.0526 46.9763 39.787L47.3056 41.2359Z" fill="white"/>
<path d="M47.8198 39.5386C47.8819 39.5412 47.944 39.5475 48.0051 39.5576L47.7628 38.4906C47.4079 38.4979 47.0583 38.5776 46.7354 38.7249L46.9767 39.7872C47.2282 39.6256 47.5208 39.5393 47.8198 39.5386L47.8198 39.5386Z" fill="white"/>
<path d="M47.2899 36.4081L47.0426 35.3228L46.8034 34.2689H46.2391C46.1351 34.2692 46.0332 34.3 45.9467 34.3574L45.7695 34.4755L46.0194 35.5757L46.2628 36.6448L46.4978 37.6797V37.6799C46.8272 37.5524 47.1732 37.4736 47.5253 37.4454L47.2899 36.4081Z" fill="white"/>
<path d="M46.0981 31.1647L45.6991 29.41C45.6445 29.1701 45.4312 29 45.1854 29H43.0776V30.0539H44.7638L45.0936 31.5067L45.3639 32.6944C45.4364 32.6431 45.5043 32.5862 45.5674 32.5241L45.892 32.199L46.3493 32.2755L46.0981 31.1647Z" fill="white"/>
</svg>
