<svg width="35" height="35" viewBox="0 0 35 35" fill="none" xmlns="http://www.w3.org/2000/svg">
<path fill-rule="evenodd" clip-rule="evenodd" d="M16.7035 30.3626C16.1725 30.5502 15.725 30.9195 15.4401 31.4052C15.155 31.8909 15.0511 32.4617 15.1462 33.0167C15.2414 33.5716 15.5298 34.075 15.9603 34.438C16.3908 34.801 16.9359 35 17.4989 35C18.062 35 18.607 34.801 19.0375 34.438C19.468 34.075 19.7563 33.5716 19.8516 33.0167C19.9468 32.4617 19.8427 31.8909 19.5577 31.4052C19.2727 30.9195 18.8253 30.5502 18.2944 30.3626V24.6596C18.2864 24.4539 18.1991 24.2593 18.0508 24.1166C17.9025 23.9739 17.7047 23.8943 17.4989 23.8943C17.2931 23.8943 17.0953 23.9739 16.9469 24.1166C16.7986 24.2593 16.7113 24.4539 16.7035 24.6596V30.3626ZM17.4995 33.409C17.342 33.4092 17.188 33.3626 17.0569 33.2753C16.9259 33.188 16.8236 33.0638 16.7631 32.9184C16.7027 32.7729 16.6868 32.6128 16.7174 32.4584C16.748 32.3038 16.8237 32.1619 16.935 32.0505C17.0462 31.939 17.1881 31.8631 17.3426 31.8322C17.497 31.8014 17.6572 31.8171 17.8026 31.8774C17.9482 31.9376 18.0726 32.0395 18.1601 32.1705C18.2476 32.3014 18.2944 32.4554 18.2944 32.6129C18.2944 32.8238 18.2106 33.0262 18.0616 33.1754C17.9125 33.3246 17.7104 33.4086 17.4995 33.409ZM3.97582 23.999C3.4449 24.1866 2.99743 24.5559 2.71247 25.0416C2.42752 25.5273 2.32342 26.0981 2.41863 26.653C2.51382 27.208 2.80218 27.7114 3.2327 28.0744C3.66322 28.4374 4.20817 28.6364 4.77128 28.6364C5.33438 28.6364 5.87935 28.4374 6.30987 28.0744C6.74039 27.7114 7.02874 27.208 7.12394 26.653C7.21913 26.0981 7.11504 25.5273 6.83009 25.0416C6.54514 24.5559 6.09766 24.1866 5.56674 23.999V22.2727H11.1357C11.3413 22.2647 11.5359 22.1774 11.6786 22.0291C11.8213 21.8808 11.901 21.683 11.901 21.4772C11.901 21.2714 11.8213 21.0736 11.6786 20.9253C11.5359 20.7769 11.3413 20.6897 11.1357 20.6817H5.56674C5.35777 20.6816 5.15084 20.7226 4.95775 20.8025C4.76465 20.8824 4.58923 20.9996 4.44147 21.1474C4.29369 21.2951 4.17652 21.4705 4.09661 21.6636C4.01672 21.8567 3.97567 22.0637 3.97582 22.2727V23.999ZM29.4311 23.999C28.9001 24.1866 28.4526 24.5559 28.1677 25.0416C27.8828 25.5273 27.7786 26.0981 27.8739 26.653C27.969 27.208 28.2574 27.7114 28.6879 28.0744C29.1185 28.4374 29.6635 28.6364 30.2266 28.6364C30.7896 28.6364 31.3346 28.4374 31.7651 28.0744C32.1957 27.7114 32.4841 27.208 32.5792 26.653C32.6744 26.0981 32.5703 25.5273 32.2854 25.0416C32.0004 24.5559 31.5529 24.1866 31.022 23.999V22.2727C31.0221 22.0637 30.9812 21.8567 30.9012 21.6636C30.8213 21.4705 30.7041 21.2951 30.5564 21.1474C30.4086 20.9996 30.2332 20.8824 30.0401 20.8025C29.8469 20.7226 29.64 20.6816 29.4311 20.6817H23.8633C23.7563 20.6776 23.6495 20.6951 23.5493 20.7332C23.4493 20.7713 23.3578 20.8292 23.2807 20.9036C23.2034 20.9778 23.142 21.0668 23.1001 21.1654C23.0581 21.2641 23.0365 21.37 23.0365 21.4772C23.0365 21.5842 23.0581 21.6903 23.1001 21.7888C23.142 21.8875 23.2034 21.9766 23.2807 22.0508C23.3578 22.1251 23.4493 22.1831 23.5493 22.2211C23.6495 22.2592 23.7563 22.2768 23.8633 22.2727H29.4311V24.0002V23.999ZM4.77071 27.0454C4.61325 27.0454 4.4593 26.9987 4.32839 26.9111C4.19748 26.8237 4.09548 26.6994 4.03523 26.554C3.97498 26.4084 3.9592 26.2484 3.98993 26.094C4.02064 25.9396 4.09645 25.7977 4.20778 25.6864C4.31911 25.5751 4.46098 25.4993 4.61539 25.4685C4.76982 25.4378 4.92989 25.4536 5.07534 25.5139C5.22081 25.5741 5.34514 25.6762 5.43261 25.8071C5.52008 25.9379 5.56674 26.0919 5.56674 26.2493C5.5669 26.3539 5.54641 26.4575 5.50645 26.5541C5.46651 26.6508 5.40787 26.7386 5.33392 26.8125C5.25997 26.8865 5.17218 26.9451 5.07552 26.985C4.97886 27.025 4.87529 27.0455 4.77071 27.0454ZM30.226 27.0454C30.0684 27.0454 29.9145 26.9987 29.7836 26.9111C29.6528 26.8237 29.5507 26.6994 29.4905 26.554C29.4302 26.4084 29.4144 26.2484 29.4451 26.094C29.4759 25.9396 29.5517 25.7977 29.663 25.6864C29.7743 25.5751 29.9162 25.4993 30.0705 25.4685C30.225 25.4378 30.3851 25.4536 30.5306 25.5139C30.676 25.5741 30.8003 25.6762 30.8878 25.8071C30.9753 25.9379 31.022 26.0919 31.022 26.2493C31.022 26.4604 30.9381 26.6629 30.7888 26.8121C30.6396 26.9615 30.4371 27.0454 30.226 27.0454ZM17.9071 12.0452C17.7837 11.9705 17.6425 11.9311 17.4983 11.9311C17.3542 11.9311 17.2128 11.9705 17.0896 12.0452L13.1128 14.431C12.9947 14.5013 12.8969 14.6013 12.829 14.7208C12.7611 14.8403 12.7254 14.9755 12.7255 15.113V19.8857C12.7251 20.0232 12.7608 20.1585 12.8287 20.278C12.8966 20.3977 12.9945 20.4975 13.1128 20.5677L17.0896 22.9546C17.2128 23.0293 17.3542 23.0687 17.4983 23.0687C17.6425 23.0687 17.7837 23.0293 17.9071 22.9546L21.885 20.5677C22.003 20.4972 22.1007 20.3974 22.1684 20.2778C22.2361 20.1583 22.2716 20.023 22.2712 19.8857V15.113C22.2712 14.9756 22.2357 14.8406 22.1679 14.721C22.1003 14.6015 22.0028 14.5016 21.885 14.431L17.9071 12.0452ZM4.63761 18.2948H11.1381C11.2451 18.299 11.3519 18.2814 11.452 18.2432C11.5522 18.2052 11.6435 18.1472 11.7207 18.073C11.7979 17.9987 11.8594 17.9096 11.9014 17.811C11.9433 17.7125 11.9649 17.6064 11.9649 17.4993C11.9649 17.3922 11.9433 17.2862 11.9014 17.1876C11.8594 17.089 11.7979 17 11.7207 16.9257C11.6435 16.8513 11.5522 16.7935 11.452 16.7553C11.3519 16.7172 11.2451 16.6997 11.1381 16.7039H4.63761C4.44996 16.1729 4.08063 15.7255 3.59495 15.4406C3.10927 15.1556 2.5385 15.0516 1.9835 15.1467C1.42851 15.2419 0.925019 15.5303 0.562058 15.9607C0.199096 16.3913 0 16.9362 0 17.4993C0 18.0624 0.199096 18.6074 0.562058 19.0379C0.925019 19.4684 1.42851 19.7567 1.9835 19.8518C2.5385 19.9471 3.10927 19.843 3.59495 19.5581C4.08063 19.2731 4.44996 18.8257 4.63761 18.2948ZM30.3662 16.7039H23.8621C23.651 16.7039 23.4485 16.7878 23.2992 16.937C23.15 17.0862 23.0661 17.2888 23.0661 17.4999C23.0661 17.7111 23.15 17.9135 23.2992 18.0628C23.4485 18.2121 23.651 18.296 23.8621 18.296H30.3626C30.5503 18.8267 30.9197 19.2741 31.4054 19.559C31.8912 19.8438 32.4618 19.9477 33.0167 19.8524C33.5717 19.7571 34.0751 19.4688 34.438 19.0383C34.801 18.6079 35 18.063 35 17.4999C35 16.9369 34.801 16.392 34.438 15.9614C34.0751 15.531 33.5717 15.2426 33.0167 15.1473C32.4618 15.052 31.8912 15.1561 31.4054 15.4409C30.9197 15.7257 30.5503 16.173 30.3626 16.7039H30.3662ZM2.38724 16.7039C2.54468 16.7039 2.69858 16.7506 2.82949 16.838C2.96041 16.9255 3.06245 17.0499 3.1227 17.1953C3.18295 17.3407 3.19873 17.5008 3.16802 17.6552C3.1373 17.8097 3.0615 17.9514 2.95017 18.0628C2.83883 18.1741 2.69697 18.25 2.54254 18.2807C2.38813 18.3114 2.22806 18.2956 2.08259 18.2354C1.93714 18.1752 1.81281 18.0731 1.72533 17.9422C1.63786 17.8112 1.59114 17.6574 1.59114 17.4999C1.59113 17.29 1.67406 17.0886 1.82181 16.9395C1.96957 16.7904 2.17021 16.7058 2.3801 16.7039H2.38724ZM32.6154 16.7039C32.7729 16.7037 32.9268 16.7501 33.0579 16.8374C33.189 16.9248 33.2912 17.049 33.3517 17.1945C33.412 17.3399 33.4279 17.4999 33.3974 17.6545C33.3669 17.809 33.2912 17.951 33.1799 18.0624C33.0685 18.1738 32.9268 18.2498 32.7723 18.2805C32.6179 18.3114 32.4577 18.2957 32.3121 18.2355C32.1666 18.1753 32.0422 18.0732 31.9546 17.9423C31.8672 17.8113 31.8205 17.6574 31.8205 17.4999C31.8204 17.2896 31.9036 17.0879 32.0519 16.9387C32.2002 16.7896 32.4015 16.7051 32.6118 16.7039H32.6154ZM29.4335 11.0009V12.7284H23.8621C23.7551 12.7243 23.6483 12.7417 23.5481 12.7799C23.4481 12.818 23.3566 12.8759 23.2795 12.9502C23.2022 13.0245 23.1408 13.1136 23.0989 13.2121C23.0569 13.3107 23.0353 13.4167 23.0353 13.5239C23.0353 13.6309 23.0569 13.737 23.0989 13.8355C23.1408 13.9341 23.2022 14.0232 23.2795 14.0975C23.3566 14.1718 23.4481 14.2297 23.5481 14.2678C23.6483 14.3059 23.7551 14.3235 23.8621 14.3193H29.4299C29.6389 14.3194 29.8457 14.2784 30.0388 14.1985C30.232 14.1186 30.4074 14.0014 30.5552 13.8537C30.7029 13.7059 30.82 13.5305 30.9 13.3373C30.9798 13.1443 31.021 12.9373 31.0208 12.7284V11.0021C31.5517 10.8144 31.9992 10.4451 32.2841 9.95943C32.5691 9.47375 32.6732 8.90298 32.578 8.34799C32.4828 7.793 32.1944 7.28954 31.7639 6.92659C31.3334 6.56364 30.7884 6.36458 30.2254 6.36458C29.6622 6.36458 29.1173 6.56364 28.6868 6.92659C28.2562 7.28954 27.9678 7.793 27.8727 8.34799C27.7775 8.90298 27.8816 9.47375 28.1665 9.95943C28.4514 10.4451 28.899 10.8144 29.4299 11.0021L29.4335 11.0009ZM3.9782 11.0009V12.7284C3.97805 12.9373 4.0191 13.1443 4.09899 13.3373C4.17889 13.5305 4.29607 13.7059 4.44384 13.8537C4.5916 14.0014 4.76704 14.1186 4.96012 14.1985C5.15321 14.2784 5.36014 14.3194 5.56912 14.3193H11.1381C11.3437 14.3114 11.5383 14.224 11.681 14.0758C11.8237 13.9275 11.9034 13.7297 11.9034 13.5239C11.9034 13.3181 11.8237 13.1203 11.681 12.9719C11.5383 12.8236 11.3437 12.7364 11.1381 12.7284H5.56912V11.0009C6.10004 10.8132 6.54751 10.4439 6.83247 9.95824C7.11743 9.47257 7.22152 8.90179 7.12631 8.3468C7.03112 7.79182 6.74276 7.28835 6.31224 6.9254C5.88172 6.56245 5.33677 6.36339 4.77366 6.36339C4.21056 6.36339 3.66559 6.56245 3.23508 6.9254C2.80456 7.28835 2.5162 7.79182 2.421 8.3468C2.32581 8.90179 2.4299 9.47257 2.71485 9.95824C2.99981 10.4439 3.44728 10.8132 3.9782 11.0009ZM16.7058 4.63724V10.3403C16.7058 10.5514 16.7896 10.7538 16.9389 10.9031C17.0882 11.0524 17.2908 11.1363 17.5019 11.1363C17.713 11.1363 17.9155 11.0524 18.0649 10.9031C18.2141 10.7538 18.298 10.5514 18.298 10.3403V4.63724C18.8287 4.44947 19.2761 4.08009 19.5609 3.59441C19.8458 3.10873 19.9498 2.53801 19.8545 1.98309C19.7592 1.42818 19.4708 0.924782 19.0403 0.561896C18.6099 0.199008 18.065 0 17.5019 0C16.9388 0 16.3939 0.199008 15.9635 0.561896C15.5329 0.924782 15.2445 1.42818 15.1492 1.98309C15.054 2.53801 15.1579 3.10873 15.4428 3.59441C15.7276 4.08009 16.175 4.44947 16.7058 4.63724ZM4.77424 7.95567C4.93174 7.95567 5.08572 8.0024 5.21667 8.08992C5.34761 8.17743 5.4496 8.30184 5.50983 8.44737C5.57004 8.5929 5.58578 8.753 5.55495 8.90746C5.52415 9.0619 5.44821 9.20375 5.33676 9.31503C5.22531 9.42631 5.08335 9.50203 4.92885 9.53261C4.77435 9.5632 4.61423 9.54728 4.46878 9.48684C4.32335 9.42641 4.19909 9.32418 4.11176 9.19312C4.02443 9.06204 3.97797 8.90801 3.9782 8.75053C3.9782 8.54002 4.06157 8.33807 4.21009 8.18889C4.35862 8.03971 4.56019 7.95542 4.77071 7.95448L4.77424 7.95567ZM30.2295 7.95567C30.387 7.95567 30.5409 8.0024 30.6719 8.08992C30.8028 8.17743 30.9049 8.30184 30.9651 8.44737C31.0254 8.5929 31.041 8.753 31.0101 8.90746C30.9794 9.0619 30.9034 9.20375 30.792 9.31503C30.6805 9.42631 30.5386 9.50203 30.3841 9.53261C30.2295 9.5632 30.0695 9.54728 29.924 9.48684C29.7785 9.42641 29.6543 9.32418 29.567 9.19312C29.4797 9.06204 29.4332 8.90801 29.4335 8.75053C29.4335 8.54002 29.5167 8.33807 29.6653 8.18889C29.8138 8.03971 30.0154 7.95542 30.226 7.95448L30.2295 7.95567ZM17.5019 1.59206C17.6593 1.59206 17.8133 1.63877 17.9443 1.72629C18.0752 1.81382 18.1773 1.93822 18.2375 2.08375C18.2976 2.22927 18.3133 2.38941 18.2825 2.54385C18.2518 2.69831 18.1758 2.84013 18.0644 2.95141C17.9529 3.06269 17.8109 3.13841 17.6565 3.16899C17.5019 3.19957 17.3419 3.18365 17.1964 3.12322C17.051 3.06278 16.9267 2.96055 16.8394 2.82949C16.7521 2.69843 16.7056 2.54442 16.7058 2.38693C16.7058 2.17643 16.7892 1.97448 16.9378 1.8253C17.0863 1.67612 17.2878 1.59181 17.4983 1.59086L17.5019 1.59206Z" fill="white"/>
</svg>
