<svg width="74" height="74" viewBox="0 0 74 74" fill="none" xmlns="http://www.w3.org/2000/svg">
<path d="M28.5205 29.1217C28.5205 29.4191 28.4023 29.7044 28.192 29.9148C27.9816 30.1251 27.6963 30.2433 27.3988 30.2433H25.3175C25.0199 30.2433 24.7347 30.1251 24.5243 29.9148C24.314 29.7044 24.1958 29.4191 24.1958 29.1217C24.1958 28.8242 24.314 28.5389 24.5243 28.3285C24.7347 28.1182 25.0199 28 25.3175 28H27.3988C27.6963 28 27.9816 28.1182 28.192 28.3285C28.4023 28.5389 28.5205 28.8242 28.5205 29.1217Z" fill="white"/>
<path d="M36.3092 32.4926C36.4389 32.4927 36.5669 32.4625 36.6829 32.4043C36.7989 32.3461 36.8997 32.2616 36.9772 32.1575C37.0548 32.0534 37.1069 31.9327 37.1294 31.8048C37.1519 31.677 37.1442 31.5457 37.1069 31.4214C37.0555 31.2498 36.9501 31.0993 36.8064 30.9924C36.6627 30.8854 36.4883 30.8276 36.3092 30.8276H30.5487C30.2094 30.8278 29.8842 30.9627 29.6444 31.2027C29.5256 31.3214 29.3846 31.4156 29.2295 31.4798C29.0743 31.5441 28.908 31.5771 28.7401 31.577H24.8143C24.634 31.5776 24.4588 31.636 24.3143 31.7437C24.1698 31.8513 24.0637 32.0025 24.0116 32.175C23.9748 32.2994 23.9673 32.4307 23.9896 32.5585C24.012 32.6863 24.0636 32.8072 24.1405 32.9117C24.2173 33.0163 24.3173 33.1016 24.4326 33.1611C24.5479 33.2206 24.6755 33.2526 24.8052 33.2546L30.5074 33.3184C30.6951 33.3206 30.8814 33.2852 31.0552 33.2142C31.2291 33.1433 31.387 33.0384 31.5197 32.9055C31.7841 32.6412 32.1427 32.4927 32.5165 32.4926H36.3092Z" fill="white"/>
<path d="M47.7476 36.4365C47.6416 36.3607 47.5147 36.32 47.3844 36.3201H37.7558C37.5992 36.3204 37.4459 36.2744 37.3156 36.1876C37.1852 36.1008 37.0836 35.9773 37.0236 35.8327C36.9635 35.688 36.9477 35.5288 36.9782 35.3752C37.0087 35.2216 37.0841 35.0806 37.195 34.9699C37.2686 34.8962 37.356 34.8378 37.4522 34.798C37.5484 34.7581 37.6516 34.7377 37.7558 34.7378H43.5967C43.7029 34.738 43.8062 34.7043 43.8918 34.6417C43.9775 34.5791 44.041 34.4909 44.0731 34.3898C44.1052 34.2887 44.1042 34.18 44.0704 34.0795C44.0366 33.9789 43.9716 33.8918 43.8849 33.8307C43.8007 33.7709 43.7 33.7388 43.5967 33.7389H33.0181C32.6438 33.7392 32.2848 33.8879 32.0198 34.1525C31.8871 34.2852 31.7292 34.3902 31.5553 34.4612C31.3815 34.5322 31.1954 34.5679 31.0075 34.5661L22.9492 34.4911C22.8424 34.4903 22.7368 34.5123 22.6392 34.5555C22.5417 34.5988 22.4545 34.6624 22.3834 34.742C22.2875 34.8499 22.2248 34.9833 22.203 35.1259C22.1812 35.2687 22.2011 35.4146 22.2604 35.5463C22.3197 35.6779 22.4158 35.7896 22.5371 35.8678C22.6585 35.946 22.7999 35.9874 22.9442 35.9871H31.942C32.1523 35.9869 32.354 36.0701 32.5029 36.2184C32.6135 36.3292 32.6889 36.4703 32.7193 36.6239C32.7498 36.7775 32.734 36.9367 32.674 37.0813C32.6139 37.226 32.5123 37.3495 32.3821 37.4363C32.2517 37.5233 32.0986 37.5695 31.942 37.5693H21.5667C21.4519 37.5693 21.3383 37.5918 21.2322 37.6356C21.1262 37.6795 21.0298 37.7438 20.9486 37.8249C20.8674 37.906 20.8031 38.0024 20.7591 38.1084C20.7151 38.2144 20.6925 38.3281 20.6925 38.4428C20.6925 38.6746 20.7846 38.897 20.9486 39.0609C21.1126 39.2249 21.3349 39.317 21.5667 39.317H36.9544C37.4827 39.317 38.0023 39.1829 38.4645 38.9272L40.3608 37.8757C40.7294 37.6724 41.1435 37.5658 41.5644 37.5658H47.383C47.5154 37.5658 47.6443 37.5238 47.7512 37.4458C47.8581 37.3678 47.9376 37.2579 47.9779 37.1319C48.0183 37.0058 48.0176 36.8703 47.976 36.7446C47.9343 36.619 47.8539 36.5099 47.7462 36.4329L47.7476 36.4365Z" fill="white"/>
<path d="M49.5831 44.8983C49.698 44.8983 49.8733 44.9943 49.9728 44.9368L57.5868 40.5413C58.2451 40.1614 57.9752 39.1547 57.2152 39.154H41.5338C41.408 39.1539 41.2842 39.1857 41.1741 39.2465L38.3462 40.8098C38.2361 40.8708 38.1124 40.9026 37.9865 40.9024H19.4175C19.298 40.9024 19.1803 40.9313 19.0742 40.9865C18.9682 41.0416 18.877 41.1214 18.8083 41.2192L17.1356 43.6098C17.0219 43.7763 16.9773 43.9805 17.0112 44.1792C17.045 44.378 17.1548 44.5559 17.3172 44.6753L17.5731 44.8667C17.6011 44.8878 17.627 44.9109 17.6537 44.9368C17.7139 45.0068 17.7891 45.0623 17.8737 45.0993C17.9583 45.1361 18.0503 45.1535 18.1425 45.1501C18.2348 45.1467 18.3251 45.1225 18.4067 45.0794C18.4883 45.0363 18.5592 44.9753 18.6141 44.9011C19.6965 44.0683 20.8623 43.5691 22.1109 43.5691C23.3594 43.5691 24.5245 44.0683 25.6076 44.9011C25.7738 45.0679 25.9399 45.1507 26.1068 45.1507C26.2951 45.1215 26.4696 45.0342 26.6059 44.9011C27.6883 44.0683 28.8541 43.5691 30.1027 43.5691C31.3512 43.5691 32.517 44.0683 33.5994 44.9011C33.7656 45.0679 33.9324 45.1507 34.0986 45.1507C34.2872 45.1218 34.4621 45.0346 34.5984 44.9011C35.6808 44.0683 36.8459 43.5691 38.0945 43.5691C39.343 43.5691 40.5088 44.0683 41.5912 44.9011C41.6747 44.9845 41.9242 45.1507 42.0911 45.1507C42.2579 45.1507 42.5068 44.9845 42.5902 44.9011C43.6726 44.0683 44.8384 43.5691 46.087 43.5691C47.3355 43.5691 48.5007 44.0683 49.5831 44.9011V44.8983Z" fill="white"/>
</svg>
