<svg width="1920" height="1080" viewBox="0 0 1920 1080" fill="none" xmlns="http://www.w3.org/2000/svg">
<g opacity="0.5">
<path opacity="0.5" d="M-49.0002 316.837C19.7998 235.525 125.9 130.009 230.03 102.435C274.99 90.5333 312.38 95.184 349.75 106.986C370.46 113.607 392.53 123.008 416.38 134.67C453.05 152.592 485.83 175.276 516.13 200.87C568.9 245.206 619.26 304.115 661.5 338.71C691.07 362.944 710.71 366.474 705.97 383.777C701.95 398.429 698.81 423.543 702.79 450.967C706.65 477.581 720.18 505.045 739.88 527.628C765.68 557.202 799.55 578.586 837.01 590.177C898.98 609.37 969.09 602.929 1034.21 569.574C1139.08 516.206 1220.28 499.604 1270.44 528.468C1273.92 530.469 1276.67 533.129 1278.63 535.739C1284.89 544.05 1288.12 550.742 1290.54 557.092C1297.4 575.045 1284.14 605.37 1277 592.948C1273.6 592.218 1271.08 590.147 1269.57 587.087C1256.89 572.445 1265.54 540.89 1303.23 530.478C1334.18 521.927 1380.93 524.808 1410.36 561.603C1420.85 574.695 1428.5 589.887 1434.31 606.77C1483.7 750.921 1567.01 979.905 2007.51 852.336" stroke="url(#paint0_linear_2_109)" stroke-width="0.5658" stroke-miterlimit="10"/>
<path opacity="0.5" d="M-48.0703 309.636C21.9897 229.574 130.34 125.719 234.67 102.375C279.81 92.2736 316.41 99.3146 352.67 113.077C372.79 120.708 394.27 131.049 417.6 143.391C453.35 162.294 485.73 185.517 516 211.241C568.52 255.628 620.37 313.746 663.94 345.111C694.43 367.084 717.44 367.544 707.71 381.066C704.89 394.378 697.48 418.242 700.15 445.526C702.74 472.05 715.35 499.924 734.35 522.987C759.29 553.242 792.51 575.425 829.51 587.857C890.96 608.51 961.3 603.359 1026.81 569.894C1133.53 515.726 1215.62 505.425 1261.38 536.189C1264.64 538.38 1267.05 541.23 1268.62 543.93C1273.78 552.782 1275.58 559.203 1277.09 564.844C1281.41 580.926 1268.12 605.78 1265.54 591.578C1262.69 590.667 1260.73 588.497 1259.77 585.407C1249.43 570.684 1259.72 541.39 1297.76 532.869C1328.6 525.958 1374.55 530.128 1403.99 567.034C1414.45 580.116 1422.21 595.238 1428.21 612.01C1479.25 755.182 1584.78 977.165 2006.67 835.914" stroke="url(#paint1_linear_2_109)" stroke-width="0.5658" stroke-miterlimit="10"/>
<path opacity="0.5" d="M-47.1301 302.435C24.1899 223.623 134.79 121.438 239.32 102.305C284.64 94.0138 320.44 103.505 355.59 119.148C375.11 127.829 396 139.07 418.82 152.092C453.65 171.975 485.62 195.739 515.86 221.593C568.13 266.029 621.48 323.358 666.36 351.502C697.77 371.225 721.35 367.584 709.43 378.346C705.32 389.858 696.12 412.931 697.48 440.065C698.8 466.499 710.48 494.793 728.8 518.327C752.87 549.271 785.44 572.245 821.99 585.517C882.91 607.64 953.5 603.769 1019.4 570.184C1127.98 515.206 1210.95 511.386 1252.32 543.87C1255.36 546.261 1257.41 549.301 1258.6 552.072C1262.64 561.503 1263.02 567.584 1263.63 572.545C1265.38 586.707 1252.08 606.13 1254.07 590.157C1251.78 589.067 1250.38 586.797 1249.95 583.676C1241.95 568.864 1253.88 541.82 1292.28 535.219C1323 529.938 1368.15 535.409 1397.62 572.435C1408.04 585.497 1415.91 600.559 1422.11 617.221C1474.8 759.412 1602.56 974.384 2005.84 819.461" stroke="url(#paint2_linear_2_109)" stroke-width="0.5658" stroke-miterlimit="10"/>
<path opacity="0.5" d="M-46.2002 295.234C26.3798 217.662 139.24 117.167 243.97 102.245C289.47 95.764 324.46 107.716 358.51 125.238C377.43 134.97 397.74 147.112 420.04 160.824C453.95 181.677 485.51 205.99 515.73 231.974C567.75 276.471 622.6 332.999 668.79 357.923C701.12 375.385 725.27 367.654 711.15 375.665C705.75 385.377 694.77 407.67 694.81 434.654C694.85 461.008 705.62 489.702 723.24 513.716C746.45 545.341 778.37 569.124 814.46 583.226C874.85 606.83 945.68 604.229 1011.97 570.534C1122.4 514.746 1206.23 517.566 1243.23 551.621C1246.05 554.212 1247.74 557.442 1248.56 560.293C1251.44 570.324 1250.44 576.015 1250.15 580.326C1249.34 592.498 1236.03 606.57 1242.58 588.817C1240.85 587.547 1240 585.176 1240.12 582.026C1234.46 567.124 1248.01 542.3 1286.78 537.639C1317.38 533.959 1361.74 540.75 1391.22 577.895C1401.61 590.947 1409.58 605.94 1415.98 622.502C1470.32 763.713 1620.31 971.684 2004.97 803.079" stroke="url(#paint3_linear_2_109)" stroke-width="0.5658" stroke-miterlimit="10"/>
<path opacity="0.5" d="M-45.2603 288.042C28.5697 211.721 143.7 112.916 248.62 102.185C294.3 97.5142 328.48 111.916 361.43 131.329C379.75 142.121 399.48 155.153 421.26 169.545C454.26 191.368 485.41 216.232 515.59 242.346C567.36 286.892 623.71 342.64 671.22 364.334C704.47 379.536 729.19 367.704 712.88 372.965C706.19 380.876 693.42 402.379 692.15 429.213C690.91 455.477 700.76 484.582 717.69 509.075C740.03 541.39 771.31 565.974 806.95 580.906C866.81 605.989 937.89 604.659 1004.56 570.844C1116.84 514.256 1201.46 523.877 1234.16 559.323C1236.75 562.133 1238.07 565.544 1238.53 568.464C1240.2 579.106 1237.89 584.366 1236.68 588.067C1233.38 598.138 1219.99 606.96 1231.1 587.447C1229.93 585.997 1229.63 583.526 1230.29 580.346C1226.98 565.354 1242.14 542.73 1281.28 540.03C1311.75 537.929 1355.33 546.071 1384.83 583.336C1395.18 596.378 1403.27 611.3 1409.86 627.753C1465.85 767.983 1638.07 968.953 2004.11 786.666" stroke="url(#paint4_linear_2_109)" stroke-width="0.5658" stroke-miterlimit="10"/>
<path opacity="0.5" d="M-44.3303 280.841C30.7597 205.77 148.15 108.656 253.26 102.125C299.12 99.2745 332.49 116.127 364.35 137.41C382.07 149.252 401.22 163.174 422.47 178.266C454.56 201.05 485.29 226.463 515.45 252.717C566.97 297.314 624.82 352.272 673.64 370.745C707.81 383.687 733.1 367.764 714.6 370.265C706.62 376.375 692.05 397.089 689.48 423.782C686.96 449.956 695.89 479.481 712.13 504.444C733.61 537.449 764.23 562.843 799.42 578.595C858.75 605.169 930.07 605.099 997.14 571.164C1111.28 513.766 1196.58 530.358 1225.08 567.044C1227.45 570.084 1228.38 573.665 1228.49 576.645C1228.9 587.897 1225.4 592.698 1223.2 595.808C1217.59 603.739 1203.93 607.35 1219.62 586.067C1219.01 584.436 1219.26 581.866 1220.47 578.655C1219.5 563.573 1236.28 543.12 1275.8 542.41C1306.14 541.87 1348.93 551.381 1378.45 588.767C1388.77 601.799 1396.96 616.651 1403.75 632.993C1461.39 772.244 1655.83 966.213 2003.26 770.244" stroke="url(#paint5_linear_2_109)" stroke-width="0.5658" stroke-miterlimit="10"/>
<path opacity="0.5" d="M-43.3903 273.641C32.9597 199.81 152.6 104.415 257.92 102.055C303.97 101.025 336.52 120.328 367.28 143.491C384.4 156.383 402.97 171.195 423.7 186.978C454.88 210.721 485.2 236.695 515.32 263.079C566.59 307.725 625.93 361.894 676.08 377.146C711.18 387.837 737.03 367.814 716.34 367.564C707.07 371.875 690.71 391.798 686.83 418.342C683.02 444.436 691.04 474.37 706.6 499.804C727.21 533.499 757.18 559.703 791.92 576.275C850.72 604.339 922.29 605.54 989.74 571.485C1105.73 513.276 1191.58 536.969 1216.02 574.765C1218.14 578.046 1218.71 581.776 1218.48 584.837C1217.6 596.678 1212.99 601.089 1209.75 603.559C1201.99 609.47 1187.91 607.76 1208.16 584.697C1208.1 582.876 1208.91 580.216 1210.66 576.975C1212.03 561.803 1230.43 543.49 1270.32 544.811C1300.53 545.811 1342.54 556.702 1372.08 594.208C1382.36 607.23 1390.66 622.012 1397.65 638.244C1456.94 776.515 1673.61 963.483 2002.43 753.822" stroke="url(#paint6_linear_2_109)" stroke-width="0.5658" stroke-miterlimit="10"/>
<path opacity="0.5" d="M-42.45 266.439C35.16 193.858 157.06 100.175 262.57 101.995C308.8 102.795 340.54 124.528 370.2 149.582C386.72 163.524 404.71 179.216 424.92 195.709C455.19 220.402 485.09 246.946 515.19 273.46C566.21 318.157 627.05 371.535 678.51 383.567C714.53 391.998 740.95 367.884 718.07 364.874C707.51 367.384 689.35 386.517 684.17 412.921C679.07 438.925 686.18 469.269 701.05 495.183C720.78 529.568 750.11 556.582 784.4 573.975C842.66 603.539 914.48 605.989 982.33 571.814C1100.17 512.806 1186.41 543.67 1206.95 582.486C1208.82 586.016 1209.01 589.887 1208.45 593.028C1206.24 605.429 1200.58 609.55 1196.28 611.31C1186.38 615.361 1171.86 608.16 1196.68 583.326C1197.18 581.326 1198.54 578.565 1200.84 575.295C1204.56 560.033 1224.58 543.83 1264.84 547.201C1294.92 549.721 1336.14 562.023 1365.7 599.649C1375.95 612.66 1384.36 627.373 1391.54 643.495C1452.48 780.795 1691.38 960.742 2001.58 737.409" stroke="url(#paint7_linear_2_109)" stroke-width="0.5658" stroke-miterlimit="10"/>
<path opacity="0.5" d="M-41.52 259.248C37.35 187.918 161.5 95.9541 267.22 101.935C313.63 104.565 344.51 128.799 373.12 155.663C389 170.695 406.46 187.238 426.14 204.42C455.51 230.074 484.98 257.178 515.05 283.822C565.82 328.579 628.16 381.156 680.94 389.968C717.88 396.139 744.99 356.993 719.8 362.174C708.18 364.564 687.98 381.226 681.51 407.48C675.12 433.394 681.32 464.159 695.5 490.543C714.36 525.628 743.04 553.442 776.88 571.655C834.6 602.719 906.67 606.42 974.91 572.135C1094.61 512.316 1181.06 550.391 1197.88 590.207C1199.48 593.988 1199.31 597.978 1198.43 601.219C1194.88 614.151 1188.15 618.061 1182.82 619.072C1170.7 621.362 1155.83 608.58 1185.21 581.976C1186.27 579.796 1188.18 576.935 1191.02 573.635C1197.08 558.283 1218.74 544.17 1259.35 549.611C1289.32 553.632 1329.74 567.364 1359.32 605.11C1369.53 618.111 1378.05 632.754 1385.43 648.766C1448.02 785.086 1709.14 958.032 2000.73 721.017" stroke="url(#paint8_linear_2_109)" stroke-width="0.5658" stroke-miterlimit="10"/>
<path opacity="0.5" d="M-40.5802 252.047C39.5498 181.957 165.96 91.7335 271.87 101.875C318.46 106.336 348.53 133 376.05 161.754C391.33 177.836 408.22 195.259 427.37 213.151C455.84 239.755 484.89 267.429 514.93 294.203C565.44 339.01 629.29 390.808 683.38 396.389C721.24 400.309 749.57 364.954 721.54 359.483C708.6 356.963 686.63 375.946 678.86 402.059C671.18 427.883 676.47 459.068 689.97 485.922C707.96 521.697 735.99 550.331 769.38 569.354C826.55 601.929 898.89 606.87 967.52 572.465C1089.07 511.836 1175.59 557.112 1188.83 597.928C1190.14 601.969 1189.64 606.07 1188.42 609.4C1183.52 622.832 1175.65 626.083 1169.37 626.813C1155.03 628.473 1143.99 613.331 1173.75 580.596C1175.67 578.476 1177.83 575.275 1181.21 571.945C1189.61 556.502 1212.92 544.45 1253.87 551.992C1283.74 557.492 1323.35 572.665 1352.94 610.53C1363.12 623.522 1371.75 638.094 1379.32 653.997C1443.56 789.337 1726.91 955.281 1999.88 704.584" stroke="url(#paint9_linear_2_109)" stroke-width="0.5658" stroke-miterlimit="10"/>
<path opacity="0.5" d="M-39.6501 244.846C41.7399 176.006 170.39 87.5226 276.51 101.805C323.28 108.106 352.53 137.19 378.96 167.835C393.64 184.967 409.96 203.27 428.58 221.863C456.16 249.407 484.77 277.651 514.79 304.565C565.05 349.422 630.4 400.429 685.81 402.779C724.59 404.44 753.56 365.524 723.27 356.763C709.14 352.672 685.26 370.625 676.2 396.598C667.22 422.332 671.6 453.937 684.42 481.261C701.53 517.726 728.91 547.181 761.87 567.014C818.49 601.109 891.09 607.28 960.11 572.764C1083.51 511.335 1169.96 563.733 1179.76 605.629C1180.76 609.92 1179.94 614.141 1178.39 617.571C1172.14 631.483 1163.19 635.064 1155.9 634.544C1139.11 633.343 1126.93 613.021 1162.27 579.206C1164.69 576.895 1167.46 573.605 1171.39 570.244C1182.13 554.722 1207.11 544.7 1248.39 554.362C1278.16 561.333 1316.95 577.965 1346.56 615.951C1356.7 628.933 1365.44 643.435 1373.21 659.237C1439.1 793.597 1744.68 952.541 1999.03 688.162" stroke="url(#paint10_linear_2_109)" stroke-width="0.5658" stroke-miterlimit="10"/>
<path opacity="0.5" d="M-38.7101 237.645C43.9399 170.055 174.84 83.3122 281.17 101.745C328.11 109.886 356.56 141.391 381.89 173.916C395.97 192.098 411.73 211.281 429.8 230.574C456.49 259.068 484.66 287.883 514.65 314.927C564.66 359.833 631.5 410.051 688.23 409.181C727.93 408.58 757.45 366.044 724.99 354.062C709.6 348.382 683.89 365.334 673.54 391.168C663.27 416.802 666.73 448.836 678.87 476.63C695.1 513.786 721.83 544.061 754.35 564.704C810.42 600.309 883.29 607.72 952.7 573.085C1077.96 510.846 1164.22 570.294 1170.69 613.351C1171.37 617.881 1170.24 622.212 1168.37 625.763C1160.78 640.135 1150.7 643.575 1142.44 642.305C1123.26 639.345 1110.16 612.811 1150.8 577.846C1153.72 575.325 1157.1 571.965 1161.57 568.564C1174.66 552.952 1201.32 544.951 1242.9 556.762C1272.6 565.194 1310.55 583.296 1340.18 621.392C1350.29 634.364 1359.13 648.796 1367.1 664.488C1434.64 797.868 1762.44 949.81 1998.19 671.749" stroke="url(#paint11_linear_2_109)" stroke-width="0.5658" stroke-miterlimit="10"/>
<path opacity="0.5" d="M-37.7803 230.454C46.1197 164.104 179.26 79.1217 285.81 101.685C332.92 111.667 360.57 145.602 384.8 180.007C398.27 199.24 413.48 219.303 431.01 239.306C456.82 268.74 484.55 298.134 514.51 325.308C564.27 370.275 632.61 419.692 690.65 415.602C731.27 412.751 761.3 366.504 726.71 351.372C710.03 344.081 682.51 360.043 670.87 385.737C659.3 411.281 661.85 443.736 673.31 472C688.66 509.855 714.74 540.94 746.82 562.393C802.33 599.519 875.47 608.16 945.27 573.415C1072.38 510.376 1158.37 576.735 1161.6 621.072C1161.95 625.833 1160.53 630.283 1158.32 633.944C1149.39 648.756 1138.16 652.067 1128.95 650.046C1107.36 645.316 1093.53 612.661 1139.3 576.475C1142.74 573.755 1146.71 570.314 1151.73 566.884C1167.16 551.182 1195.52 545.191 1237.4 559.153C1267.03 569.034 1304.14 588.617 1333.78 626.833C1343.85 639.795 1352.81 654.157 1360.97 669.739C1430.16 802.139 1780.19 947.07 1997.32 655.337" stroke="url(#paint12_linear_2_109)" stroke-width="0.5658" stroke-miterlimit="10"/>
<path opacity="0.5" d="M-36.8403 223.253C48.3197 158.153 183.69 74.921 290.46 101.625C337.74 113.447 364.59 149.802 387.73 186.097C400.6 206.38 415.25 227.324 432.24 248.027C457.17 278.401 484.45 308.376 514.38 335.68C563.89 380.696 633.73 429.323 693.09 422.012C734.63 416.902 765.14 366.904 728.45 348.682C710.46 339.74 681.15 354.752 668.22 380.316C655.35 405.76 656.99 438.635 667.78 467.369C682.24 505.915 707.68 537.83 739.32 560.083C794.27 598.739 867.69 608.6 937.88 573.735C1066.84 509.885 1152.51 583.056 1152.55 628.793C1152.55 633.784 1150.86 638.354 1148.32 642.135C1138.06 657.387 1125.67 660.558 1115.51 657.797C1091.5 651.276 1077.08 612.591 1127.85 575.105C1131.82 572.175 1136.37 568.674 1141.93 565.204C1159.7 549.411 1189.79 545.411 1231.93 561.543C1261.52 572.875 1297.75 593.928 1327.42 632.273C1337.45 645.225 1346.52 659.518 1354.88 674.99C1425.72 806.409 1797.98 944.34 1996.49 638.924" stroke="url(#paint13_linear_2_109)" stroke-width="0.5658" stroke-miterlimit="10"/>
<path opacity="0.5" d="M-35.9103 216.052C50.5097 152.192 188.11 70.7303 295.11 101.555C342.56 115.227 368.6 153.993 390.65 192.168C402.92 213.501 417.01 235.315 433.46 256.738C457.51 288.062 484.35 318.607 514.25 346.041C563.51 391.108 634.85 438.955 695.52 428.413C737.98 421.042 768.95 367.244 730.18 345.971C710.87 335.369 679.78 349.432 665.56 374.865C651.39 400.209 652.12 433.514 662.23 462.718C675.81 501.954 700.59 534.689 731.8 557.762C786.18 597.938 859.88 609.03 930.46 574.055C1061.28 509.395 1146.59 589.257 1143.48 636.504C1143.14 641.705 1141.17 646.416 1138.29 650.316C1126.71 665.998 1113.15 669.039 1102.04 665.538C1075.6 657.227 1060.69 612.561 1116.37 573.725C1120.87 570.584 1126 567.014 1132.11 563.513C1152.23 547.631 1184.07 545.611 1226.45 563.923C1256 576.695 1291.36 599.239 1321.04 637.694C1331.04 650.636 1340.21 664.858 1348.77 680.221C1421.26 810.66 1815.75 941.589 1995.64 622.492" stroke="url(#paint14_linear_2_109)" stroke-width="0.5658" stroke-miterlimit="10"/>
<path opacity="0.5" d="M-34.9702 208.861C52.7098 146.251 192.53 66.5496 299.76 101.505C347.38 117.027 372.62 158.213 393.57 198.269C405.24 220.652 418.78 243.346 434.68 265.469C457.86 297.734 484.24 328.848 514.11 356.423C563.12 401.539 635.96 448.596 697.95 434.834C741.33 425.213 772.76 367.564 731.91 343.281C711.26 331.009 678.41 344.141 662.9 369.444C647.43 394.678 647.25 428.423 656.68 458.098C669.37 498.033 693.5 531.589 724.29 555.462C778.09 597.168 852.09 609.49 923.06 574.385C1055.73 508.925 1140.68 595.348 1134.42 644.235C1133.73 649.646 1131.49 654.497 1128.27 658.517C1115.38 674.62 1100.64 677.53 1088.58 673.309C1059.71 663.188 1044.36 612.61 1104.9 572.374C1109.93 569.034 1115.64 565.384 1122.29 561.853C1144.75 545.881 1178.36 545.841 1220.96 566.344C1250.5 580.556 1284.95 604.589 1314.66 643.165C1324.62 656.097 1333.91 670.249 1342.66 685.501C1416.8 814.96 1833.51 938.889 1994.8 606.1" stroke="url(#paint15_linear_2_109)" stroke-width="0.5658" stroke-miterlimit="10"/>
<path opacity="0.5" d="M-34.0404 201.66C54.8996 140.301 196.93 62.3692 304.41 101.435C352.19 118.808 376.64 162.404 396.49 204.35C407.55 227.784 420.55 251.357 435.9 274.19C458.22 307.395 484.13 339.09 513.98 366.794C562.74 411.971 637.07 458.228 700.38 441.245C744.68 429.363 776.56 367.844 733.63 340.59C711.64 326.628 677.03 338.84 660.23 364.014C643.46 389.148 642.31 423.333 651.12 453.467C662.85 494.113 686.4 528.478 716.76 553.152C769.98 596.388 844.27 609.93 915.63 574.705C1050.15 508.435 1134.74 601.339 1125.33 651.956C1124.29 657.557 1121.79 662.558 1118.23 666.699C1104.04 683.221 1088.1 686.001 1075.1 681.051C1043.8 669.129 1028.07 612.661 1093.41 570.994C1098.98 567.444 1105.26 563.723 1112.46 560.163C1137.26 544.101 1172.66 546.041 1215.46 568.724C1244.99 584.377 1278.54 609.89 1308.26 648.586C1318.19 661.498 1327.58 675.59 1336.53 690.742C1412.32 819.221 1851.26 936.149 1993.93 589.677" stroke="url(#paint16_linear_2_109)" stroke-width="0.5658" stroke-miterlimit="10"/>
<path opacity="0.5" d="M-33.0999 194.459C57.1001 134.34 201.27 58.3385 309.06 101.375C356.97 120.668 380.66 166.604 399.42 210.431C409.88 234.915 422.34 259.368 437.12 282.902C458.58 317.057 484.03 349.322 513.84 377.156C562.35 422.382 638.18 467.849 702.81 447.646C748.03 433.504 780.37 368.084 735.36 337.88C712.02 322.217 675.62 333.499 657.57 358.573C639.47 383.567 637.45 418.212 645.58 448.826C656.44 490.152 679.31 525.358 709.25 550.831C761.89 595.608 836.47 610.36 908.23 575.025C1044.61 507.945 1128.86 607.24 1116.27 659.667C1114.88 665.458 1112.11 670.619 1108.21 674.88C1092.72 691.822 1075.58 694.503 1061.64 688.792C1027.89 675.11 1011.83 612.74 1081.94 569.624C1088.05 565.864 1094.9 562.073 1102.64 558.482C1129.79 542.33 1166.99 546.241 1209.98 571.114C1239.52 588.207 1272.15 615.211 1301.88 654.027C1311.77 666.928 1321.27 680.941 1330.42 695.993C1407.86 823.492 1869.03 933.408 1993.08 573.265" stroke="url(#paint17_linear_2_109)" stroke-width="0.5658" stroke-miterlimit="10"/>
<path opacity="0.5" d="M-32.1699 187.258C59.2901 128.389 205.69 54.0778 313.7 101.305C361.78 122.408 384.66 170.795 402.33 216.512C412.19 242.046 424.14 267.359 438.33 291.613C458.97 326.688 483.91 359.553 513.7 387.517C561.96 432.794 639.29 477.481 705.23 454.037C751.37 437.635 784.16 368.294 737.08 335.159C712.4 317.787 674.26 328.178 654.9 353.112C635.52 378.016 632.58 413.071 640.02 444.166C650.01 486.172 672.17 522.247 701.72 548.491C753.72 594.858 828.66 610.77 900.8 575.315C1039.03 507.435 1122.97 613.041 1107.18 667.359C1105.44 673.33 1102.41 678.65 1098.17 683.041C1081.38 700.404 1063.05 702.934 1048.16 696.513C1011.99 680.981 995.59 612.831 1070.46 568.224C1077.11 564.263 1084.53 560.393 1092.82 556.772C1122.31 540.54 1161.34 546.421 1204.49 573.475C1234.06 592.008 1265.74 620.502 1295.5 659.438C1305.36 672.329 1314.97 686.272 1324.31 701.214C1403.4 827.742 1886.79 930.648 1992.23 556.822" stroke="url(#paint18_linear_2_109)" stroke-width="0.5658" stroke-miterlimit="10"/>
<path opacity="0.5" d="M-31.2303 180.066C61.4897 122.448 210.12 49.8273 318.36 101.255C366.61 124.178 388.69 175.016 405.26 222.613C427.89 287.602 463.22 350.362 513.58 397.909C561.58 443.236 640.42 487.132 707.68 460.468C754.74 441.815 787.99 368.534 738.83 332.489C712.8 313.396 672.93 322.908 652.26 347.711C631.59 372.515 627.75 407.99 634.49 439.565C659.74 557.732 779.84 631.353 893.41 575.665C1048.8 499.474 1134.75 645.435 1088.16 691.252C1022.09 756.232 936.47 615.741 1083 555.122C1143.76 523.957 1237.46 580.946 1318.2 706.495C1398.94 832.043 1904.56 927.947 1991.39 540.44" stroke="url(#paint19_linear_2_109)" stroke-width="0.5658" stroke-miterlimit="10"/>
<path opacity="0.5" d="M-28.45 174.286C61.2701 118.528 205.25 53.498 312.16 107.536C359.13 131.279 381.18 181.407 397.81 228.704C420.51 293.243 455.66 355.563 505.53 402.99C553.2 448.346 630.9 492.093 697.64 467.179C744.38 449.767 777.87 379.286 731.75 344.571C721.29 336.69 708.38 333.879 695.53 335.14C678.4 336.79 661.41 345.641 650.51 359.303C631.3 383.237 628.54 417.462 635.85 447.986C663.2 562.093 782.26 634.354 895.05 581.446C1047.84 509.775 1133.17 652.167 1089.6 698.373C1027.97 763.743 946.16 628.253 1090.08 570.475C1151.26 541.32 1242.9 598.128 1325.39 718.506C1409.53 841.274 1908.2 928.867 1992.56 545.871" stroke="url(#paint20_linear_2_109)" stroke-width="0.5658" stroke-miterlimit="10"/>
<path opacity="0.5" d="M-25.6702 168.515C61.0598 114.607 200.36 57.1282 305.96 113.837C351.64 138.37 373.66 187.828 390.37 234.824C413.14 298.914 448.11 360.803 497.5 408.09C544.83 453.467 621.41 497.063 687.63 473.9C734.04 457.728 767.77 390.048 724.69 356.673C714.94 349.091 702.82 346.411 690.78 347.631C674.7 349.221 658.82 357.773 648.77 370.915C631.08 394.038 629.34 426.933 637.23 456.427C666.67 566.454 784.66 637.374 896.7 587.247C1046.83 520.077 1131.64 658.857 1091.05 705.514C1033.9 771.204 955.86 640.775 1097.17 585.857C1158.77 558.703 1248.51 615.341 1332.6 730.538C1420.26 850.626 1911.85 929.807 1993.76 551.331" stroke="url(#paint21_linear_2_109)" stroke-width="0.5658" stroke-miterlimit="10"/>
<path opacity="0.5" d="M-22.9003 162.734C60.8397 110.686 195.43 60.699 299.75 120.118C344.15 145.412 366.13 194.229 382.91 240.926C405.76 304.565 440.54 366.024 489.45 413.171C536.44 458.578 611.89 502.024 677.6 480.601C723.69 465.669 757.66 400.789 717.62 368.755C708.58 361.483 697.26 358.923 686.02 360.113C670.99 361.653 656.19 369.885 647.02 382.507C630.82 404.79 630.12 436.385 638.59 464.849C670.11 570.784 787 640.385 898.34 593.028C1045.77 530.328 1130.15 665.458 1092.48 712.645C1039.85 778.575 965.53 653.297 1104.24 601.219C1166.27 576.075 1254.27 632.524 1339.78 742.56C1431.09 860.057 1915.48 930.728 1994.93 556.772" stroke="url(#paint22_linear_2_109)" stroke-width="0.5658" stroke-miterlimit="10"/>
<path opacity="0.5" d="M-20.12 156.953C60.63 106.766 190.5 64.2096 293.55 126.409C336.67 152.433 358.62 200.64 375.46 247.027C398.38 310.216 432.98 371.235 481.41 418.262C528.06 463.689 602.39 506.995 667.58 487.312C713.34 473.62 747.56 411.541 710.55 380.846C702.22 373.875 691.7 371.435 681.26 372.595C667.27 374.075 653.57 381.997 645.27 394.098C630.56 415.541 630.9 445.826 639.96 473.27C673.54 575.085 789.31 643.385 899.99 598.809C1044.66 540.54 1128.72 671.979 1093.93 719.766C1045.83 785.836 975.23 665.809 1111.33 616.581C1173.78 593.448 1260.22 649.686 1346.99 754.572C1442.09 869.549 1919.13 931.648 1996.13 562.203" stroke="url(#paint23_linear_2_109)" stroke-width="0.5658" stroke-miterlimit="10"/>
<path opacity="0.5" d="M-17.3401 151.182C60.4199 102.855 185.56 67.68 287.35 132.7C329.19 159.424 351.1 207.041 368.01 253.137C391 315.867 425.43 376.466 473.36 423.353C519.67 468.799 592.87 511.966 657.54 494.023C702.98 481.571 737.36 422.383 703.47 392.928C695.83 386.287 686.12 383.947 676.49 385.077C663.55 386.497 650.94 394.098 643.5 405.7C630.29 426.303 631.66 455.277 641.3 481.701C676.92 579.376 791.55 646.386 901.6 604.59C1043.46 550.722 1127.28 678.41 1095.33 726.888C1051.77 792.987 984.88 678.32 1118.37 631.944C1181.24 610.81 1266.3 666.799 1354.14 766.593C1453.18 879.11 1922.73 932.578 1997.27 567.654" stroke="url(#paint24_linear_2_109)" stroke-width="0.5658" stroke-miterlimit="10"/>
<path opacity="0.5" d="M-14.5601 145.401C60.2099 98.9346 180.6 71.0804 281.15 138.99C321.71 166.385 343.59 213.451 360.57 259.248C383.63 321.527 417.88 381.696 465.33 428.443C511.31 473.92 583.38 516.936 647.53 500.734C692.64 489.522 727.25 433.154 696.41 405.02C689.47 398.689 680.57 396.459 671.75 397.559C659.85 398.919 648.34 406.21 641.77 417.292C630.06 437.045 632.45 464.709 642.68 490.122C680.32 583.636 793.78 649.376 903.26 610.37C1042.26 560.853 1125.91 684.751 1096.79 734.008C1057.76 800.018 994.58 690.832 1125.46 647.296C1188.75 628.173 1272.61 683.861 1361.35 778.605C1464.48 888.711 1926.39 933.498 1998.46 573.085" stroke="url(#paint25_linear_2_109)" stroke-width="0.5658" stroke-miterlimit="10"/>
<path opacity="0.5" d="M-11.7804 139.631C59.9996 95.0239 175.65 74.4309 274.94 145.281C314.23 173.316 336.06 219.862 353.11 265.349C376.25 327.178 410.31 386.907 457.28 433.524C502.92 479.021 573.83 521.757 637.5 507.445C682.27 497.373 717.11 443.926 689.34 417.112C683.11 411.091 675.01 408.98 666.99 410.051C656.14 411.351 645.73 418.322 640.02 428.903C629.82 447.806 633.22 474.15 644.05 498.564C683.68 587.897 795.95 652.376 904.9 616.171C1040.98 570.954 1124.55 691.002 1098.23 741.15C1063.7 806.939 1004.27 703.364 1132.54 662.678C1196.25 645.565 1279.08 700.884 1368.54 790.637C1475.91 898.363 1930.02 934.438 1999.64 578.535" stroke="url(#paint26_linear_2_109)" stroke-width="0.5658" stroke-miterlimit="10"/>
<path opacity="0.5" d="M-9 133.85C59.79 91.1035 170.7 77.7215 268.74 151.572C306.77 180.217 328.55 226.273 345.66 271.46C368.87 332.839 402.75 392.138 449.23 438.625C494.53 484.152 564.32 526.728 627.47 514.166C671.91 505.325 706.97 454.707 682.26 429.204C676.73 423.493 669.44 421.502 662.22 422.533C652.41 423.773 643.11 430.424 638.26 440.495C629.57 458.548 633.96 483.562 645.4 506.985C686.98 592.118 798.06 655.337 906.53 621.952C1039.64 580.986 1123.17 697.133 1099.65 748.281C1069.56 813.72 1013.94 715.886 1139.6 678.04C1203.73 662.928 1285.71 717.816 1375.72 802.659C1487.49 908.004 1933.65 935.359 2000.81 583.986" stroke="url(#paint27_linear_2_109)" stroke-width="0.5658" stroke-miterlimit="10"/>
<path opacity="0.5" d="M-6.21997 128.079C59.58 87.1827 165.76 80.9518 262.54 157.863C299.32 187.088 321.03 232.674 338.21 277.571C361.49 338.5 395.19 397.369 441.19 443.716C486.15 489.262 554.81 531.679 617.45 520.877C661.57 513.266 696.84 465.479 675.2 441.295C670.37 435.894 663.88 434.014 657.47 435.024C648.71 436.214 640.51 442.535 636.52 452.107C629.35 469.299 634.72 492.993 646.77 515.426C690.26 596.338 800.14 658.297 908.18 627.753C1038.25 590.977 1121.8 703.174 1101.1 755.422C1075.36 820.371 1023.64 728.418 1146.69 693.423C1211.24 680.321 1292.53 734.679 1382.92 814.69C1499.24 917.656 1937.29 936.299 2002 589.437" stroke="url(#paint28_linear_2_109)" stroke-width="0.5658" stroke-miterlimit="10"/>
<path opacity="0.5" d="M-3.44006 122.298C59.3699 83.2622 160.84 84.1124 256.34 164.144C291.88 193.929 313.51 239.075 330.76 283.662C354.11 344.131 387.63 402.57 433.15 448.786C477.77 494.353 545.31 536.619 607.42 527.568C651.21 521.187 686.69 476.23 668.12 453.367C663.99 448.276 658.31 446.516 652.7 447.496C644.98 448.626 637.9 454.617 634.76 463.689C629.12 480.021 635.44 502.384 648.13 523.837C693.49 600.519 802.16 661.208 909.81 633.524C1036.79 600.869 1120.37 709.085 1102.53 762.533C1081.05 826.862 1033.31 740.92 1153.76 708.765C1218.73 697.673 1299.49 751.411 1390.11 826.692C1511.14 927.237 1940.93 937.209 2003.17 594.858" stroke="url(#paint29_linear_2_109)" stroke-width="0.5658" stroke-miterlimit="10"/>
<path opacity="0.5" d="M-0.660034 116.527C59.16 79.3515 155.94 87.2226 250.14 170.445C284.45 200.759 306 245.496 323.32 289.783C346.75 349.802 380.08 407.81 425.12 453.897C469.41 499.494 535.82 541.59 597.41 534.299C640.88 529.158 676.54 487.022 661.07 465.469C657.64 460.688 652.77 459.048 647.96 459.988C641.29 461.058 635.32 466.709 633.03 475.3C628.92 490.752 636.18 511.805 649.51 532.279C696.69 604.729 804.16 664.108 911.47 639.314C1035.31 610.7 1118.91 714.916 1103.98 769.664C1086.64 833.253 1043.01 753.441 1160.85 724.137C1226.24 715.056 1306.62 768.073 1397.31 838.724C1523.2 936.788 1944.57 938.149 2004.36 600.309" stroke="url(#paint30_linear_2_109)" stroke-width="0.5658" stroke-miterlimit="10"/>
<path opacity="0.5" d="M2.11011 110.746C58.9401 75.4311 151.06 90.2732 243.93 176.726C277.03 207.541 298.47 251.897 315.86 295.884C339.36 355.453 372.51 413.031 417.06 458.978C461.01 504.595 526.3 546.541 587.37 541.01C630.52 537.099 666.36 497.784 653.99 477.561C651.25 473.09 647.19 471.56 643.2 472.48C637.57 473.49 632.72 478.791 631.28 486.902C628.7 501.454 636.89 521.217 650.87 540.71C699.81 608.92 806.08 666.969 913.1 645.105C1033.74 620.462 1117.35 720.657 1105.41 776.795C1092.06 839.554 1052.69 765.963 1167.92 739.509C1233.73 732.428 1313.86 784.626 1404.5 850.746C1535.41 946.26 1948.21 939.079 2005.54 605.76" stroke="url(#paint31_linear_2_109)" stroke-width="0.5658" stroke-miterlimit="10"/>
<path opacity="0.5" d="M4.88989 104.975C58.7199 71.5205 146.22 93.2637 237.73 183.027C269.64 214.322 290.96 258.318 308.41 301.995C331.98 361.113 364.96 418.252 409.02 464.069C452.63 509.715 516.8 551.502 577.35 547.721C620.17 545.041 656.19 508.525 646.92 489.652C644.87 485.482 641.63 484.082 638.44 484.962C633.86 485.912 630.12 490.853 629.53 498.504C628.48 512.136 637.58 530.618 652.24 549.141C702.89 613.121 807.97 669.779 914.75 650.896C1032.14 630.133 1115.7 726.327 1106.85 783.936C1097.35 845.775 1062.37 778.495 1175 754.882C1241.23 749.811 1321.24 801.058 1411.69 862.778C1547.76 955.631 1951.85 940.009 2006.72 611.21" stroke="url(#paint32_linear_2_109)" stroke-width="0.5658" stroke-miterlimit="10"/>
<path opacity="0.5" d="M7.66956 99.1944C58.5096 67.5998 141.43 96.194 231.53 189.308C262.26 221.062 283.44 264.709 300.96 308.095C324.6 366.764 357.4 423.473 400.98 469.159C444.25 514.826 507.3 556.462 567.32 554.432C609.82 552.992 645.99 519.257 639.85 501.734C638.49 497.863 636.07 496.593 633.68 497.443C630.15 498.334 627.51 502.894 627.78 510.095C628.25 522.777 638.25 540.02 653.6 557.562C705.89 617.321 809.81 672.529 916.38 656.677C1030.48 639.705 1113.92 731.938 1108.28 791.057C1102.48 851.916 1072.05 790.997 1182.06 770.244C1248.71 767.183 1328.71 817.371 1418.87 874.799C1560.25 964.853 1955.47 940.939 2007.89 616.651" stroke="url(#paint33_linear_2_109)" stroke-width="0.5658" stroke-miterlimit="10"/>
<path opacity="0.5" d="M10.4497 93.4236C58.2997 63.6792 136.69 99.0845 225.33 195.609C254.9 227.804 275.92 271.13 293.51 314.216C317.23 372.425 349.84 428.713 392.94 474.26C435.87 519.957 497.8 561.443 557.3 561.153C599.48 560.953 635.8 529.958 632.78 513.836C632.11 510.255 630.51 509.115 628.92 509.935C626.43 510.775 624.89 514.936 626.03 521.697C628 533.409 638.91 549.431 654.97 565.994C708.84 621.552 811.62 675.23 918.03 662.468C1028.79 649.186 1112.01 737.529 1109.73 798.188C1107.47 858.037 1081.75 803.519 1189.15 785.606C1256.22 784.546 1336.31 833.553 1426.07 886.811C1572.88 973.924 1959.12 941.859 2009.07 622.092" stroke="url(#paint34_linear_2_109)" stroke-width="0.5658" stroke-miterlimit="10"/>
<path opacity="0.5" d="M13.2297 87.6428C58.0897 59.7587 132 101.905 219.13 201.89C247.55 234.505 268.41 277.531 286.07 320.317C309.86 378.076 342.29 433.924 384.9 479.341C427.5 525.058 488.3 566.404 547.28 567.854C589.14 568.894 625.62 540.59 625.72 525.918C625.74 522.617 624.95 521.627 624.17 522.417C622.73 523.197 622.26 526.948 624.29 533.299C627.71 544.03 639.56 558.853 656.34 574.425C711.73 625.822 813.39 677.85 919.68 668.259C1027.07 658.567 1109.97 743.12 1111.17 805.319C1112.31 864.158 1091.43 816.041 1196.23 800.978C1263.72 801.929 1343.98 849.636 1433.27 898.843C1585.65 982.825 1962.76 942.799 2010.26 627.543" stroke="url(#paint35_linear_2_109)" stroke-width="0.5658" stroke-miterlimit="10"/>
<path opacity="0.5" d="M16.0096 81.8719C57.8796 55.8481 127.37 104.695 212.93 208.191C240.23 241.215 260.89 283.952 278.62 326.428C302.48 383.737 334.73 439.155 376.86 484.432C419.12 530.168 478.8 571.364 537.26 574.575C578.8 576.855 615.5 551.201 618.65 538.009C619.37 534.979 619.39 534.149 619.41 534.899C619.01 535.619 619.6 538.97 622.54 544.89C627.37 554.632 640.19 568.284 657.7 582.846C714.56 630.123 815.12 680.38 921.31 674.03C1025.29 667.819 1107.74 748.701 1112.6 812.44C1117.01 870.279 1101.11 828.552 1203.3 816.341C1271.21 819.301 1351.71 865.578 1440.45 910.855C1598.5 991.497 1966.39 943.72 2011.43 632.974" stroke="url(#paint36_linear_2_109)" stroke-width="0.5658" stroke-miterlimit="10"/>
<path opacity="0.5" d="M18.7897 76.091C57.6697 51.9275 122.81 107.426 206.73 214.472C232.92 247.886 253.38 290.343 271.17 332.529C295.11 389.387 327.17 444.376 368.82 489.522C410.74 535.289 469.3 576.335 527.24 581.286C568.46 584.806 605.47 561.793 611.59 550.101C613.04 547.341 613.84 546.661 614.67 547.391C615.32 548.051 616.93 551.011 620.81 556.502C627 565.273 640.82 577.735 659.09 591.277C717.36 634.484 816.85 682.821 922.98 679.82C1023.53 676.98 1105.41 754.351 1114.07 819.571C1121.62 876.46 1110.83 841.074 1210.41 831.703C1278.74 836.664 1359.53 881.41 1447.67 922.876C1611.5 999.948 1970.05 944.64 2012.64 638.424" stroke="url(#paint37_linear_2_109)" stroke-width="0.5658" stroke-miterlimit="10"/>
<path opacity="0.5" d="M21.5698 70.3203C57.4598 48.017 118.32 110.116 200.53 220.773C225.64 254.568 245.86 296.764 263.72 338.65C287.73 395.058 319.61 449.606 360.77 494.623C402.35 540.41 459.79 581.326 517.2 588.007C558.1 592.768 595.48 572.455 604.5 562.203C606.68 559.723 608.25 559.193 609.89 559.883C611.58 560.483 614.2 563.073 619.03 568.104C626.56 575.945 641.39 587.207 660.42 599.709C720.06 638.905 818.51 685.161 924.58 685.611C1021.69 686.022 1102.85 760.072 1115.46 826.702C1126.06 882.701 1120.46 853.596 1217.44 847.075C1286.19 854.046 1367.3 897.123 1454.82 934.908C1624.51 1008.16 1973.65 945.58 2013.78 643.875" stroke="url(#paint38_linear_2_109)" stroke-width="0.5658" stroke-miterlimit="10"/>
<path opacity="0.5" d="M24.3401 64.5394C57.2401 44.0963 113.89 112.767 194.32 227.054C218.37 261.219 238.33 303.165 256.27 344.741C280.35 400.689 312.05 454.817 352.73 499.694C393.97 545.511 450.29 586.277 507.18 594.698C547.76 600.709 585.52 583.156 597.44 574.265C600.37 572.085 602.7 571.685 605.14 572.345C607.88 572.885 611.49 575.135 617.29 579.686C626.15 586.637 641.98 596.678 661.79 608.12C722.77 643.365 820.21 687.352 926.23 691.382C1019.9 694.943 1100.2 765.853 1116.91 833.813C1130.47 888.991 1130.16 866.098 1224.53 862.417C1293.7 871.399 1375.15 912.705 1462.02 946.9C1637.65 1016.04 1977.3 946.48 2014.96 649.286" stroke="url(#paint39_linear_2_109)" stroke-width="0.5658" stroke-miterlimit="10"/>
<path opacity="0.5" d="M27.12 58.7686C57.03 40.1859 109.56 115.387 188.12 233.354C211.12 267.889 230.82 309.586 248.82 350.862C272.97 406.36 304.5 460.058 344.69 504.805C385.6 550.641 440.79 591.277 497.16 601.429C537.41 608.68 575.54 593.958 590.37 586.377C594.03 584.506 597.14 584.216 600.38 584.856C604.16 585.337 608.77 587.267 615.54 591.307C625.73 597.398 642.56 606.21 663.16 616.571C725.47 647.936 821.92 689.452 927.88 697.193C1018.11 703.774 1097.42 771.774 1118.35 840.964C1134.82 895.402 1139.85 878.64 1231.61 877.81C1301.2 888.801 1383 928.217 1469.22 958.952C1650.83 1023.69 1980.94 947.44 2016.15 654.767" stroke="url(#paint40_linear_2_109)" stroke-width="0.5658" stroke-miterlimit="10"/>
<path opacity="0.5" d="M29.8999 52.9877C56.8199 36.2553 105.3 117.977 181.92 239.635C203.9 274.531 223.3 315.977 241.37 356.963C265.6 412.011 296.94 465.269 336.65 509.885C377.22 555.752 431.29 596.248 487.14 608.14C527.07 616.641 565.52 604.749 583.31 598.469C587.7 596.918 591.59 596.738 595.63 597.338C600.46 597.768 606.08 599.389 613.8 602.909C625.35 608.17 643.15 615.741 664.53 625.002C728.16 652.556 823.66 691.392 929.52 702.974C1016.34 712.475 1094.53 777.785 1119.79 848.095C1139.12 901.893 1149.53 891.162 1238.68 893.182C1308.69 906.174 1390.83 943.6 1476.4 970.974C1664.03 1030.99 1984.57 948.37 2017.32 660.208" stroke="url(#paint41_linear_2_109)" stroke-width="0.5658" stroke-miterlimit="10"/>
<path opacity="0.5" d="M32.6797 47.2068C56.6097 32.3346 101.13 120.538 175.72 245.916C196.69 281.171 215.79 322.378 233.92 363.054C258.22 417.652 289.38 470.479 328.6 514.956C368.83 560.843 421.78 601.209 477.1 614.831C516.71 624.582 555.45 615.541 576.22 610.53C581.33 609.3 586 609.23 590.85 609.8C596.72 610.17 603.37 611.5 612.03 614.481C624.95 618.931 643.71 625.282 665.87 633.404C730.83 657.217 825.41 693.132 931.14 708.735C1014.58 721.047 1091.53 783.886 1121.21 855.196C1143.37 908.444 1159.2 903.654 1245.74 908.514C1316.17 923.517 1398.62 958.852 1483.58 982.965C1677.23 1037.93 1988.19 949.26 2018.49 665.618" stroke="url(#paint42_linear_2_109)" stroke-width="0.5658" stroke-miterlimit="10"/>
<path opacity="0.5" d="M35.4598 41.436C56.3998 28.424 97.0399 123.088 169.52 252.217C189.51 287.822 208.27 328.799 226.47 369.175C250.84 423.323 281.82 475.72 320.56 520.067C360.45 565.974 412.27 606.21 467.08 621.562C506.36 632.564 545.38 626.363 569.16 622.642C574.99 621.732 580.45 621.762 586.11 622.302C593.03 622.612 600.71 623.652 610.3 626.103C624.62 629.743 644.31 634.884 667.26 641.855C733.57 661.998 827.27 694.763 932.8 714.546C1012.91 729.568 1088.51 790.167 1122.66 862.348C1147.64 915.145 1168.9 916.196 1252.83 923.907C1323.69 940.919 1406.4 974.064 1490.78 995.017C1690.44 1044.58 1991.84 950.221 2019.67 671.099" stroke="url(#paint43_linear_2_109)" stroke-width="0.5658" stroke-miterlimit="10"/>
<path opacity="0.5" d="M38.2401 35.6551C56.1801 24.5035 93.0502 125.618 163.32 258.498C182.34 294.463 200.76 335.2 219.03 375.275C243.47 428.963 274.27 480.931 312.53 525.148C352.09 571.084 402.78 611.19 457.07 628.263C496.03 640.515 535.31 637.154 562.1 634.724C568.64 634.134 574.9 634.274 581.36 634.784C589.33 635.034 598.05 635.794 608.56 637.694C624.29 640.535 644.91 644.485 668.63 650.276C736.32 666.799 829.2 696.173 934.45 720.327C1011.3 737.959 1085.43 796.528 1124.11 869.469C1151.92 921.906 1178.59 928.707 1259.92 939.259C1331.2 958.272 1414.14 989.146 1497.99 1007.02C1703.63 1050.85 1995.49 951.131 2020.87 676.52" stroke="url(#paint44_linear_2_109)" stroke-width="0.5658" stroke-miterlimit="10"/>
<path opacity="0.5" d="M41.02 29.8842C55.97 20.5928 89.1401 128.149 157.12 264.799C175.19 301.124 193.24 341.61 211.58 381.386C236.1 434.624 266.71 486.162 304.48 530.238C343.7 576.195 393.26 616.181 447.04 634.974C485.67 648.476 525.22 647.956 555.03 646.806C562.28 646.525 569.33 646.785 576.6 647.256C585.61 647.446 595.38 647.926 606.81 649.286C623.96 651.326 645.51 654.107 669.99 658.697C739.1 671.649 831.23 697.403 936.08 726.107C1009.74 746.27 1082.3 803.009 1125.54 876.59C1156.19 928.757 1188.27 941.209 1266.99 954.621C1338.69 975.644 1421.79 1004.17 1505.17 1019.04C1716.72 1056.77 1999.12 952.061 2022.04 681.961" stroke="url(#paint45_linear_2_109)" stroke-width="0.5658" stroke-miterlimit="10"/>
<path opacity="0.5" d="M43.8 24.1036C55.76 16.6725 85.3199 130.669 150.92 271.08C168.06 307.776 185.72 348.012 204.13 387.487C228.72 440.275 259.15 491.383 296.44 535.319C335.32 581.306 383.72 621.242 437.02 641.685C475.3 656.507 515.12 658.748 547.96 658.898C555.93 658.938 563.77 659.298 571.84 659.748C581.9 659.878 592.73 660.068 605.06 660.888C623.65 662.118 646.13 663.758 671.36 667.129C741.94 676.55 833.41 698.443 937.73 731.898C1008.31 754.532 1079.18 809.59 1126.98 883.731C1160.49 935.709 1197.96 953.741 1274.07 970.004C1346.19 993.037 1429.38 1019.13 1512.37 1031.08C1729.74 1062.37 2002.77 953.011 2023.23 687.432" stroke="url(#paint46_linear_2_109)" stroke-width="0.5658" stroke-miterlimit="10"/>
<path opacity="0.5" d="M46.5699 18.3326C55.5399 12.7518 81.5798 133.19 144.71 277.381C160.94 314.446 178.2 354.432 196.67 393.608C221.33 445.946 251.58 496.613 288.39 540.43C326.93 586.437 374.2 626.233 426.98 648.416C464.93 664.478 505 669.549 540.88 671.009C549.55 671.359 558.2 671.839 567.07 672.249C578.17 672.329 590.06 672.219 603.3 672.499C623.33 672.919 646.75 673.43 672.71 675.57C744.8 681.501 835.73 699.323 939.36 737.689C1006.97 762.723 1076.05 816.271 1128.41 890.862C1164.81 942.719 1207.63 966.263 1281.14 985.366C1353.68 1010.4 1436.87 1034.01 1519.55 1043.09C1742.62 1067.6 2006.39 953.921 2024.4 692.863" stroke="url(#paint47_linear_2_109)" stroke-width="0.5658" stroke-miterlimit="10"/>
<path opacity="0.5" d="M49.3499 12.5517C55.3299 8.83118 77.9298 135.72 138.51 283.662C153.84 321.108 170.68 360.833 189.23 399.699C213.96 451.587 244.03 501.824 280.36 545.501C318.56 591.537 364.71 631.183 416.97 655.107C454.6 672.41 494.91 680.371 533.82 683.071C543.2 683.751 552.65 684.331 562.32 684.711C574.47 684.731 587.43 684.331 601.56 684.081C623.04 683.691 647.4 683.091 674.09 683.981C747.75 686.442 838.28 699.994 941.01 743.46C1005.77 770.864 1072.95 823.002 1129.85 897.973C1169.17 949.781 1217.32 978.765 1288.21 1000.72C1361.17 1027.76 1444.27 1048.83 1526.74 1055.11C1755.39 1072.51 2010.03 954.841 2025.57 698.293" stroke="url(#paint48_linear_2_109)" stroke-width="0.5658" stroke-miterlimit="10"/>
<path opacity="0.5" d="M52.1299 6.78071C55.1199 4.92043 74.3698 138.26 132.31 289.963C146.76 327.798 163.17 367.244 181.78 405.82C206.59 457.247 236.48 507.065 272.31 550.601C310.18 596.658 355.19 636.164 406.94 661.828C444.24 680.37 484.8 691.132 526.75 695.173C536.84 696.153 547.08 696.853 557.57 697.203C570.76 697.163 584.79 696.473 599.82 695.683C622.75 694.483 648.08 692.772 675.46 692.412C750.75 691.422 841.03 700.514 942.66 749.251C1004.71 779.005 1069.88 829.833 1131.3 905.104C1173.58 956.921 1227.02 991.286 1295.3 1016.08C1368.68 1045.13 1451.59 1063.61 1533.94 1067.12C1768.01 1077.12 2013.67 955.761 2026.76 703.724" stroke="url(#paint49_linear_2_109)" stroke-width="0.5658" stroke-miterlimit="10"/>
<path opacity="0.5" d="M54.9098 1C54.9098 1 134.52 697.823 552.81 709.695C684.15 708.775 888.73 632.664 1132.73 912.245C1376.73 1191.84 2010.4 1117.66 2027.94 709.195" stroke="url(#paint50_linear_2_109)" stroke-width="0.5658" stroke-miterlimit="10"/>
</g>
<defs>
<linearGradient id="paint0_linear_2_109" x1="1359.94" y1="202.072" x2="595.376" y2="963.715" gradientUnits="userSpaceOnUse">
<stop stop-color="#1BA4E5" stop-opacity="0.5"/>
<stop offset="1" stop-color="#B40FE7"/>
</linearGradient>
<linearGradient id="paint1_linear_2_109" x1="1362.39" y1="188.988" x2="594.13" y2="954.32" gradientUnits="userSpaceOnUse">
<stop stop-color="#1BA4E5" stop-opacity="0.5"/>
<stop offset="1" stop-color="#B40FE7"/>
</linearGradient>
<linearGradient id="paint2_linear_2_109" x1="1364.72" y1="175.78" x2="592.758" y2="944.799" gradientUnits="userSpaceOnUse">
<stop stop-color="#1BA4E5" stop-opacity="0.5"/>
<stop offset="1" stop-color="#B40FE7"/>
</linearGradient>
<linearGradient id="paint3_linear_2_109" x1="1366.93" y1="162.447" x2="591.262" y2="935.153" gradientUnits="userSpaceOnUse">
<stop stop-color="#1BA4E5" stop-opacity="0.5"/>
<stop offset="1" stop-color="#B40FE7"/>
</linearGradient>
<linearGradient id="paint4_linear_2_109" x1="1369.01" y1="148.992" x2="589.644" y2="925.384" gradientUnits="userSpaceOnUse">
<stop stop-color="#1BA4E5" stop-opacity="0.5"/>
<stop offset="1" stop-color="#B40FE7"/>
</linearGradient>
<linearGradient id="paint5_linear_2_109" x1="1370.97" y1="135.417" x2="587.905" y2="915.495" gradientUnits="userSpaceOnUse">
<stop stop-color="#1BA4E5" stop-opacity="0.5"/>
<stop offset="1" stop-color="#B40FE7"/>
</linearGradient>
<linearGradient id="paint6_linear_2_109" x1="1372.86" y1="121.773" x2="586.091" y2="905.542" gradientUnits="userSpaceOnUse">
<stop stop-color="#1BA4E5" stop-opacity="0.5"/>
<stop offset="1" stop-color="#B40FE7"/>
</linearGradient>
<linearGradient id="paint7_linear_2_109" x1="1374.75" y1="108.128" x2="584.275" y2="895.588" gradientUnits="userSpaceOnUse">
<stop stop-color="#1BA4E5" stop-opacity="0.5"/>
<stop offset="1" stop-color="#B40FE7"/>
</linearGradient>
<linearGradient id="paint8_linear_2_109" x1="1376.64" y1="94.4845" x2="582.459" y2="885.635" gradientUnits="userSpaceOnUse">
<stop stop-color="#1BA4E5" stop-opacity="0.5"/>
<stop offset="1" stop-color="#B40FE7"/>
</linearGradient>
<linearGradient id="paint9_linear_2_109" x1="1378.53" y1="80.8404" x2="580.643" y2="875.681" gradientUnits="userSpaceOnUse">
<stop stop-color="#1BA4E5" stop-opacity="0.5"/>
<stop offset="1" stop-color="#B40FE7"/>
</linearGradient>
<linearGradient id="paint10_linear_2_109" x1="1380.47" y1="67.2354" x2="578.873" y2="865.774" gradientUnits="userSpaceOnUse">
<stop stop-color="#1BA4E5" stop-opacity="0.5"/>
<stop offset="1" stop-color="#B40FE7"/>
</linearGradient>
<linearGradient id="paint11_linear_2_109" x1="1383.02" y1="54.2054" x2="577.693" y2="856.458" gradientUnits="userSpaceOnUse">
<stop stop-color="#1BA4E5" stop-opacity="0.5"/>
<stop offset="1" stop-color="#B40FE7"/>
</linearGradient>
<linearGradient id="paint12_linear_2_109" x1="1386.19" y1="41.7969" x2="577.132" y2="847.764" gradientUnits="userSpaceOnUse">
<stop stop-color="#1BA4E5" stop-opacity="0.5"/>
<stop offset="1" stop-color="#B40FE7"/>
</linearGradient>
<linearGradient id="paint13_linear_2_109" x1="1389.85" y1="29.8874" x2="577.068" y2="839.569" gradientUnits="userSpaceOnUse">
<stop stop-color="#1BA4E5" stop-opacity="0.5"/>
<stop offset="1" stop-color="#B40FE7"/>
</linearGradient>
<linearGradient id="paint14_linear_2_109" x1="1393.92" y1="18.385" x2="577.409" y2="831.781" gradientUnits="userSpaceOnUse">
<stop stop-color="#1BA4E5" stop-opacity="0.5"/>
<stop offset="1" stop-color="#B40FE7"/>
</linearGradient>
<linearGradient id="paint15_linear_2_109" x1="1398.33" y1="7.21952" x2="578.086" y2="824.329" gradientUnits="userSpaceOnUse">
<stop stop-color="#1BA4E5" stop-opacity="0.5"/>
<stop offset="1" stop-color="#B40FE7"/>
</linearGradient>
<linearGradient id="paint16_linear_2_109" x1="1403.01" y1="-3.66374" x2="579.043" y2="817.159" gradientUnits="userSpaceOnUse">
<stop stop-color="#1BA4E5" stop-opacity="0.5"/>
<stop offset="1" stop-color="#B40FE7"/>
</linearGradient>
<linearGradient id="paint17_linear_2_109" x1="1407.93" y1="-14.3084" x2="580.238" y2="810.227" gradientUnits="userSpaceOnUse">
<stop stop-color="#1BA4E5" stop-opacity="0.5"/>
<stop offset="1" stop-color="#B40FE7"/>
</linearGradient>
<linearGradient id="paint18_linear_2_109" x1="1413.06" y1="-24.7491" x2="581.635" y2="803.498" gradientUnits="userSpaceOnUse">
<stop stop-color="#1BA4E5" stop-opacity="0.5"/>
<stop offset="1" stop-color="#B40FE7"/>
</linearGradient>
<linearGradient id="paint19_linear_2_109" x1="1418.35" y1="-35.0141" x2="583.206" y2="796.945" gradientUnits="userSpaceOnUse">
<stop stop-color="#1BA4E5" stop-opacity="0.5"/>
<stop offset="1" stop-color="#B40FE7"/>
</linearGradient>
<linearGradient id="paint20_linear_2_109" x1="1417.26" y1="-31.8543" x2="588.523" y2="793.716" gradientUnits="userSpaceOnUse">
<stop stop-color="#1BA4E5" stop-opacity="0.5"/>
<stop offset="1" stop-color="#B40FE7"/>
</linearGradient>
<linearGradient id="paint21_linear_2_109" x1="1416.17" y1="-28.6825" x2="593.852" y2="790.5" gradientUnits="userSpaceOnUse">
<stop stop-color="#1BA4E5" stop-opacity="0.5"/>
<stop offset="1" stop-color="#B40FE7"/>
</linearGradient>
<linearGradient id="paint22_linear_2_109" x1="1415.1" y1="-25.4971" x2="599.195" y2="787.298" gradientUnits="userSpaceOnUse">
<stop stop-color="#1BA4E5" stop-opacity="0.5"/>
<stop offset="1" stop-color="#B40FE7"/>
</linearGradient>
<linearGradient id="paint23_linear_2_109" x1="1414.05" y1="-22.2979" x2="604.551" y2="784.11" gradientUnits="userSpaceOnUse">
<stop stop-color="#1BA4E5" stop-opacity="0.5"/>
<stop offset="1" stop-color="#B40FE7"/>
</linearGradient>
<linearGradient id="paint24_linear_2_109" x1="1413.01" y1="-19.084" x2="609.923" y2="780.936" gradientUnits="userSpaceOnUse">
<stop stop-color="#1BA4E5" stop-opacity="0.5"/>
<stop offset="1" stop-color="#B40FE7"/>
</linearGradient>
<linearGradient id="paint25_linear_2_109" x1="1411.98" y1="-15.8547" x2="615.309" y2="777.777" gradientUnits="userSpaceOnUse">
<stop stop-color="#1BA4E5" stop-opacity="0.5"/>
<stop offset="1" stop-color="#B40FE7"/>
</linearGradient>
<linearGradient id="paint26_linear_2_109" x1="1410.97" y1="-12.6091" x2="620.712" y2="774.635" gradientUnits="userSpaceOnUse">
<stop stop-color="#1BA4E5" stop-opacity="0.5"/>
<stop offset="1" stop-color="#B40FE7"/>
</linearGradient>
<linearGradient id="paint27_linear_2_109" x1="1409.98" y1="-9.3463" x2="626.132" y2="771.51" gradientUnits="userSpaceOnUse">
<stop stop-color="#1BA4E5" stop-opacity="0.5"/>
<stop offset="1" stop-color="#B40FE7"/>
</linearGradient>
<linearGradient id="paint28_linear_2_109" x1="1409.01" y1="-6.06614" x2="631.569" y2="768.403" gradientUnits="userSpaceOnUse">
<stop stop-color="#1BA4E5" stop-opacity="0.5"/>
<stop offset="1" stop-color="#B40FE7"/>
</linearGradient>
<linearGradient id="paint29_linear_2_109" x1="1408.05" y1="-2.76725" x2="637.025" y2="765.314" gradientUnits="userSpaceOnUse">
<stop stop-color="#1BA4E5" stop-opacity="0.5"/>
<stop offset="1" stop-color="#B40FE7"/>
</linearGradient>
<linearGradient id="paint30_linear_2_109" x1="1407.11" y1="0.550462" x2="642.5" y2="762.244" gradientUnits="userSpaceOnUse">
<stop stop-color="#1BA4E5" stop-opacity="0.5"/>
<stop offset="1" stop-color="#B40FE7"/>
</linearGradient>
<linearGradient id="paint31_linear_2_109" x1="1406.2" y1="3.88805" x2="647.994" y2="759.194" gradientUnits="userSpaceOnUse">
<stop stop-color="#1BA4E5" stop-opacity="0.5"/>
<stop offset="1" stop-color="#B40FE7"/>
</linearGradient>
<linearGradient id="paint32_linear_2_109" x1="1405.3" y1="7.24588" x2="653.509" y2="756.165" gradientUnits="userSpaceOnUse">
<stop stop-color="#1BA4E5" stop-opacity="0.5"/>
<stop offset="1" stop-color="#B40FE7"/>
</linearGradient>
<linearGradient id="paint33_linear_2_109" x1="1404.42" y1="10.6243" x2="659.044" y2="753.156" gradientUnits="userSpaceOnUse">
<stop stop-color="#1BA4E5" stop-opacity="0.5"/>
<stop offset="1" stop-color="#B40FE7"/>
</linearGradient>
<linearGradient id="paint34_linear_2_109" x1="1403.57" y1="14.0239" x2="664.6" y2="750.168" gradientUnits="userSpaceOnUse">
<stop stop-color="#1BA4E5" stop-opacity="0.5"/>
<stop offset="1" stop-color="#B40FE7"/>
</linearGradient>
<linearGradient id="paint35_linear_2_109" x1="1402.73" y1="17.4449" x2="660.58" y2="756.762" gradientUnits="userSpaceOnUse">
<stop stop-color="#1BA4E5" stop-opacity="0.5"/>
<stop offset="1" stop-color="#B40FE7"/>
</linearGradient>
<linearGradient id="paint36_linear_2_109" x1="1401.92" y1="20.8872" x2="655.273" y2="764.682" gradientUnits="userSpaceOnUse">
<stop stop-color="#1BA4E5" stop-opacity="0.5"/>
<stop offset="1" stop-color="#B40FE7"/>
</linearGradient>
<linearGradient id="paint37_linear_2_109" x1="1401.13" y1="24.3508" x2="649.98" y2="772.629" gradientUnits="userSpaceOnUse">
<stop stop-color="#1BA4E5" stop-opacity="0.5"/>
<stop offset="1" stop-color="#B40FE7"/>
</linearGradient>
<linearGradient id="paint38_linear_2_109" x1="1400.36" y1="27.836" x2="644.702" y2="780.605" gradientUnits="userSpaceOnUse">
<stop stop-color="#1BA4E5" stop-opacity="0.5"/>
<stop offset="1" stop-color="#B40FE7"/>
</linearGradient>
<linearGradient id="paint39_linear_2_109" x1="1399.61" y1="31.3416" x2="639.436" y2="788.61" gradientUnits="userSpaceOnUse">
<stop stop-color="#1BA4E5" stop-opacity="0.5"/>
<stop offset="1" stop-color="#B40FE7"/>
</linearGradient>
<linearGradient id="paint40_linear_2_109" x1="1398.88" y1="34.8676" x2="634.181" y2="796.644" gradientUnits="userSpaceOnUse">
<stop stop-color="#1BA4E5" stop-opacity="0.5"/>
<stop offset="1" stop-color="#B40FE7"/>
</linearGradient>
<linearGradient id="paint41_linear_2_109" x1="1398.17" y1="38.4126" x2="628.935" y2="804.707" gradientUnits="userSpaceOnUse">
<stop stop-color="#1BA4E5" stop-opacity="0.5"/>
<stop offset="1" stop-color="#B40FE7"/>
</linearGradient>
<linearGradient id="paint42_linear_2_109" x1="1397.47" y1="41.9757" x2="623.697" y2="812.798" gradientUnits="userSpaceOnUse">
<stop stop-color="#1BA4E5" stop-opacity="0.5"/>
<stop offset="1" stop-color="#B40FE7"/>
</linearGradient>
<linearGradient id="paint43_linear_2_109" x1="1396.8" y1="45.5558" x2="618.464" y2="820.919" gradientUnits="userSpaceOnUse">
<stop stop-color="#1BA4E5" stop-opacity="0.5"/>
<stop offset="1" stop-color="#B40FE7"/>
</linearGradient>
<linearGradient id="paint44_linear_2_109" x1="1396.14" y1="49.1514" x2="613.233" y2="829.069" gradientUnits="userSpaceOnUse">
<stop stop-color="#1BA4E5" stop-opacity="0.5"/>
<stop offset="1" stop-color="#B40FE7"/>
</linearGradient>
<linearGradient id="paint45_linear_2_109" x1="1395.49" y1="52.7612" x2="608.001" y2="837.247" gradientUnits="userSpaceOnUse">
<stop stop-color="#1BA4E5" stop-opacity="0.5"/>
<stop offset="1" stop-color="#B40FE7"/>
</linearGradient>
<linearGradient id="paint46_linear_2_109" x1="1394.86" y1="56.3838" x2="602.759" y2="845.461" gradientUnits="userSpaceOnUse">
<stop stop-color="#1BA4E5" stop-opacity="0.5"/>
<stop offset="1" stop-color="#B40FE7"/>
</linearGradient>
<linearGradient id="paint47_linear_2_109" x1="1394.24" y1="60.0176" x2="597.516" y2="853.698" gradientUnits="userSpaceOnUse">
<stop stop-color="#1BA4E5" stop-opacity="0.5"/>
<stop offset="1" stop-color="#B40FE7"/>
</linearGradient>
<linearGradient id="paint48_linear_2_109" x1="1393.63" y1="63.6619" x2="592.263" y2="861.967" gradientUnits="userSpaceOnUse">
<stop stop-color="#1BA4E5" stop-opacity="0.5"/>
<stop offset="1" stop-color="#B40FE7"/>
</linearGradient>
<linearGradient id="paint49_linear_2_109" x1="1393.03" y1="67.3159" x2="586.996" y2="870.269" gradientUnits="userSpaceOnUse">
<stop stop-color="#1BA4E5" stop-opacity="0.5"/>
<stop offset="1" stop-color="#B40FE7"/>
</linearGradient>
<linearGradient id="paint50_linear_2_109" x1="1392.47" y1="71.0152" x2="581.746" y2="878.644" gradientUnits="userSpaceOnUse">
<stop stop-color="#1BA4E5" stop-opacity="0.5"/>
<stop offset="1" stop-color="#B40FE7"/>
</linearGradient>
</defs>
</svg>
