<svg width="694" height="694" viewBox="0 0 694 694" fill="none" xmlns="http://www.w3.org/2000/svg">
<path d="M373.465 125.46L408.824 91.4153V54.6C413.409 53.8132 416.914 49.83 416.914 45.0273C416.914 39.6673 412.558 35.2908 407.186 35.2908C401.831 35.2908 397.458 39.6509 397.458 45.0273C397.458 49.83 400.963 53.8296 405.548 54.6V90.0384L370.19 124.067V201.566H367.291V246.135H376.364V201.566H373.465V125.46V125.46ZM400.75 45.0109C400.75 41.454 403.649 38.5527 407.203 38.5527C410.756 38.5527 413.655 41.454 413.655 45.0109C413.655 48.5679 410.756 51.4692 407.203 51.4692C403.632 51.4692 400.75 48.5679 400.75 45.0109Z" fill="#3451A3"/>
<path d="M325.103 124.067L289.745 90.022V54.6C294.331 53.8132 297.835 49.83 297.835 45.0273C297.835 39.6673 293.479 35.2908 288.107 35.2908C282.752 35.2908 278.379 39.6509 278.379 45.0273C278.379 49.83 281.884 53.8296 286.47 54.6V91.4317L321.828 125.477V201.583H318.929V246.151H328.002V201.583H325.103V124.067V124.067ZM281.655 45.0109C281.655 41.454 284.554 38.5527 288.107 38.5527C291.661 38.5527 294.56 41.454 294.56 45.0109C294.56 48.5679 291.661 51.4692 288.107 51.4692C284.537 51.4692 281.655 48.5679 281.655 45.0109Z" fill="#3451A3"/>
<path d="M347.638 0C342.283 0 337.91 4.36014 337.91 9.73655C337.91 14.5393 341.415 18.5388 346 19.3256V201.583H343.102V246.151H352.175V201.583H349.276V19.3092C353.862 18.5224 357.366 14.5393 357.366 9.72016C357.366 4.36014 353.01 0 347.638 0ZM347.638 16.1784C344.084 16.1784 341.186 13.2771 341.186 9.72016C341.186 6.16321 344.084 3.26191 347.638 3.26191C351.192 3.26191 354.091 6.16321 354.091 9.72016C354.091 13.2771 351.192 16.1784 347.638 16.1784Z" fill="#3451A3"/>
<path d="M440.923 113.364C435.567 113.364 431.195 117.724 431.195 123.1C431.195 125.215 431.882 127.165 433.029 128.772L394.51 166.489V201.566H391.464V246.135H400.537V201.566H397.785V167.866L435.354 131.067C436.927 132.165 438.843 132.82 440.906 132.82C446.262 132.82 450.634 128.46 450.634 123.084C450.651 117.74 446.278 113.364 440.923 113.364ZM440.923 129.542C437.369 129.542 434.47 126.641 434.47 123.084C434.47 119.527 437.369 116.626 440.923 116.626C444.477 116.626 447.375 119.527 447.375 123.084C447.375 126.641 444.477 129.542 440.923 129.542Z" fill="#3451A3"/>
<path d="M300.93 166.489L262.411 128.772C263.558 127.165 264.246 125.215 264.246 123.1C264.246 117.74 259.889 113.364 254.517 113.364C249.162 113.364 244.789 117.724 244.789 123.1C244.789 128.46 249.146 132.837 254.517 132.837C256.581 132.837 258.497 132.181 260.069 131.083L297.639 167.882V201.583H294.74V246.151H303.813V201.583H300.914V166.489H300.93ZM254.517 129.542C250.964 129.542 248.065 126.641 248.065 123.084C248.065 119.527 250.964 116.626 254.517 116.626C258.071 116.626 260.97 119.527 260.97 123.084C260.97 126.641 258.071 129.542 254.517 129.542Z" fill="#3451A3"/>
<path d="M294.747 201.556V246.125H303.82V201.556H294.747Z" fill="white"/>
<path d="M318.926 201.546V246.115H327.999V201.546H318.926Z" fill="white"/>
<path d="M343.104 201.552V246.12H352.177V201.552H343.104Z" fill="white"/>
<path d="M367.283 201.558V246.126H376.356V201.558H367.283Z" fill="white"/>
<path d="M391.462 201.547V246.115H400.535V201.547H391.462Z" fill="white"/>
<path d="M201.39 303.063H245.92V293.982H201.39V296.883H167.719L130.952 259.281C132.049 257.707 132.704 255.789 132.704 253.724C132.704 248.364 128.348 243.988 122.976 243.988C117.621 243.988 113.248 248.348 113.248 253.724C113.248 259.084 117.605 263.461 122.976 263.461C125.089 263.461 127.038 262.772 128.643 261.625L166.327 300.178H201.374V303.063H201.39ZM129.429 253.708C129.429 257.265 126.53 260.166 122.976 260.166C119.422 260.166 116.524 257.265 116.524 253.708C116.524 250.151 119.422 247.249 122.976 247.249C126.547 247.249 129.429 250.151 129.429 253.708Z" fill="#3451A3"/>
<path d="M201.39 327.256H245.92V318.175H201.39V321.077H125.351L91.3355 285.687H54.5523C53.7662 281.098 49.7866 277.59 44.9717 277.59C39.6163 277.59 35.2436 281.95 35.2436 287.327C35.2436 292.687 39.6 297.063 44.9717 297.063C49.7702 297.063 53.7662 293.555 54.5523 288.966H89.9598L123.975 324.355H201.407V327.256H201.39ZM51.4243 287.327C51.4243 290.884 48.5255 293.785 44.9717 293.785C41.4178 293.785 38.5191 290.884 38.5191 287.327C38.5191 283.77 41.4178 280.868 44.9717 280.868C48.5255 280.868 51.4243 283.77 51.4243 287.327Z" fill="#3451A3"/>
<path d="M35.2436 406.51C35.2436 411.87 39.6 416.246 44.9717 416.246C49.7702 416.246 53.7662 412.739 54.5523 408.149H91.3519L125.367 372.76H201.407V375.661H245.936V366.58H201.407V369.481H123.975L89.9598 404.871H54.5523C53.7662 400.281 49.7866 396.773 44.9717 396.773C39.6163 396.79 35.2436 401.15 35.2436 406.51ZM38.5191 406.51C38.5191 402.953 41.4178 400.052 44.9717 400.052C48.5255 400.052 51.4243 402.953 51.4243 406.51C51.4243 410.067 48.5255 412.968 44.9717 412.968C41.4178 412.968 38.5191 410.067 38.5191 406.51Z" fill="#3451A3"/>
<path d="M0 346.91C0 352.27 4.35634 356.646 9.72806 356.646C14.5266 356.646 18.5226 353.138 19.2923 348.549H201.39V351.45H245.92V342.369H201.39V345.27H19.2923C18.5062 340.681 14.5266 337.173 9.72806 337.173C4.35634 337.189 0 341.55 0 346.91ZM3.27544 346.91C3.27544 343.353 6.17421 340.451 9.72806 340.451C13.2819 340.451 16.1807 343.353 16.1807 346.91C16.1807 350.466 13.2819 353.368 9.72806 353.368C6.15783 353.368 3.27544 350.466 3.27544 346.91Z" fill="#3451A3"/>
<path d="M113.265 440.276C113.265 445.636 117.621 450.012 122.993 450.012C128.348 450.012 132.721 445.652 132.721 440.276C132.721 438.21 132.066 436.293 130.969 434.719L167.735 397.117H201.407V399.871H245.936V390.79H201.407V393.839H166.36L128.676 432.391C127.071 431.244 125.122 430.556 123.009 430.556C117.621 430.539 113.265 434.916 113.265 440.276ZM116.54 440.276C116.54 436.719 119.439 433.818 122.993 433.818C126.547 433.818 129.446 436.719 129.446 440.276C129.446 443.833 126.547 446.734 122.993 446.734C119.439 446.734 116.54 443.833 116.54 440.276Z" fill="#3451A3"/>
<path d="M245.789 293.982H201.26V303.063H245.789V293.982Z" fill="white"/>
<path d="M245.789 318.176H201.26V327.257H245.789V318.176Z" fill="white"/>
<path d="M245.789 342.37H201.26V351.45H245.789V342.37Z" fill="white"/>
<path d="M245.789 366.58H201.26V375.661H245.789V366.58Z" fill="white"/>
<path d="M245.789 390.774H201.26V399.855H245.789V390.774Z" fill="white"/>
<path d="M492.61 300.161H527.657L565.341 261.608C566.946 262.756 568.895 263.444 571.008 263.444C576.363 263.444 580.736 259.084 580.736 253.708C580.736 248.347 576.379 243.971 571.008 243.971C565.652 243.971 561.28 248.331 561.28 253.708C561.28 255.773 561.935 257.691 563.032 259.264L526.265 296.866H492.594V293.965H448.064V303.046H492.594V300.161H492.61ZM571.008 247.249C574.561 247.249 577.46 250.151 577.46 253.708C577.46 257.264 574.561 260.166 571.008 260.166C567.454 260.166 564.555 257.264 564.555 253.708C564.555 250.151 567.454 247.249 571.008 247.249Z" fill="#3451A3"/>
<path d="M492.61 324.355H570.041L604.057 288.966H639.464C640.25 293.555 644.23 297.063 649.045 297.063C654.4 297.063 658.773 292.703 658.773 287.327C658.773 281.967 654.417 277.59 649.045 277.59C644.246 277.59 640.25 281.098 639.464 285.687H602.665L568.649 321.077H492.626V318.175H448.097V327.256H492.626V324.355H492.61ZM649.029 280.868C652.582 280.868 655.481 283.77 655.481 287.327C655.481 290.884 652.582 293.785 649.029 293.785C645.475 293.785 642.576 290.884 642.576 287.327C642.576 283.77 645.475 280.868 649.029 280.868Z" fill="#3451A3"/>
<path d="M649.028 396.789C644.23 396.789 640.234 400.297 639.448 404.886H604.04L570.025 369.497H492.593V366.596H448.064V375.677H492.593V372.775H568.616L602.632 408.165H639.431C640.217 412.754 644.197 416.262 649.012 416.262C654.367 416.262 658.74 411.902 658.74 406.526C658.756 401.149 654.384 396.789 649.028 396.789ZM649.028 412.967C645.475 412.967 642.576 410.066 642.576 406.509C642.576 402.952 645.475 400.051 649.028 400.051C652.582 400.051 655.481 402.952 655.481 406.509C655.481 410.066 652.582 412.967 649.028 412.967Z" fill="#3451A3"/>
<path d="M684.288 337.19C679.49 337.19 675.494 340.697 674.724 345.287H492.61V342.386H448.08V351.467H492.61V348.565H674.708C675.494 353.155 679.473 356.663 684.272 356.663C689.627 356.663 694 352.303 694 346.926C694 341.55 689.644 337.19 684.288 337.19ZM684.288 353.368C680.734 353.368 677.836 350.467 677.836 346.91C677.836 343.353 680.734 340.452 684.288 340.452C687.842 340.452 690.741 343.353 690.741 346.91C690.725 350.467 687.842 353.368 684.288 353.368Z" fill="#3451A3"/>
<path d="M571.007 430.539C568.895 430.539 566.946 431.228 565.341 432.375L527.657 393.822H492.61V390.774H448.08V399.854H492.61V397.101H526.281L563.048 434.703C561.951 436.276 561.296 438.194 561.296 440.259C561.296 445.619 565.652 449.996 571.024 449.996C576.379 449.996 580.752 445.636 580.752 440.259C580.735 434.916 576.379 430.539 571.007 430.539ZM571.007 446.734C567.453 446.734 564.555 443.833 564.555 440.276C564.555 436.719 567.453 433.818 571.007 433.818C574.561 433.818 577.46 436.719 577.46 440.276C577.46 443.833 574.561 446.734 571.007 446.734Z" fill="#3451A3"/>
<path d="M492.61 293.982H448.08V303.063H492.61V293.982Z" fill="white"/>
<path d="M492.61 318.176H448.08V327.257H492.61V318.176Z" fill="white"/>
<path d="M492.61 342.37H448.08V351.451H492.61V342.37Z" fill="white"/>
<path d="M492.61 366.58H448.08V375.661H492.61V366.58Z" fill="white"/>
<path d="M492.61 390.774H448.08V399.855H492.61V390.774Z" fill="white"/>
<path d="M373.466 492.417H376.364V447.849H367.291V492.417H370.19V569.916L405.548 603.962V639.4C400.963 640.187 397.458 644.17 397.458 648.989C397.458 654.349 401.814 658.726 407.186 658.726C412.542 658.726 416.914 654.365 416.914 648.989C416.914 644.186 413.41 640.187 408.824 639.4V602.568L373.466 568.523V492.417V492.417ZM407.186 642.514C410.74 642.514 413.639 645.416 413.639 648.973C413.639 652.53 410.74 655.431 407.186 655.431C403.632 655.431 400.734 652.53 400.734 648.973C400.734 645.416 403.632 642.514 407.186 642.514Z" fill="#3451A3"/>
<path d="M325.104 492.417H328.002V447.849H318.929V492.417H321.828V568.523L286.47 602.568V639.4C281.884 640.187 278.379 644.17 278.379 648.989C278.379 654.349 282.736 658.726 288.107 658.726C293.463 658.726 297.835 654.365 297.835 648.989C297.835 644.186 294.331 640.187 289.745 639.4V603.962L325.104 569.916V492.417ZM288.107 642.514C291.661 642.514 294.56 645.416 294.56 648.973C294.56 652.53 291.661 655.431 288.107 655.431C284.554 655.431 281.655 652.53 281.655 648.973C281.655 645.416 284.537 642.514 288.107 642.514Z" fill="#3451A3"/>
<path d="M357.366 684.264C357.366 679.461 353.862 675.461 349.276 674.675V492.417H352.175V447.849H343.102V492.417H346.001V674.675C341.415 675.461 337.91 679.445 337.91 684.264C337.91 689.624 342.267 694 347.638 694C353.01 693.984 357.366 689.624 357.366 684.264ZM354.091 684.264C354.091 687.821 351.192 690.722 347.638 690.722C344.084 690.722 341.186 687.821 341.186 684.264C341.186 680.707 344.084 677.805 347.638 677.805C351.192 677.805 354.091 680.707 354.091 684.264Z" fill="#3451A3"/>
<path d="M450.651 570.884C450.651 565.524 446.295 561.147 440.923 561.147C438.859 561.147 436.943 561.803 435.371 562.901L397.802 526.102V492.401H400.553V447.833H391.48V492.401H394.526V527.479L433.046 565.196C431.899 566.802 431.211 568.753 431.211 570.867C431.211 576.227 435.568 580.604 440.939 580.604C446.278 580.62 450.651 576.244 450.651 570.884ZM447.376 570.884C447.376 574.441 444.477 577.342 440.923 577.342C437.369 577.342 434.47 574.441 434.47 570.884C434.47 567.327 437.369 564.426 440.923 564.426C444.477 564.442 447.376 567.327 447.376 570.884Z" fill="#3451A3"/>
<path d="M300.931 492.417H303.83V447.849H294.757V492.417H297.655V526.118L260.086 562.917C258.514 561.819 256.598 561.163 254.534 561.163C249.179 561.163 244.806 565.524 244.806 570.9C244.806 576.26 249.162 580.636 254.534 580.636C259.889 580.636 264.262 576.276 264.262 570.9C264.262 568.785 263.574 566.835 262.428 565.228L300.947 527.512V492.417H300.931ZM260.97 570.884C260.97 574.44 258.072 577.342 254.518 577.342C250.964 577.342 248.065 574.44 248.065 570.884C248.065 567.327 250.964 564.425 254.518 564.425C258.072 564.442 260.97 567.327 260.97 570.884Z" fill="#3451A3"/>
<path d="M294.759 447.86V492.429H303.831V447.86H294.759Z" fill="white"/>
<path d="M318.937 447.849V492.418H328.01V447.849H318.937Z" fill="white"/>
<path d="M343.116 447.855V492.424H352.189V447.855H343.116Z" fill="white"/>
<path d="M367.294 447.861V492.43H376.367V447.861H367.294Z" fill="white"/>
<path d="M391.473 447.85V492.419H400.546V447.85H391.473Z" fill="white"/>
<g opacity="0.15">
<path opacity="0.15" d="M503.597 159.67L534.96 191.06V241.267L503.597 272.657H453.434L422.072 241.267V191.06L453.434 159.67H503.597ZM506.316 153.114H503.597H453.434H450.715L448.799 155.032L417.437 186.421L415.521 188.339V191.06V241.267V243.988L417.437 245.906L448.799 277.296L450.715 279.214H453.434H503.597H506.316L508.232 277.296L539.594 245.906L541.51 243.988V241.267V191.06V188.339L539.594 186.421L508.232 155.032L506.316 153.114Z" fill="black"/>
</g>
<path d="M503.597 159.67H453.434L422.055 191.076V241.283L453.434 272.673H503.597L534.959 241.283V191.076L503.597 159.67Z" stroke="white" stroke-width="2" stroke-miterlimit="10"/>
<path d="M499.815 168.21H457.218L430.589 194.863V237.497L457.218 264.15H499.815L526.444 237.497V194.863L499.815 168.21Z" stroke="white" stroke-miterlimit="10"/>
<g opacity="0.15">
<path opacity="0.15" d="M518.176 174.089L509.224 165.129L427.699 246.726L436.651 255.685L518.176 174.089Z" fill="white"/>
<path opacity="0.15" d="M441.84 260.897L447.051 266.112L528.577 184.516L523.365 179.3L441.84 260.897Z" fill="white"/>
</g>
<path d="M502.469 206.148L501.124 209.514H499.815L498.917 205.556L502.469 206.148ZM475.2 208.59L475.482 208.533L476.423 209.161C474.422 210.164 472.171 210.559 469.949 210.297C467.726 210.034 465.629 209.125 463.917 207.683L465.762 208.211C468.833 209.084 472.068 209.214 475.2 208.59L475.2 208.59ZM460.82 212.129L469.141 215.99C470.256 216.503 471.154 217.395 471.674 218.508C472.194 219.62 472.303 220.882 471.982 222.067H467.278C467.068 220.212 466.311 218.46 465.104 217.035C463.897 215.61 462.295 214.576 460.501 214.064L460.82 212.129ZM463.054 222.067C462.691 220.323 461.466 218.882 459.804 218.244L460.154 216.138C461.46 216.558 462.622 217.337 463.508 218.385C464.393 219.433 464.968 220.709 465.165 222.068L463.054 222.067ZM460.877 224.16C460.631 224.856 460.147 225.443 459.511 225.816C458.875 226.19 458.128 226.328 457.4 226.203C456.673 226.08 456.014 225.702 455.537 225.139C455.061 224.575 454.799 223.861 454.797 223.123C454.795 222.385 455.054 221.67 455.528 221.104C456.002 220.538 456.66 220.158 457.387 220.031L456.698 224.16L460.877 224.16ZM459.168 222.067L459.448 220.383C460.112 220.753 460.619 221.352 460.876 222.067H459.168ZM457.932 230.436C455.318 230.436 452.903 229.04 451.596 226.775C450.289 224.51 450.289 221.718 451.596 219.452C452.903 217.187 455.318 215.791 457.932 215.791C457.985 215.791 458.037 215.798 458.091 215.799L457.74 217.903H457.74C456.429 217.954 455.185 218.496 454.256 219.424C453.327 220.351 452.781 221.594 452.727 222.907C452.673 224.219 453.115 225.503 453.965 226.504C454.814 227.504 456.01 228.148 457.312 228.305C458.615 228.464 459.929 228.125 460.993 227.356C462.057 226.588 462.793 225.447 463.054 224.16H465.165C464.913 225.901 464.043 227.492 462.715 228.645C461.387 229.797 459.69 230.433 457.932 230.436L457.932 230.436ZM491.458 214.342L487.302 224.32C487.065 224.892 486.664 225.381 486.149 225.725C485.634 226.069 485.029 226.252 484.41 226.252H472.251L473.337 224.293C474.324 222.515 474.528 220.405 473.898 218.47C473.269 216.535 471.863 214.949 470.018 214.094L460.311 209.596L453.203 206.721L454.837 206.394L460.365 207.086L460.33 207.12L461.689 208.48H461.689C463.847 210.65 466.675 212.024 469.712 212.379C472.75 212.735 475.818 212.051 478.418 210.438L479.837 209.565C480.781 208.986 481.871 208.689 482.978 208.709C484.086 208.729 485.164 209.065 486.086 209.678C487.905 210.891 489.878 211.856 491.951 212.548L493.205 212.966L491.847 213.872C491.674 213.986 491.539 214.15 491.458 214.342L491.458 214.342ZM495.404 211.501L492.612 210.57C490.713 209.936 488.907 209.052 487.241 207.941C485.986 207.106 484.519 206.648 483.012 206.621C481.505 206.594 480.023 206.999 478.737 207.787L478.424 207.983L476.948 206.998L477.366 205.743H477.367C477.484 205.395 477.773 205.133 478.13 205.051L485.251 203.468C485.806 203.345 486.384 203.375 486.924 203.554L488.889 204.21L493.748 206.641C494.256 206.896 494.824 207.007 495.391 206.963C495.957 206.919 496.501 206.721 496.964 206.391L497.767 209.928L495.404 211.501ZM501.83 230.437C499.538 230.43 497.382 229.349 496.005 227.516C494.627 225.682 494.187 223.309 494.816 221.103C495.446 218.898 497.071 217.115 499.208 216.286L499.679 218.361V218.36C498.11 219.083 497.003 220.538 496.722 222.243C496.441 223.949 497.024 225.682 498.278 226.87C499.532 228.059 501.293 228.547 502.98 228.173C504.666 227.799 506.057 226.612 506.692 225.005C507.327 223.398 507.124 221.58 506.149 220.152C505.175 218.725 503.557 217.875 501.83 217.883C501.791 217.883 501.756 217.894 501.717 217.895L501.246 215.82C501.439 215.806 501.633 215.791 501.83 215.791C504.444 215.791 506.859 217.187 508.166 219.452C509.473 221.718 509.473 224.51 508.166 226.775C506.859 229.041 504.444 230.437 501.83 230.437L501.83 230.437ZM500.811 223.346L502.849 222.881L502.198 220.013V220.013C503.181 220.133 504.049 220.712 504.538 221.575C505.027 222.437 505.078 223.48 504.676 224.387C504.275 225.293 503.468 225.955 502.501 226.171C501.534 226.387 500.523 226.132 499.774 225.483C499.025 224.833 498.628 223.868 498.704 222.879C498.779 221.891 499.319 220.997 500.158 220.469L500.811 223.346Z" fill="white"/>
<path d="M501.831 219.976C501.954 219.981 502.077 219.994 502.199 220.014L501.718 217.896C501.014 217.91 500.321 218.068 499.68 218.361L500.159 220.47C500.658 220.149 501.238 219.978 501.831 219.976L501.831 219.976Z" fill="white"/>
<path d="M500.78 213.761L500.29 211.607L499.815 209.515H498.696C498.489 209.515 498.287 209.576 498.116 209.69L497.764 209.925L498.26 212.109L498.743 214.231L499.209 216.286V216.286C499.862 216.033 500.549 215.877 501.247 215.821L500.78 213.761Z" fill="white"/>
<path d="M498.416 203.352L497.625 199.868C497.517 199.392 497.094 199.054 496.606 199.054H492.425V201.147H495.77L496.424 204.031L496.96 206.389C497.104 206.287 497.239 206.174 497.364 206.051L498.008 205.405L498.915 205.557L498.416 203.352Z" fill="white"/>
<g opacity="0.15">
<path opacity="0.15" d="M244.658 159.67L276.02 191.06V241.267L244.658 272.657H194.494L163.132 241.267V191.06L194.494 159.67H244.658ZM247.36 153.114H244.641H194.478H191.759L189.843 155.032L158.481 186.421L156.565 188.339V191.06V241.267V243.988L158.481 245.906L189.843 277.296L191.759 279.214H194.478H244.641H247.36L249.276 277.296L280.638 245.906L282.555 243.988V241.267V191.06V188.339L280.638 186.421L249.276 155.032L247.36 153.114Z" fill="black"/>
</g>
<path d="M244.658 159.67H194.478L163.116 191.076V241.283L194.478 272.673H244.658L276.02 241.283V191.076L244.658 159.67Z" stroke="white" stroke-width="2" stroke-miterlimit="10"/>
<path d="M240.858 168.21H198.278L171.648 194.863V237.497L198.278 264.15H240.858L267.504 237.497V194.863L240.858 168.21Z" stroke="white" stroke-miterlimit="10"/>
<g opacity="0.15">
<path opacity="0.15" d="M259.236 174.096L250.285 165.137L168.759 246.733L177.711 255.693L259.236 174.096Z" fill="white"/>
<path opacity="0.15" d="M182.902 260.89L188.113 266.105L269.638 184.509L264.427 179.293L182.902 260.89Z" fill="white"/>
</g>
<path d="M203.777 200.093C203.777 200.606 203.574 201.098 203.211 201.461C202.848 201.824 202.357 202.028 201.844 202.028H198.256C197.743 202.028 197.251 201.824 196.889 201.461C196.526 201.098 196.323 200.606 196.323 200.093C196.323 199.58 196.526 199.087 196.889 198.725C197.251 198.362 197.743 198.158 198.256 198.158H201.844C202.357 198.158 202.848 198.362 203.211 198.725C203.574 199.087 203.777 199.58 203.777 200.093Z" fill="white"/>
<path d="M217.203 205.909C217.427 205.909 217.647 205.857 217.847 205.757C218.047 205.656 218.221 205.51 218.355 205.331C218.488 205.151 218.578 204.943 218.617 204.722C218.656 204.502 218.643 204.275 218.578 204.061C218.49 203.765 218.308 203.505 218.06 203.321C217.813 203.136 217.512 203.036 217.203 203.036H207.273C206.689 203.037 206.128 203.269 205.715 203.683C205.51 203.888 205.267 204.051 204.999 204.162C204.732 204.272 204.445 204.329 204.156 204.329H197.389C197.078 204.33 196.776 204.431 196.527 204.617C196.278 204.803 196.095 205.063 196.005 205.361C195.941 205.576 195.929 205.802 195.967 206.023C196.006 206.243 196.095 206.452 196.227 206.632C196.36 206.812 196.532 206.96 196.731 207.062C196.929 207.165 197.149 207.22 197.373 207.224L207.202 207.334C207.526 207.337 207.847 207.276 208.147 207.154C208.446 207.032 208.718 206.851 208.947 206.621C209.403 206.165 210.021 205.909 210.666 205.909H217.203Z" fill="white"/>
<path d="M236.921 212.713C236.738 212.582 236.519 212.512 236.295 212.512H219.697C219.427 212.513 219.163 212.433 218.938 212.284C218.713 212.134 218.538 211.921 218.435 211.671C218.331 211.422 218.304 211.147 218.357 210.882C218.409 210.617 218.539 210.374 218.73 210.183C218.857 210.056 219.008 209.955 219.174 209.886C219.34 209.817 219.517 209.782 219.697 209.782H229.765C229.948 209.783 230.127 209.724 230.274 209.616C230.422 209.509 230.531 209.356 230.587 209.182C230.642 209.007 230.64 208.82 230.582 208.646C230.524 208.473 230.412 208.323 230.262 208.217C230.117 208.114 229.943 208.059 229.765 208.059H211.53C210.885 208.059 210.266 208.316 209.81 208.772C209.581 209.001 209.309 209.183 209.009 209.305C208.709 209.428 208.388 209.489 208.065 209.486L194.174 209.357C193.99 209.355 193.808 209.393 193.639 209.468C193.471 209.543 193.321 209.652 193.199 209.79C193.033 209.976 192.925 210.206 192.888 210.452C192.85 210.698 192.884 210.95 192.986 211.177C193.089 211.404 193.254 211.597 193.464 211.732C193.673 211.867 193.916 211.938 194.165 211.938H209.675C210.038 211.937 210.385 212.081 210.642 212.337C210.833 212.528 210.963 212.771 211.015 213.036C211.068 213.301 211.041 213.576 210.937 213.826C210.834 214.075 210.658 214.288 210.434 214.438C210.209 214.588 209.945 214.668 209.675 214.667H191.791C191.593 214.667 191.397 214.706 191.214 214.782C191.031 214.857 190.865 214.968 190.725 215.108C190.585 215.248 190.474 215.415 190.399 215.597C190.323 215.78 190.284 215.976 190.284 216.174C190.284 216.574 190.443 216.958 190.725 217.241C191.008 217.524 191.391 217.683 191.791 217.683H218.316C219.226 217.683 220.122 217.451 220.919 217.01L224.187 215.196C224.823 214.845 225.537 214.661 226.262 214.661H236.292C236.52 214.661 236.743 214.589 236.927 214.454C237.111 214.32 237.248 214.13 237.318 213.913C237.387 213.695 237.386 213.461 237.314 213.245C237.242 213.028 237.104 212.84 236.918 212.707L236.921 212.713Z" fill="white"/>
<path d="M240.084 227.312C240.282 227.312 240.584 227.478 240.756 227.378L253.88 219.795C255.015 219.139 254.55 217.403 253.24 217.401H226.209C225.992 217.401 225.778 217.456 225.589 217.561L220.714 220.258C220.524 220.363 220.311 220.418 220.094 220.418H188.085C187.879 220.418 187.676 220.468 187.494 220.563C187.311 220.658 187.154 220.796 187.035 220.964L184.152 225.089C183.956 225.376 183.879 225.728 183.937 226.071C183.996 226.414 184.185 226.721 184.465 226.927L184.906 227.257C184.954 227.294 184.999 227.334 185.045 227.378C185.149 227.499 185.278 227.595 185.424 227.659C185.57 227.722 185.728 227.752 185.888 227.746C186.047 227.74 186.202 227.699 186.343 227.624C186.484 227.55 186.606 227.445 186.7 227.317C188.566 225.88 190.576 225.019 192.728 225.019C194.88 225.019 196.889 225.88 198.756 227.317C199.042 227.605 199.328 227.747 199.616 227.747C199.941 227.697 200.241 227.546 200.476 227.317C202.342 225.88 204.352 225.019 206.504 225.019C208.656 225.019 210.666 225.88 212.532 227.317C212.818 227.605 213.106 227.747 213.392 227.747C213.717 227.698 214.019 227.547 214.254 227.317C216.12 225.88 218.128 225.019 220.28 225.019C222.432 225.019 224.442 225.88 226.308 227.317C226.452 227.461 226.882 227.747 227.169 227.747C227.457 227.747 227.886 227.461 228.03 227.317C229.896 225.88 231.905 225.019 234.057 225.019C236.21 225.019 238.218 225.88 240.084 227.317V227.312Z" fill="white"/>
<g opacity="0.15">
<path opacity="0.15" d="M503.451 421.245L534.813 452.635V502.842L503.451 534.232H453.287L421.925 502.842V452.635L453.287 421.245H503.451ZM506.169 414.689H503.451H453.287H450.569L448.653 416.607L417.29 447.996L415.374 449.914V452.635V502.842V505.563L417.29 507.481L448.653 538.871L450.569 540.789H453.287H503.451H506.169L508.086 538.871L539.448 507.481L541.364 505.563V502.842V452.635V449.914L539.448 447.996L508.086 416.607L506.169 414.689Z" fill="black"/>
</g>
<path d="M503.451 421.245H453.287L421.925 452.635V502.859L453.287 534.248H503.451L534.83 502.859V452.635L503.451 421.245Z" stroke="white" stroke-width="2" stroke-miterlimit="10"/>
<path d="M499.668 429.77H457.07L430.441 456.438V499.056L457.07 525.709H499.668L526.297 499.056V456.438L499.668 429.77Z" stroke="white" stroke-miterlimit="10"/>
<g opacity="0.15">
<path opacity="0.15" d="M518.033 435.669L509.082 426.71L427.556 508.306L436.508 517.266L518.033 435.669Z" fill="white"/>
<path opacity="0.15" d="M441.694 522.46L446.905 527.676L528.431 446.079L523.22 440.863L441.694 522.46Z" fill="white"/>
</g>
<path fill-rule="evenodd" clip-rule="evenodd" d="M510.003 457.572C509.757 457.863 495.238 470.403 494.828 470.776C494.417 471.149 494.741 471.108 494.822 471.481C494.904 471.855 494.079 472.605 493.914 472.849C493.882 472.908 493.867 472.975 493.871 473.042C494.501 473.944 496.51 477.113 496.01 480.243C497.375 478.601 498.303 475.872 498.382 472.748C498.39 472.96 498.399 473.172 498.399 473.387C498.399 479.043 495.916 483.628 492.852 483.628C491.111 483.628 489.559 482.145 488.542 479.826L484.367 483.174C484.833 484.096 484.906 484.982 484.51 485.204C484.088 485.441 483.301 484.834 482.746 483.847C482.384 483.197 482.219 482.55 482.266 482.113L482.083 481.66C473.707 485.923 452.83 497.449 451.775 497.895C450.495 498.434 446.655 499.429 445.871 499.429C445.087 499.429 471.127 483.833 471.746 483.336C472.005 483.13 471.827 483.063 471.449 483.063C470.919 483.063 469.992 483.193 469.318 483.25C468.869 483.286 467.658 483.378 465.718 483.626C465.012 483.697 464.304 483.727 463.595 483.717C462.893 483.717 462.127 483.7 461.396 483.674C461.459 483.764 461.514 483.858 461.562 483.957C461.845 484.538 461.838 485.124 461.549 485.266C461.259 485.408 460.795 485.051 460.513 484.47C460.379 484.21 460.309 483.922 460.306 483.63C459.035 483.569 458.018 483.495 457.833 483.461C457.523 483.404 457.502 483.271 457.388 483.271C457.294 483.285 457.205 483.322 457.129 483.378C456.716 483.627 453.537 485.907 452.505 486.156C451.658 486.359 450.201 486.761 449.773 486.761C449.678 486.761 449.633 486.741 449.655 486.696C449.779 486.448 456.19 481.755 456.551 481.225C456.886 480.732 454.467 472.163 454.776 471.483C454.957 471.082 457.084 470.36 457.597 470.36C457.666 470.36 457.706 470.373 457.706 470.404C457.706 470.652 461.133 477.741 461.67 477.907C461.685 477.909 461.7 477.909 461.715 477.907C462.462 477.907 467.71 474.623 468.234 474.337C468.677 474.097 471.175 473.208 471.661 473.213C471.764 473.213 471.791 473.273 471.661 473.347C470.575 473.977 468.138 475.594 469.128 475.443C469.148 475.443 469.748 475.451 469.792 475.434C470.232 475.279 473.393 473.027 476.799 471.338C478.843 470.325 481.106 469.523 481.529 469.45C481.857 469.394 482.189 469.365 482.521 469.364C484.329 469.364 485.895 470.154 486.524 470.567C486.592 470.584 486.662 470.59 486.732 470.585C486.914 470.585 487.199 470.57 487.528 470.546C488.195 466.273 490.324 463.142 492.854 463.142C492.901 463.142 492.941 463.153 492.989 463.154C490.571 463.369 488.585 466.479 488.042 470.5C488.992 470.414 490.08 470.271 490.323 470.149C490.388 470.116 490.742 469.866 491.292 469.47C490.712 468.374 490.267 467.056 490.413 465.696C491.469 463.431 493.435 462.737 493.632 463.257C492.386 464.328 492.308 466.584 492.541 468.564C496.694 465.534 505.271 459.167 506 458.563C506.706 457.978 508.936 457.287 509.763 457.287C510.052 457.287 510.173 457.366 510.006 457.566L510.003 457.572ZM482.424 481.713C482.448 481.682 482.477 481.654 482.51 481.632C482.903 481.411 483.613 481.931 484.156 482.8L485.294 480.138C484.854 480.287 483.798 480.792 482.32 481.541L482.424 481.713ZM475.314 476.502C475.251 476.362 474.968 474.754 474.941 474.559C474.898 474.24 474.51 474.261 474.46 474.264C474.222 474.298 472.529 475.153 472.572 475.522C472.654 476.112 472.783 476.694 472.959 477.263C472.987 477.343 473.038 477.414 473.105 477.466C473.172 477.518 473.253 477.55 473.338 477.558C473.367 477.558 473.397 477.553 473.424 477.543C473.597 477.481 474.849 477.111 475.189 476.999C475.529 476.886 475.375 476.642 475.314 476.502ZM478.289 473.131C477.869 473.131 475.497 473.544 475.63 474.264C475.716 474.74 476.039 476.368 476.148 476.54C476.162 476.56 476.219 476.57 476.313 476.57C476.978 476.57 479.3 475.847 479.463 475.615C479.649 475.35 478.496 473.252 478.36 473.143C478.338 473.133 478.314 473.129 478.29 473.131H478.289ZM484.309 470.02C483.964 469.928 483.109 469.836 482.42 469.836C482.057 469.836 481.74 469.862 481.568 469.922C481.073 470.108 480.773 470.243 480.546 470.45C479.914 471.03 479.246 471.881 479.229 472.425C479.213 472.97 480.314 475.051 480.546 475.145C480.664 475.193 480.79 475.219 480.918 475.222C481.018 475.226 481.117 475.202 481.205 475.153C481.292 475.104 481.364 475.031 481.413 474.943C481.631 474.57 485.624 471.12 485.95 471.027C486.276 470.933 484.836 470.156 484.309 470.016V470.02ZM488.286 479.192C487.512 479.49 486.724 479.747 485.924 479.962L484.679 482.457L488.401 479.473C488.363 479.379 488.322 479.288 488.286 479.192ZM489.196 478.807L489.206 478.827L489.274 478.773C489.25 478.783 489.221 478.795 489.193 478.807H489.196ZM489.375 479.16C490.305 480.834 491.595 481.873 493.037 481.873C493.139 481.869 493.24 481.86 493.341 481.846C494.449 479.882 494.19 476.309 493.923 474.285C493.918 474.348 493.923 474.399 493.914 474.466C493.864 474.821 493.408 475.402 492.819 476.013C493.187 476.784 493.251 477.55 492.966 477.741C492.729 477.892 492.328 477.604 491.979 477.077L489.375 479.16Z" fill="white"/>
<g opacity="0.15">
<path opacity="0.15" d="M244.658 421.245L276.02 452.635V502.842L244.658 534.232H194.494L163.132 502.842V452.635L194.494 421.245H244.658ZM247.36 414.689H244.641H194.478H191.759L189.843 416.607L158.481 447.996L156.565 449.914V452.635V502.842V505.563L158.481 507.481L189.843 538.871L191.759 540.789H194.478H244.641H247.36L249.276 538.871L280.638 507.481L282.555 505.563V502.842V452.635V449.914L280.638 447.996L249.276 416.607L247.36 414.689Z" fill="black"/>
</g>
<path d="M244.658 421.245H194.478L163.116 452.635V502.859L194.478 534.248H244.658L276.02 502.859V452.635L244.658 421.245Z" stroke="white" stroke-width="2" stroke-miterlimit="10"/>
<path d="M240.858 429.77H198.278L171.648 456.439V499.057L198.278 525.709H240.858L267.504 499.057V456.439L240.858 429.77Z" stroke="white" stroke-miterlimit="10"/>
<g opacity="0.15">
<path opacity="0.15" d="M259.227 435.667L250.275 426.708L168.75 508.304L177.702 517.264L259.227 435.667Z" fill="white"/>
<path opacity="0.15" d="M182.894 522.463L188.105 527.678L269.63 446.082L264.419 440.866L182.894 522.463Z" fill="white"/>
</g>
<path d="M209.316 487.507C209.316 487.507 207.352 485.869 203.1 484.396C198.85 483.085 195.411 482.758 196.229 480.466C196.229 480.466 195.411 481.776 199.5 482.593C203.426 483.576 206.371 483.903 209.642 486.196H229.436C232.871 483.903 235.652 483.576 239.743 482.593C243.832 481.774 243.015 480.466 243.015 480.466C243.669 482.758 240.07 483.249 235.816 484.559C231.563 485.869 229.925 487.507 229.925 487.507H209.316Z" fill="white"/>
<path d="M220.277 476.372H218.967C217.004 476.372 213.241 476.536 210.95 476.863C210.95 476.863 208.497 477.027 210.787 480.466C210.787 480.466 209.806 478.664 210.46 477.846C210.46 477.846 210.624 477.355 211.768 477.191C211.768 477.191 215.859 476.864 218.967 476.864H220.111C223.22 476.864 227.31 477.191 227.31 477.191C228.619 477.355 228.619 477.846 228.619 477.846C229.273 478.665 228.291 480.466 228.291 480.466C230.581 477.027 228.128 476.863 228.128 476.863C225.837 476.536 222.075 476.372 220.275 476.372H220.277Z" fill="white"/>
<path d="M243.344 484.394L233.691 486.521V489.304C233.691 489.304 233.528 491.106 234.346 490.942H242.689C242.689 490.942 243.344 490.942 243.344 489.469V484.394Z" fill="white"/>
<path d="M196.065 484.394L205.718 486.521V489.304C205.718 489.304 205.881 491.106 205.063 490.942H196.72C196.72 490.942 196.065 490.942 196.065 489.469V484.394Z" fill="white"/>
<path d="M232.383 465.565C234.924 466.694 237.002 468.658 238.274 471.132H239.25V469.331C240.723 469.331 243.5 469.331 244.158 469.823C244.812 470.149 244.649 471.459 244.649 471.459L238.596 471.951L238.759 472.278C240.145 472.576 241.511 472.958 242.85 473.424C242.522 473.916 241.377 474.57 241.214 474.734C240.366 475.081 239.49 475.355 238.596 475.553C236.633 475.881 234.506 476.208 233.524 477.518C233.524 477.518 238.432 479.483 241.868 477.518C241.868 477.518 242.522 476.208 242.032 474.734C242.359 474.407 242.686 474.243 243.013 473.916C243.831 476.535 243.013 478.01 243.013 478.01C242.195 479.483 240.56 479.483 235.815 480.793C231.071 482.103 228.781 484.887 228.781 484.887H226.817C227.963 483.576 230.744 479.974 231.067 477.354C231.067 477.354 231.722 476.044 228.287 475.717C222.456 475.389 216.612 475.389 210.782 475.717C207.347 476.044 208.001 477.354 208.001 477.354C208.328 479.974 211.273 483.576 212.25 484.887H210.288C210.288 484.887 208.163 482.103 203.417 480.793C198.508 479.483 196.872 479.483 196.054 478.01C196.054 478.01 195.4 476.535 196.218 473.916C196.381 474.243 196.709 474.407 197.036 474.734C196.545 476.208 197.199 477.518 197.199 477.518C200.635 479.483 205.707 477.518 205.707 477.518C204.561 476.208 202.435 475.881 200.472 475.553C199.624 475.379 198.8 475.104 198.017 474.734C197.691 474.57 196.545 473.916 196.381 473.424C197.669 472.971 198.98 472.589 200.308 472.278L200.472 471.951L194.419 471.459C194.419 471.459 194.255 470.149 194.909 469.823C195.564 469.331 198.345 469.331 199.817 469.331V471.132H200.962C202.21 468.699 204.222 466.743 206.688 465.565C215.186 464.092 223.875 464.092 232.373 465.565H232.383ZM219.623 474.899L220.113 471.129C223.712 471.293 230.42 471.62 234.182 471.784C231.892 473.748 230.911 475.877 230.911 475.877C231.892 474.404 234.837 472.766 236.473 471.947C235.818 468.673 232.056 466.544 232.056 466.544C224.53 464.907 214.551 464.907 207.189 466.544C207.189 466.544 203.422 468.671 202.608 471.947C204.408 472.766 207.189 474.404 208.335 475.877C208.335 475.877 207.189 473.75 204.899 471.784C208.661 471.62 215.369 471.293 218.968 471.129L219.623 474.899Z" fill="white"/>
<path d="M434.651 251.709L439.875 253.824L442.004 259.053L420.206 280.87L414.982 278.739L412.869 273.51L434.651 251.709Z" fill="#5BEDFC"/>
<path d="M439.875 253.823L442.004 259.052L420.206 280.869L414.982 278.738" fill="url(#paint0_linear_2_285)"/>
<path d="M275.989 410.526L281.213 412.641L283.326 417.87L261.528 439.67L256.304 437.556L254.191 432.327L275.989 410.526Z" fill="#5BEDFC"/>
<path d="M281.214 412.64L283.326 417.869L261.528 439.67L256.304 437.555" fill="url(#paint1_linear_2_285)"/>
<path d="M283.98 275.247L281.868 280.476L276.643 282.59L254.862 260.789L256.974 255.561L262.199 253.446L283.98 275.247Z" fill="#5BEDFC"/>
<path d="M281.868 280.476L276.643 282.59L254.862 260.789L256.974 255.561" fill="url(#paint2_linear_2_285)"/>
<path d="M439.989 433.507L437.877 438.735L432.652 440.85L410.854 419.049L412.967 413.82L418.191 411.689L439.989 433.507Z" fill="#5BEDFC"/>
<path d="M437.877 438.735L432.652 440.85L410.854 419.049L412.967 413.82" fill="url(#paint3_linear_2_285)"/>
<g opacity="0.15">
<path opacity="0.15" d="M244.658 421.245L276.02 452.635V502.842L244.658 534.232H194.494L163.132 502.842V452.635L194.494 421.245H244.658ZM247.36 414.689H244.641H194.478H191.759L189.843 416.607L158.481 447.996L156.565 449.914V452.635V502.842V505.563L158.481 507.481L189.843 538.871L191.759 540.789H194.478H244.641H247.36L249.276 538.871L280.638 507.481L282.555 505.563V502.842V452.635V449.914L280.638 447.996L249.276 416.607L247.36 414.689Z" fill="black"/>
</g>
<g opacity="0.15">
<path opacity="0.15" d="M259.227 435.667L250.275 426.708L168.75 508.304L177.702 517.264L259.227 435.667Z" fill="white"/>
<path opacity="0.15" d="M182.894 522.463L188.105 527.678L269.63 446.082L264.419 440.866L182.894 522.463Z" fill="white"/>
</g>
<g opacity="0.15">
<path opacity="0.15" d="M401.585 256.379L438.237 293.064V400.903L401.585 437.587H293.839L257.187 400.903V293.064L293.839 256.379H401.585ZM403.632 251.462H401.601H293.856H291.825L290.384 252.904L253.732 289.589L252.29 291.031V293.064V400.903V402.936L253.732 404.378L290.384 441.063L291.825 442.505H293.856H401.601H403.632L405.073 441.063L441.725 404.378L443.167 402.936V400.903V293.064V291.031L441.725 289.589L405.073 252.904L403.632 251.462Z" fill="black"/>
</g>
<path d="M398.883 262.936L431.703 295.785V398.199L398.883 431.047H296.558L263.738 398.199V295.785L296.558 262.936H398.883V262.936ZM401.585 256.379H293.84L257.187 293.064V400.903L293.84 437.587H401.585L438.237 400.903V293.064L401.585 256.379Z" fill="white"/>
<path d="M288.958 283.049C286.764 283.049 284.995 284.819 284.995 287.016C284.995 289.212 286.764 290.982 288.958 290.982C291.153 290.982 292.922 289.212 292.922 287.016C292.922 284.835 291.153 283.049 288.958 283.049Z" fill="white"/>
<path d="M406.466 283.049C404.271 283.049 402.502 284.819 402.502 287.016C402.502 289.212 404.271 290.982 406.466 290.982C408.66 290.982 410.429 289.212 410.429 287.016C410.429 284.835 408.66 283.049 406.466 283.049Z" fill="white"/>
<path d="M288.958 402.985C286.764 402.985 284.995 404.755 284.995 406.952C284.995 409.148 286.764 410.919 288.958 410.919C291.153 410.919 292.922 409.148 292.922 406.952C292.922 404.772 291.153 402.985 288.958 402.985Z" fill="white"/>
<path d="M406.466 402.985C404.271 402.985 402.502 404.755 402.502 406.952C402.502 409.148 404.271 410.919 406.466 410.919C408.66 410.919 410.429 409.148 410.429 406.952C410.429 404.772 408.66 402.985 406.466 402.985Z" fill="white"/>
<g opacity="0.25">
<path opacity="0.25" d="M415.951 276.188L400.225 260.448L260.219 400.576L275.945 416.316L415.951 276.188Z" fill="white"/>
<path opacity="0.25" d="M285.076 425.454L294.236 434.622L434.242 294.494L425.082 285.326L285.076 425.454Z" fill="white"/>
</g>
<path d="M434.651 251.709L439.875 253.824L442.004 259.053L420.206 280.87L414.982 278.739L412.869 273.51L434.651 251.709Z" fill="white"/>
<path d="M439.875 253.823L442.005 259.052L420.206 280.869L414.982 278.738" fill="url(#paint4_linear_2_285)"/>
<path d="M275.989 410.526L281.213 412.641L283.326 417.87L261.528 439.67L256.304 437.556L254.191 432.327L275.989 410.526Z" fill="white"/>
<path d="M281.214 412.64L283.326 417.869L261.528 439.67L256.304 437.555" fill="url(#paint5_linear_2_285)"/>
<path d="M283.98 275.247L281.868 280.476L276.643 282.59L254.862 260.789L256.974 255.561L262.199 253.446L283.98 275.247Z" fill="white"/>
<path d="M281.868 280.476L276.643 282.59L254.862 260.789L256.974 255.561" fill="url(#paint6_linear_2_285)"/>
<path d="M439.989 433.507L437.877 438.735L432.652 440.85L410.854 419.049L412.967 413.82L418.191 411.689L439.989 433.507Z" fill="white"/>
<path d="M437.877 438.735L432.652 440.85L410.854 419.049L412.967 413.82" fill="url(#paint7_linear_2_285)"/>
<path d="M330.082 371H320.623L299.206 338.107V371H289.747V323H299.206L320.623 355.961V323H330.082V371Z" fill="white"/>
<path d="M367.198 323.069V330.828H347.537V343.12H362.604V350.742H347.537V371H338.078V323.069H367.198Z" fill="white"/>
<path d="M404.646 323.069V330.828H392.08V371H382.621V330.828H370.054V323.069H404.646Z" fill="white"/>
<defs>
<linearGradient id="paint0_linear_2_285" x1="412.291" y1="264.077" x2="441.923" y2="258.635" gradientUnits="userSpaceOnUse">
<stop offset="0.8257" stop-color="#29AFD9"/>
<stop offset="0.9436" stop-color="#29AFD9"/>
</linearGradient>
<linearGradient id="paint1_linear_2_285" x1="253.617" y1="422.89" x2="283.249" y2="417.447" gradientUnits="userSpaceOnUse">
<stop offset="0.8257" stop-color="#29AFD9"/>
<stop offset="0.9436" stop-color="#29AFD9"/>
</linearGradient>
<linearGradient id="paint2_linear_2_285" x1="271.626" y1="252.861" x2="277.082" y2="282.515" gradientUnits="userSpaceOnUse">
<stop offset="0.8257" stop-color="#29AFD9"/>
<stop offset="0.9436" stop-color="#29AFD9"/>
</linearGradient>
<linearGradient id="paint3_linear_2_285" x1="427.628" y1="411.119" x2="433.084" y2="440.773" gradientUnits="userSpaceOnUse">
<stop offset="0.8257" stop-color="#29AFD9"/>
<stop offset="0.9436" stop-color="#29AFD9"/>
</linearGradient>
<linearGradient id="paint4_linear_2_285" x1="412.291" y1="264.077" x2="441.923" y2="258.635" gradientUnits="userSpaceOnUse">
<stop offset="0.8257" stop-color="#4D4F9F"/>
</linearGradient>
<linearGradient id="paint5_linear_2_285" x1="253.613" y1="422.888" x2="283.243" y2="417.443" gradientUnits="userSpaceOnUse">
<stop offset="0.8257" stop-color="#4D4F9F"/>
</linearGradient>
<linearGradient id="paint6_linear_2_285" x1="252.173" y1="265.808" x2="281.786" y2="260.369" gradientUnits="userSpaceOnUse">
<stop offset="0.8257" stop-color="#4D4F9F"/>
</linearGradient>
<linearGradient id="paint7_linear_2_285" x1="408.164" y1="424.068" x2="437.794" y2="418.622" gradientUnits="userSpaceOnUse">
<stop offset="0.8257" stop-color="#4D4F9F"/>
</linearGradient>
</defs>
</svg>
