<svg width="107" height="28" viewBox="0 0 107 28" fill="none" xmlns="http://www.w3.org/2000/svg">
<path d="M78.0983 6.91458C79.4375 6.55575 80.7684 6.47516 82.0911 6.6728C83.4395 6.86354 84.6723 7.29228 85.7894 7.95903C86.8997 8.60002 87.8745 9.45672 88.7139 10.5291C89.5464 11.5758 90.142 12.7687 90.5009 14.1078L90.946 15.7689L74.9145 20.0646C75.2811 20.7116 75.7369 21.2795 76.2819 21.7683C76.8527 22.2503 77.4671 22.6377 78.1252 22.9306C78.8022 23.1908 79.5066 23.3471 80.2383 23.3995C80.97 23.4518 81.7092 23.378 82.4561 23.1778C83.615 22.8673 84.5855 22.3174 85.3677 21.5282C86.1757 20.732 86.5624 20.3645 86.9251 19.246L90.2907 18.3364C90.6703 18.2338 91.0126 18.5887 90.8819 18.9595C90.3207 20.5519 89.3911 22.5295 87.7769 24.0293C86.5001 25.2156 85.0563 26.0832 83.3566 26.5387C82.0174 26.8975 80.6736 26.9815 79.3252 26.7908C78.0025 26.5931 76.7732 26.1773 75.6372 25.5432C74.5201 24.8764 73.5453 24.0197 72.7128 22.9731C71.8734 21.9007 71.2743 20.6949 70.9154 19.3557C70.5566 18.0166 70.476 16.6856 70.6737 15.363C70.8644 14.0146 71.2803 12.7852 71.9213 11.675C72.5811 10.5321 73.4343 9.54442 74.481 8.71192C75.5534 7.87253 76.7592 7.27342 78.0983 6.91458ZM86.5018 13.399C86.1352 12.752 85.6666 12.1875 85.0958 11.7056C84.5508 11.2168 83.9527 10.8388 83.3014 10.5717C82.6433 10.2788 81.9355 10.1096 81.1781 10.0641C80.4464 10.0118 79.72 10.0822 78.9989 10.2754C78.252 10.4755 77.5749 10.7812 76.9674 11.1924C76.3599 11.6036 75.8315 12.104 75.3823 12.6936C74.9518 13.2506 74.61 13.8804 74.3566 14.5831C74.129 15.279 74.0183 15.9987 74.0243 16.7424L86.5018 13.399Z" fill="white"/>
<path fill-rule="evenodd" clip-rule="evenodd" d="M12.3084 0.932295V15.532C12.3084 16.6251 12.0951 17.6516 11.6686 18.6114C11.2686 19.5712 10.7087 20.4111 9.98886 21.131C9.29565 21.8508 8.46914 22.4241 7.50931 22.8506C6.54948 23.2506 5.523 23.4505 4.42986 23.4505H0V26.8899H4.42986C5.97625 26.8899 7.44265 26.5966 8.82907 26.0101C10.2155 25.3969 11.4153 24.5837 12.4284 23.5705C13.4682 22.5307 14.2814 21.3309 14.868 19.9712C15.4812 18.5848 15.7878 17.105 15.7878 15.532V-5.41863e-08L12.3084 0.932295Z" fill="white"/>
<path d="M24.0526 6.91458C25.3917 6.55575 26.7227 6.47516 28.0453 6.6728C29.3938 6.86354 30.6265 7.29228 31.7437 7.95903C32.8539 8.60002 33.8287 9.45672 34.6681 10.5291C35.5006 11.5758 36.0963 12.7687 36.4551 14.1078L36.9002 15.7689L20.8687 20.0646C21.2353 20.7116 21.6911 21.2795 22.2361 21.7683C22.8069 22.2503 23.4213 22.6377 24.0795 22.9306C24.7565 23.1908 25.4608 23.3471 26.1925 23.3995C26.9242 23.4518 27.6634 23.378 28.4103 23.1778C29.5692 22.8673 30.5398 22.3174 31.322 21.5282C32.1299 20.732 32.5166 20.3645 32.8794 19.246L36.2449 18.3364C36.6245 18.2338 36.9669 18.5887 36.8362 18.9595C36.2749 20.5519 35.3453 22.5295 33.7311 24.0293C32.4543 25.2156 31.0105 26.0832 29.3108 26.5387C27.9716 26.8975 26.6279 26.9815 25.2794 26.7908C23.9568 26.5931 22.7274 26.1773 21.5914 25.5432C20.4743 24.8764 19.4995 24.0197 18.667 22.9731C17.8276 21.9007 17.2285 20.6949 16.8697 19.3557C16.5108 18.0166 16.4302 16.6856 16.6279 15.363C16.8186 14.0146 17.2345 12.7852 17.8755 11.675C18.5353 10.5321 19.3886 9.54442 20.4352 8.71192C21.5076 7.87253 22.7134 7.27342 24.0526 6.91458ZM32.456 13.399C32.0895 12.752 31.6208 12.1875 31.05 11.7056C30.505 11.2168 29.9069 10.8388 29.2556 10.5717C28.5975 10.2788 27.8897 10.1096 27.1323 10.0641C26.4006 10.0118 25.6742 10.0822 24.9531 10.2754C24.2063 10.4755 23.5291 10.7812 22.9216 11.1924C22.3141 11.6036 21.7857 12.104 21.3365 12.6936C20.9061 13.2506 20.5642 13.8804 20.3109 14.5831C20.0833 15.279 19.9725 15.9987 19.9785 16.7424L32.456 13.399Z" fill="white"/>
<path fill-rule="evenodd" clip-rule="evenodd" d="M55.6898 7.62376C55.6898 8.73825 56.0441 9.58677 56.7528 10.1693C57.4615 10.7266 58.3407 11.1825 59.3906 11.5371C60.4667 11.8664 61.6215 12.1704 62.8551 12.449C64.0887 12.7276 65.2304 13.1329 66.2803 13.6648C67.3564 14.1714 68.2488 14.8932 68.9574 15.8304C69.6661 16.7423 70.0204 18.0214 70.0204 19.6678C70.0204 20.8329 69.7842 21.8714 69.3118 22.7833C68.8656 23.6951 68.2619 24.4677 67.5008 25.1009C66.7396 25.7088 65.8472 26.1774 64.8236 26.5067C63.8 26.836 62.7239 27.0006 61.5953 27.0006C60.4142 27.0006 59.2725 26.836 58.1701 26.5067C57.0678 26.1521 56.0835 25.6455 55.2174 24.9869C54.3775 24.3284 53.6951 23.5178 53.1702 22.5553C52.8405 21.9508 52.604 21.2964 52.4606 20.5919L55.7541 19.7094C55.8471 20.2799 56.0225 20.7853 56.2804 21.2255C56.6216 21.7828 57.0546 22.2514 57.5796 22.6313C58.1307 22.9859 58.7475 23.2519 59.4299 23.4292C60.1386 23.6065 60.8735 23.6951 61.6347 23.6951C62.2383 23.6951 62.842 23.6192 63.4457 23.4672C64.0493 23.3152 64.5874 23.0746 65.0598 22.7453C65.5323 22.416 65.9128 22.0107 66.2016 21.5295C66.4903 21.0482 66.6346 20.4657 66.6346 19.7818C66.6346 18.9206 66.4246 18.2367 66.0047 17.7301C65.611 17.1982 65.0729 16.7676 64.3905 16.4383C63.7081 16.0837 62.9339 15.8051 62.0677 15.6025C61.2278 15.3745 60.3486 15.1465 59.4299 14.9186C58.5376 14.6653 57.6583 14.3867 56.7922 14.0827C55.9523 13.7534 55.1911 13.3228 54.5087 12.7909C53.8263 12.2337 53.2751 11.5498 52.8552 10.7393C52.4615 9.90339 52.2646 8.85223 52.2646 7.58577C52.2646 6.44595 52.4877 5.43278 52.9339 4.54626C53.4064 3.63441 54.0232 2.87453 54.7843 2.26663C55.5717 1.6334 56.4772 1.16481 57.5008 0.860863C58.5244 0.531583 59.5874 0.366943 60.6898 0.366943C61.8971 0.366943 63.052 0.544248 64.1543 0.898857C65.2567 1.22814 66.2278 1.72206 67.0677 2.38062C67.5061 2.72438 67.9016 3.10956 68.2542 3.53615L64.4052 4.56749C63.9186 4.27267 63.3756 4.0503 62.7764 3.90037C62.094 3.72306 61.3853 3.63441 60.6504 3.63441C60.0205 3.63441 59.4037 3.72306 58.8 3.90037C58.1964 4.05234 57.6583 4.29297 57.1859 4.62225C56.7397 4.9262 56.3722 5.33147 56.0835 5.83805C55.8211 6.34464 55.6898 6.93987 55.6898 7.62376Z" fill="white"/>
<path fill-rule="evenodd" clip-rule="evenodd" d="M39.9322 6.45312V3.27737L43.3573 2.35962V6.45312V9.93842V10.4772L50.177 8.64983V12.2061L43.3573 14.0335V20.2727C43.3573 20.705 43.437 21.1238 43.5963 21.5291C43.7821 21.9073 44.0211 22.245 44.3131 22.5422C44.6052 22.8394 44.9371 23.0826 45.3088 23.2717C45.7071 23.4338 46.1186 23.5149 46.5434 23.5149C47.3134 23.5149 47.9772 23.2717 48.5347 22.7854C48.7385 22.6381 49.1231 22.1363 49.0315 21.3081L52.3537 20.6207C52.9036 22.9054 51.3826 25.1288 50.7252 25.5007C49.5039 26.5003 48.1099 27.0002 46.5434 27.0002C45.6141 27.0002 44.7512 26.8246 43.9547 26.4733C43.1582 26.1221 42.4546 25.6493 41.8439 25.0549C41.2598 24.4335 40.7951 23.7175 40.45 22.907C40.1048 22.0964 39.9322 21.2184 39.9322 20.2727V14.9512L38.0338 15.4599V11.9036L39.9322 11.3949V9.93842V6.45312Z" fill="white"/>
<path fill-rule="evenodd" clip-rule="evenodd" d="M93.9389 6.45607V3.2803L97.364 2.36255V6.45607V9.94137V10.4974L104.249 8.65264V12.2089L97.364 14.0537V20.2757C97.364 20.708 97.4436 21.1267 97.6029 21.532C97.7888 21.9103 98.0278 22.248 98.3198 22.5452C98.6119 22.8424 98.9438 23.0855 99.3155 23.2747C99.7138 23.4368 100.125 23.5178 100.55 23.5178C101.32 23.5178 101.984 23.2747 102.541 22.7883C102.745 22.641 103.13 22.1393 103.038 21.311L106.36 20.6237C106.91 22.9083 105.389 25.1317 104.732 25.5036C103.511 26.5033 102.117 27.0031 100.55 27.0031C99.6208 27.0031 98.7579 26.8275 97.9614 26.4763C97.1649 26.125 96.4613 25.6522 95.8506 25.0578C95.2665 24.4364 94.8018 23.7205 94.4567 22.9099C94.1115 22.0994 93.9389 21.2213 93.9389 20.2757V14.9715L92.1057 15.4627V11.9064L93.9389 11.4152V9.94137V6.45607Z" fill="white"/>
</svg>
