<svg width="375" height="1181" viewBox="0 0 375 1181" fill="none" xmlns="http://www.w3.org/2000/svg">
<g opacity="0.5">
<path opacity="0.5" d="M-23.9626 4.88766C-23.9626 4.88766 -135.052 259.62 67.6305 304.716C204.739 335.223 309.74 318.101 374.289 370.672C428.541 414.856 425.052 523.829 407.35 578.849C382.67 655.556 287.545 734.52 269.444 813.148C231.612 977.512 534.269 1117.03 710 966.676" stroke="url(#paint0_linear_2_707)" stroke-width="0.5658" stroke-miterlimit="10"/>
<path opacity="0.5" d="M-21.3852 4.75915C-21.3852 4.75915 -130.424 255.975 66.4056 303.697C199.341 335.928 301.929 321.568 366.435 374.345C378.668 384.341 388.025 397.569 395.01 412.684C399.411 422.196 402.878 432.42 405.534 443.042C417.226 489.754 412.926 544.433 403.099 578.443C381.424 653.847 291.176 731.522 274.884 809.211C240.463 971.161 533.607 1110.17 700.707 971.189" stroke="url(#paint1_linear_2_707)" stroke-width="0.5658" stroke-miterlimit="10"/>
<path opacity="0.5" d="M-18.8144 4.63085C-18.8144 4.63085 -125.817 252.322 65.181 302.679C193.937 336.625 294.117 325.035 358.574 378.019C370.686 387.951 380.05 401.001 387.142 415.859C391.614 425.215 395.21 435.239 398.029 445.619C410.455 491.285 407.357 544.639 398.848 578.037C380.171 652.131 295.015 728.56 280.318 805.274C249.734 964.888 532.938 1103.3 691.408 975.703" stroke="url(#paint2_linear_2_707)" stroke-width="0.5658" stroke-miterlimit="10"/>
<path opacity="0.5" d="M-16.2438 4.51021C-16.2438 4.51021 -121.224 248.67 63.9562 301.668C188.518 337.323 286.306 328.509 350.72 381.7C362.718 391.575 372.082 404.44 379.281 419.042C383.831 428.241 387.548 438.059 390.524 448.197C403.676 492.816 401.789 544.853 394.59 577.639C378.918 650.43 298.739 725.577 285.751 801.344C258.785 958.566 532.268 1096.44 682.108 980.224" stroke="url(#paint3_linear_2_707)" stroke-width="0.5658" stroke-miterlimit="10"/>
<path opacity="0.5" d="M-13.6662 4.382C-13.6662 4.382 -116.638 244.989 62.7315 300.65C183.092 338 278.495 331.976 342.866 385.374C354.75 395.184 364.114 407.879 371.412 422.218C376.034 431.259 379.879 440.871 383.019 450.767C396.904 494.332 396.135 545.038 390.339 577.233C377.479 648.678 302.47 722.587 291.184 797.407C267.828 952.23 531.599 1089.57 672.809 984.738" stroke="url(#paint4_linear_2_707)" stroke-width="0.5658" stroke-miterlimit="10"/>
<path opacity="0.5" d="M-11.0953 4.26069C-11.0953 4.26069 -112.081 241.301 61.507 299.646C177.652 338.683 270.677 335.465 335.012 389.061C346.782 398.815 356.146 411.324 363.551 425.407C368.251 434.292 372.217 443.697 375.514 453.359C390.126 495.877 390.546 545.259 386.081 576.841C376.176 646.984 306.187 719.604 296.617 793.484C276.864 945.9 530.93 1082.72 663.509 989.266" stroke="url(#paint5_linear_2_707)" stroke-width="0.5658" stroke-miterlimit="10"/>
<path opacity="0.5" d="M-8.5248 4.13253C-8.5248 4.13253 -107.538 237.592 60.2822 298.628C172.212 339.338 262.865 338.932 327.158 392.735C338.807 402.425 348.178 414.756 355.69 428.582C360.461 437.318 364.555 446.51 368.016 455.929C383.361 497.393 384.963 545.465 381.837 576.435C374.887 645.275 309.918 716.599 302.057 789.547C285.893 939.543 530.267 1075.85 654.224 993.787" stroke="url(#paint6_linear_2_707)" stroke-width="0.5658" stroke-miterlimit="10"/>
<path opacity="0.5" d="M-5.94707 4.00458C-5.94707 4.00458 -103.009 233.854 59.0574 297.61C166.757 339.979 255.054 342.4 319.296 396.409C330.832 406.035 340.203 418.188 347.822 431.758C352.671 440.337 356.886 449.329 360.511 458.499C376.582 498.917 379.373 545.672 377.579 576.03C373.591 643.573 313.628 713.595 307.49 785.61C294.908 933.178 529.598 1068.98 644.924 998.301" stroke="url(#paint7_linear_2_707)" stroke-width="0.5658" stroke-miterlimit="10"/>
<path opacity="0.5" d="M-3.37677 3.88334C-3.37677 3.88334 -98.5017 230.109 57.8325 296.599C161.289 340.605 247.242 345.874 311.442 400.09C322.864 409.658 332.234 421.627 339.96 434.94C344.881 443.363 349.224 452.148 353.005 461.083C369.81 500.448 373.791 545.899 373.328 575.631C372.302 641.879 317.338 710.59 312.923 781.679C303.908 926.813 528.921 1062.12 635.625 1002.82" stroke="url(#paint8_linear_2_707)" stroke-width="0.5658" stroke-miterlimit="10"/>
<path opacity="0.5" d="M-0.799133 3.75534C-0.799133 3.75534 -94.0015 226.321 56.6148 295.581C155.827 341.203 239.324 349.477 303.595 403.764C314.881 413.297 324.273 425.058 332.099 438.116C337.098 446.381 341.562 454.961 345.507 463.654C363.038 501.971 368.208 546.106 369.084 575.225C371.028 640.184 321.055 707.579 318.37 777.742C312.909 920.426 528.266 1055.26 626.339 1007.34" stroke="url(#paint9_linear_2_707)" stroke-width="0.5658" stroke-miterlimit="10"/>
<path opacity="0.5" d="M1.77148 3.6345C1.77148 3.6345 -89.5225 222.513 55.383 294.577C150.337 341.795 231.491 352.965 295.734 407.452C306.899 416.921 316.277 428.519 324.231 441.305C329.286 449.429 333.894 457.787 337.995 466.238C356.26 503.502 362.618 546.334 364.819 574.834C369.732 638.504 324.736 704.574 323.789 773.82C321.867 914.055 527.583 1048.4 617.025 1011.86" stroke="url(#paint10_linear_2_707)" stroke-width="0.5658" stroke-miterlimit="10"/>
<path opacity="0.5" d="M4.34211 3.50629C4.34211 3.50629 -85.0578 218.661 54.1583 293.559C144.854 342.35 223.673 356.44 287.88 411.125C298.931 420.538 308.302 431.95 316.37 444.481C321.497 452.448 326.232 460.6 330.497 468.816C349.495 505.033 357.05 546.555 360.575 574.428C368.464 636.817 328.439 701.549 329.237 769.883C330.839 907.654 526.928 1041.54 607.74 1016.38" stroke="url(#paint11_linear_2_707)" stroke-width="0.5658" stroke-miterlimit="10"/>
<path opacity="0.5" d="M6.91947 3.37838C6.91947 3.37838 -80.5935 214.774 52.9403 292.541C139.371 342.877 215.861 359.914 280.025 414.799C290.956 424.147 300.334 435.389 308.508 447.656C313.713 455.467 318.548 463.426 322.999 471.386C342.652 506.592 351.474 546.768 356.323 574.022C367.19 635.13 332.12 698.523 334.669 765.946C339.782 901.254 526.258 1034.67 598.44 1020.89" stroke="url(#paint12_linear_2_707)" stroke-width="0.5658" stroke-miterlimit="10"/>
<path opacity="0.5" d="M9.49034 3.25675C9.49034 3.25675 -76.1427 210.85 51.7159 291.53C133.881 343.382 208.043 363.395 272.172 418.48C282.988 427.771 292.366 438.827 300.647 450.838C305.924 458.499 310.887 466.245 315.494 473.963C335.873 508.123 345.899 546.988 352.073 573.623C365.929 633.456 335.802 695.504 340.11 762.015C348.712 894.846 525.596 1027.8 589.148 1025.41" stroke="url(#paint13_linear_2_707)" stroke-width="0.5658" stroke-miterlimit="10"/>
<path opacity="0.5" d="M12.0678 3.12902C12.0678 3.12902 -71.6853 206.871 50.491 290.512C128.398 343.845 200.231 366.87 264.317 422.154C275.02 431.381 284.398 442.259 292.779 454.014C298.134 461.518 303.218 469.058 307.989 476.54C329.101 509.654 340.331 547.217 347.814 573.225C364.662 631.776 339.462 692.478 345.536 758.085C357.612 888.438 524.92 1020.95 579.841 1029.93" stroke="url(#paint14_linear_2_707)" stroke-width="0.5658" stroke-miterlimit="10"/>
<path opacity="0.5" d="M14.6383 3.00779C14.6383 3.00779 -67.228 202.848 49.2661 289.508C122.915 344.294 192.413 370.351 256.463 425.841C267.045 435.012 276.43 445.705 284.917 457.203C290.343 464.551 295.556 471.891 300.483 479.125C322.322 511.191 334.762 547.444 343.563 572.826C363.416 630.103 343.122 689.452 350.976 754.155C366.506 882.031 524.257 1014.09 570.549 1034.46" stroke="url(#paint15_linear_2_707)" stroke-width="0.5658" stroke-miterlimit="10"/>
<path opacity="0.5" d="M17.2091 2.8798C17.2091 2.8798 -62.7631 198.769 48.0416 288.49C117.447 344.692 184.602 373.819 248.609 429.515C259.077 438.621 268.462 449.137 277.056 460.379C282.561 467.577 287.894 474.704 292.985 481.695C315.558 512.715 329.201 547.658 339.312 572.42C362.17 628.416 346.768 686.419 356.409 750.218C375.372 875.616 523.588 1007.22 561.257 1038.98" stroke="url(#paint16_linear_2_707)" stroke-width="0.5658" stroke-miterlimit="10"/>
<path opacity="0.5" d="M19.7869 2.75142C19.7869 2.75142 -58.2628 194.632 46.8169 287.472C111.992 345.048 176.79 377.293 240.748 433.189C251.102 442.238 260.487 452.576 269.188 463.554C274.764 470.595 280.225 477.516 285.473 484.272C308.772 514.246 323.633 547.879 335.054 572.021C360.931 626.735 350.399 683.393 361.842 746.288C384.208 869.201 522.912 1000.36 551.957 1043.5" stroke="url(#paint17_linear_2_707)" stroke-width="0.5658" stroke-miterlimit="10"/>
<path opacity="0.5" d="M22.3573 2.63034C22.3573 2.63034 -53.7412 190.453 45.592 286.461C106.552 345.383 168.979 380.76 232.894 436.87C243.126 445.855 252.519 456.014 261.327 466.736C266.981 473.621 272.563 480.335 277.975 486.849C302.007 515.776 318.078 548.099 330.803 571.615C359.699 625.041 354.024 680.36 367.275 742.351C393.031 862.786 522.242 993.488 542.657 1048.01" stroke="url(#paint18_linear_2_707)" stroke-width="0.5658" stroke-miterlimit="10"/>
<path opacity="0.5" d="M24.9281 2.50267C24.9281 2.50267 -49.1839 186.21 44.3674 285.443C101.148 345.675 161.168 384.228 225.04 440.544C235.159 449.465 244.558 459.446 253.459 469.912C259.184 476.64 264.894 483.155 270.47 489.427C295.236 517.307 312.525 548.313 326.552 571.217C358.474 623.354 357.641 677.342 372.716 738.421C401.839 856.386 521.58 986.632 533.365 1052.53" stroke="url(#paint19_linear_2_707)" stroke-width="0.5658" stroke-miterlimit="10"/>
<path opacity="0.5" d="M27.5057 2.38162C27.5057 2.38162 -44.5626 181.924 43.1427 284.439C95.7715 345.945 153.356 387.702 217.186 444.232C227.191 453.089 236.59 462.892 245.597 473.102C251.401 479.673 257.233 485.981 262.965 492.011C288.464 518.845 306.97 548.534 322.294 570.825C357.249 621.667 361.237 674.33 378.149 734.498C410.612 850 520.911 979.776 524.065 1057.06" stroke="url(#paint20_linear_2_707)" stroke-width="0.5658" stroke-miterlimit="10"/>
<path opacity="0.5" d="M30.0763 2.25316C30.0763 2.25316 -39.8842 177.581 41.918 283.421C90.4239 346.18 145.552 391.169 209.332 447.905C219.223 456.705 228.622 466.324 237.736 476.277C243.611 482.699 249.571 488.793 255.467 494.581C281.706 520.362 301.424 548.74 318.05 570.412C356.039 619.944 364.833 671.304 383.589 730.554C419.377 843.599 520.249 972.905 514.773 1061.57" stroke="url(#paint21_linear_2_707)" stroke-width="0.5658" stroke-miterlimit="10"/>
<path opacity="0.5" d="M32.6539 2.12496C32.6539 2.12496 -35.1348 173.202 40.7003 282.403C85.1333 346.394 137.755 394.622 201.478 451.579C211.254 460.315 220.654 469.755 229.875 479.452C235.828 485.717 241.909 491.605 247.961 497.159C274.935 521.885 295.869 548.947 313.792 570.014C354.821 618.242 368.408 668.293 389.022 726.624C428.107 837.22 519.579 966.042 505.473 1066.09" stroke="url(#paint22_linear_2_707)" stroke-width="0.5658" stroke-miterlimit="10"/>
<path opacity="0.5" d="M35.2245 2.00429C35.2245 2.00429 -30.3069 168.795 39.4756 281.392C79.8782 346.593 129.951 398.09 193.624 455.26C203.287 463.932 212.693 473.194 222.014 482.635C228.045 488.744 234.254 494.425 240.463 499.736C268.17 523.416 290.322 549.153 309.548 569.615C353.618 616.526 371.982 665.296 394.462 722.694C436.83 830.862 518.917 959.179 496.181 1070.61" stroke="url(#paint23_linear_2_707)" stroke-width="0.5658" stroke-miterlimit="10"/>
<path opacity="0.5" d="M37.7949 1.8762C37.7949 1.8762 -25.3867 164.367 38.2435 280.374C74.6657 346.779 122.139 401.55 185.762 458.934C195.311 467.541 204.718 476.619 214.145 485.81C220.248 491.762 226.592 497.23 232.958 502.306C261.441 524.876 284.775 549.353 305.29 569.202C352.4 614.789 375.535 662.291 399.895 718.75C445.524 824.504 518.248 952.309 486.881 1075.12" stroke="url(#paint24_linear_2_707)" stroke-width="0.5658" stroke-miterlimit="10"/>
<path opacity="0.5" d="M40.3727 1.75516C40.3727 1.75516 -20.3665 159.939 37.026 279.37C69.5176 346.985 114.449 404.903 177.915 462.622C187.365 471.151 196.778 480.051 206.284 489C212.479 494.781 218.931 500.057 225.453 504.898C254.669 526.421 279.221 549.566 301.039 568.818C351.19 613.081 379.081 659.322 405.328 714.827C454.204 818.182 517.578 945.452 477.582 1079.65" stroke="url(#paint25_linear_2_707)" stroke-width="0.5658" stroke-miterlimit="10"/>
<path opacity="0.5" d="M42.9432 1.62658C42.9432 1.62658 -15.261 155.517 35.8013 278.352C64.4121 347.177 106.638 408.37 170.061 466.295C179.389 474.76 188.81 483.482 198.423 492.175C204.689 497.806 211.269 502.868 217.955 507.468C247.897 527.937 273.674 549.758 296.788 568.412C349.979 611.336 382.62 656.346 410.768 710.889C462.87 811.867 516.916 938.589 468.296 1084.16" stroke="url(#paint26_linear_2_707)" stroke-width="0.5658" stroke-miterlimit="10"/>
<path opacity="0.5" d="M45.5208 1.49855C45.5208 1.49855 -10.056 151.117 34.5763 277.334C59.3562 347.391 98.8261 411.837 162.2 469.969C171.414 478.377 180.835 486.913 190.555 495.35C196.899 500.825 203.6 505.681 210.443 510.038C241.118 529.46 268.113 549.943 292.53 568.006C348.754 609.591 386.145 653.377 416.194 706.952C471.515 805.573 516.232 931.718 458.989 1088.68" stroke="url(#paint27_linear_2_707)" stroke-width="0.5658" stroke-miterlimit="10"/>
<path opacity="0.5" d="M48.0912 1.37783C48.0912 1.37783 -4.77265 146.753 33.3514 276.323C54.336 347.64 91.0146 415.312 154.346 473.65C163.446 481.994 172.867 490.353 182.693 498.533C189.109 503.851 195.938 508.501 202.944 512.623C234.346 530.999 262.566 550.15 288.278 567.608C347.537 607.855 389.662 650.43 421.634 703.023C480.159 799.315 515.57 924.855 449.697 1093.2" stroke="url(#paint28_linear_2_707)" stroke-width="0.5658" stroke-miterlimit="10"/>
<path opacity="0.5" d="M50.6619 1.24965C50.6619 1.24965 0.589353 142.439 32.1268 275.305C49.3588 347.911 83.1962 418.779 146.492 477.324C155.478 485.611 164.899 493.784 174.832 501.708C181.326 506.87 188.276 511.32 195.446 515.193C227.582 532.515 257.047 550.293 284.035 567.202C346.383 606.011 393.194 647.497 427.075 699.085C488.796 793.071 514.908 917.992 440.404 1097.71" stroke="url(#paint29_linear_2_707)" stroke-width="0.5658" stroke-miterlimit="10"/>
<path opacity="0.5" d="M53.2398 1.12112C53.2398 1.12112 6.02978 138.181 30.9023 274.293C44.4173 348.231 75.385 422.253 138.638 481.004C147.503 489.227 156.931 497.223 166.964 504.89C173.529 509.896 180.607 514.139 187.934 517.77C220.796 534.045 251.465 550.506 279.769 566.803C345.116 604.309 396.691 644.577 432.501 695.155C497.42 786.855 514.232 911.128 431.098 1102.23" stroke="url(#paint30_linear_2_707)" stroke-width="0.5658" stroke-miterlimit="10"/>
<path opacity="0.5" d="M55.8104 1.00008C55.8104 1.00008 -59.7936 348.109 159.103 508.066C165.746 512.921 172.945 516.951 180.436 520.347C431.497 634.111 586.442 743.469 421.805 1106.75" stroke="url(#paint31_linear_2_707)" stroke-width="0.5658" stroke-miterlimit="10"/>
<path opacity="0.5" d="M59.5058 3.86235C58.2455 5.30763 40.0237 59.3741 30.5034 133.938C21.2679 206.216 19.8722 297.212 51.4239 379.742C70.6924 430.569 102.614 478.363 152.836 515.912C159.444 520.846 166.615 524.961 174.07 528.449C246.566 562.26 312.083 594.363 364.206 631.99C389.556 650.401 411.751 670.165 430.158 692.101C478.087 749.229 500.574 820.852 485.421 921.644C477.297 975.661 457.857 1037.87 426.021 1109.13" stroke="url(#paint32_linear_2_707)" stroke-width="0.5658" stroke-miterlimit="10"/>
<path opacity="0.5" d="M63.2015 6.71733C60.6879 9.60789 42.2596 63.5389 31.5786 137.191C20.9902 210.167 17.5794 301.341 47.1017 384.811C65.3377 436.386 96.4051 485.397 146.556 523.729C153.135 528.741 160.27 532.949 167.69 536.523C239.709 571.082 305.981 602.437 358.894 639.167C384.55 656.98 407.058 676.21 425.949 697.555C475.146 753.116 499.969 822.938 487.308 923.154C480.444 977.476 461.56 1040.32 430.222 1111.48" stroke="url(#paint33_linear_2_707)" stroke-width="0.5658" stroke-miterlimit="10"/>
<path opacity="0.5" d="M66.9044 9.57935C63.1305 13.9152 44.4672 67.711 32.6612 140.459C20.6985 214.14 15.1799 305.535 42.7868 389.895C59.9191 442.252 90.2104 492.438 140.29 531.568C146.841 536.658 153.933 540.952 161.324 544.618C232.859 579.917 299.843 610.61 353.59 646.372C379.523 663.629 402.38 682.29 421.756 703.029C472.22 757.025 499.406 825.074 489.21 924.684C483.62 979.327 465.277 1042.79 434.438 1113.85" stroke="url(#paint34_linear_2_707)" stroke-width="0.5658" stroke-miterlimit="10"/>
<path opacity="0.5" d="M70.6001 12.4412C65.5658 18.2152 46.6319 71.8829 33.7364 143.727C20.378 218.12 12.7589 309.735 38.4646 394.978C54.486 448.119 84.0012 499.487 134.017 539.413C140.539 544.582 147.596 548.961 154.952 552.72C226.009 588.759 293.683 618.79 348.278 653.576C374.489 670.279 397.688 688.37 417.547 708.504C469.279 760.94 498.858 827.224 491.097 926.215C486.789 981.192 468.987 1045.26 438.639 1116.22" stroke="url(#paint35_linear_2_707)" stroke-width="0.5658" stroke-miterlimit="10"/>
<path opacity="0.5" d="M74.2956 15.3036C68.001 22.5229 48.761 76.0623 34.8116 146.995C20.0362 222.107 10.3378 313.943 34.1422 400.062C49.0529 453.993 77.7136 506.642 127.736 547.245C134.216 552.507 141.251 556.964 148.578 560.815C219.151 597.602 287.524 626.971 342.965 660.782C369.447 676.929 393.002 694.45 413.346 713.987C466.345 764.856 498.345 829.395 492.991 927.753C489.979 983.072 472.697 1047.74 442.847 1118.6" stroke="url(#paint36_linear_2_707)" stroke-width="0.5658" stroke-miterlimit="10"/>
<path opacity="0.5" d="M77.9909 18.1585C70.443 26.823 50.8541 80.2415 35.8864 150.249C19.6656 226.087 7.9022 318.143 29.8196 405.131C43.6123 459.852 71.4897 513.69 121.463 555.077C127.914 560.417 134.906 564.973 142.205 568.903C212.223 606.58 281.35 635.144 337.653 667.973C364.398 683.564 388.309 700.516 409.137 719.447C463.404 768.751 497.868 831.567 494.877 929.269C493.176 984.937 476.399 1050.2 447.048 1120.96" stroke="url(#paint37_linear_2_707)" stroke-width="0.5658" stroke-miterlimit="10"/>
<path opacity="0.5" d="M81.6867 21.0204C72.8784 31.1302 52.9192 84.4206 36.9618 153.516C19.2741 230.081 5.45994 322.365 25.4975 410.214C38.1652 465.733 65.2736 520.746 115.182 562.915C121.605 568.34 128.562 572.982 135.825 576.998C205.351 615.437 275.169 643.331 332.334 675.17C359.35 690.214 383.61 706.589 404.929 724.922C460.456 772.659 497.42 833.759 496.765 930.793C496.387 986.824 480.102 1052.66 451.256 1123.33" stroke="url(#paint38_linear_2_707)" stroke-width="0.5658" stroke-miterlimit="10"/>
<path opacity="0.5" d="M85.3826 23.8826C75.314 35.4377 54.956 88.5998 38.0373 156.784C18.8614 234.082 3.00361 326.587 21.1827 415.297C32.7182 471.614 59.0575 527.801 108.916 570.754C115.304 576.258 122.232 580.985 129.459 585.093C198.494 624.286 269.003 651.526 327.029 682.375C354.309 696.878 378.932 712.669 400.728 730.397C457.523 776.568 497.014 835.974 498.659 932.323C499.62 988.718 483.812 1055.13 455.465 1125.7" stroke="url(#paint39_linear_2_707)" stroke-width="0.5658" stroke-miterlimit="10"/>
<path opacity="0.5" d="M89.078 26.745C77.749 39.7454 56.9567 92.7723 39.1123 160.053C18.4126 238.084 0.54682 330.809 16.8603 420.381C27.2636 477.495 52.8481 534.857 102.643 578.593C109.002 584.175 115.887 588.995 123.086 593.188C191.63 633.144 262.815 659.728 321.717 689.574C349.253 703.528 374.239 718.736 396.527 735.872C454.589 780.484 496.644 838.188 500.553 933.855C502.874 990.626 487.522 1057.6 459.673 1128.07" stroke="url(#paint40_linear_2_707)" stroke-width="0.5658" stroke-miterlimit="10"/>
<path opacity="0.5" d="M92.7736 29.6C80.1914 44.0457 58.929 96.9444 40.1875 163.306C17.9425 242.071 -1.92412 335.031 12.538 425.45C21.8019 483.368 46.6317 541.899 96.3624 586.418C102.693 592.078 109.543 596.983 116.706 601.269C184.766 641.972 256.62 667.916 316.398 696.764C344.197 710.178 369.547 724.801 392.311 741.333C451.641 784.378 496.295 840.395 502.433 935.371C506.128 992.52 491.218 1060.06 463.867 1130.43" stroke="url(#paint41_linear_2_707)" stroke-width="0.5658" stroke-miterlimit="10"/>
<path opacity="0.5" d="M96.4763 32.462C82.6338 48.3529 60.8801 101.109 41.2698 166.574C17.4583 246.072 -4.39494 339.26 8.22288 430.534C16.3404 489.256 40.4225 548.947 90.0963 594.256C96.391 600.002 103.213 604.992 110.347 609.371C177.915 650.829 250.447 676.132 311.1 703.969C339.156 716.849 364.868 730.881 388.125 746.808C448.721 788.287 496.003 842.631 504.341 936.902C509.432 994.428 494.942 1062.53 468.09 1132.8" stroke="url(#paint42_linear_2_707)" stroke-width="0.5658" stroke-miterlimit="10"/>
<path opacity="0.5" d="M100.172 35.3243C85.069 52.6605 62.7955 105.274 42.3449 169.842C16.9313 250.066 -6.88023 343.497 3.90046 435.617C10.8645 495.144 34.2131 556.003 83.8157 602.095C90.0819 607.919 96.8679 612.995 103.967 617.466C171.051 659.671 244.244 684.348 305.781 711.175C334.093 723.513 360.169 736.962 383.916 752.29C445.773 792.203 495.725 844.867 506.228 938.44C512.729 996.351 498.644 1065.01 472.298 1135.18" stroke="url(#paint43_linear_2_707)" stroke-width="0.5658" stroke-miterlimit="10"/>
<path opacity="0.5" d="M103.868 38.1786C87.5115 56.953 64.6898 109.425 43.4203 173.102C16.3832 254.045 -9.37936 347.725 -0.421557 440.693C5.38891 501.024 27.997 563.043 77.5426 609.926C83.7803 615.828 90.5306 620.997 97.5943 625.553C164.194 668.506 238.042 692.556 300.476 718.365C329.037 730.176 355.491 743.027 379.715 757.75C442.84 796.097 495.49 847.08 508.129 939.955C516.062 998.251 502.369 1067.46 476.513 1137.53" stroke="url(#paint44_linear_2_707)" stroke-width="0.5658" stroke-miterlimit="10"/>
<path opacity="0.5" d="M107.563 41.0411C89.9465 61.2608 66.5552 113.583 44.4954 176.363C15.8062 258.018 -11.8789 351.954 -4.74403 445.77C-0.0942303 506.913 21.7876 570.078 71.2691 617.758C77.4783 623.738 84.186 628.993 91.2212 633.642C157.337 677.342 231.84 700.78 295.164 725.563C323.982 736.841 350.798 749.101 375.514 763.226C439.906 800.013 495.283 849.316 510.023 941.487C519.408 1000.17 506.078 1069.94 480.722 1139.9" stroke="url(#paint45_linear_2_707)" stroke-width="0.5658" stroke-miterlimit="10"/>
<path opacity="0.5" d="M111.259 43.9025C92.382 65.5675 68.3996 117.726 45.5707 179.631C15.194 261.983 -14.3852 356.19 -9.05898 450.852C-5.57698 512.8 15.5928 577.126 64.9959 625.596C71.1696 631.655 77.8487 637.002 84.8484 641.736C150.48 686.177 225.638 709.01 289.852 732.761C318.919 743.511 346.113 755.173 371.306 768.693C436.965 803.914 495.098 851.53 511.91 943.01C522.762 1002.07 509.781 1072.4 484.923 1142.27" stroke="url(#paint46_linear_2_707)" stroke-width="0.5658" stroke-miterlimit="10"/>
<path opacity="0.5" d="M114.955 46.7649C94.8174 69.8751 70.2298 121.863 46.6462 182.899C14.5605 265.942 -16.9058 360.426 -13.381 455.936C-11.0668 518.688 9.38375 584.167 58.7228 633.435C64.868 639.572 71.5115 645.004 78.4827 649.839C143.63 695.02 219.436 717.254 284.548 739.973C313.863 750.204 341.427 761.253 367.112 774.176C434.039 807.83 494.963 853.759 513.812 944.548C526.152 1003.98 513.498 1074.88 489.139 1144.64" stroke="url(#paint47_linear_2_707)" stroke-width="0.5658" stroke-miterlimit="10"/>
<path opacity="0.5" d="M118.65 49.6199C97.2596 74.1754 72.0311 125.985 47.7211 186.16C13.8909 269.886 -19.4338 364.656 -17.7035 461.012C-16.5642 524.576 3.18141 591.202 52.4493 641.267C58.5659 647.482 65.1739 653 72.1094 657.927C136.779 703.848 213.234 725.499 279.235 747.164C308.8 756.868 336.742 767.319 362.903 779.643C431.098 811.732 494.835 855.966 515.698 946.064C529.541 1005.87 517.201 1077.34 493.339 1147" stroke="url(#paint48_linear_2_707)" stroke-width="0.5658" stroke-miterlimit="10"/>
<path opacity="0.5" d="M122.353 52.482C99.7021 78.4828 73.8257 130.1 48.8037 189.421C13.2075 273.809 -21.9544 368.885 -22.0185 466.089C-22.0612 530.457 -3.02056 598.236 46.1761 649.098C52.2643 655.392 58.8366 661.002 65.7366 666.015C129.922 712.677 207.025 733.743 273.923 754.362C303.738 763.553 332.049 773.393 358.702 785.111C428.157 815.633 494.742 858.159 517.593 947.588C532.959 1007.76 520.911 1079.8 497.555 1149.36" stroke="url(#paint49_linear_2_707)" stroke-width="0.5658" stroke-miterlimit="10"/>
<path opacity="0.5" d="M126.049 55.3441C102.137 82.7902 75.5915 134.215 49.8788 192.689C12.4811 277.732 -24.4966 373.121 -26.3408 471.172C-27.5656 536.345 -9.22272 605.277 39.9028 656.937C45.9624 663.309 52.4992 669.005 59.3635 674.109C123.072 721.505 200.808 742.002 268.611 761.56C298.675 770.231 327.357 779.465 354.494 790.586C425.216 819.549 494.671 860.351 519.479 949.119C536.391 1009.64 524.614 1082.27 501.756 1151.74" stroke="url(#paint50_linear_2_707)" stroke-width="0.5658" stroke-miterlimit="10"/>
<path opacity="0.5" d="M129.744 58.2062C104.572 87.0975 77.343 138.309 50.9539 195.956C11.7332 281.634 -27.0388 377.35 -30.6632 476.255C-33.0771 542.233 -15.4178 612.318 33.6222 664.776C39.6534 671.226 46.1546 677.007 52.9833 682.204C116.215 730.333 194.592 750.268 263.292 768.765C293.605 776.924 322.664 785.546 350.285 796.061C422.275 823.457 494.621 862.53 521.366 950.649C539.845 1011.52 528.316 1084.74 505.957 1154.11" stroke="url(#paint51_linear_2_707)" stroke-width="0.5658" stroke-miterlimit="10"/>
<path opacity="0.5" d="M133.44 61.0608C107.015 91.3903 79.0806 142.395 52.0292 199.217C10.9501 285.507 -29.5878 381.579 -34.9852 481.331C-38.5954 548.113 -21.6197 619.345 27.3491 672.607C33.3518 679.136 39.8173 685.002 46.6104 690.299C109.372 739.161 188.383 758.541 257.98 775.962C288.542 783.616 317.972 791.618 346.077 801.536C419.335 827.366 494.593 864.694 523.253 952.18C543.305 1013.39 532.026 1087.21 510.159 1156.48" stroke="url(#paint52_linear_2_707)" stroke-width="0.5658" stroke-miterlimit="10"/>
<path opacity="0.5" d="M137.136 63.9232C109.45 95.698 80.804 146.468 53.1046 202.478C10.1385 289.366 -32.144 385.801 -39.3003 486.415C-44.1067 553.995 -27.8075 626.38 21.083 680.446C27.0572 687.053 33.4872 693.005 40.2519 698.394C102.536 747.99 182.181 766.821 252.683 783.161C283.494 790.301 313.301 797.692 341.89 807.004C416.415 831.268 494.6 866.844 525.162 953.704C546.809 1015.25 535.75 1089.67 514.381 1158.84" stroke="url(#paint53_linear_2_707)" stroke-width="0.5658" stroke-miterlimit="10"/>
<path opacity="0.5" d="M140.831 66.7856C111.885 100.006 82.5127 150.534 54.1796 205.746C9.29803 293.203 -34.7077 390.023 -43.6227 491.499C-49.6326 559.883 -34.0027 633.421 14.8024 688.285C20.7481 694.97 27.1424 701.015 33.8714 706.49C95.6859 756.818 175.964 775.101 247.37 790.366C278.431 797.001 308.608 803.765 337.682 812.479C413.467 835.177 494.614 868.981 527.049 955.235C550.312 1017.09 539.453 1092.14 518.589 1161.22" stroke="url(#paint54_linear_2_707)" stroke-width="0.5658" stroke-miterlimit="10"/>
<path opacity="0.5" d="M144.527 69.6477C114.328 104.313 84.2075 154.592 55.2549 209.014C8.42943 297.027 -37.2781 394.252 -47.9448 496.582C-55.158 565.763 -40.1976 640.455 8.52914 696.124C14.4464 702.887 20.8052 709.017 27.4986 714.585C88.8431 765.639 169.748 783.396 242.058 797.564C273.361 803.701 303.916 809.838 333.481 817.954C410.533 839.092 494.643 871.095 528.943 956.765C553.83 1018.93 543.163 1094.62 522.798 1163.59" stroke="url(#paint55_linear_2_707)" stroke-width="0.5658" stroke-miterlimit="10"/>
<path opacity="0.5" d="M148.23 72.5027C116.771 108.613 85.9024 158.622 56.3374 212.275C7.53953 300.814 -39.8414 398.467 -52.2598 501.659C-60.6836 571.637 -46.2713 647.383 2.26318 703.955C8.16621 710.783 14.4751 717.013 21.1329 722.673C82.0075 774.454 163.546 791.683 236.754 804.762C268.305 810.401 299.238 815.911 329.28 823.422C407.6 842.994 494.686 873.195 530.837 958.289C557.369 1020.74 546.873 1097.08 527.006 1165.95" stroke="url(#paint56_linear_2_707)" stroke-width="0.5658" stroke-miterlimit="10"/>
<path opacity="0.5" d="M151.925 75.3648C119.206 112.921 87.5828 162.651 57.4125 215.543C6.6137 304.588 -42.4192 402.682 -56.5822 506.742C-66.2164 577.518 -52.4807 654.424 -4.01745 711.794C1.8571 718.7 8.14464 725.001 14.7526 730.768C75.2498 783.168 157.33 799.992 231.434 811.96C263.235 817.1 294.538 821.984 325.071 828.897C404.659 846.903 494.742 875.281 532.724 959.82C560.908 1022.54 550.575 1099.55 531.207 1168.32" stroke="url(#paint57_linear_2_707)" stroke-width="0.5658" stroke-miterlimit="10"/>
<path opacity="0.5" d="M155.62 78.2266C121.641 117.228 89.2487 166.666 58.4874 218.803C5.66636 308.325 -44.9972 406.889 -60.9048 511.818C-71.7566 583.384 -58.683 661.465 -10.291 719.625C-4.44494 726.61 1.80698 733.003 8.37936 738.862C68.3994 792.01 151.12 808.3 226.122 819.165C258.179 823.807 289.852 828.064 320.863 834.372C401.718 850.811 494.799 877.346 534.611 961.35C564.46 1024.34 554.278 1102.02 535.408 1170.7" stroke="url(#paint58_linear_2_707)" stroke-width="0.5658" stroke-miterlimit="10"/>
<path opacity="0.5" d="M159.316 81.0819C124.083 121.528 90.9151 170.668 59.5628 222.064C4.68388 312.035 -47.5818 411.097 -65.2268 516.895C-77.2963 589.251 -64.8921 668.507 -16.5713 727.457C-10.7537 734.52 -4.54453 740.999 2.00648 746.951C61.5424 800.839 144.911 816.609 220.81 826.356C253.117 830.506 285.16 834.13 316.662 839.833C398.784 854.706 494.885 879.382 536.505 962.86C568.035 1026.1 557.988 1104.47 539.617 1173.05" stroke="url(#paint59_linear_2_707)" stroke-width="0.5658" stroke-miterlimit="10"/>
<path opacity="0.5" d="M163.012 83.9438C126.519 125.828 92.5672 174.655 60.6381 225.332C3.6799 315.723 -50.3375 415.276 -69.5419 521.978C-82.943 595.103 -71.087 675.548 -22.8374 735.295C-17.0483 742.436 -10.8747 749.001 -4.35932 755.045C54.6995 809.681 138.716 824.924 215.505 833.56C248.061 837.22 280.474 840.21 312.46 845.315C395.843 858.628 494.97 881.418 538.399 964.397C571.617 1027.87 561.698 1106.95 543.832 1175.42" stroke="url(#paint60_linear_2_707)" stroke-width="0.5658" stroke-miterlimit="10"/>
<path opacity="0.5" d="M166.707 86.8057C128.954 130.136 94.2192 178.635 61.7133 228.6C2.64742 319.382 -52.8439 419.498 -73.8641 527.061C-88.433 600.984 -77.2963 682.596 -29.1108 743.134C-23.3573 750.353 -17.2121 757.01 -10.7323 763.14C47.8494 818.517 132.507 833.34 210.193 840.758C242.998 843.969 275.789 846.276 308.259 850.783C392.91 862.53 495.063 883.426 540.293 965.921C575.213 1029.61 565.415 1109.41 548.041 1177.79" stroke="url(#paint61_linear_2_707)" stroke-width="0.5658" stroke-miterlimit="10"/>
<path opacity="0.5" d="M170.403 89.6677C131.389 134.443 95.864 182.6 62.7886 231.861C1.59356 322.999 -55.3505 423.706 -78.1864 532.137C-93.9231 606.858 -83.4984 689.637 -35.3912 750.966C21.98 824.098 117.589 840.872 204.874 847.956C237.936 850.64 271.089 852.349 304.044 856.258C389.962 866.439 495.148 885.42 542.173 967.452C578.802 1031.35 569.111 1111.88 552.235 1180.16" stroke="url(#paint62_linear_2_707)" stroke-width="0.5658" stroke-miterlimit="10"/>
</g>
<defs>
<linearGradient id="paint0_linear_2_707" x1="100.52" y1="755.485" x2="418.121" y2="402.158" gradientUnits="userSpaceOnUse">
<stop stop-color="#1BA4E5" stop-opacity="0.5"/>
<stop offset="1" stop-color="#B40FE7"/>
</linearGradient>
<linearGradient id="paint1_linear_2_707" x1="104.698" y1="749.296" x2="418.567" y2="400.12" gradientUnits="userSpaceOnUse">
<stop stop-color="#1BA4E5" stop-opacity="0.5"/>
<stop offset="1" stop-color="#B40FE7"/>
</linearGradient>
<linearGradient id="paint2_linear_2_707" x1="108.914" y1="743.065" x2="419.014" y2="398.082" gradientUnits="userSpaceOnUse">
<stop stop-color="#1BA4E5" stop-opacity="0.5"/>
<stop offset="1" stop-color="#B40FE7"/>
</linearGradient>
<linearGradient id="paint3_linear_2_707" x1="113.064" y1="736.907" x2="419.46" y2="396.045" gradientUnits="userSpaceOnUse">
<stop stop-color="#1BA4E5" stop-opacity="0.5"/>
<stop offset="1" stop-color="#B40FE7"/>
</linearGradient>
<linearGradient id="paint4_linear_2_707" x1="117.176" y1="730.79" x2="419.906" y2="394.007" gradientUnits="userSpaceOnUse">
<stop stop-color="#1BA4E5" stop-opacity="0.5"/>
<stop offset="1" stop-color="#B40FE7"/>
</linearGradient>
<linearGradient id="paint5_linear_2_707" x1="121.243" y1="724.725" x2="420.353" y2="391.969" gradientUnits="userSpaceOnUse">
<stop stop-color="#1BA4E5" stop-opacity="0.5"/>
<stop offset="1" stop-color="#B40FE7"/>
</linearGradient>
<linearGradient id="paint6_linear_2_707" x1="125.255" y1="718.72" x2="420.799" y2="389.931" gradientUnits="userSpaceOnUse">
<stop stop-color="#1BA4E5" stop-opacity="0.5"/>
<stop offset="1" stop-color="#B40FE7"/>
</linearGradient>
<linearGradient id="paint7_linear_2_707" x1="129.199" y1="712.79" x2="421.245" y2="387.893" gradientUnits="userSpaceOnUse">
<stop stop-color="#1BA4E5" stop-opacity="0.5"/>
<stop offset="1" stop-color="#B40FE7"/>
</linearGradient>
<linearGradient id="paint8_linear_2_707" x1="133.059" y1="706.952" x2="421.69" y2="385.854" gradientUnits="userSpaceOnUse">
<stop stop-color="#1BA4E5" stop-opacity="0.5"/>
<stop offset="1" stop-color="#B40FE7"/>
</linearGradient>
<linearGradient id="paint9_linear_2_707" x1="136.814" y1="701.231" x2="422.134" y2="383.815" gradientUnits="userSpaceOnUse">
<stop stop-color="#1BA4E5" stop-opacity="0.5"/>
<stop offset="1" stop-color="#B40FE7"/>
</linearGradient>
<linearGradient id="paint10_linear_2_707" x1="140.434" y1="695.659" x2="422.579" y2="381.776" gradientUnits="userSpaceOnUse">
<stop stop-color="#1BA4E5" stop-opacity="0.5"/>
<stop offset="1" stop-color="#B40FE7"/>
</linearGradient>
<linearGradient id="paint11_linear_2_707" x1="143.874" y1="690.284" x2="423.022" y2="379.735" gradientUnits="userSpaceOnUse">
<stop stop-color="#1BA4E5" stop-opacity="0.5"/>
<stop offset="1" stop-color="#B40FE7"/>
</linearGradient>
<linearGradient id="paint12_linear_2_707" x1="147.069" y1="685.178" x2="423.463" y2="377.693" gradientUnits="userSpaceOnUse">
<stop stop-color="#1BA4E5" stop-opacity="0.5"/>
<stop offset="1" stop-color="#B40FE7"/>
</linearGradient>
<linearGradient id="paint13_linear_2_707" x1="149.914" y1="680.456" x2="423.901" y2="375.647" gradientUnits="userSpaceOnUse">
<stop stop-color="#1BA4E5" stop-opacity="0.5"/>
<stop offset="1" stop-color="#B40FE7"/>
</linearGradient>
<linearGradient id="paint14_linear_2_707" x1="152.218" y1="676.328" x2="424.335" y2="373.6" gradientUnits="userSpaceOnUse">
<stop stop-color="#1BA4E5" stop-opacity="0.5"/>
<stop offset="1" stop-color="#B40FE7"/>
</linearGradient>
<linearGradient id="paint15_linear_2_707" x1="153.587" y1="673.231" x2="424.766" y2="371.547" gradientUnits="userSpaceOnUse">
<stop stop-color="#1BA4E5" stop-opacity="0.5"/>
<stop offset="1" stop-color="#B40FE7"/>
</linearGradient>
<linearGradient id="paint16_linear_2_707" x1="152.724" y1="672.611" x2="425.193" y2="369.492" gradientUnits="userSpaceOnUse">
<stop stop-color="#1BA4E5" stop-opacity="0.5"/>
<stop offset="1" stop-color="#B40FE7"/>
</linearGradient>
<linearGradient id="paint17_linear_2_707" x1="145.849" y1="678.743" x2="425.652" y2="367.466" gradientUnits="userSpaceOnUse">
<stop stop-color="#1BA4E5" stop-opacity="0.5"/>
<stop offset="1" stop-color="#B40FE7"/>
</linearGradient>
<linearGradient id="paint18_linear_2_707" x1="138.706" y1="685.177" x2="426.112" y2="365.441" gradientUnits="userSpaceOnUse">
<stop stop-color="#1BA4E5" stop-opacity="0.5"/>
<stop offset="1" stop-color="#B40FE7"/>
</linearGradient>
<linearGradient id="paint19_linear_2_707" x1="131.561" y1="691.604" x2="426.568" y2="363.412" gradientUnits="userSpaceOnUse">
<stop stop-color="#1BA4E5" stop-opacity="0.5"/>
<stop offset="1" stop-color="#B40FE7"/>
</linearGradient>
<linearGradient id="paint20_linear_2_707" x1="124.412" y1="698.029" x2="427.021" y2="361.38" gradientUnits="userSpaceOnUse">
<stop stop-color="#1BA4E5" stop-opacity="0.5"/>
<stop offset="1" stop-color="#B40FE7"/>
</linearGradient>
<linearGradient id="paint21_linear_2_707" x1="117.26" y1="704.453" x2="427.471" y2="359.346" gradientUnits="userSpaceOnUse">
<stop stop-color="#1BA4E5" stop-opacity="0.5"/>
<stop offset="1" stop-color="#B40FE7"/>
</linearGradient>
<linearGradient id="paint22_linear_2_707" x1="110.104" y1="710.877" x2="427.92" y2="357.31" gradientUnits="userSpaceOnUse">
<stop stop-color="#1BA4E5" stop-opacity="0.5"/>
<stop offset="1" stop-color="#B40FE7"/>
</linearGradient>
<linearGradient id="paint23_linear_2_707" x1="102.946" y1="717.302" x2="428.368" y2="355.274" gradientUnits="userSpaceOnUse">
<stop stop-color="#1BA4E5" stop-opacity="0.5"/>
<stop offset="1" stop-color="#B40FE7"/>
</linearGradient>
<linearGradient id="paint24_linear_2_707" x1="95.7854" y1="723.728" x2="428.815" y2="353.236" gradientUnits="userSpaceOnUse">
<stop stop-color="#1BA4E5" stop-opacity="0.5"/>
<stop offset="1" stop-color="#B40FE7"/>
</linearGradient>
<linearGradient id="paint25_linear_2_707" x1="88.6239" y1="730.155" x2="429.262" y2="351.198" gradientUnits="userSpaceOnUse">
<stop stop-color="#1BA4E5" stop-opacity="0.5"/>
<stop offset="1" stop-color="#B40FE7"/>
</linearGradient>
<linearGradient id="paint26_linear_2_707" x1="81.461" y1="736.582" x2="429.709" y2="349.16" gradientUnits="userSpaceOnUse">
<stop stop-color="#1BA4E5" stop-opacity="0.5"/>
<stop offset="1" stop-color="#B40FE7"/>
</linearGradient>
<linearGradient id="paint27_linear_2_707" x1="74.2969" y1="743.01" x2="430.156" y2="347.121" gradientUnits="userSpaceOnUse">
<stop stop-color="#1BA4E5" stop-opacity="0.5"/>
<stop offset="1" stop-color="#B40FE7"/>
</linearGradient>
<linearGradient id="paint28_linear_2_707" x1="67.1322" y1="749.439" x2="430.602" y2="345.082" gradientUnits="userSpaceOnUse">
<stop stop-color="#1BA4E5" stop-opacity="0.5"/>
<stop offset="1" stop-color="#B40FE7"/>
</linearGradient>
<linearGradient id="paint29_linear_2_707" x1="59.9672" y1="755.867" x2="431.049" y2="343.043" gradientUnits="userSpaceOnUse">
<stop stop-color="#1BA4E5" stop-opacity="0.5"/>
<stop offset="1" stop-color="#B40FE7"/>
</linearGradient>
<linearGradient id="paint30_linear_2_707" x1="52.8019" y1="762.296" x2="431.496" y2="341.003" gradientUnits="userSpaceOnUse">
<stop stop-color="#1BA4E5" stop-opacity="0.5"/>
<stop offset="1" stop-color="#B40FE7"/>
</linearGradient>
<linearGradient id="paint31_linear_2_707" x1="45.6361" y1="768.726" x2="431.943" y2="338.963" gradientUnits="userSpaceOnUse">
<stop stop-color="#1BA4E5" stop-opacity="0.5"/>
<stop offset="1" stop-color="#B40FE7"/>
</linearGradient>
<linearGradient id="paint32_linear_2_707" x1="49.8159" y1="771.07" x2="435.586" y2="341.905" gradientUnits="userSpaceOnUse">
<stop stop-color="#1BA4E5" stop-opacity="0.5"/>
<stop offset="1" stop-color="#B40FE7"/>
</linearGradient>
<linearGradient id="paint33_linear_2_707" x1="54.0038" y1="773.422" x2="439.301" y2="344.783" gradientUnits="userSpaceOnUse">
<stop stop-color="#1BA4E5" stop-opacity="0.5"/>
<stop offset="1" stop-color="#B40FE7"/>
</linearGradient>
<linearGradient id="paint34_linear_2_707" x1="58.1918" y1="775.773" x2="443.017" y2="347.66" gradientUnits="userSpaceOnUse">
<stop stop-color="#1BA4E5" stop-opacity="0.5"/>
<stop offset="1" stop-color="#B40FE7"/>
</linearGradient>
<linearGradient id="paint35_linear_2_707" x1="62.3796" y1="778.125" x2="446.732" y2="350.536" gradientUnits="userSpaceOnUse">
<stop stop-color="#1BA4E5" stop-opacity="0.5"/>
<stop offset="1" stop-color="#B40FE7"/>
</linearGradient>
<linearGradient id="paint36_linear_2_707" x1="66.5673" y1="780.476" x2="450.447" y2="353.414" gradientUnits="userSpaceOnUse">
<stop stop-color="#1BA4E5" stop-opacity="0.5"/>
<stop offset="1" stop-color="#B40FE7"/>
</linearGradient>
<linearGradient id="paint37_linear_2_707" x1="70.7547" y1="782.828" x2="454.162" y2="356.291" gradientUnits="userSpaceOnUse">
<stop stop-color="#1BA4E5" stop-opacity="0.5"/>
<stop offset="1" stop-color="#B40FE7"/>
</linearGradient>
<linearGradient id="paint38_linear_2_707" x1="74.9426" y1="785.179" x2="457.878" y2="359.168" gradientUnits="userSpaceOnUse">
<stop stop-color="#1BA4E5" stop-opacity="0.5"/>
<stop offset="1" stop-color="#B40FE7"/>
</linearGradient>
<linearGradient id="paint39_linear_2_707" x1="79.1307" y1="787.531" x2="461.594" y2="362.045" gradientUnits="userSpaceOnUse">
<stop stop-color="#1BA4E5" stop-opacity="0.5"/>
<stop offset="1" stop-color="#B40FE7"/>
</linearGradient>
<linearGradient id="paint40_linear_2_707" x1="83.3183" y1="789.883" x2="465.309" y2="364.922" gradientUnits="userSpaceOnUse">
<stop stop-color="#1BA4E5" stop-opacity="0.5"/>
<stop offset="1" stop-color="#B40FE7"/>
</linearGradient>
<linearGradient id="paint41_linear_2_707" x1="87.5059" y1="792.234" x2="469.024" y2="367.799" gradientUnits="userSpaceOnUse">
<stop stop-color="#1BA4E5" stop-opacity="0.5"/>
<stop offset="1" stop-color="#B40FE7"/>
</linearGradient>
<linearGradient id="paint42_linear_2_707" x1="91.6937" y1="794.585" x2="472.739" y2="370.676" gradientUnits="userSpaceOnUse">
<stop stop-color="#1BA4E5" stop-opacity="0.5"/>
<stop offset="1" stop-color="#B40FE7"/>
</linearGradient>
<linearGradient id="paint43_linear_2_707" x1="95.8812" y1="796.937" x2="476.455" y2="373.553" gradientUnits="userSpaceOnUse">
<stop stop-color="#1BA4E5" stop-opacity="0.5"/>
<stop offset="1" stop-color="#B40FE7"/>
</linearGradient>
<linearGradient id="paint44_linear_2_707" x1="100.069" y1="799.288" x2="480.17" y2="376.43" gradientUnits="userSpaceOnUse">
<stop stop-color="#1BA4E5" stop-opacity="0.5"/>
<stop offset="1" stop-color="#B40FE7"/>
</linearGradient>
<linearGradient id="paint45_linear_2_707" x1="104.257" y1="801.64" x2="483.885" y2="379.307" gradientUnits="userSpaceOnUse">
<stop stop-color="#1BA4E5" stop-opacity="0.5"/>
<stop offset="1" stop-color="#B40FE7"/>
</linearGradient>
<linearGradient id="paint46_linear_2_707" x1="108.445" y1="803.991" x2="487.601" y2="382.184" gradientUnits="userSpaceOnUse">
<stop stop-color="#1BA4E5" stop-opacity="0.5"/>
<stop offset="1" stop-color="#B40FE7"/>
</linearGradient>
<linearGradient id="paint47_linear_2_707" x1="112.632" y1="806.343" x2="491.316" y2="385.061" gradientUnits="userSpaceOnUse">
<stop stop-color="#1BA4E5" stop-opacity="0.5"/>
<stop offset="1" stop-color="#B40FE7"/>
</linearGradient>
<linearGradient id="paint48_linear_2_707" x1="116.82" y1="808.694" x2="495.031" y2="387.938" gradientUnits="userSpaceOnUse">
<stop stop-color="#1BA4E5" stop-opacity="0.5"/>
<stop offset="1" stop-color="#B40FE7"/>
</linearGradient>
<linearGradient id="paint49_linear_2_707" x1="121.008" y1="811.046" x2="498.747" y2="390.815" gradientUnits="userSpaceOnUse">
<stop stop-color="#1BA4E5" stop-opacity="0.5"/>
<stop offset="1" stop-color="#B40FE7"/>
</linearGradient>
<linearGradient id="paint50_linear_2_707" x1="125.195" y1="813.397" x2="502.462" y2="393.692" gradientUnits="userSpaceOnUse">
<stop stop-color="#1BA4E5" stop-opacity="0.5"/>
<stop offset="1" stop-color="#B40FE7"/>
</linearGradient>
<linearGradient id="paint51_linear_2_707" x1="129.383" y1="815.748" x2="506.177" y2="396.569" gradientUnits="userSpaceOnUse">
<stop stop-color="#1BA4E5" stop-opacity="0.5"/>
<stop offset="1" stop-color="#B40FE7"/>
</linearGradient>
<linearGradient id="paint52_linear_2_707" x1="133.571" y1="818.1" x2="509.893" y2="399.446" gradientUnits="userSpaceOnUse">
<stop stop-color="#1BA4E5" stop-opacity="0.5"/>
<stop offset="1" stop-color="#B40FE7"/>
</linearGradient>
<linearGradient id="paint53_linear_2_707" x1="137.758" y1="820.452" x2="513.608" y2="402.323" gradientUnits="userSpaceOnUse">
<stop stop-color="#1BA4E5" stop-opacity="0.5"/>
<stop offset="1" stop-color="#B40FE7"/>
</linearGradient>
<linearGradient id="paint54_linear_2_707" x1="141.946" y1="822.803" x2="517.323" y2="405.2" gradientUnits="userSpaceOnUse">
<stop stop-color="#1BA4E5" stop-opacity="0.5"/>
<stop offset="1" stop-color="#B40FE7"/>
</linearGradient>
<linearGradient id="paint55_linear_2_707" x1="146.134" y1="825.155" x2="521.038" y2="408.077" gradientUnits="userSpaceOnUse">
<stop stop-color="#1BA4E5" stop-opacity="0.5"/>
<stop offset="1" stop-color="#B40FE7"/>
</linearGradient>
<linearGradient id="paint56_linear_2_707" x1="144.509" y1="833.971" x2="524.753" y2="410.953" gradientUnits="userSpaceOnUse">
<stop stop-color="#1BA4E5" stop-opacity="0.5"/>
<stop offset="1" stop-color="#B40FE7"/>
</linearGradient>
<linearGradient id="paint57_linear_2_707" x1="141.151" y1="844.714" x2="528.467" y2="413.83" gradientUnits="userSpaceOnUse">
<stop stop-color="#1BA4E5" stop-opacity="0.5"/>
<stop offset="1" stop-color="#B40FE7"/>
</linearGradient>
<linearGradient id="paint58_linear_2_707" x1="137.776" y1="855.476" x2="532.181" y2="416.705" gradientUnits="userSpaceOnUse">
<stop stop-color="#1BA4E5" stop-opacity="0.5"/>
<stop offset="1" stop-color="#B40FE7"/>
</linearGradient>
<linearGradient id="paint59_linear_2_707" x1="134.389" y1="866.252" x2="535.895" y2="419.581" gradientUnits="userSpaceOnUse">
<stop stop-color="#1BA4E5" stop-opacity="0.5"/>
<stop offset="1" stop-color="#B40FE7"/>
</linearGradient>
<linearGradient id="paint60_linear_2_707" x1="130.989" y1="877.043" x2="539.609" y2="422.457" gradientUnits="userSpaceOnUse">
<stop stop-color="#1BA4E5" stop-opacity="0.5"/>
<stop offset="1" stop-color="#B40FE7"/>
</linearGradient>
<linearGradient id="paint61_linear_2_707" x1="127.572" y1="887.851" x2="543.323" y2="425.333" gradientUnits="userSpaceOnUse">
<stop stop-color="#1BA4E5" stop-opacity="0.5"/>
<stop offset="1" stop-color="#B40FE7"/>
</linearGradient>
<linearGradient id="paint62_linear_2_707" x1="124.142" y1="898.675" x2="547.037" y2="428.209" gradientUnits="userSpaceOnUse">
<stop stop-color="#1BA4E5" stop-opacity="0.5"/>
<stop offset="1" stop-color="#B40FE7"/>
</linearGradient>
</defs>
</svg>
