<svg width="1920" height="1251" viewBox="0 0 1920 1251" fill="none" xmlns="http://www.w3.org/2000/svg">
<g opacity="0.5">
<path opacity="0.5" d="M2002.78 105.493C2002.78 105.493 1566.69 -84.6866 1489.49 262.296C1437.26 497.019 1466.57 676.776 1376.57 787.28C1300.93 880.157 1114.38 874.184 1020.19 843.879C888.867 801.628 753.686 638.779 619.077 607.791C337.695 543.025 98.8388 1061.16 356.246 1362" stroke="url(#paint0_linear_2_217)" stroke-width="0.5658" stroke-miterlimit="10"/>
<path opacity="0.5" d="M2003 109.906C2003 109.906 1572.93 -76.763 1491.23 260.199C1436.05 487.778 1460.64 663.403 1370.29 773.834C1353.17 794.777 1330.53 810.795 1304.65 822.753C1288.37 830.287 1270.86 836.224 1252.68 840.771C1172.71 860.787 1079.1 853.424 1020.88 836.601C891.793 799.494 758.817 644.996 625.817 617.104C348.567 558.177 110.588 1060.02 348.518 1346.09" stroke="url(#paint1_linear_2_217)" stroke-width="0.5658" stroke-miterlimit="10"/>
<path opacity="0.5" d="M2003.22 114.306C2003.22 114.306 1579.18 -68.876 1492.97 258.102C1434.86 478.526 1454.7 650.03 1364 760.376C1346.99 781.111 1324.65 797.142 1299.21 809.283C1283.2 816.939 1266.04 823.095 1248.27 827.922C1170.09 849.194 1078.75 843.891 1021.58 829.324C894.73 797.349 763.887 651.566 632.557 626.406C359.305 574.049 122.35 1058.88 340.791 1330.17" stroke="url(#paint2_linear_2_217)" stroke-width="0.5658" stroke-miterlimit="10"/>
<path opacity="0.5" d="M2003.42 118.707C2003.42 118.707 1585.44 -61.0132 1494.7 256.006C1433.67 469.249 1448.75 636.658 1357.69 746.93C1340.79 767.471 1318.76 783.501 1293.77 795.825C1278.02 803.615 1261.21 809.978 1243.85 815.074C1167.47 837.589 1078.38 834.359 1022.26 822.034C897.643 795.204 768.994 657.942 639.285 635.707C370.128 589.542 134.1 1057.73 333.051 1314.25" stroke="url(#paint3_linear_2_217)" stroke-width="0.5658" stroke-miterlimit="10"/>
<path opacity="0.5" d="M2003.64 123.12C2003.64 123.12 1591.74 -53.1626 1496.45 253.909C1432.51 459.96 1442.82 623.285 1351.41 733.484C1334.61 753.83 1312.88 769.86 1288.33 782.355C1272.85 790.267 1256.4 796.849 1239.46 802.225C1164.87 825.996 1078.07 824.68 1022.95 814.757C900.641 792.741 774.113 664.329 646.025 645.008C380.976 605.024 145.849 1056.59 325.324 1298.33" stroke="url(#paint4_linear_2_217)" stroke-width="0.5658" stroke-miterlimit="10"/>
<path opacity="0.5" d="M2003.85 127.521C2003.85 127.521 1598.05 -45.3609 1498.17 251.812C1431.34 450.647 1436.85 609.9 1345.09 720.039C1328.39 740.189 1306.98 756.219 1282.87 768.897C1267.66 776.943 1251.56 783.733 1235.02 789.377C1162.23 814.391 1077.69 815.11 1023.62 807.467C903.542 790.51 779.22 670.693 652.741 654.309C391.812 620.493 157.587 1055.44 317.572 1282.41" stroke="url(#paint5_linear_2_217)" stroke-width="0.5658" stroke-miterlimit="10"/>
<path opacity="0.5" d="M2004.07 131.922C2004.07 131.922 1604.4 -37.5835 1499.91 249.716C1430.22 441.334 1430.91 596.527 1338.8 706.593C1322.21 726.536 1301.1 742.578 1277.43 755.439C1262.48 763.607 1246.74 770.616 1230.62 776.54C1159.63 802.81 1077.34 805.553 1024.32 800.202C906.467 788.304 784.364 677.08 659.481 663.622C402.696 635.951 169.336 1054.31 309.832 1266.51" stroke="url(#paint6_linear_2_217)" stroke-width="0.5658" stroke-miterlimit="10"/>
<path opacity="0.5" d="M2004.29 136.334C2004.29 136.334 1610.8 -29.8306 1501.65 247.619C1429.12 431.996 1424.97 583.155 1332.51 693.135C1316.03 712.883 1295.23 728.925 1272 741.969C1257.31 750.27 1241.92 757.487 1226.22 763.692C1157.02 791.205 1076.98 795.984 1025.01 792.912C909.38 786.085 789.507 683.431 666.222 672.923C413.592 651.383 181.098 1053.16 302.105 1250.59" stroke="url(#paint7_linear_2_217)" stroke-width="0.5658" stroke-miterlimit="10"/>
<path opacity="0.5" d="M2004.5 140.735C2004.5 140.735 1617.21 -22.1141 1503.38 245.522C1428.05 422.634 1419.03 569.782 1326.21 679.689C1309.83 699.242 1289.34 715.285 1266.55 728.511C1252.13 736.934 1237.09 744.37 1221.79 750.843C1154.4 779.612 1076.59 786.427 1025.69 785.634C912.281 783.879 794.651 689.783 672.95 682.225C424.489 666.792 192.848 1052 294.365 1234.67" stroke="url(#paint8_linear_2_217)" stroke-width="0.5658" stroke-miterlimit="10"/>
<path opacity="0.5" d="M2004.72 145.148C2004.72 145.148 1623.69 -14.4099 1505.13 243.438C1427.02 413.284 1412.86 556.226 1319.92 666.255C1303.6 685.577 1283.47 701.656 1261.11 715.053C1246.96 723.61 1232.28 731.254 1217.39 738.007C1151.8 768.019 1076.24 776.869 1026.39 778.369C915.182 781.697 799.807 696.146 679.69 691.55C435.422 682.2 204.598 1050.88 286.638 1218.78" stroke="url(#paint9_linear_2_217)" stroke-width="0.5658" stroke-miterlimit="10"/>
<path opacity="0.5" d="M2004.92 149.548C2004.92 149.548 1630.22 -6.74231 1506.84 241.329C1426.01 403.885 1406.89 542.817 1313.61 652.797C1297.4 671.912 1277.54 687.966 1255.65 701.583C1241.75 710.238 1227.44 718.125 1212.97 725.146C1149.18 756.414 1075.85 767.3 1027.06 771.067C918.059 779.478 804.95 702.448 686.406 700.827C446.33 697.535 216.335 1049.71 278.886 1202.83" stroke="url(#paint10_linear_2_217)" stroke-width="0.5658" stroke-miterlimit="10"/>
<path opacity="0.5" d="M2005.14 153.949C2005.14 153.949 1636.81 0.900866 1508.59 239.232C1425.06 394.499 1400.94 529.432 1307.32 639.352C1291.21 658.271 1271.67 674.313 1250.22 688.125C1236.58 696.902 1222.62 705.008 1208.56 712.31C1146.55 744.834 1075.47 757.767 1027.75 763.802C920.947 777.308 810.13 708.787 693.146 710.152C457.288 712.895 228.084 1048.59 271.158 1186.94" stroke="url(#paint11_linear_2_217)" stroke-width="0.5658" stroke-miterlimit="10"/>
<path opacity="0.5" d="M2005.36 158.362C2005.36 158.362 1643.46 8.54415 1510.33 237.147C1424.16 385.112 1394.99 516.06 1301.03 625.906C1285.03 644.618 1265.78 660.672 1244.78 674.667C1231.41 683.578 1217.78 691.855 1204.16 699.474C1143.89 733.119 1075.11 748.222 1028.45 756.524C923.836 775.126 815.31 715.089 699.886 719.453C468.245 728.206 239.846 1047.44 263.431 1171.02" stroke="url(#paint12_linear_2_217)" stroke-width="0.5658" stroke-miterlimit="10"/>
<path opacity="0.5" d="M2005.57 162.763C2005.57 162.763 1650.18 16.1632 1512.06 235.051C1423.29 375.714 1389.03 502.675 1294.73 612.46C1278.82 630.977 1259.9 647.031 1239.33 661.209C1226.22 670.242 1212.96 678.738 1199.75 686.625C1141.27 721.514 1074.73 738.678 1029.13 749.246C926.7 772.969 820.478 721.392 706.614 728.767C479.215 743.493 251.596 1046.31 255.691 1155.11" stroke="url(#paint13_linear_2_217)" stroke-width="0.5658" stroke-miterlimit="10"/>
<path opacity="0.5" d="M2005.79 167.176C2005.79 167.176 1656.99 23.7943 1513.8 232.954C1422.5 366.327 1383.08 489.302 1288.44 599.014C1272.64 617.336 1254.02 633.391 1233.9 647.739C1221.05 656.906 1208.14 665.609 1195.33 673.777C1138.64 709.921 1074.34 729.145 1029.81 741.957C929.577 770.799 825.658 727.658 713.342 738.056C490.184 758.73 263.333 1045.15 247.952 1139.17" stroke="url(#paint14_linear_2_217)" stroke-width="0.5658" stroke-miterlimit="10"/>
<path opacity="0.5" d="M2006 171.576C2006 171.576 1663.88 31.4253 1515.52 230.857C1421.73 356.941 1377.12 475.917 1282.13 585.568C1266.43 603.683 1248.12 619.75 1228.44 634.281C1215.86 643.569 1203.29 652.493 1190.91 660.928C1136.01 698.316 1073.95 719.612 1030.5 734.679C932.441 768.665 830.838 733.923 720.07 747.369C501.154 773.956 275.083 1044.02 240.2 1123.27" stroke="url(#paint15_linear_2_217)" stroke-width="0.5658" stroke-miterlimit="10"/>
<path opacity="0.5" d="M2006.22 175.977C2006.22 175.977 1670.86 39.0685 1517.27 228.761C1421.05 347.579 1371.19 462.545 1275.84 572.123C1260.25 590.042 1242.25 606.109 1223 620.822C1210.68 630.245 1198.48 639.376 1186.51 648.092C1133.4 686.735 1073.58 710.091 1031.19 727.402C935.33 766.532 836.031 740.165 726.81 756.67C512.136 789.133 286.833 1042.87 232.472 1107.36" stroke="url(#paint16_linear_2_217)" stroke-width="0.5658" stroke-miterlimit="10"/>
<path opacity="0.5" d="M2006.44 180.39C2006.44 180.39 1677.95 46.773 1519.01 226.664C1420.44 338.241 1365.24 449.172 1269.55 558.665C1254.06 576.389 1236.36 592.456 1217.56 607.352C1205.51 616.897 1193.66 626.247 1182.1 635.231C1130.78 675.118 1073.2 700.559 1031.87 720.112C938.206 764.411 841.211 746.382 733.538 765.972C523.117 804.261 298.582 1041.71 224.733 1091.44" stroke="url(#paint17_linear_2_217)" stroke-width="0.5658" stroke-miterlimit="10"/>
<path opacity="0.5" d="M2006.64 184.79C2006.64 184.79 1685.1 54.5135 1520.74 224.567C1419.87 328.928 1359.3 435.799 1263.25 545.219C1247.87 562.736 1230.47 578.815 1212.12 593.894C1200.33 603.573 1188.84 613.13 1177.68 622.395C1128.16 663.537 1072.83 691.05 1032.57 712.834C941.107 762.302 846.403 752.587 740.278 775.273C534.099 819.365 310.344 1040.57 217.005 1075.52" stroke="url(#paint18_linear_2_217)" stroke-width="0.5658" stroke-miterlimit="10"/>
<path opacity="0.5" d="M2006.86 189.191C2006.86 189.191 1692.36 62.315 1522.48 222.47C1419.37 319.675 1353.37 422.426 1256.96 531.773C1241.69 549.095 1224.6 565.186 1206.68 580.424C1195.16 590.225 1184.01 600.001 1173.27 609.546C1125.54 651.944 1072.46 681.542 1033.25 705.556C943.995 760.205 851.571 758.779 747.006 784.586C545.056 834.444 322.082 1039.43 209.266 1059.61" stroke="url(#paint19_linear_2_217)" stroke-width="0.5658" stroke-miterlimit="10"/>
<path opacity="0.5" d="M2007.07 193.604C2007.07 193.604 1699.7 70.2268 1524.2 220.374C1418.91 310.472 1347.42 409.054 1250.64 518.327C1235.48 535.454 1218.7 551.546 1201.22 566.966C1189.97 576.901 1179.17 586.885 1168.85 596.698C1122.91 640.351 1072.08 672.034 1033.92 698.267C946.884 758.109 856.727 764.935 753.722 793.887C555.99 849.462 333.819 1038.29 201.514 1043.69" stroke="url(#paint20_linear_2_217)" stroke-width="0.5658" stroke-miterlimit="10"/>
<path opacity="0.5" d="M2007.29 198.005C2007.29 198.005 1707.14 78.2358 1525.94 218.277C1418.5 301.317 1341.48 395.693 1244.35 504.881C1229.29 521.813 1212.82 537.905 1195.78 553.508C1184.79 563.565 1174.36 573.768 1164.45 583.862C1120.31 628.783 1071.73 662.537 1034.63 691.002C949.834 756.036 861.907 771.091 760.475 803.2C566.947 864.468 345.581 1037.16 193.799 1027.78" stroke="url(#paint21_linear_2_217)" stroke-width="0.5658" stroke-miterlimit="10"/>
<path opacity="0.5" d="M2007.51 202.417C2007.51 202.417 1714.63 86.3666 1527.69 216.192C1418.14 292.259 1335.57 382.345 1238.07 491.435C1223.11 508.172 1206.95 524.264 1190.35 540.05C1179.62 550.241 1169.54 560.651 1160.04 571.013C1117.7 617.19 1071.38 653.029 1035.31 683.712C952.747 753.952 867.062 777.211 767.202 812.501C577.868 879.413 357.33 1036.01 186.059 1011.86" stroke="url(#paint22_linear_2_217)" stroke-width="0.5658" stroke-miterlimit="10"/>
<path opacity="0.5" d="M2007.72 206.818C2007.72 206.818 1722.18 94.6315 1529.42 214.096C1417.8 283.263 1329.64 368.985 1231.76 477.99C1216.92 494.532 1201.06 510.635 1184.9 526.592C1174.44 536.917 1164.72 547.547 1155.62 558.177C1115.08 605.609 1071.02 643.533 1035.99 676.446C955.684 751.892 872.194 783.33 773.931 821.815C588.752 894.347 369.08 1034.88 178.319 995.952" stroke="url(#paint23_linear_2_217)" stroke-width="0.5658" stroke-miterlimit="10"/>
<path opacity="0.5" d="M2007.93 211.219C2007.93 211.219 1729.76 103.055 1531.16 211.987C1417.48 274.34 1323.71 355.612 1225.47 464.532C1210.74 480.879 1195.2 496.982 1179.46 513.122C1169.27 523.569 1159.91 534.43 1151.22 545.329C1112.59 594.089 1070.68 634.037 1036.7 669.157C958.658 749.807 877.337 789.413 780.683 831.116C599.636 909.231 380.842 1033.73 170.592 980.032" stroke="url(#paint24_linear_2_217)" stroke-width="0.5658" stroke-miterlimit="10"/>
<path opacity="0.5" d="M2008.14 215.631C2008.14 215.631 1737.34 111.649 1532.88 209.902C1417.13 265.526 1317.97 342.446 1219.16 451.098C1204.56 467.274 1189.32 483.39 1174 499.664C1164.11 510.269 1155.07 521.313 1146.79 532.48C1109.94 582.496 1070.32 624.528 1037.36 661.879C961.583 747.735 882.42 795.484 787.399 840.417C610.459 924.091 392.579 1032.58 162.84 964.111" stroke="url(#paint25_linear_2_217)" stroke-width="0.5658" stroke-miterlimit="10"/>
<path opacity="0.5" d="M2008.36 220.032C2008.36 220.032 1744.91 120.39 1534.62 207.806C1416.8 256.786 1312.04 329.074 1212.87 437.652C1198.38 453.621 1183.45 469.749 1168.57 486.206C1158.93 496.933 1150.26 508.197 1142.39 519.644C1107.34 570.904 1069.99 615.032 1038.05 654.602C964.57 745.663 887.515 801.543 794.139 849.73C621.271 938.926 404.329 1031.45 155.113 948.215" stroke="url(#paint26_linear_2_217)" stroke-width="0.5658" stroke-miterlimit="10"/>
<path opacity="0.5" d="M2008.58 224.445C2008.58 224.445 1752.44 129.3 1536.36 205.709C1416.43 248.131 1306.1 315.701 1206.58 424.194C1192.19 439.968 1177.57 456.096 1163.13 472.736C1153.76 483.597 1145.45 495.068 1137.99 506.783C1104.74 559.298 1069.67 605.511 1038.75 647.312C967.556 743.566 892.597 807.577 800.879 859.019C632.045 953.725 416.091 1030.28 147.385 932.283" stroke="url(#paint27_linear_2_217)" stroke-width="0.5658" stroke-miterlimit="10"/>
<path opacity="0.5" d="M2008.79 228.846C2008.79 228.846 1759.91 138.346 1538.1 203.612C1416 239.537 1300.15 302.329 1200.28 410.748C1186 426.327 1171.69 442.455 1157.68 459.278C1148.58 470.261 1140.62 481.951 1133.56 493.947C1102.1 547.705 1069.32 596.015 1039.43 640.034C970.53 741.481 897.643 813.599 807.607 868.333C642.759 968.524 427.841 1029.15 139.646 916.374" stroke="url(#paint28_linear_2_217)" stroke-width="0.5658" stroke-miterlimit="10"/>
<path opacity="0.5" d="M2009.01 233.247C2009.01 233.247 1767.3 147.525 1539.84 201.515C1415.54 231.016 1294.22 288.944 1193.99 397.302C1179.8 412.687 1165.81 428.814 1152.25 445.82C1143.41 456.937 1135.79 468.835 1129.16 481.11C1099.51 536.125 1069.07 586.568 1040.13 632.769C973.687 739.506 902.665 819.645 814.348 877.646C653.448 983.311 439.59 1028.01 131.918 900.466" stroke="url(#paint29_linear_2_217)" stroke-width="0.5658" stroke-miterlimit="10"/>
<path opacity="0.5" d="M2009.23 237.659C2009.23 237.659 1774.59 156.838 1541.57 199.419C1414.99 222.556 1288.27 275.571 1187.69 383.857C1173.61 399.033 1159.93 415.173 1146.8 432.349C1138.23 443.589 1130.97 455.706 1124.75 468.25C1096.89 524.508 1068.71 577.011 1040.81 625.467C976.6 737.337 907.662 825.63 821.075 886.935C664.089 998.073 451.34 1026.85 124.178 884.533" stroke="url(#paint30_linear_2_217)" stroke-width="0.5658" stroke-miterlimit="10"/>
<path opacity="0.5" d="M2009.43 242.06C2009.43 242.06 1415.2 44.152 1141.36 418.892C1133.05 430.265 1126.15 442.589 1120.34 455.414C925.579 885.216 738.365 1150.48 116.439 868.625" stroke="url(#paint31_linear_2_217)" stroke-width="0.5658" stroke-miterlimit="10"/>
<path opacity="0.5" d="M2004.53 248.387C2002.06 246.229 1909.5 215.034 1781.85 198.736C1658.11 182.925 1502.33 180.536 1361.05 234.551C1274.03 267.537 1192.21 322.186 1127.93 408.164C1119.48 419.476 1112.44 431.752 1106.47 444.515C1048.58 568.624 993.627 680.786 929.211 770.018C897.692 813.416 863.857 851.413 826.304 882.924C728.504 964.977 605.889 1003.47 433.337 977.533C340.864 963.624 234.362 930.344 112.368 875.842" stroke="url(#paint32_linear_2_217)" stroke-width="0.5658" stroke-miterlimit="10"/>
<path opacity="0.5" d="M1999.65 254.714C1994.7 250.41 1902.37 218.862 1776.28 200.577C1651.35 182.45 1495.27 176.611 1352.37 227.152C1264.08 258.371 1180.17 311.557 1114.55 397.412C1105.97 408.676 1098.76 420.891 1092.65 433.593C1033.48 556.885 979.805 670.339 916.925 760.925C886.43 804.846 853.509 843.379 816.968 875.72C721.85 959.942 602.318 1002.44 430.754 980.763C337.756 969.012 230.169 936.683 108.346 883.034" stroke="url(#paint33_linear_2_217)" stroke-width="0.5658" stroke-miterlimit="10"/>
<path opacity="0.5" d="M1994.75 261.053C1987.32 254.592 1895.23 222.641 1770.69 202.43C1644.55 181.95 1488.09 172.503 1343.67 219.764C1254.03 249.094 1168.12 300.951 1101.13 386.685C1092.41 397.9 1085.06 410.041 1078.79 422.695C1018.36 545.158 965.813 659.831 904.591 751.843C875.046 796.24 843.1 835.37 807.595 868.54C715.158 954.932 598.661 1001.47 428.133 984.018C334.587 974.449 225.94 943.047 104.287 890.251" stroke="url(#paint34_linear_2_217)" stroke-width="0.5658" stroke-miterlimit="10"/>
<path opacity="0.5" d="M1989.85 267.379C1979.96 258.761 1888.09 226.347 1765.09 204.27C1637.74 181.402 1480.9 168.358 1334.96 212.365C1243.99 239.793 1156.05 290.321 1087.7 375.945C1078.85 387.112 1071.35 399.192 1064.92 411.785C1003.22 533.431 951.809 649.287 892.256 742.749C863.662 787.621 832.691 827.337 798.222 861.336C708.455 949.898 594.98 1000.54 425.513 987.248C331.394 979.873 221.71 949.398 100.228 897.443" stroke="url(#paint35_linear_2_217)" stroke-width="0.5658" stroke-miterlimit="10"/>
<path opacity="0.5" d="M1984.95 273.706C1972.59 262.93 1880.93 229.992 1759.5 206.111C1630.91 180.817 1473.69 164.213 1326.26 204.965C1233.93 230.492 1143.8 279.557 1074.29 365.194C1065.28 376.287 1057.65 388.331 1051.06 400.874C988.081 521.692 937.804 638.742 879.921 733.655C852.278 778.991 822.282 819.316 788.837 854.143C701.751 944.875 591.263 999.658 422.88 990.491C328.176 985.334 217.469 955.749 96.1572 904.647" stroke="url(#paint36_linear_2_217)" stroke-width="0.5658" stroke-miterlimit="10"/>
<path opacity="0.5" d="M1980.06 280.033C1965.23 267.111 1873.78 233.576 1753.93 207.952C1624.1 180.183 1466.5 160.044 1317.58 197.566C1223.9 221.178 1131.73 268.903 1060.88 354.454C1051.74 365.498 1043.94 377.469 1037.21 389.964C972.711 509.83 923.811 628.173 867.611 724.561C840.918 770.348 811.897 811.282 779.488 846.939C695.084 939.84 587.545 998.841 420.284 993.721C324.982 990.808 213.263 962.088 92.1226 911.84" stroke="url(#paint37_linear_2_217)" stroke-width="0.5658" stroke-miterlimit="10"/>
<path opacity="0.5" d="M1975.16 286.359C1957.85 271.28 1866.62 237.111 1748.33 209.793C1617.26 179.512 1459.27 155.863 1308.88 190.166C1213.83 211.853 1119.66 258.261 1047.46 343.702C1038.18 354.698 1030.23 366.608 1023.35 379.042C957.549 498.067 909.795 617.592 855.288 715.455C829.534 761.705 801.501 803.237 770.116 839.734C688.392 934.794 583.791 998.073 417.676 996.952C321.753 996.306 209.046 968.427 88.0641 919.044" stroke="url(#paint38_linear_2_217)" stroke-width="0.5658" stroke-miterlimit="10"/>
<path opacity="0.5" d="M1970.26 292.686C1950.48 275.449 1859.47 240.597 1742.74 211.633C1610.41 178.805 1452.05 151.658 1300.18 182.779C1203.77 202.527 1107.58 247.619 1034.04 332.975C1024.62 343.909 1016.53 355.77 1009.5 368.144C942.399 486.328 895.766 607.035 842.953 706.374C818.126 753.074 791.092 795.228 760.743 832.542C681.701 929.772 580.001 997.378 415.055 1000.19C318.51 1001.84 204.817 974.778 84.0052 926.249" stroke="url(#paint39_linear_2_217)" stroke-width="0.5658" stroke-miterlimit="10"/>
<path opacity="0.5" d="M1965.36 299.013C1943.1 279.618 1852.33 244.023 1737.14 213.474C1603.56 178.037 1444.82 147.452 1291.48 175.38C1193.7 193.19 1095.5 236.989 1020.62 322.235C1011.07 333.121 1002.82 344.909 995.638 357.233C927.236 474.576 881.725 596.442 830.631 697.28C806.742 744.419 780.707 787.195 751.37 825.35C674.997 924.749 576.21 996.745 412.434 1003.44C315.244 1007.41 200.587 981.129 79.9464 933.453" stroke="url(#paint40_linear_2_217)" stroke-width="0.5658" stroke-miterlimit="10"/>
<path opacity="0.5" d="M1960.47 305.34C1935.74 283.799 1845.18 247.399 1731.57 215.315C1596.73 177.232 1437.59 143.222 1282.8 167.98C1183.64 183.84 1083.44 226.347 1007.23 311.483C997.539 322.32 989.142 334.048 981.804 346.311C912.123 462.825 867.708 585.836 818.321 688.173C795.358 735.764 770.323 779.161 742.021 818.133C668.33 919.702 572.432 996.147 409.838 1006.66C312.002 1012.98 196.383 987.455 75.9124 940.633" stroke="url(#paint41_linear_2_217)" stroke-width="0.5658" stroke-miterlimit="10"/>
<path opacity="0.5" d="M1955.57 311.678C1928.37 287.981 1838.05 250.74 1725.98 217.168C1589.88 176.404 1430.35 138.992 1274.09 160.593C1173.56 174.49 1071.38 215.717 993.81 300.756C983.974 311.532 975.43 323.21 967.934 335.425C896.961 451.098 853.643 575.268 805.986 679.104C783.937 727.133 759.914 771.152 732.649 810.965C661.639 914.704 568.605 995.647 407.218 1009.92C308.735 1018.64 192.153 993.831 71.8535 947.862" stroke="url(#paint42_linear_2_217)" stroke-width="0.5658" stroke-miterlimit="10"/>
<path opacity="0.5" d="M1950.67 318.005C1920.99 292.15 1830.92 254.019 1720.39 219.008C1583.05 175.501 1423.1 134.737 1265.39 153.193C1163.48 165.115 1059.3 205.087 980.39 290.004C970.42 300.731 961.73 312.349 954.075 324.502C881.822 439.347 839.577 564.65 793.651 669.998C772.529 718.466 749.505 763.107 723.263 803.761C654.935 909.657 564.777 995.172 404.585 1013.15C305.444 1024.28 187.911 1000.17 67.7825 955.066" stroke="url(#paint43_linear_2_217)" stroke-width="0.5658" stroke-miterlimit="10"/>
<path opacity="0.5" d="M1945.79 324.332C1913.64 296.331 1823.82 257.261 1714.8 220.849C1576.23 174.563 1415.86 130.459 1256.7 145.794C1153.42 155.741 1047.24 194.445 966.983 279.265C956.879 289.943 948.03 301.5 940.229 313.592C866.697 427.607 825.524 554.032 781.341 660.916C761.121 709.811 739.121 755.098 713.915 796.569C648.268 904.635 560.987 994.77 401.989 1016.41C302.19 1029.99 183.707 1006.55 63.7483 962.283" stroke="url(#paint44_linear_2_217)" stroke-width="0.5658" stroke-miterlimit="10"/>
<path opacity="0.5" d="M1940.89 330.658C1906.27 300.5 1816.7 260.455 1709.22 222.69C1569.43 173.575 1408.62 126.18 1248.01 138.394C1143.34 146.355 1035.2 183.815 953.576 268.525C943.337 279.155 934.342 290.638 926.383 302.682C851.571 415.868 811.447 543.414 769.019 651.822C749.712 701.156 728.724 747.064 704.542 789.376C641.564 899.613 557.16 994.416 399.368 1019.65C298.911 1035.72 179.465 1012.9 59.6895 969.487" stroke="url(#paint45_linear_2_217)" stroke-width="0.5658" stroke-miterlimit="10"/>
<path opacity="0.5" d="M1935.99 336.985C1898.9 304.669 1809.6 263.612 1703.63 224.531C1562.64 172.527 1401.37 121.889 1239.31 131.007C1133.26 136.968 1023.13 173.21 940.156 257.786C929.784 268.355 920.63 279.789 912.525 291.772C836.445 404.129 797.357 532.797 756.696 642.728C738.292 692.489 718.327 739.043 695.181 782.172C634.885 894.578 553.369 994.099 396.76 1022.88C295.657 1041.46 175.248 1019.24 55.6428 976.679" stroke="url(#paint46_linear_2_217)" stroke-width="0.5658" stroke-miterlimit="10"/>
<path opacity="0.5" d="M1931.09 343.312C1891.52 308.838 1802.52 266.745 1698.03 226.371C1555.87 171.442 1394.11 117.574 1230.61 123.608C1123.18 127.57 1011.08 162.58 926.737 247.046C916.23 257.566 906.931 268.94 898.655 280.874C821.307 392.402 783.242 522.179 744.349 633.647C726.834 683.834 707.918 731.022 685.796 774.992C628.181 889.568 549.554 993.868 394.127 1026.14C292.378 1047.26 171.006 1025.6 51.5718 983.896" stroke="url(#paint47_linear_2_217)" stroke-width="0.5658" stroke-miterlimit="10"/>
<path opacity="0.5" d="M1926.2 349.639C1884.16 313.019 1795.47 269.83 1692.45 228.212C1549.11 170.296 1386.87 113.246 1221.92 116.208C1113.1 118.159 999.039 151.962 913.33 236.306C902.689 246.778 893.243 258.09 884.809 269.964C806.194 380.675 769.128 511.562 732.039 624.553C715.426 675.167 697.534 723.001 676.436 767.788C621.502 884.534 545.776 993.648 391.531 1029.37C289.149 1053.06 166.801 1031.94 47.5377 991.088" stroke="url(#paint48_linear_2_217)" stroke-width="0.5658" stroke-miterlimit="10"/>
<path opacity="0.5" d="M1921.3 355.978C1876.79 317.201 1788.42 272.901 1686.87 230.065C1542.4 169.126 1379.63 108.931 1213.23 108.821C1103.03 108.748 986.996 141.344 899.922 225.567C889.148 235.989 879.543 247.241 870.962 259.053C791.08 368.936 755.014 500.932 719.716 615.459C703.981 666.499 687.137 714.968 667.075 760.596C614.823 879.499 542.022 993.49 388.923 1032.61C285.919 1058.91 162.584 1038.29 43.491 998.305" stroke="url(#paint49_linear_2_217)" stroke-width="0.5658" stroke-miterlimit="10"/>
<path opacity="0.5" d="M1916.4 362.304C1869.41 321.369 1781.38 275.924 1681.27 231.906C1535.68 167.882 1372.38 104.579 1204.52 101.421C1092.95 99.3246 974.942 130.727 886.503 214.827C875.594 225.201 865.843 236.391 857.104 248.143C775.966 357.209 740.875 490.289 707.394 606.365C692.548 657.832 676.74 706.934 657.702 753.391C608.119 874.464 538.267 993.367 386.302 1035.84C282.689 1064.79 158.355 1044.63 39.4321 1005.5" stroke="url(#paint50_linear_2_217)" stroke-width="0.5658" stroke-miterlimit="10"/>
<path opacity="0.5" d="M1911.5 368.631C1862.04 325.539 1774.37 278.923 1675.68 233.746C1529 166.603 1365.14 100.227 1195.82 94.0221C1082.87 89.8896 962.888 120.121 873.083 204.075C862.041 214.401 852.144 225.53 843.246 237.221C760.852 345.47 726.725 479.648 695.059 597.259C681.091 649.153 666.331 698.901 648.329 746.187C601.428 869.43 534.538 993.283 383.682 1039.07C279.471 1070.7 154.125 1050.97 35.3735 1012.69" stroke="url(#paint51_linear_2_217)" stroke-width="0.5658" stroke-miterlimit="10"/>
<path opacity="0.5" d="M1906.61 374.958C1854.69 329.72 1767.37 281.898 1670.1 235.587C1522.37 165.262 1357.9 95.8629 1187.13 86.6227C1072.8 80.4423 950.858 109.504 859.676 193.336C848.499 203.612 838.456 214.681 829.388 226.31C745.739 333.755 712.562 469.018 682.737 588.165C669.634 640.485 655.934 690.868 638.956 738.982C594.736 864.395 530.833 993.234 381.061 1042.3C276.265 1076.63 149.896 1057.32 31.3147 1019.88" stroke="url(#paint52_linear_2_217)" stroke-width="0.5658" stroke-miterlimit="10"/>
<path opacity="0.5" d="M1901.71 381.285C1847.32 333.889 1760.4 284.848 1664.51 237.428C1515.77 163.872 1350.67 91.4864 1178.43 79.2353C1062.73 71.0069 938.815 98.9103 846.257 182.608C834.946 192.836 824.756 203.844 815.529 215.425C730.625 322.052 698.387 458.4 670.414 579.095C658.189 631.842 645.538 682.871 629.595 731.814C588.057 859.397 527.152 993.246 378.453 1045.57C273.096 1082.62 145.679 1063.69 27.2681 1027.11" stroke="url(#paint53_linear_2_217)" stroke-width="0.5658" stroke-miterlimit="10"/>
<path opacity="0.5" d="M1896.81 387.611C1839.94 338.058 1753.44 287.773 1658.92 239.269C1509.2 162.434 1343.45 87.0981 1169.73 71.8359C1052.66 61.5474 926.761 88.305 832.837 171.857C821.392 182.036 811.044 192.982 801.672 204.502C715.512 310.325 684.212 447.758 658.08 570.002C646.72 623.175 635.141 674.837 620.223 724.61C581.366 854.351 523.495 993.27 375.833 1048.8C269.94 1088.62 141.449 1070.03 23.1974 1034.31" stroke="url(#paint54_linear_2_217)" stroke-width="0.5658" stroke-miterlimit="10"/>
<path opacity="0.5" d="M1891.91 393.938C1832.57 342.239 1746.49 290.675 1653.32 241.109C1502.65 160.946 1336.21 82.6975 1161.02 64.4365C1042.59 52.0878 914.719 77.6994 819.418 161.117C807.839 171.247 797.344 182.133 787.813 193.592C700.41 298.611 670.012 437.116 645.757 560.908C635.251 614.496 624.744 666.804 610.85 717.418C574.662 849.328 519.875 993.319 373.212 1052.04C266.795 1094.64 137.22 1076.38 19.1385 1041.52" stroke="url(#paint55_linear_2_217)" stroke-width="0.5658" stroke-miterlimit="10"/>
<path opacity="0.5" d="M1887.03 400.277C1825.21 346.421 1739.59 293.576 1647.74 242.962C1496.17 159.423 1328.99 78.3089 1152.33 57.0491C1032.53 42.6281 902.86 67.3012 806.011 150.39C794.322 160.495 783.657 171.296 773.967 182.694C685.321 286.908 655.825 426.498 633.435 551.826C623.781 605.841 614.348 658.795 601.489 710.226C567.983 844.306 516.28 993.392 370.604 1055.28C263.699 1100.7 133.003 1082.73 15.0919 1048.72" stroke="url(#paint56_linear_2_217)" stroke-width="0.5658" stroke-miterlimit="10"/>
<path opacity="0.5" d="M1882.13 406.604C1817.83 350.59 1732.7 296.453 1642.15 244.803C1489.71 157.838 1321.78 73.896 1143.63 49.6496C1022.46 33.1563 890.806 56.6711 792.591 139.638C780.769 149.695 769.982 160.459 760.109 171.771C670.402 275.339 641.601 415.856 621.112 542.72C612.312 597.161 603.951 650.749 592.116 703.021C561.292 839.271 512.709 993.49 367.983 1058.51C260.604 1106.76 128.774 1089.07 11.0334 1055.92" stroke="url(#paint57_linear_2_217)" stroke-width="0.5658" stroke-miterlimit="10"/>
<path opacity="0.5" d="M1877.23 412.931C1810.46 354.759 1725.82 299.306 1636.57 246.644C1483.31 156.217 1314.57 69.4833 1134.94 42.2503C1012.42 23.6724 878.751 46.0538 779.184 128.898C767.227 138.907 756.282 149.61 746.251 160.861C655.264 263.613 627.377 405.226 608.778 533.626C600.831 588.506 593.542 642.728 582.743 695.817C554.6 834.237 509.174 993.587 365.363 1061.74C257.532 1112.84 124.544 1095.41 6.97461 1063.11" stroke="url(#paint58_linear_2_217)" stroke-width="0.5658" stroke-miterlimit="10"/>
<path opacity="0.5" d="M1872.34 419.257C1803.1 358.94 1718.97 302.158 1630.98 248.484C1476.96 154.534 1307.37 65.0581 1126.25 34.8508C1002.38 14.1883 866.697 35.4236 765.777 118.146C753.686 128.106 742.594 138.736 732.405 149.951C640.151 251.873 613.153 394.596 596.467 524.532C589.361 579.839 583.158 634.695 573.395 688.624C547.933 829.214 505.688 993.734 362.779 1064.99C254.521 1118.96 120.351 1101.76 2.95239 1070.31" stroke="url(#paint59_linear_2_217)" stroke-width="0.5658" stroke-miterlimit="10"/>
<path opacity="0.5" d="M1867.44 425.584C1795.73 363.109 1712.15 304.986 1625.39 250.325C1470.64 152.816 1300.21 60.3405 1117.55 27.4635C992.359 4.52146 854.642 24.8183 752.357 107.419C740.132 117.33 728.894 127.899 718.546 139.053C625.012 240.158 598.917 383.991 584.132 515.45C577.868 571.184 572.748 626.674 564.009 681.432C541.217 824.18 502.202 993.88 360.146 1068.23C251.486 1125.1 116.11 1108.11 -1.11865 1077.53" stroke="url(#paint60_linear_2_217)" stroke-width="0.5658" stroke-miterlimit="10"/>
<path opacity="0.5" d="M1862.54 431.911C1788.36 367.278 1705.33 307.814 1619.79 252.166C1464.38 151.048 1292.99 56.0495 1108.84 20.064C982.292 -4.8772 842.576 14.1883 738.938 96.6795C726.579 106.529 715.183 117.049 704.688 128.143C609.887 228.431 584.511 373.361 571.81 506.356C566.313 562.517 562.364 618.653 554.649 674.24C534.538 819.157 498.765 994.038 357.538 1071.47C248.5 1131.25 111.893 1114.48 -5.16504 1084.73" stroke="url(#paint61_linear_2_217)" stroke-width="0.5658" stroke-miterlimit="10"/>
<path opacity="0.5" d="M1857.64 438.237C1780.99 371.447 1698.54 310.63 1614.21 254.007C1458.19 149.244 1285.78 51.7586 1100.15 12.6645C972.236 -14.2759 830.521 3.57073 725.53 85.9279C600.331 184.144 571.615 347.822 559.488 497.25C554.893 553.849 551.967 610.607 545.276 667.023C527.846 814.111 495.352 994.185 354.917 1074.69C245.526 1137.4 107.663 1120.8 -9.22388 1091.91" stroke="url(#paint62_linear_2_217)" stroke-width="0.5658" stroke-miterlimit="10"/>
</g>
<defs>
<linearGradient id="paint0_linear_2_217" x1="717.793" y1="318.601" x2="1322.67" y2="862.318" gradientUnits="userSpaceOnUse">
<stop stop-color="#1BA4E5" stop-opacity="0.5"/>
<stop offset="1" stop-color="#B40FE7"/>
</linearGradient>
<linearGradient id="paint1_linear_2_217" x1="728.389" y1="325.754" x2="1326.16" y2="863.082" gradientUnits="userSpaceOnUse">
<stop stop-color="#1BA4E5" stop-opacity="0.5"/>
<stop offset="1" stop-color="#B40FE7"/>
</linearGradient>
<linearGradient id="paint2_linear_2_217" x1="739.055" y1="332.97" x2="1329.65" y2="863.846" gradientUnits="userSpaceOnUse">
<stop stop-color="#1BA4E5" stop-opacity="0.5"/>
<stop offset="1" stop-color="#B40FE7"/>
</linearGradient>
<linearGradient id="paint3_linear_2_217" x1="749.598" y1="340.076" x2="1333.14" y2="864.611" gradientUnits="userSpaceOnUse">
<stop stop-color="#1BA4E5" stop-opacity="0.5"/>
<stop offset="1" stop-color="#B40FE7"/>
</linearGradient>
<linearGradient id="paint4_linear_2_217" x1="760.069" y1="347.116" x2="1336.63" y2="865.374" gradientUnits="userSpaceOnUse">
<stop stop-color="#1BA4E5" stop-opacity="0.5"/>
<stop offset="1" stop-color="#B40FE7"/>
</linearGradient>
<linearGradient id="paint5_linear_2_217" x1="770.453" y1="354.078" x2="1340.11" y2="866.138" gradientUnits="userSpaceOnUse">
<stop stop-color="#1BA4E5" stop-opacity="0.5"/>
<stop offset="1" stop-color="#B40FE7"/>
</linearGradient>
<linearGradient id="paint6_linear_2_217" x1="780.733" y1="360.946" x2="1343.6" y2="866.902" gradientUnits="userSpaceOnUse">
<stop stop-color="#1BA4E5" stop-opacity="0.5"/>
<stop offset="1" stop-color="#B40FE7"/>
</linearGradient>
<linearGradient id="paint7_linear_2_217" x1="790.884" y1="367.697" x2="1347.09" y2="867.665" gradientUnits="userSpaceOnUse">
<stop stop-color="#1BA4E5" stop-opacity="0.5"/>
<stop offset="1" stop-color="#B40FE7"/>
</linearGradient>
<linearGradient id="paint8_linear_2_217" x1="800.878" y1="374.306" x2="1350.58" y2="868.428" gradientUnits="userSpaceOnUse">
<stop stop-color="#1BA4E5" stop-opacity="0.5"/>
<stop offset="1" stop-color="#B40FE7"/>
</linearGradient>
<linearGradient id="paint9_linear_2_217" x1="810.673" y1="380.735" x2="1354.07" y2="869.189" gradientUnits="userSpaceOnUse">
<stop stop-color="#1BA4E5" stop-opacity="0.5"/>
<stop offset="1" stop-color="#B40FE7"/>
</linearGradient>
<linearGradient id="paint10_linear_2_217" x1="820.213" y1="386.931" x2="1357.57" y2="869.949" gradientUnits="userSpaceOnUse">
<stop stop-color="#1BA4E5" stop-opacity="0.5"/>
<stop offset="1" stop-color="#B40FE7"/>
</linearGradient>
<linearGradient id="paint11_linear_2_217" x1="829.415" y1="392.821" x2="1361.06" y2="870.708" gradientUnits="userSpaceOnUse">
<stop stop-color="#1BA4E5" stop-opacity="0.5"/>
<stop offset="1" stop-color="#B40FE7"/>
</linearGradient>
<linearGradient id="paint12_linear_2_217" x1="838.157" y1="398.291" x2="1364.56" y2="871.463" gradientUnits="userSpaceOnUse">
<stop stop-color="#1BA4E5" stop-opacity="0.5"/>
<stop offset="1" stop-color="#B40FE7"/>
</linearGradient>
<linearGradient id="paint13_linear_2_217" x1="846.239" y1="403.16" x2="1368.06" y2="872.213" gradientUnits="userSpaceOnUse">
<stop stop-color="#1BA4E5" stop-opacity="0.5"/>
<stop offset="1" stop-color="#B40FE7"/>
</linearGradient>
<linearGradient id="paint14_linear_2_217" x1="853.307" y1="407.105" x2="1371.56" y2="872.957" gradientUnits="userSpaceOnUse">
<stop stop-color="#1BA4E5" stop-opacity="0.5"/>
<stop offset="1" stop-color="#B40FE7"/>
</linearGradient>
<linearGradient id="paint15_linear_2_217" x1="858.609" y1="409.45" x2="1375.08" y2="873.694" gradientUnits="userSpaceOnUse">
<stop stop-color="#1BA4E5" stop-opacity="0.5"/>
<stop offset="1" stop-color="#B40FE7"/>
</linearGradient>
<linearGradient id="paint16_linear_2_217" x1="859.669" y1="407.971" x2="1378.59" y2="874.425" gradientUnits="userSpaceOnUse">
<stop stop-color="#1BA4E5" stop-opacity="0.5"/>
<stop offset="1" stop-color="#B40FE7"/>
</linearGradient>
<linearGradient id="paint17_linear_2_217" x1="849.171" y1="396.203" x2="1382.06" y2="875.211" gradientUnits="userSpaceOnUse">
<stop stop-color="#1BA4E5" stop-opacity="0.5"/>
<stop offset="1" stop-color="#B40FE7"/>
</linearGradient>
<linearGradient id="paint18_linear_2_217" x1="838.157" y1="383.973" x2="1385.53" y2="875.998" gradientUnits="userSpaceOnUse">
<stop stop-color="#1BA4E5" stop-opacity="0.5"/>
<stop offset="1" stop-color="#B40FE7"/>
</linearGradient>
<linearGradient id="paint19_linear_2_217" x1="827.154" y1="371.741" x2="1389" y2="876.778" gradientUnits="userSpaceOnUse">
<stop stop-color="#1BA4E5" stop-opacity="0.5"/>
<stop offset="1" stop-color="#B40FE7"/>
</linearGradient>
<linearGradient id="paint20_linear_2_217" x1="816.156" y1="359.503" x2="1392.48" y2="877.554" gradientUnits="userSpaceOnUse">
<stop stop-color="#1BA4E5" stop-opacity="0.5"/>
<stop offset="1" stop-color="#B40FE7"/>
</linearGradient>
<linearGradient id="paint21_linear_2_217" x1="805.159" y1="347.258" x2="1395.96" y2="878.325" gradientUnits="userSpaceOnUse">
<stop stop-color="#1BA4E5" stop-opacity="0.5"/>
<stop offset="1" stop-color="#B40FE7"/>
</linearGradient>
<linearGradient id="paint22_linear_2_217" x1="794.16" y1="335.008" x2="1399.45" y2="879.094" gradientUnits="userSpaceOnUse">
<stop stop-color="#1BA4E5" stop-opacity="0.5"/>
<stop offset="1" stop-color="#B40FE7"/>
</linearGradient>
<linearGradient id="paint23_linear_2_217" x1="783.161" y1="322.754" x2="1402.94" y2="879.86" gradientUnits="userSpaceOnUse">
<stop stop-color="#1BA4E5" stop-opacity="0.5"/>
<stop offset="1" stop-color="#B40FE7"/>
</linearGradient>
<linearGradient id="paint24_linear_2_217" x1="772.16" y1="310.496" x2="1406.42" y2="880.626" gradientUnits="userSpaceOnUse">
<stop stop-color="#1BA4E5" stop-opacity="0.5"/>
<stop offset="1" stop-color="#B40FE7"/>
</linearGradient>
<linearGradient id="paint25_linear_2_217" x1="761.158" y1="298.235" x2="1409.91" y2="881.391" gradientUnits="userSpaceOnUse">
<stop stop-color="#1BA4E5" stop-opacity="0.5"/>
<stop offset="1" stop-color="#B40FE7"/>
</linearGradient>
<linearGradient id="paint26_linear_2_217" x1="750.155" y1="285.973" x2="1413.4" y2="882.156" gradientUnits="userSpaceOnUse">
<stop stop-color="#1BA4E5" stop-opacity="0.5"/>
<stop offset="1" stop-color="#B40FE7"/>
</linearGradient>
<linearGradient id="paint27_linear_2_217" x1="739.15" y1="273.708" x2="1416.89" y2="882.921" gradientUnits="userSpaceOnUse">
<stop stop-color="#1BA4E5" stop-opacity="0.5"/>
<stop offset="1" stop-color="#B40FE7"/>
</linearGradient>
<linearGradient id="paint28_linear_2_217" x1="728.145" y1="261.443" x2="1420.38" y2="883.685" gradientUnits="userSpaceOnUse">
<stop stop-color="#1BA4E5" stop-opacity="0.5"/>
<stop offset="1" stop-color="#B40FE7"/>
</linearGradient>
<linearGradient id="paint29_linear_2_217" x1="717.139" y1="249.177" x2="1423.87" y2="884.45" gradientUnits="userSpaceOnUse">
<stop stop-color="#1BA4E5" stop-opacity="0.5"/>
<stop offset="1" stop-color="#B40FE7"/>
</linearGradient>
<linearGradient id="paint30_linear_2_217" x1="706.133" y1="236.91" x2="1427.37" y2="885.215" gradientUnits="userSpaceOnUse">
<stop stop-color="#1BA4E5" stop-opacity="0.5"/>
<stop offset="1" stop-color="#B40FE7"/>
</linearGradient>
<linearGradient id="paint31_linear_2_217" x1="695.126" y1="224.642" x2="1430.86" y2="885.98" gradientUnits="userSpaceOnUse">
<stop stop-color="#1BA4E5" stop-opacity="0.5"/>
<stop offset="1" stop-color="#B40FE7"/>
</linearGradient>
<linearGradient id="paint32_linear_2_217" x1="691.112" y1="231.798" x2="1425.82" y2="892.217" gradientUnits="userSpaceOnUse">
<stop stop-color="#1BA4E5" stop-opacity="0.5"/>
<stop offset="1" stop-color="#B40FE7"/>
</linearGradient>
<linearGradient id="paint33_linear_2_217" x1="687.087" y1="238.968" x2="1420.9" y2="898.578" gradientUnits="userSpaceOnUse">
<stop stop-color="#1BA4E5" stop-opacity="0.5"/>
<stop offset="1" stop-color="#B40FE7"/>
</linearGradient>
<linearGradient id="paint34_linear_2_217" x1="683.061" y1="246.137" x2="1415.97" y2="904.938" gradientUnits="userSpaceOnUse">
<stop stop-color="#1BA4E5" stop-opacity="0.5"/>
<stop offset="1" stop-color="#B40FE7"/>
</linearGradient>
<linearGradient id="paint35_linear_2_217" x1="679.036" y1="253.306" x2="1411.05" y2="911.298" gradientUnits="userSpaceOnUse">
<stop stop-color="#1BA4E5" stop-opacity="0.5"/>
<stop offset="1" stop-color="#B40FE7"/>
</linearGradient>
<linearGradient id="paint36_linear_2_217" x1="675.01" y1="260.475" x2="1406.12" y2="917.659" gradientUnits="userSpaceOnUse">
<stop stop-color="#1BA4E5" stop-opacity="0.5"/>
<stop offset="1" stop-color="#B40FE7"/>
</linearGradient>
<linearGradient id="paint37_linear_2_217" x1="670.984" y1="267.645" x2="1401.19" y2="924.019" gradientUnits="userSpaceOnUse">
<stop stop-color="#1BA4E5" stop-opacity="0.5"/>
<stop offset="1" stop-color="#B40FE7"/>
</linearGradient>
<linearGradient id="paint38_linear_2_217" x1="666.959" y1="274.814" x2="1396.27" y2="930.38" gradientUnits="userSpaceOnUse">
<stop stop-color="#1BA4E5" stop-opacity="0.5"/>
<stop offset="1" stop-color="#B40FE7"/>
</linearGradient>
<linearGradient id="paint39_linear_2_217" x1="662.933" y1="281.983" x2="1391.34" y2="936.741" gradientUnits="userSpaceOnUse">
<stop stop-color="#1BA4E5" stop-opacity="0.5"/>
<stop offset="1" stop-color="#B40FE7"/>
</linearGradient>
<linearGradient id="paint40_linear_2_217" x1="658.907" y1="289.152" x2="1386.42" y2="943.101" gradientUnits="userSpaceOnUse">
<stop stop-color="#1BA4E5" stop-opacity="0.5"/>
<stop offset="1" stop-color="#B40FE7"/>
</linearGradient>
<linearGradient id="paint41_linear_2_217" x1="654.882" y1="296.321" x2="1381.49" y2="949.461" gradientUnits="userSpaceOnUse">
<stop stop-color="#1BA4E5" stop-opacity="0.5"/>
<stop offset="1" stop-color="#B40FE7"/>
</linearGradient>
<linearGradient id="paint42_linear_2_217" x1="650.856" y1="303.491" x2="1376.57" y2="955.822" gradientUnits="userSpaceOnUse">
<stop stop-color="#1BA4E5" stop-opacity="0.5"/>
<stop offset="1" stop-color="#B40FE7"/>
</linearGradient>
<linearGradient id="paint43_linear_2_217" x1="646.83" y1="310.66" x2="1371.64" y2="962.182" gradientUnits="userSpaceOnUse">
<stop stop-color="#1BA4E5" stop-opacity="0.5"/>
<stop offset="1" stop-color="#B40FE7"/>
</linearGradient>
<linearGradient id="paint44_linear_2_217" x1="642.805" y1="317.829" x2="1366.72" y2="968.543" gradientUnits="userSpaceOnUse">
<stop stop-color="#1BA4E5" stop-opacity="0.5"/>
<stop offset="1" stop-color="#B40FE7"/>
</linearGradient>
<linearGradient id="paint45_linear_2_217" x1="638.779" y1="324.998" x2="1361.79" y2="974.903" gradientUnits="userSpaceOnUse">
<stop stop-color="#1BA4E5" stop-opacity="0.5"/>
<stop offset="1" stop-color="#B40FE7"/>
</linearGradient>
<linearGradient id="paint46_linear_2_217" x1="634.753" y1="332.167" x2="1356.87" y2="981.264" gradientUnits="userSpaceOnUse">
<stop stop-color="#1BA4E5" stop-opacity="0.5"/>
<stop offset="1" stop-color="#B40FE7"/>
</linearGradient>
<linearGradient id="paint47_linear_2_217" x1="630.728" y1="339.336" x2="1351.94" y2="987.624" gradientUnits="userSpaceOnUse">
<stop stop-color="#1BA4E5" stop-opacity="0.5"/>
<stop offset="1" stop-color="#B40FE7"/>
</linearGradient>
<linearGradient id="paint48_linear_2_217" x1="626.702" y1="346.506" x2="1347.02" y2="993.985" gradientUnits="userSpaceOnUse">
<stop stop-color="#1BA4E5" stop-opacity="0.5"/>
<stop offset="1" stop-color="#B40FE7"/>
</linearGradient>
<linearGradient id="paint49_linear_2_217" x1="622.677" y1="353.675" x2="1342.09" y2="1000.34" gradientUnits="userSpaceOnUse">
<stop stop-color="#1BA4E5" stop-opacity="0.5"/>
<stop offset="1" stop-color="#B40FE7"/>
</linearGradient>
<linearGradient id="paint50_linear_2_217" x1="618.651" y1="360.844" x2="1337.16" y2="1006.71" gradientUnits="userSpaceOnUse">
<stop stop-color="#1BA4E5" stop-opacity="0.5"/>
<stop offset="1" stop-color="#B40FE7"/>
</linearGradient>
<linearGradient id="paint51_linear_2_217" x1="614.625" y1="368.013" x2="1332.24" y2="1013.07" gradientUnits="userSpaceOnUse">
<stop stop-color="#1BA4E5" stop-opacity="0.5"/>
<stop offset="1" stop-color="#B40FE7"/>
</linearGradient>
<linearGradient id="paint52_linear_2_217" x1="610.6" y1="375.182" x2="1327.31" y2="1019.43" gradientUnits="userSpaceOnUse">
<stop stop-color="#1BA4E5" stop-opacity="0.5"/>
<stop offset="1" stop-color="#B40FE7"/>
</linearGradient>
<linearGradient id="paint53_linear_2_217" x1="606.574" y1="382.351" x2="1322.39" y2="1025.79" gradientUnits="userSpaceOnUse">
<stop stop-color="#1BA4E5" stop-opacity="0.5"/>
<stop offset="1" stop-color="#B40FE7"/>
</linearGradient>
<linearGradient id="paint54_linear_2_217" x1="602.549" y1="389.52" x2="1317.46" y2="1032.15" gradientUnits="userSpaceOnUse">
<stop stop-color="#1BA4E5" stop-opacity="0.5"/>
<stop offset="1" stop-color="#B40FE7"/>
</linearGradient>
<linearGradient id="paint55_linear_2_217" x1="598.523" y1="396.689" x2="1312.54" y2="1038.51" gradientUnits="userSpaceOnUse">
<stop stop-color="#1BA4E5" stop-opacity="0.5"/>
<stop offset="1" stop-color="#B40FE7"/>
</linearGradient>
<linearGradient id="paint56_linear_2_217" x1="583.43" y1="393.907" x2="1307.61" y2="1044.87" gradientUnits="userSpaceOnUse">
<stop stop-color="#1BA4E5" stop-opacity="0.5"/>
<stop offset="1" stop-color="#B40FE7"/>
</linearGradient>
<linearGradient id="paint57_linear_2_217" x1="565.039" y1="388.159" x2="1302.69" y2="1051.22" gradientUnits="userSpaceOnUse">
<stop stop-color="#1BA4E5" stop-opacity="0.5"/>
<stop offset="1" stop-color="#B40FE7"/>
</linearGradient>
<linearGradient id="paint58_linear_2_217" x1="546.614" y1="382.382" x2="1297.77" y2="1057.58" gradientUnits="userSpaceOnUse">
<stop stop-color="#1BA4E5" stop-opacity="0.5"/>
<stop offset="1" stop-color="#B40FE7"/>
</linearGradient>
<linearGradient id="paint59_linear_2_217" x1="528.167" y1="376.584" x2="1292.84" y2="1063.94" gradientUnits="userSpaceOnUse">
<stop stop-color="#1BA4E5" stop-opacity="0.5"/>
<stop offset="1" stop-color="#B40FE7"/>
</linearGradient>
<linearGradient id="paint60_linear_2_217" x1="509.693" y1="370.762" x2="1287.92" y2="1070.3" gradientUnits="userSpaceOnUse">
<stop stop-color="#1BA4E5" stop-opacity="0.5"/>
<stop offset="1" stop-color="#B40FE7"/>
</linearGradient>
<linearGradient id="paint61_linear_2_217" x1="491.189" y1="364.913" x2="1283" y2="1076.66" gradientUnits="userSpaceOnUse">
<stop stop-color="#1BA4E5" stop-opacity="0.5"/>
<stop offset="1" stop-color="#B40FE7"/>
</linearGradient>
<linearGradient id="paint62_linear_2_217" x1="472.66" y1="359.041" x2="1278.07" y2="1083.02" gradientUnits="userSpaceOnUse">
<stop stop-color="#1BA4E5" stop-opacity="0.5"/>
<stop offset="1" stop-color="#B40FE7"/>
</linearGradient>
</defs>
</svg>
