<svg width="1920" height="1080" viewBox="0 0 1920 1080" fill="none" xmlns="http://www.w3.org/2000/svg">
<g opacity="0.5">
<path d="M-110 331.229C-43.7202 247.426 57.8996 138.6 161.6 102.555C206.21 87.0526 245.21 86.7825 284.78 94.8137C306.69 99.3344 329.93 106.916 354.82 117.227C393.33 133.169 426.92 154.803 457.28 180.126C510.56 224.353 557.91 284.842 597.52 325.888C625.25 354.632 644.36 367.174 643.39 389.167C642.56 407.89 642.37 434.124 648.99 461.828C655.39 488.622 670.76 515.266 691.86 536.889C719.38 565.093 754.55 584.886 792.92 594.798C855.94 611.07 925.57 602.049 989.91 568.924C1091.07 517.166 1170.6 488.352 1229.46 513.026C1233.4 514.676 1236.81 516.966 1239.57 519.357C1248.02 526.688 1254.09 533.809 1258.36 541.58C1270.24 563.213 1257.11 604.549 1240.84 595.668C1236.32 595.298 1232.7 593.428 1230.1 590.437C1212.73 575.975 1218.05 539.83 1255.09 525.688C1286.21 513.806 1334.62 514.166 1364.01 550.711C1374.57 563.823 1382.01 579.155 1387.42 596.258C1433.51 742.37 1472.36 985.356 1950.1 885.151" stroke="url(#paint0_linear_2_162)" stroke-width="0.5658" stroke-miterlimit="10"/>
<path d="M-109.071 324.028C-41.5306 241.476 62.3296 134.3 166.24 102.495C211.02 88.7929 249.22 90.9832 287.69 100.895C309 106.466 331.66 114.957 356.02 125.938C393.61 142.871 426.8 165.034 457.12 190.488C510.14 234.774 559 294.463 599.93 332.289C628.58 358.783 647.939 366.894 645.099 386.457C642.669 403.199 641.01 428.813 646.31 456.387C651.44 483.091 665.89 510.145 686.29 532.248C712.95 561.133 747.47 581.726 785.39 592.477C847.88 610.21 917.759 602.479 982.479 569.244C1085.5 516.686 1165.83 493.913 1220.37 520.737C1224.08 522.557 1227.16 525.027 1229.52 527.538C1236.87 535.339 1241.53 542.27 1244.87 549.321C1254.25 569.114 1241.05 604.949 1229.34 594.298C1225.38 593.748 1222.31 591.777 1220.26 588.757C1205.23 574.205 1212.23 540.36 1249.58 528.078C1280.62 517.866 1328.2 519.477 1357.61 556.152C1368.14 569.254 1375.68 584.516 1381.29 601.509C1429.03 746.64 1490.11 982.625 1949.23 868.738" stroke="url(#paint1_linear_2_162)" stroke-width="0.5658" stroke-miterlimit="10"/>
<path d="M-108.131 316.837C-39.3306 235.525 66.7694 130.009 170.899 102.435C215.859 90.5333 253.249 95.184 290.619 106.986C311.329 113.607 333.399 123.008 357.249 134.67C393.919 152.592 426.699 175.276 456.999 200.87C509.769 245.206 560.129 304.115 602.369 338.71C631.939 362.944 651.579 366.474 646.839 383.777C642.819 398.429 639.679 423.543 643.659 450.967C647.519 477.581 661.049 505.045 680.749 527.628C706.549 557.202 740.419 578.586 777.879 590.177C839.849 609.37 909.959 602.929 975.079 569.574C1079.95 516.206 1161.15 499.604 1211.31 528.468C1214.79 530.469 1217.54 533.129 1219.5 535.739C1225.76 544.05 1228.99 550.742 1231.41 557.092C1238.27 575.045 1225.01 605.37 1217.87 592.948C1214.47 592.218 1211.95 590.147 1210.44 587.087C1197.76 572.445 1206.41 540.89 1244.1 530.478C1275.05 521.927 1321.8 524.808 1351.23 561.603C1361.72 574.695 1369.37 589.887 1375.18 606.77C1424.57 750.921 1507.88 979.905 1948.38 852.336" stroke="url(#paint2_linear_2_162)" stroke-width="0.5658" stroke-miterlimit="10"/>
<path d="M-107.201 309.636C-37.1407 229.574 71.2094 125.718 175.539 102.375C220.679 92.2735 257.28 99.3145 293.54 113.077C313.66 120.708 335.139 131.049 358.469 143.391C394.219 162.294 426.6 185.517 456.87 211.241C509.39 255.628 561.24 313.746 604.81 345.111C635.3 367.084 658.31 367.544 648.58 381.066C645.76 394.378 638.35 418.242 641.02 445.526C643.61 472.05 656.219 499.924 675.219 522.987C700.159 553.242 733.38 575.425 770.38 587.857C831.83 608.51 902.17 603.359 967.68 569.894C1074.4 515.726 1156.49 505.425 1202.25 536.189C1205.51 538.38 1207.92 541.23 1209.49 543.93C1214.65 552.782 1216.45 559.203 1217.96 564.844C1222.28 580.926 1208.99 605.78 1206.41 591.577C1203.56 590.667 1201.6 588.497 1200.64 585.407C1190.3 570.684 1200.59 541.39 1238.63 532.869C1269.47 525.958 1315.42 530.128 1344.86 567.034C1355.32 580.116 1363.08 595.238 1369.08 612.01C1420.12 755.182 1525.65 977.164 1947.54 835.914" stroke="url(#paint3_linear_2_162)" stroke-width="0.5658" stroke-miterlimit="10"/>
<path d="M-106.26 302.435C-34.9405 223.623 75.6595 121.438 180.189 102.305C225.509 94.0138 261.309 103.505 296.459 119.148C315.979 127.829 336.869 139.07 359.689 152.092C394.519 171.975 426.489 195.739 456.729 221.593C508.999 266.029 562.349 323.358 607.229 351.502C638.639 371.225 662.22 367.584 650.3 378.346C646.19 389.858 636.989 412.931 638.349 440.065C639.669 466.499 651.349 494.793 669.669 518.327C693.739 549.271 726.309 572.245 762.859 585.517C823.779 607.64 894.369 603.769 960.269 570.184C1068.85 515.206 1151.82 511.386 1193.19 543.87C1196.23 546.261 1198.28 549.301 1199.47 552.072C1203.51 561.503 1203.89 567.584 1204.5 572.545C1206.25 586.707 1192.95 606.13 1194.94 590.157C1192.65 589.067 1191.25 586.797 1190.82 583.676C1182.82 568.864 1194.75 541.82 1233.15 535.219C1263.87 529.938 1309.02 535.409 1338.49 572.435C1348.91 585.497 1356.78 600.559 1362.98 617.221C1415.67 759.412 1543.43 974.384 1946.71 819.461" stroke="url(#paint4_linear_2_162)" stroke-width="0.5658" stroke-miterlimit="10"/>
<path d="M-105.33 295.234C-32.7501 217.662 80.1098 117.167 184.84 102.245C230.34 95.764 265.33 107.716 299.38 125.238C318.3 134.97 338.61 147.112 360.91 160.824C394.82 181.677 426.38 205.99 456.6 231.974C508.62 276.471 563.47 332.999 609.66 357.923C641.99 375.385 666.14 367.654 652.02 375.665C646.62 385.377 635.64 407.67 635.68 434.654C635.72 461.008 646.49 489.702 664.11 513.716C687.32 545.341 719.24 569.124 755.33 583.226C815.72 606.83 886.55 604.229 952.84 570.534C1063.27 514.746 1147.1 517.566 1184.1 551.621C1186.92 554.212 1188.61 557.442 1189.43 560.293C1192.31 570.324 1191.31 576.015 1191.02 580.326C1190.21 592.498 1176.9 606.57 1183.45 588.817C1181.72 587.547 1180.87 585.176 1180.99 582.026C1175.33 567.124 1188.88 542.3 1227.65 537.639C1258.25 533.959 1302.61 540.75 1332.09 577.895C1342.48 590.947 1350.45 605.94 1356.85 622.502C1411.19 763.713 1561.18 971.684 1945.84 803.079" stroke="url(#paint5_linear_2_162)" stroke-width="0.5658" stroke-miterlimit="10"/>
<path d="M-104.391 288.042C-30.5606 211.721 84.5696 112.916 189.49 102.185C235.17 97.5142 269.35 111.916 302.3 131.329C320.62 142.121 340.35 155.153 362.13 169.545C395.13 191.368 426.28 216.232 456.46 242.346C508.23 286.892 564.579 342.64 612.089 364.334C645.339 379.536 670.06 367.704 653.75 372.965C647.06 380.876 634.29 402.379 633.02 429.213C631.78 455.477 641.63 484.582 658.56 509.075C680.9 541.39 712.18 565.974 747.82 580.906C807.68 605.989 878.76 604.659 945.43 570.844C1057.71 514.256 1142.33 523.877 1175.03 559.323C1177.62 562.133 1178.94 565.544 1179.4 568.464C1181.07 579.106 1178.76 584.366 1177.55 588.067C1174.25 598.138 1160.86 606.96 1171.97 587.447C1170.8 585.997 1170.5 583.526 1171.16 580.346C1167.85 565.354 1183.01 542.73 1222.15 540.03C1252.62 537.929 1296.2 546.071 1325.7 583.336C1336.05 596.378 1344.14 611.3 1350.73 627.753C1406.72 767.983 1578.94 968.953 1944.98 786.666" stroke="url(#paint6_linear_2_162)" stroke-width="0.5658" stroke-miterlimit="10"/>
<path d="M-103.461 280.841C-28.3707 205.77 89.0194 108.656 194.129 102.125C239.989 99.2746 273.359 116.127 305.219 137.41C322.939 149.252 342.089 163.174 363.339 178.266C395.429 201.05 426.159 226.463 456.319 252.717C507.839 297.314 565.689 352.272 614.509 370.745C648.679 383.687 673.969 367.764 655.469 370.265C647.489 376.376 632.919 397.089 630.349 423.783C627.829 449.956 636.759 479.481 652.999 504.445C674.479 537.449 705.099 562.843 740.289 578.596C799.619 605.17 870.939 605.099 938.009 571.164C1052.15 513.766 1137.45 530.358 1165.95 567.044C1168.32 570.084 1169.25 573.665 1169.36 576.645C1169.77 587.897 1166.27 592.698 1164.07 595.808C1158.46 603.739 1144.8 607.35 1160.49 586.067C1159.88 584.436 1160.13 581.866 1161.34 578.656C1160.37 563.573 1177.15 543.12 1216.67 542.41C1247.01 541.87 1289.8 551.381 1319.32 588.767C1329.64 601.799 1337.83 616.651 1344.62 632.993C1402.26 772.244 1596.7 966.213 1944.13 770.244" stroke="url(#paint7_linear_2_162)" stroke-width="0.5658" stroke-miterlimit="10"/>
<path d="M-102.52 273.641C-26.1701 199.81 93.4697 104.415 198.79 102.055C244.84 101.025 277.39 120.328 308.15 143.491C325.27 156.383 343.84 171.195 364.57 186.978C395.75 210.721 426.07 236.695 456.19 263.079C507.46 307.725 566.8 361.894 616.95 377.146C652.05 387.837 677.9 367.814 657.21 367.564C647.94 371.875 631.58 391.798 627.7 418.342C623.89 444.436 631.91 474.37 647.47 499.804C668.08 533.499 698.05 559.703 732.79 576.275C791.59 604.339 863.16 605.54 930.61 571.485C1046.6 513.276 1132.45 536.969 1156.89 574.765C1159.01 578.046 1159.58 581.776 1159.35 584.837C1158.47 596.678 1153.86 601.089 1150.62 603.559C1142.86 609.47 1128.78 607.76 1149.03 584.697C1148.97 582.876 1149.78 580.216 1151.53 576.975C1152.9 561.803 1171.3 543.49 1211.19 544.811C1241.4 545.811 1283.41 556.702 1312.95 594.208C1323.23 607.23 1331.53 622.012 1338.52 638.244C1397.81 776.515 1614.48 963.483 1943.3 753.822" stroke="url(#paint8_linear_2_162)" stroke-width="0.5658" stroke-miterlimit="10"/>
<path d="M-101.58 266.439C-23.9703 193.858 97.9297 100.175 203.44 101.995C249.67 102.795 281.41 124.528 311.07 149.582C327.59 163.524 345.58 179.216 365.79 195.709C396.06 220.402 425.96 246.946 456.06 273.46C507.08 318.157 567.92 371.535 619.38 383.567C655.4 391.998 681.82 367.884 658.94 364.874C648.38 367.384 630.22 386.517 625.04 412.921C619.94 438.925 627.05 469.269 641.92 495.183C661.65 529.568 690.98 556.582 725.27 573.975C783.53 603.539 855.35 605.989 923.2 571.814C1041.04 512.806 1127.28 543.67 1147.82 582.486C1149.69 586.016 1149.88 589.887 1149.32 593.028C1147.11 605.429 1141.45 609.55 1137.15 611.31C1127.25 615.361 1112.73 608.16 1137.55 583.326C1138.05 581.326 1139.41 578.565 1141.71 575.295C1145.43 560.033 1165.45 543.83 1205.71 547.201C1235.79 549.721 1277.01 562.023 1306.57 599.649C1316.82 612.66 1325.23 627.373 1332.41 643.495C1393.35 780.795 1632.25 960.742 1942.45 737.409" stroke="url(#paint9_linear_2_162)" stroke-width="0.5658" stroke-miterlimit="10"/>
<path d="M-100.65 259.248C-21.7804 187.918 102.37 95.954 208.09 101.935C254.5 104.565 285.38 128.799 313.99 155.663C329.87 170.695 347.33 187.238 367.01 204.42C396.38 230.074 425.85 257.178 455.92 283.822C506.69 328.578 569.03 381.156 621.81 389.968C658.75 396.138 685.86 356.993 660.67 362.174C649.05 364.564 628.85 381.226 622.38 407.48C615.99 433.394 622.19 464.159 636.37 490.542C655.23 525.628 683.91 553.442 717.75 571.654C775.47 602.719 847.54 606.42 915.78 572.135C1035.48 512.316 1121.93 550.391 1138.75 590.207C1140.35 593.988 1140.18 597.978 1139.3 601.219C1135.75 614.151 1129.02 618.061 1123.69 619.072C1111.57 621.362 1096.7 608.58 1126.08 581.976C1127.14 579.796 1129.05 576.935 1131.89 573.635C1137.95 558.282 1159.61 544.17 1200.22 549.611C1230.19 553.632 1270.61 567.364 1300.19 605.11C1310.4 618.111 1318.92 632.753 1326.3 648.766C1388.89 785.086 1650.01 958.032 1941.6 721.017" stroke="url(#paint10_linear_2_162)" stroke-width="0.5658" stroke-miterlimit="10"/>
<path d="M-99.7106 252.047C-19.5806 181.957 106.83 91.7335 212.74 101.875C259.33 106.336 289.4 133 316.92 161.754C332.2 177.836 349.09 195.259 368.24 213.151C396.71 239.755 425.76 267.429 455.8 294.203C506.31 339.01 570.16 390.808 624.25 396.389C662.11 400.309 690.44 364.954 662.41 359.483C649.47 356.963 627.499 375.946 619.729 402.059C612.049 427.883 617.339 459.068 630.839 485.922C648.829 521.697 676.86 550.331 710.25 569.354C767.42 601.929 839.76 606.87 908.39 572.465C1029.94 511.836 1116.46 557.112 1129.7 597.928C1131.01 601.969 1130.51 606.07 1129.29 609.4C1124.39 622.832 1116.52 626.083 1110.24 626.813C1095.9 628.473 1084.86 613.331 1114.62 580.596C1116.54 578.476 1118.7 575.275 1122.08 571.945C1130.48 556.502 1153.79 544.45 1194.74 551.992C1224.61 557.492 1264.22 572.665 1293.81 610.53C1303.99 623.522 1312.62 638.094 1320.19 653.997C1384.43 789.337 1667.78 955.281 1940.75 704.584" stroke="url(#paint11_linear_2_162)" stroke-width="0.5658" stroke-miterlimit="10"/>
<path d="M-98.7805 244.846C-17.3905 176.006 111.259 87.5226 217.379 101.805C264.149 108.106 293.399 137.19 319.829 167.835C334.509 184.967 350.829 203.27 369.449 221.863C397.029 249.407 425.639 277.651 455.659 304.565C505.919 349.422 571.269 400.429 626.679 402.779C665.459 404.44 694.429 365.524 664.139 356.763C650.009 352.672 626.129 370.625 617.069 396.598C608.089 422.332 612.469 453.937 625.289 481.261C642.399 517.726 669.779 547.181 702.739 567.014C759.359 601.109 831.959 607.28 900.979 572.764C1024.38 511.335 1110.83 563.733 1120.63 605.629C1121.63 609.92 1120.81 614.141 1119.26 617.571C1113.01 631.483 1104.06 635.064 1096.77 634.544C1079.98 633.343 1067.8 613.021 1103.14 579.206C1105.56 576.895 1108.33 573.605 1112.26 570.244C1123 554.722 1147.98 544.7 1189.26 554.362C1219.03 561.333 1257.82 577.965 1287.43 615.951C1297.57 628.933 1306.31 643.435 1314.08 659.237C1379.97 793.597 1685.55 952.541 1939.9 688.162" stroke="url(#paint12_linear_2_162)" stroke-width="0.5658" stroke-miterlimit="10"/>
<path d="M-97.8405 237.645C-15.1905 170.055 115.709 83.3122 222.039 101.745C268.979 109.886 297.43 141.391 322.76 173.916C336.84 192.098 352.6 211.281 370.67 230.574C397.36 259.068 425.53 287.883 455.52 314.927C505.53 359.833 572.369 410.051 629.099 409.18C668.799 408.58 698.319 366.044 665.859 354.062C650.469 348.381 624.76 365.334 614.41 391.168C604.14 416.802 607.6 448.836 619.74 476.63C635.97 513.786 662.699 544.06 695.219 564.704C751.289 600.309 824.16 607.72 893.57 573.085C1018.83 510.846 1105.09 570.294 1111.56 613.351C1112.24 617.881 1111.11 622.212 1109.24 625.762C1101.65 640.135 1091.57 643.575 1083.31 642.305C1064.13 639.345 1051.03 612.811 1091.67 577.845C1094.59 575.325 1097.97 571.965 1102.44 568.564C1115.53 552.952 1142.19 544.951 1183.77 556.762C1213.47 565.194 1251.42 583.296 1281.05 621.392C1291.16 634.364 1300 648.796 1307.97 664.488C1375.51 797.868 1703.31 949.81 1939.06 671.749" stroke="url(#paint13_linear_2_162)" stroke-width="0.5658" stroke-miterlimit="10"/>
<path d="M-96.9106 230.454C-13.0106 164.104 120.129 79.1217 226.679 101.685C273.789 111.667 301.439 145.602 325.669 180.007C339.139 199.24 354.349 219.303 371.879 239.306C397.689 268.74 425.419 298.134 455.379 325.308C505.139 370.275 573.479 419.692 631.519 415.602C672.139 412.751 702.169 366.504 667.579 351.372C650.899 344.081 623.379 360.043 611.739 385.737C600.169 411.281 602.719 443.736 614.179 472C629.529 509.855 655.609 540.94 687.689 562.393C743.199 599.519 816.339 608.16 886.139 573.415C1013.25 510.376 1099.24 576.735 1102.47 621.072C1102.82 625.833 1101.4 630.283 1099.19 633.944C1090.26 648.756 1079.03 652.067 1069.82 650.046C1048.23 645.316 1034.4 612.661 1080.17 576.475C1083.61 573.755 1087.58 570.314 1092.6 566.884C1108.03 551.182 1136.39 545.191 1178.27 559.153C1207.9 569.034 1245.01 588.617 1274.65 626.833C1284.72 639.795 1293.68 654.157 1301.84 669.739C1371.03 802.139 1721.06 947.07 1938.19 655.337" stroke="url(#paint14_linear_2_162)" stroke-width="0.5658" stroke-miterlimit="10"/>
<path d="M-95.9707 223.253C-10.8107 158.153 124.559 74.9209 231.329 101.625C278.609 113.447 305.459 149.802 328.599 186.097C341.469 206.38 356.119 227.323 373.109 248.027C398.039 278.401 425.319 308.376 455.249 335.68C504.759 380.696 574.599 429.323 633.959 422.012C675.499 416.902 706.009 366.904 669.319 348.681C651.329 339.74 622.019 354.752 609.089 380.316C596.219 405.76 597.859 438.635 608.649 467.369C623.109 505.915 648.549 537.829 680.189 560.083C735.139 598.738 808.559 608.6 878.749 573.735C1007.71 509.885 1093.38 583.056 1093.42 628.793C1093.42 633.784 1091.73 638.354 1089.19 642.135C1078.93 657.387 1066.54 660.558 1056.38 657.797C1032.37 651.276 1017.95 612.591 1068.72 575.105C1072.69 572.175 1077.24 568.674 1082.8 565.204C1100.57 549.411 1130.66 545.411 1172.8 561.543C1202.39 572.875 1238.62 593.928 1268.29 632.273C1278.32 645.225 1287.39 659.517 1295.75 674.99C1366.59 806.409 1738.85 944.34 1937.36 638.924" stroke="url(#paint15_linear_2_162)" stroke-width="0.5658" stroke-miterlimit="10"/>
<path d="M-95.0402 216.052C-8.62016 152.192 128.98 70.7303 235.98 101.555C283.43 115.227 309.47 153.993 331.52 192.168C343.79 213.501 357.88 235.315 374.33 256.738C398.38 288.062 425.22 318.607 455.12 346.041C504.38 391.108 575.72 438.955 636.39 428.413C678.85 421.042 709.82 367.244 671.05 345.971C651.74 335.369 620.65 349.432 606.43 374.865C592.26 400.209 592.99 433.514 603.1 462.718C616.68 501.954 641.46 534.689 672.67 557.762C727.05 597.938 800.75 609.03 871.33 574.055C1002.15 509.395 1087.46 589.257 1084.35 636.504C1084.01 641.705 1082.04 646.416 1079.16 650.316C1067.58 665.998 1054.02 669.039 1042.91 665.538C1016.47 657.227 1001.56 612.561 1057.24 573.725C1061.74 570.584 1066.87 567.014 1072.98 563.513C1093.1 547.631 1124.94 545.611 1167.32 563.923C1196.87 576.695 1232.23 599.239 1261.91 637.694C1271.91 650.636 1281.08 664.858 1289.64 680.221C1362.13 810.66 1756.62 941.589 1936.51 622.492" stroke="url(#paint16_linear_2_162)" stroke-width="0.5658" stroke-miterlimit="10"/>
<path d="M-94.1006 208.861C-6.42059 146.251 133.399 66.5496 240.629 101.505C288.249 117.027 313.489 158.213 334.439 198.269C346.109 220.652 359.649 243.346 375.549 265.469C398.729 297.734 425.109 328.848 454.979 356.423C503.989 401.539 576.829 448.596 638.819 434.834C682.199 425.213 713.629 367.564 672.779 343.281C652.129 331.009 619.279 344.141 603.769 369.444C588.299 394.678 588.119 428.423 597.549 458.098C610.239 498.033 634.369 531.589 665.159 555.462C718.959 597.168 792.959 609.49 863.929 574.385C996.599 508.925 1081.55 595.348 1075.29 644.235C1074.6 649.646 1072.36 654.497 1069.14 658.517C1056.25 674.62 1041.51 677.53 1029.45 673.309C1000.58 663.188 985.229 612.61 1045.77 572.374C1050.8 569.034 1056.51 565.384 1063.16 561.853C1085.62 545.881 1119.23 545.841 1161.83 566.344C1191.37 580.556 1225.82 604.589 1255.53 643.165C1265.49 656.097 1274.78 670.249 1283.53 685.501C1357.67 814.96 1774.38 938.889 1935.67 606.1" stroke="url(#paint17_linear_2_162)" stroke-width="0.5658" stroke-miterlimit="10"/>
<path d="M-93.1703 201.66C-4.23029 140.301 137.8 62.3692 245.28 101.435C293.06 118.808 317.51 162.404 337.36 204.35C348.42 227.784 361.42 251.357 376.77 274.19C399.09 307.395 425 339.09 454.85 366.794C503.61 411.971 577.94 458.228 641.25 441.245C685.55 429.363 717.43 367.844 674.5 340.59C652.51 326.628 617.9 338.84 601.1 364.014C584.33 389.148 583.18 423.333 591.99 453.467C603.72 494.113 627.27 528.478 657.63 553.152C710.85 596.388 785.14 609.93 856.5 574.705C991.02 508.435 1075.61 601.339 1066.2 651.956C1065.16 657.557 1062.66 662.558 1059.1 666.699C1044.91 683.221 1028.97 686.001 1015.97 681.051C984.67 669.129 968.94 612.661 1034.28 570.994C1039.85 567.444 1046.13 563.723 1053.33 560.163C1078.13 544.101 1113.53 546.041 1156.33 568.724C1185.86 584.377 1219.41 609.89 1249.13 648.586C1259.06 661.498 1268.45 675.59 1277.4 690.742C1353.19 819.221 1792.13 936.149 1934.8 589.677" stroke="url(#paint18_linear_2_162)" stroke-width="0.5658" stroke-miterlimit="10"/>
<path d="M-92.2302 194.459C-2.03023 134.34 142.14 58.3385 249.93 101.375C297.84 120.668 321.53 166.604 340.29 210.431C350.75 234.915 363.21 259.368 377.99 282.902C399.45 317.057 424.9 349.322 454.71 377.156C503.22 422.382 579.05 467.849 643.68 447.646C688.9 433.504 721.24 368.084 676.23 337.88C652.89 322.217 616.49 333.499 598.44 358.573C580.34 383.567 578.32 418.212 586.45 448.826C597.31 490.152 620.18 525.358 650.12 550.831C702.76 595.608 777.34 610.36 849.1 575.025C985.48 507.945 1069.73 607.24 1057.14 659.667C1055.75 665.458 1052.98 670.619 1049.08 674.88C1033.59 691.822 1016.45 694.503 1002.51 688.792C968.76 675.11 952.7 612.74 1022.81 569.624C1028.92 565.864 1035.77 562.073 1043.51 558.482C1070.66 542.33 1107.86 546.241 1150.85 571.114C1180.39 588.207 1213.02 615.211 1242.75 654.027C1252.64 666.928 1262.14 680.941 1271.29 695.993C1348.73 823.492 1809.9 933.408 1933.95 573.265" stroke="url(#paint19_linear_2_162)" stroke-width="0.5658" stroke-miterlimit="10"/>
<path d="M-91.3003 187.258C0.159706 128.389 146.56 54.0778 254.57 101.305C302.65 122.408 325.53 170.795 343.2 216.512C353.06 242.046 365.01 267.359 379.2 291.613C399.84 326.688 424.78 359.553 454.57 387.517C502.83 432.794 580.16 477.481 646.1 454.037C692.24 437.635 725.03 368.294 677.95 335.159C653.27 317.787 615.13 328.178 595.77 353.112C576.39 378.016 573.45 413.071 580.89 444.166C590.88 486.172 613.04 522.247 642.59 548.491C694.59 594.858 769.53 610.77 841.67 575.315C979.9 507.435 1063.84 613.041 1048.05 667.359C1046.31 673.33 1043.28 678.65 1039.04 683.041C1022.25 700.404 1003.92 702.934 989.03 696.513C952.86 680.981 936.46 612.831 1011.33 568.224C1017.98 564.263 1025.4 560.393 1033.69 556.772C1063.18 540.54 1102.21 546.421 1145.36 573.475C1174.93 592.008 1206.61 620.502 1236.37 659.438C1246.23 672.329 1255.84 686.272 1265.18 701.214C1344.27 827.742 1827.66 930.648 1933.1 556.822" stroke="url(#paint20_linear_2_162)" stroke-width="0.5658" stroke-miterlimit="10"/>
<path d="M-90.3602 180.066C2.35977 122.448 150.99 49.8273 259.23 101.255C307.48 124.178 329.56 175.016 346.13 222.613C368.76 287.602 404.09 350.362 454.45 397.909C502.45 443.236 581.29 487.132 648.55 460.468C695.61 441.815 728.86 368.534 679.7 332.489C653.67 313.396 613.8 322.908 593.13 347.711C572.46 372.515 568.62 407.99 575.36 439.565C600.61 557.732 720.71 631.353 834.28 575.665C989.67 499.474 1075.62 645.435 1029.03 691.252C962.96 756.232 877.34 615.741 1023.87 555.122C1084.63 523.957 1178.33 580.946 1259.07 706.495C1339.81 832.043 1845.43 927.947 1932.26 540.44" stroke="url(#paint21_linear_2_162)" stroke-width="0.5658" stroke-miterlimit="10"/>
<path d="M-87.5803 174.286C2.13968 118.528 146.12 53.498 253.03 107.536C300 131.279 322.05 181.407 338.68 228.704C361.38 293.243 396.53 355.563 446.4 402.99C494.07 448.346 571.77 492.093 638.51 467.179C685.25 449.767 718.74 379.286 672.62 344.571C662.16 336.69 649.25 333.879 636.4 335.14C619.27 336.79 602.28 345.641 591.38 359.303C572.17 383.237 569.41 417.462 576.72 447.986C604.07 562.093 723.13 634.354 835.92 581.446C988.71 509.775 1074.04 652.167 1030.47 698.373C968.84 763.743 887.03 628.253 1030.95 570.475C1092.13 541.32 1183.77 598.128 1266.26 718.506C1350.4 841.274 1849.07 928.867 1933.43 545.871" stroke="url(#paint22_linear_2_162)" stroke-width="0.5658" stroke-miterlimit="10"/>
<path d="M-84.8005 168.515C1.92947 114.607 141.229 57.1282 246.829 113.837C292.509 138.37 314.529 187.828 331.239 234.824C354.009 298.914 388.979 360.803 438.369 408.09C485.699 453.467 562.279 497.063 628.499 473.9C674.909 457.728 708.639 390.048 665.559 356.673C655.809 349.091 643.689 346.411 631.649 347.631C615.569 349.221 599.689 357.773 589.639 370.915C571.949 394.038 570.209 426.933 578.099 456.427C607.539 566.454 725.529 637.374 837.569 587.247C987.699 520.077 1072.51 658.857 1031.92 705.514C974.769 771.204 896.729 640.775 1038.04 585.857C1099.64 558.703 1189.38 615.341 1273.47 730.538C1361.13 850.626 1852.72 929.807 1934.63 551.331" stroke="url(#paint23_linear_2_162)" stroke-width="0.5658" stroke-miterlimit="10"/>
<path d="M-82.0302 162.734C1.70985 110.686 136.3 60.6988 240.62 120.118C285.02 145.411 307 194.229 323.78 240.926C346.63 304.565 381.41 366.024 430.32 413.171C477.31 458.578 552.76 502.024 618.47 480.601C664.56 465.669 698.53 400.789 658.49 368.754C649.45 361.483 638.13 358.923 626.89 360.113C611.86 361.653 597.06 369.885 587.89 382.506C571.69 404.79 570.99 436.384 579.46 464.849C610.98 570.784 727.87 640.385 839.21 593.028C986.64 530.328 1071.02 665.458 1033.35 712.645C980.72 778.575 906.4 653.297 1045.11 601.219C1107.14 576.075 1195.14 632.523 1280.65 742.56C1371.96 860.057 1856.35 930.728 1935.8 556.772" stroke="url(#paint24_linear_2_162)" stroke-width="0.5658" stroke-miterlimit="10"/>
<path d="M-79.2504 156.953C1.49963 106.766 131.37 64.2096 234.42 126.409C277.54 152.433 299.49 200.64 316.33 247.027C339.25 310.216 373.85 371.235 422.28 418.262C468.93 463.689 543.26 506.995 608.45 487.312C654.21 473.62 688.43 411.541 651.42 380.846C643.09 373.875 632.57 371.435 622.13 372.595C608.14 374.075 594.44 381.997 586.14 394.098C571.43 415.541 571.77 445.826 580.83 473.27C614.41 575.085 730.179 643.385 840.859 598.809C985.529 540.54 1069.59 671.979 1034.8 719.766C986.7 785.836 916.1 665.809 1052.2 616.581C1114.65 593.448 1201.09 649.686 1287.86 754.572C1382.96 869.549 1860 931.648 1937 562.203" stroke="url(#paint25_linear_2_162)" stroke-width="0.5658" stroke-miterlimit="10"/>
<path d="M-76.4705 151.182C1.28954 102.855 126.43 67.68 228.22 132.7C270.06 159.424 291.97 207.041 308.88 253.137C331.87 315.867 366.3 376.466 414.23 423.353C460.54 468.799 533.74 511.966 598.41 494.023C643.85 481.571 678.23 422.383 644.34 392.928C636.7 386.287 626.99 383.947 617.36 385.077C604.42 386.497 591.81 394.098 584.37 405.7C571.16 426.303 572.53 455.277 582.17 481.701C617.79 579.376 732.42 646.386 842.47 604.59C984.33 550.722 1068.15 678.41 1036.2 726.888C992.64 792.987 925.75 678.32 1059.24 631.944C1122.11 610.81 1207.17 666.799 1295.01 766.593C1394.05 879.11 1863.6 932.578 1938.14 567.654" stroke="url(#paint26_linear_2_162)" stroke-width="0.5658" stroke-miterlimit="10"/>
<path d="M-73.6904 145.401C1.07957 98.9345 121.47 71.0804 222.02 138.99C262.58 166.384 284.46 213.451 301.44 259.248C324.5 321.527 358.75 381.696 406.2 428.443C452.18 473.92 524.25 516.936 588.4 500.734C633.51 489.522 668.12 433.154 637.28 405.02C630.34 398.689 621.44 396.459 612.62 397.559C600.72 398.919 589.21 406.21 582.64 417.292C570.93 437.045 573.32 464.709 583.55 490.122C621.19 583.636 734.65 649.376 844.13 610.37C983.13 560.853 1066.78 684.751 1037.66 734.008C998.63 800.018 935.45 690.832 1066.33 647.296C1129.62 628.173 1213.48 683.861 1302.22 778.605C1405.35 888.711 1867.26 933.498 1939.33 573.085" stroke="url(#paint27_linear_2_162)" stroke-width="0.5658" stroke-miterlimit="10"/>
<path d="M-70.9103 139.631C0.86972 95.0239 116.52 74.4309 215.81 145.281C255.1 173.316 276.93 219.862 293.98 265.349C317.12 327.178 351.18 386.907 398.15 433.524C443.79 479.021 514.7 521.757 578.37 507.445C623.14 497.373 657.98 443.926 630.21 417.112C623.98 411.091 615.88 408.98 607.86 410.051C597.01 411.351 586.6 418.322 580.89 428.903C570.69 447.806 574.09 474.15 584.92 498.564C624.55 587.897 736.82 652.376 845.77 616.171C981.85 570.954 1065.42 691.002 1039.1 741.15C1004.57 806.939 945.14 703.364 1073.41 662.678C1137.12 645.565 1219.95 700.884 1309.41 790.637C1416.78 898.363 1870.89 934.438 1940.51 578.535" stroke="url(#paint28_linear_2_162)" stroke-width="0.5658" stroke-miterlimit="10"/>
<path d="M-68.1304 133.85C0.65963 91.1033 111.57 77.7213 209.61 151.572C247.64 180.217 269.42 226.273 286.53 271.46C309.74 332.839 343.62 392.138 390.1 438.625C435.4 484.152 505.19 526.728 568.34 514.166C612.78 505.325 647.84 454.707 623.13 429.203C617.6 423.493 610.31 421.502 603.09 422.532C593.28 423.773 583.98 430.424 579.13 440.495C570.44 458.548 574.83 483.561 586.27 506.985C627.85 592.118 738.93 655.337 847.4 621.952C980.51 580.986 1064.04 697.133 1040.52 748.281C1010.43 813.72 954.81 715.886 1080.47 678.04C1144.6 662.928 1226.58 717.816 1316.59 802.659C1428.36 908.004 1874.52 935.358 1941.68 583.986" stroke="url(#paint29_linear_2_162)" stroke-width="0.5658" stroke-miterlimit="10"/>
<path d="M-65.3503 128.079C0.449661 87.1828 106.63 80.9519 203.41 157.863C240.19 187.088 261.9 232.674 279.08 277.571C302.36 338.5 336.06 397.369 382.06 443.716C427.02 489.262 495.68 531.679 558.32 520.877C602.44 513.266 637.71 465.479 616.07 441.295C611.24 435.895 604.75 434.014 598.34 435.024C589.58 436.215 581.38 442.535 577.39 452.107C570.22 469.299 575.59 492.993 587.64 515.426C631.13 596.338 741.01 658.297 849.05 627.753C979.12 590.977 1062.67 703.174 1041.97 755.422C1016.23 820.371 964.51 728.418 1087.56 693.423C1152.11 680.321 1233.4 734.679 1323.79 814.691C1440.11 917.656 1878.16 936.299 1942.87 589.437" stroke="url(#paint30_linear_2_162)" stroke-width="0.5658" stroke-miterlimit="10"/>
<path d="M-62.5704 122.298C0.239567 83.2622 101.71 84.1124 197.21 164.144C232.75 193.929 254.38 239.075 271.63 283.662C294.98 344.131 328.5 402.57 374.02 448.786C418.64 494.353 486.18 536.619 548.29 527.568C592.08 521.187 627.56 476.23 608.99 453.367C604.86 448.276 599.18 446.516 593.57 447.496C585.85 448.626 578.77 454.617 575.63 463.689C569.99 480.021 576.31 502.384 589 523.837C634.36 600.519 743.03 661.208 850.68 633.524C977.66 600.869 1061.24 709.085 1043.4 762.533C1021.92 826.862 974.18 740.92 1094.63 708.765C1159.6 697.673 1240.36 751.411 1330.98 826.692C1452.01 927.237 1881.8 937.209 1944.04 594.858" stroke="url(#paint31_linear_2_162)" stroke-width="0.5658" stroke-miterlimit="10"/>
<path d="M-59.7904 116.527C0.0295944 79.3517 96.8096 87.2227 191.01 170.445C225.32 200.76 246.87 245.496 264.19 289.783C287.62 349.802 320.95 407.81 365.99 453.897C410.28 499.494 476.69 541.59 538.28 534.299C581.75 529.158 617.41 487.022 601.94 465.469C598.51 460.688 593.64 459.048 588.83 459.988C582.16 461.058 576.19 466.709 573.9 475.3C569.79 490.753 577.05 511.806 590.38 532.279C637.56 604.729 745.029 664.108 852.339 639.315C976.179 610.7 1059.78 714.916 1044.85 769.664C1027.51 833.253 983.879 753.441 1101.72 724.137C1167.11 715.056 1247.49 768.074 1338.18 838.724C1464.07 936.789 1885.44 938.149 1945.23 600.309" stroke="url(#paint32_linear_2_162)" stroke-width="0.5658" stroke-miterlimit="10"/>
<path d="M-57.0203 110.746C-0.190262 75.4311 91.9296 90.2732 184.8 176.726C217.9 207.541 239.34 251.897 256.73 295.884C280.23 355.453 313.38 413.031 357.93 458.978C401.88 504.595 467.17 546.541 528.24 541.01C571.39 537.099 607.23 497.784 594.86 477.561C592.12 473.09 588.06 471.56 584.07 472.48C578.44 473.49 573.59 478.791 572.15 486.902C569.57 501.454 577.76 521.217 591.74 540.71C640.68 608.92 746.95 666.969 853.97 645.105C974.61 620.462 1058.22 720.657 1046.28 776.795C1032.93 839.554 993.56 765.963 1108.79 739.509C1174.6 732.428 1254.73 784.626 1345.37 850.746C1476.28 946.26 1889.08 939.079 1946.41 605.76" stroke="url(#paint33_linear_2_162)" stroke-width="0.5658" stroke-miterlimit="10"/>
<path d="M-54.24 104.975C-0.409988 71.5205 87.0899 93.2637 178.6 183.027C210.51 214.322 231.83 258.318 249.28 301.995C272.85 361.113 305.83 418.252 349.89 464.069C393.5 509.715 457.67 551.502 518.22 547.721C561.04 545.041 597.06 508.525 587.79 489.652C585.74 485.482 582.5 484.082 579.31 484.962C574.73 485.912 570.99 490.853 570.4 498.504C569.35 512.136 578.45 530.618 593.11 549.141C643.76 613.121 748.84 669.779 855.62 650.896C973.01 630.133 1056.57 726.327 1047.72 783.936C1038.22 845.775 1003.24 778.495 1115.87 754.882C1182.1 749.811 1262.11 801.058 1352.56 862.778C1488.63 955.631 1892.72 940.009 1947.59 611.21" stroke="url(#paint34_linear_2_162)" stroke-width="0.5658" stroke-miterlimit="10"/>
<path d="M-51.4603 99.1946C-0.620327 67.5999 82.2998 96.1941 172.4 189.308C203.13 221.063 224.31 264.709 241.83 308.095C265.47 366.764 298.27 423.473 341.85 469.159C385.12 514.826 448.17 556.462 508.19 554.432C550.69 552.992 586.86 519.257 580.72 501.734C579.36 497.864 576.94 496.593 574.55 497.444C571.02 498.334 568.38 502.894 568.65 510.096C569.12 522.777 579.12 540.02 594.47 557.563C646.76 617.321 750.68 672.53 857.25 656.677C971.35 639.705 1054.79 731.938 1049.15 791.057C1043.35 851.916 1012.92 790.997 1122.93 770.244C1189.58 767.184 1269.58 817.371 1359.74 874.799C1501.12 964.853 1896.34 940.939 1948.76 616.651" stroke="url(#paint35_linear_2_162)" stroke-width="0.5658" stroke-miterlimit="10"/>
<path d="M-48.6807 93.4236C-0.830666 63.6792 77.5595 99.0845 166.199 195.609C195.769 227.804 216.789 271.13 234.379 314.216C258.099 372.425 290.709 428.713 333.809 474.26C376.739 519.957 438.669 561.443 498.169 561.153C540.349 560.953 576.669 529.958 573.649 513.836C572.979 510.255 571.379 509.115 569.789 509.935C567.299 510.775 565.759 514.936 566.899 521.697C568.869 533.409 579.779 549.431 595.839 565.994C649.709 621.552 752.489 675.23 858.899 662.468C969.659 649.186 1052.88 737.529 1050.6 798.188C1048.34 858.037 1022.62 803.519 1130.02 785.606C1197.09 784.546 1277.18 833.553 1366.94 886.811C1513.75 973.924 1899.99 941.859 1949.94 622.092" stroke="url(#paint36_linear_2_162)" stroke-width="0.5658" stroke-miterlimit="10"/>
<path d="M-45.9006 87.6428C-1.04063 59.7587 72.8695 101.905 160 201.89C188.42 234.505 209.279 277.531 226.939 320.317C250.729 378.076 283.159 433.924 325.769 479.341C368.369 525.058 429.169 566.404 488.149 567.854C530.009 568.894 566.489 540.59 566.589 525.918C566.609 522.617 565.819 521.627 565.039 522.417C563.599 523.197 563.129 526.948 565.159 533.299C568.579 544.03 580.429 558.853 597.209 574.425C652.599 625.822 754.259 677.85 860.549 668.259C967.939 658.567 1050.84 743.12 1052.04 805.319C1053.18 864.158 1032.3 816.041 1137.1 800.978C1204.59 801.929 1284.85 849.636 1374.14 898.843C1526.52 982.825 1903.63 942.799 1951.13 627.543" stroke="url(#paint37_linear_2_162)" stroke-width="0.5658" stroke-miterlimit="10"/>
<path d="M-43.1202 81.8719C-1.25024 55.8481 68.2397 104.695 153.8 208.191C181.1 241.215 201.76 283.952 219.49 326.428C243.35 383.737 275.6 439.155 317.73 484.432C359.99 530.168 419.67 571.364 478.13 574.575C519.67 576.855 556.37 551.201 559.52 538.009C560.24 534.979 560.26 534.149 560.28 534.899C559.88 535.619 560.47 538.97 563.41 544.89C568.24 554.632 581.06 568.284 598.57 582.846C655.43 630.123 755.99 680.38 862.18 674.03C966.16 667.819 1048.61 748.701 1053.47 812.44C1057.88 870.279 1041.98 828.552 1144.17 816.341C1212.08 819.301 1292.58 865.578 1381.32 910.855C1539.37 991.497 1907.26 943.72 1952.3 632.974" stroke="url(#paint38_linear_2_162)" stroke-width="0.5658" stroke-miterlimit="10"/>
<path d="M-40.3402 76.0912C-1.46021 51.9276 63.6797 107.426 147.6 214.472C173.79 247.887 194.25 290.343 212.04 332.529C235.98 389.388 268.04 444.376 309.69 489.522C351.61 535.289 410.17 576.335 468.11 581.286C509.33 584.806 546.34 561.793 552.46 550.101C553.91 547.341 554.71 546.661 555.54 547.391C556.19 548.051 557.8 551.011 561.68 556.502C567.87 565.274 581.69 577.735 599.96 591.277C658.23 634.484 757.72 682.821 863.85 679.821C964.4 676.98 1046.28 754.352 1054.94 819.571C1062.49 876.46 1051.7 841.074 1151.28 831.703C1219.61 836.664 1300.4 881.41 1388.54 922.877C1552.37 999.948 1910.92 944.64 1953.51 638.424" stroke="url(#paint39_linear_2_162)" stroke-width="0.5658" stroke-miterlimit="10"/>
<path d="M-37.5605 70.3203C-1.67055 48.017 59.1894 110.116 141.399 220.773C166.509 254.568 186.729 296.764 204.589 338.65C228.599 395.058 260.479 449.606 301.639 494.623C343.219 540.41 400.659 581.326 458.069 588.007C498.969 592.768 536.349 572.455 545.369 562.203C547.549 559.723 549.119 559.193 550.759 559.883C552.449 560.483 555.069 563.073 559.899 568.104C567.429 575.945 582.259 587.207 601.289 599.709C660.929 638.905 759.379 685.161 865.449 685.611C962.559 686.022 1043.72 760.072 1056.33 826.702C1066.93 882.701 1061.33 853.596 1158.31 847.075C1227.06 854.046 1308.17 897.123 1395.69 934.908C1565.38 1008.16 1914.52 945.58 1954.65 643.875" stroke="url(#paint40_linear_2_162)" stroke-width="0.5658" stroke-miterlimit="10"/>
<path d="M-34.7903 64.5394C-1.89028 44.0963 54.7597 112.767 135.19 227.054C159.24 261.219 179.2 303.165 197.14 344.741C221.22 400.689 252.92 454.817 293.6 499.694C334.84 545.511 391.16 586.277 448.05 594.698C488.63 600.709 526.39 583.156 538.31 574.265C541.24 572.085 543.57 571.685 546.01 572.345C548.75 572.885 552.36 575.135 558.16 579.686C567.02 586.637 582.85 596.678 602.66 608.12C663.64 643.365 761.08 687.352 867.1 691.382C960.77 694.943 1041.07 765.853 1057.78 833.813C1071.34 888.991 1071.03 866.098 1165.4 862.417C1234.57 871.399 1316.02 912.705 1402.89 946.9C1578.52 1016.04 1918.17 946.48 1955.83 649.286" stroke="url(#paint41_linear_2_162)" stroke-width="0.5658" stroke-miterlimit="10"/>
<path d="M-32.0104 58.7686C-2.10038 40.1859 50.4296 115.387 128.99 233.354C151.99 267.889 171.69 309.586 189.69 350.862C213.84 406.36 245.37 460.058 285.56 504.805C326.47 550.641 381.66 591.277 438.03 601.429C478.28 608.68 516.41 593.958 531.24 586.377C534.9 584.506 538.01 584.216 541.25 584.856C545.03 585.337 549.64 587.267 556.41 591.307C566.6 597.398 583.43 606.21 604.03 616.571C666.34 647.936 762.79 689.452 868.75 697.193C958.98 703.774 1038.29 771.774 1059.22 840.964C1075.69 895.402 1080.72 878.64 1172.48 877.81C1242.07 888.801 1323.87 928.217 1410.09 958.952C1591.7 1023.69 1921.81 947.44 1957.02 654.767" stroke="url(#paint42_linear_2_162)" stroke-width="0.5658" stroke-miterlimit="10"/>
<path d="M-29.2305 52.9877C-2.31047 36.2553 46.1693 117.977 122.789 239.635C144.769 274.531 164.17 315.977 182.24 356.963C206.47 412.011 237.809 465.269 277.519 509.885C318.089 555.752 372.159 596.248 428.009 608.14C467.939 616.641 506.389 604.749 524.179 598.469C528.569 596.918 532.459 596.738 536.499 597.338C541.329 597.768 546.949 599.389 554.669 602.909C566.219 608.17 584.019 615.741 605.399 625.002C669.029 652.556 764.529 691.392 870.389 702.974C957.209 712.475 1035.4 777.785 1060.66 848.095C1079.99 901.893 1090.4 891.162 1179.55 893.182C1249.56 906.174 1331.7 943.6 1417.27 970.974C1604.9 1030.99 1925.44 948.37 1958.19 660.208" stroke="url(#paint43_linear_2_162)" stroke-width="0.5658" stroke-miterlimit="10"/>
<path d="M-26.4507 47.2069C-2.52068 32.3347 41.9994 120.538 116.589 245.916C137.559 281.172 156.659 322.378 174.789 363.054C199.089 417.652 230.249 470.48 269.469 514.956C309.699 560.843 362.649 601.209 417.969 614.831C457.579 624.582 496.319 615.541 517.089 610.53C522.199 609.3 526.869 609.23 531.719 609.8C537.589 610.17 544.239 611.501 552.899 614.481C565.819 618.932 584.579 625.282 606.739 633.404C671.699 657.217 766.279 693.133 872.009 708.735C955.449 721.047 1032.4 783.886 1062.08 855.197C1084.24 908.444 1100.07 903.654 1186.61 908.514C1257.04 923.517 1339.49 958.852 1424.45 982.965C1618.1 1037.93 1929.06 949.261 1959.36 665.619" stroke="url(#paint44_linear_2_162)" stroke-width="0.5658" stroke-miterlimit="10"/>
<path d="M-23.6705 41.436C-2.73053 28.424 37.9095 123.088 110.39 252.217C130.38 287.822 149.139 328.799 167.339 369.175C191.709 423.323 222.69 475.72 261.43 520.067C301.32 565.974 353.14 606.21 407.95 621.562C447.23 632.564 486.25 626.363 510.03 622.642C515.86 621.732 521.319 621.762 526.979 622.302C533.899 622.612 541.58 623.652 551.17 626.103C565.49 629.743 585.18 634.884 608.13 641.855C674.44 661.998 768.14 694.763 873.67 714.546C953.78 729.568 1029.38 790.167 1063.53 862.348C1088.51 915.145 1109.77 916.196 1193.7 923.907C1264.56 940.919 1347.27 974.064 1431.65 995.017C1631.31 1044.58 1932.71 950.221 1960.54 671.099" stroke="url(#paint45_linear_2_162)" stroke-width="0.5658" stroke-miterlimit="10"/>
<path d="M-20.8903 35.655C-2.95026 24.5034 33.9198 125.618 104.19 258.498C123.21 294.463 141.63 335.199 159.9 375.275C184.34 428.963 215.14 480.931 253.4 525.148C292.96 571.084 343.65 611.19 397.94 628.263C436.9 640.515 476.18 637.154 502.97 634.724C509.51 634.134 515.77 634.274 522.23 634.784C530.2 635.034 538.92 635.794 549.43 637.694C565.16 640.535 585.78 644.485 609.5 650.276C677.19 666.798 770.07 696.173 875.32 720.326C952.17 737.959 1026.3 796.528 1064.98 869.469C1092.79 921.906 1119.46 928.707 1200.79 939.259C1272.07 958.272 1355.01 989.146 1438.86 1007.02C1644.5 1050.85 1936.36 951.131 1961.74 676.52" stroke="url(#paint46_linear_2_162)" stroke-width="0.5658" stroke-miterlimit="10"/>
<path d="M-18.1104 29.8843C-3.16035 20.593 30.0097 128.149 97.9897 264.799C116.06 301.125 134.11 341.61 152.45 381.386C176.97 434.624 207.58 486.162 245.35 530.238C284.57 576.195 334.13 616.181 387.91 634.974C426.54 648.476 466.09 647.956 495.9 646.806C503.15 646.526 510.2 646.786 517.47 647.256C526.48 647.446 536.25 647.926 547.68 649.286C564.83 651.326 586.38 654.107 610.86 658.697C679.97 671.649 772.1 697.403 876.95 726.107C950.61 746.27 1023.17 803.009 1066.41 876.59C1097.06 928.757 1129.14 941.209 1207.86 954.621C1279.56 975.644 1362.66 1004.17 1446.04 1019.04C1657.59 1056.77 1939.99 952.061 1962.91 681.961" stroke="url(#paint47_linear_2_162)" stroke-width="0.5658" stroke-miterlimit="10"/>
<path d="M-15.3303 24.1036C-3.37032 16.6725 26.1896 130.669 91.7896 271.08C108.93 307.776 126.59 348.012 145 387.487C169.59 440.275 200.02 491.383 237.31 535.319C276.19 581.306 324.59 621.242 377.89 641.685C416.17 656.507 455.99 658.748 488.83 658.898C496.8 658.938 504.64 659.298 512.71 659.748C522.77 659.878 533.6 660.068 545.93 660.888C564.52 662.118 586.999 663.758 612.229 667.129C682.809 676.55 774.28 698.443 878.6 731.898C949.18 754.532 1020.05 809.59 1067.85 883.731C1101.36 935.709 1138.83 953.741 1214.94 970.004C1287.06 993.037 1370.25 1019.13 1453.24 1031.08C1670.61 1062.37 1943.64 953.011 1964.1 687.432" stroke="url(#paint48_linear_2_162)" stroke-width="0.5658" stroke-miterlimit="10"/>
<path d="M-12.5604 18.3326C-3.59042 12.7518 22.4495 133.19 85.5795 277.381C101.809 314.446 119.069 354.432 137.539 393.608C162.199 445.946 192.45 496.613 229.26 540.43C267.8 586.437 315.069 626.233 367.849 648.416C405.799 664.478 445.87 669.549 481.75 671.009C490.42 671.359 499.07 671.839 507.94 672.249C519.04 672.329 530.93 672.219 544.17 672.499C564.2 672.919 587.62 673.43 613.58 675.57C685.67 681.501 776.599 699.323 880.229 737.689C947.839 762.723 1016.92 816.271 1069.28 890.862C1105.68 942.719 1148.5 966.263 1222.01 985.366C1294.55 1010.4 1377.74 1034.01 1460.42 1043.09C1683.49 1067.6 1947.26 953.921 1965.27 692.863" stroke="url(#paint49_linear_2_162)" stroke-width="0.5658" stroke-miterlimit="10"/>
<path d="M-9.78052 12.5516C-3.80052 8.83106 18.7994 135.72 79.3794 283.662C94.7094 321.107 111.549 360.833 130.099 399.699C154.829 451.587 184.899 501.824 221.229 545.501C259.429 591.537 305.579 631.183 357.839 655.107C395.469 672.409 435.779 680.371 474.689 683.071C484.069 683.751 493.519 684.331 503.189 684.711C515.339 684.731 528.299 684.331 542.429 684.081C563.909 683.691 588.269 683.091 614.959 683.981C688.619 686.442 779.149 699.993 881.879 743.46C946.639 770.864 1013.82 823.002 1070.72 897.973C1110.04 949.78 1158.19 978.765 1229.08 1000.72C1302.04 1027.76 1385.14 1048.83 1467.61 1055.11C1696.26 1072.51 1950.9 954.841 1966.44 698.293" stroke="url(#paint50_linear_2_162)" stroke-width="0.5658" stroke-miterlimit="10"/>
<path d="M-7.00049 6.78071C-4.01049 4.92043 15.2394 138.26 73.1794 289.963C87.6294 327.798 104.039 367.244 122.649 405.82C147.459 457.247 177.349 507.065 213.179 550.601C251.049 596.658 296.059 636.164 347.809 661.828C385.109 680.37 425.669 691.132 467.619 695.173C477.709 696.153 487.949 696.853 498.439 697.203C511.629 697.163 525.659 696.473 540.689 695.683C563.619 694.483 588.949 692.772 616.329 692.412C691.619 691.422 781.899 700.514 883.529 749.251C945.579 779.005 1010.75 829.833 1072.17 905.104C1114.45 956.921 1167.89 991.286 1236.17 1016.08C1309.55 1045.13 1392.46 1063.61 1474.81 1067.12C1708.88 1077.12 1954.54 955.761 1967.63 703.724" stroke="url(#paint51_linear_2_162)" stroke-width="0.5658" stroke-miterlimit="10"/>
<path d="M-4.22058 1C-4.22058 1 75.3896 697.823 493.68 709.695C625.02 708.775 829.599 632.664 1073.6 912.245C1317.6 1191.84 1951.27 1117.66 1968.81 709.195" stroke="url(#paint52_linear_2_162)" stroke-width="0.5658" stroke-miterlimit="10"/>
</g>
<defs>
<linearGradient id="paint0_linear_2_162" x1="1295.52" y1="227.862" x2="538.363" y2="982.128" gradientUnits="userSpaceOnUse">
<stop stop-color="#1BA4E5" stop-opacity="0.5"/>
<stop offset="1" stop-color="#B40FE7"/>
</linearGradient>
<linearGradient id="paint1_linear_2_162" x1="1298.23" y1="215.03" x2="537.367" y2="972.985" gradientUnits="userSpaceOnUse">
<stop stop-color="#1BA4E5" stop-opacity="0.5"/>
<stop offset="1" stop-color="#B40FE7"/>
</linearGradient>
<linearGradient id="paint2_linear_2_162" x1="1300.81" y1="202.072" x2="536.246" y2="963.715" gradientUnits="userSpaceOnUse">
<stop stop-color="#1BA4E5" stop-opacity="0.5"/>
<stop offset="1" stop-color="#B40FE7"/>
</linearGradient>
<linearGradient id="paint3_linear_2_162" x1="1303.26" y1="188.988" x2="534.999" y2="954.32" gradientUnits="userSpaceOnUse">
<stop stop-color="#1BA4E5" stop-opacity="0.5"/>
<stop offset="1" stop-color="#B40FE7"/>
</linearGradient>
<linearGradient id="paint4_linear_2_162" x1="1305.59" y1="175.78" x2="533.628" y2="944.799" gradientUnits="userSpaceOnUse">
<stop stop-color="#1BA4E5" stop-opacity="0.5"/>
<stop offset="1" stop-color="#B40FE7"/>
</linearGradient>
<linearGradient id="paint5_linear_2_162" x1="1307.8" y1="162.447" x2="532.132" y2="935.153" gradientUnits="userSpaceOnUse">
<stop stop-color="#1BA4E5" stop-opacity="0.5"/>
<stop offset="1" stop-color="#B40FE7"/>
</linearGradient>
<linearGradient id="paint6_linear_2_162" x1="1309.88" y1="148.992" x2="530.513" y2="925.384" gradientUnits="userSpaceOnUse">
<stop stop-color="#1BA4E5" stop-opacity="0.5"/>
<stop offset="1" stop-color="#B40FE7"/>
</linearGradient>
<linearGradient id="paint7_linear_2_162" x1="1311.84" y1="135.417" x2="528.775" y2="915.495" gradientUnits="userSpaceOnUse">
<stop stop-color="#1BA4E5" stop-opacity="0.5"/>
<stop offset="1" stop-color="#B40FE7"/>
</linearGradient>
<linearGradient id="paint8_linear_2_162" x1="1313.73" y1="121.773" x2="526.961" y2="905.542" gradientUnits="userSpaceOnUse">
<stop stop-color="#1BA4E5" stop-opacity="0.5"/>
<stop offset="1" stop-color="#B40FE7"/>
</linearGradient>
<linearGradient id="paint9_linear_2_162" x1="1315.62" y1="108.128" x2="525.145" y2="895.588" gradientUnits="userSpaceOnUse">
<stop stop-color="#1BA4E5" stop-opacity="0.5"/>
<stop offset="1" stop-color="#B40FE7"/>
</linearGradient>
<linearGradient id="paint10_linear_2_162" x1="1317.51" y1="94.4844" x2="523.329" y2="885.635" gradientUnits="userSpaceOnUse">
<stop stop-color="#1BA4E5" stop-opacity="0.5"/>
<stop offset="1" stop-color="#B40FE7"/>
</linearGradient>
<linearGradient id="paint11_linear_2_162" x1="1319.4" y1="80.8404" x2="521.512" y2="875.681" gradientUnits="userSpaceOnUse">
<stop stop-color="#1BA4E5" stop-opacity="0.5"/>
<stop offset="1" stop-color="#B40FE7"/>
</linearGradient>
<linearGradient id="paint12_linear_2_162" x1="1321.34" y1="67.2354" x2="519.743" y2="865.774" gradientUnits="userSpaceOnUse">
<stop stop-color="#1BA4E5" stop-opacity="0.5"/>
<stop offset="1" stop-color="#B40FE7"/>
</linearGradient>
<linearGradient id="paint13_linear_2_162" x1="1323.89" y1="54.2053" x2="518.563" y2="856.458" gradientUnits="userSpaceOnUse">
<stop stop-color="#1BA4E5" stop-opacity="0.5"/>
<stop offset="1" stop-color="#B40FE7"/>
</linearGradient>
<linearGradient id="paint14_linear_2_162" x1="1327.06" y1="41.7969" x2="518.001" y2="847.764" gradientUnits="userSpaceOnUse">
<stop stop-color="#1BA4E5" stop-opacity="0.5"/>
<stop offset="1" stop-color="#B40FE7"/>
</linearGradient>
<linearGradient id="paint15_linear_2_162" x1="1330.72" y1="29.8872" x2="517.937" y2="839.569" gradientUnits="userSpaceOnUse">
<stop stop-color="#1BA4E5" stop-opacity="0.5"/>
<stop offset="1" stop-color="#B40FE7"/>
</linearGradient>
<linearGradient id="paint16_linear_2_162" x1="1334.79" y1="18.385" x2="518.279" y2="831.781" gradientUnits="userSpaceOnUse">
<stop stop-color="#1BA4E5" stop-opacity="0.5"/>
<stop offset="1" stop-color="#B40FE7"/>
</linearGradient>
<linearGradient id="paint17_linear_2_162" x1="1339.2" y1="7.21952" x2="518.956" y2="824.329" gradientUnits="userSpaceOnUse">
<stop stop-color="#1BA4E5" stop-opacity="0.5"/>
<stop offset="1" stop-color="#B40FE7"/>
</linearGradient>
<linearGradient id="paint18_linear_2_162" x1="1343.88" y1="-3.66374" x2="519.913" y2="817.159" gradientUnits="userSpaceOnUse">
<stop stop-color="#1BA4E5" stop-opacity="0.5"/>
<stop offset="1" stop-color="#B40FE7"/>
</linearGradient>
<linearGradient id="paint19_linear_2_162" x1="1348.8" y1="-14.3084" x2="521.108" y2="810.227" gradientUnits="userSpaceOnUse">
<stop stop-color="#1BA4E5" stop-opacity="0.5"/>
<stop offset="1" stop-color="#B40FE7"/>
</linearGradient>
<linearGradient id="paint20_linear_2_162" x1="1353.93" y1="-24.7491" x2="522.504" y2="803.498" gradientUnits="userSpaceOnUse">
<stop stop-color="#1BA4E5" stop-opacity="0.5"/>
<stop offset="1" stop-color="#B40FE7"/>
</linearGradient>
<linearGradient id="paint21_linear_2_162" x1="1359.22" y1="-35.0141" x2="524.076" y2="796.945" gradientUnits="userSpaceOnUse">
<stop stop-color="#1BA4E5" stop-opacity="0.5"/>
<stop offset="1" stop-color="#B40FE7"/>
</linearGradient>
<linearGradient id="paint22_linear_2_162" x1="1358.13" y1="-31.8543" x2="529.393" y2="793.716" gradientUnits="userSpaceOnUse">
<stop stop-color="#1BA4E5" stop-opacity="0.5"/>
<stop offset="1" stop-color="#B40FE7"/>
</linearGradient>
<linearGradient id="paint23_linear_2_162" x1="1357.04" y1="-28.6825" x2="534.722" y2="790.5" gradientUnits="userSpaceOnUse">
<stop stop-color="#1BA4E5" stop-opacity="0.5"/>
<stop offset="1" stop-color="#B40FE7"/>
</linearGradient>
<linearGradient id="paint24_linear_2_162" x1="1355.98" y1="-25.4973" x2="540.065" y2="787.298" gradientUnits="userSpaceOnUse">
<stop stop-color="#1BA4E5" stop-opacity="0.5"/>
<stop offset="1" stop-color="#B40FE7"/>
</linearGradient>
<linearGradient id="paint25_linear_2_162" x1="1354.92" y1="-22.2979" x2="545.421" y2="784.11" gradientUnits="userSpaceOnUse">
<stop stop-color="#1BA4E5" stop-opacity="0.5"/>
<stop offset="1" stop-color="#B40FE7"/>
</linearGradient>
<linearGradient id="paint26_linear_2_162" x1="1353.88" y1="-19.084" x2="550.792" y2="780.936" gradientUnits="userSpaceOnUse">
<stop stop-color="#1BA4E5" stop-opacity="0.5"/>
<stop offset="1" stop-color="#B40FE7"/>
</linearGradient>
<linearGradient id="paint27_linear_2_162" x1="1352.85" y1="-15.8548" x2="556.179" y2="777.777" gradientUnits="userSpaceOnUse">
<stop stop-color="#1BA4E5" stop-opacity="0.5"/>
<stop offset="1" stop-color="#B40FE7"/>
</linearGradient>
<linearGradient id="paint28_linear_2_162" x1="1351.84" y1="-12.6091" x2="561.582" y2="774.635" gradientUnits="userSpaceOnUse">
<stop stop-color="#1BA4E5" stop-opacity="0.5"/>
<stop offset="1" stop-color="#B40FE7"/>
</linearGradient>
<linearGradient id="paint29_linear_2_162" x1="1350.85" y1="-9.34642" x2="567.002" y2="771.51" gradientUnits="userSpaceOnUse">
<stop stop-color="#1BA4E5" stop-opacity="0.5"/>
<stop offset="1" stop-color="#B40FE7"/>
</linearGradient>
<linearGradient id="paint30_linear_2_162" x1="1349.88" y1="-6.06602" x2="572.439" y2="768.403" gradientUnits="userSpaceOnUse">
<stop stop-color="#1BA4E5" stop-opacity="0.5"/>
<stop offset="1" stop-color="#B40FE7"/>
</linearGradient>
<linearGradient id="paint31_linear_2_162" x1="1348.92" y1="-2.76725" x2="577.895" y2="765.314" gradientUnits="userSpaceOnUse">
<stop stop-color="#1BA4E5" stop-opacity="0.5"/>
<stop offset="1" stop-color="#B40FE7"/>
</linearGradient>
<linearGradient id="paint32_linear_2_162" x1="1347.98" y1="0.550584" x2="583.369" y2="762.245" gradientUnits="userSpaceOnUse">
<stop stop-color="#1BA4E5" stop-opacity="0.5"/>
<stop offset="1" stop-color="#B40FE7"/>
</linearGradient>
<linearGradient id="paint33_linear_2_162" x1="1347.06" y1="3.88805" x2="588.864" y2="759.194" gradientUnits="userSpaceOnUse">
<stop stop-color="#1BA4E5" stop-opacity="0.5"/>
<stop offset="1" stop-color="#B40FE7"/>
</linearGradient>
<linearGradient id="paint34_linear_2_162" x1="1346.17" y1="7.24588" x2="594.379" y2="756.165" gradientUnits="userSpaceOnUse">
<stop stop-color="#1BA4E5" stop-opacity="0.5"/>
<stop offset="1" stop-color="#B40FE7"/>
</linearGradient>
<linearGradient id="paint35_linear_2_162" x1="1345.29" y1="10.6244" x2="599.914" y2="753.156" gradientUnits="userSpaceOnUse">
<stop stop-color="#1BA4E5" stop-opacity="0.5"/>
<stop offset="1" stop-color="#B40FE7"/>
</linearGradient>
<linearGradient id="paint36_linear_2_162" x1="1344.43" y1="14.0239" x2="605.47" y2="750.168" gradientUnits="userSpaceOnUse">
<stop stop-color="#1BA4E5" stop-opacity="0.5"/>
<stop offset="1" stop-color="#B40FE7"/>
</linearGradient>
<linearGradient id="paint37_linear_2_162" x1="1343.6" y1="17.4449" x2="601.45" y2="756.762" gradientUnits="userSpaceOnUse">
<stop stop-color="#1BA4E5" stop-opacity="0.5"/>
<stop offset="1" stop-color="#B40FE7"/>
</linearGradient>
<linearGradient id="paint38_linear_2_162" x1="1342.79" y1="20.8872" x2="596.143" y2="764.682" gradientUnits="userSpaceOnUse">
<stop stop-color="#1BA4E5" stop-opacity="0.5"/>
<stop offset="1" stop-color="#B40FE7"/>
</linearGradient>
<linearGradient id="paint39_linear_2_162" x1="1342" y1="24.351" x2="590.85" y2="772.629" gradientUnits="userSpaceOnUse">
<stop stop-color="#1BA4E5" stop-opacity="0.5"/>
<stop offset="1" stop-color="#B40FE7"/>
</linearGradient>
<linearGradient id="paint40_linear_2_162" x1="1341.23" y1="27.836" x2="585.571" y2="780.605" gradientUnits="userSpaceOnUse">
<stop stop-color="#1BA4E5" stop-opacity="0.5"/>
<stop offset="1" stop-color="#B40FE7"/>
</linearGradient>
<linearGradient id="paint41_linear_2_162" x1="1340.48" y1="31.3416" x2="580.305" y2="788.61" gradientUnits="userSpaceOnUse">
<stop stop-color="#1BA4E5" stop-opacity="0.5"/>
<stop offset="1" stop-color="#B40FE7"/>
</linearGradient>
<linearGradient id="paint42_linear_2_162" x1="1339.75" y1="34.8676" x2="575.05" y2="796.644" gradientUnits="userSpaceOnUse">
<stop stop-color="#1BA4E5" stop-opacity="0.5"/>
<stop offset="1" stop-color="#B40FE7"/>
</linearGradient>
<linearGradient id="paint43_linear_2_162" x1="1339.04" y1="38.4126" x2="569.805" y2="804.707" gradientUnits="userSpaceOnUse">
<stop stop-color="#1BA4E5" stop-opacity="0.5"/>
<stop offset="1" stop-color="#B40FE7"/>
</linearGradient>
<linearGradient id="paint44_linear_2_162" x1="1338.34" y1="41.9758" x2="564.567" y2="812.799" gradientUnits="userSpaceOnUse">
<stop stop-color="#1BA4E5" stop-opacity="0.5"/>
<stop offset="1" stop-color="#B40FE7"/>
</linearGradient>
<linearGradient id="paint45_linear_2_162" x1="1337.67" y1="45.5558" x2="559.333" y2="820.919" gradientUnits="userSpaceOnUse">
<stop stop-color="#1BA4E5" stop-opacity="0.5"/>
<stop offset="1" stop-color="#B40FE7"/>
</linearGradient>
<linearGradient id="paint46_linear_2_162" x1="1337.01" y1="49.1513" x2="554.102" y2="829.068" gradientUnits="userSpaceOnUse">
<stop stop-color="#1BA4E5" stop-opacity="0.5"/>
<stop offset="1" stop-color="#B40FE7"/>
</linearGradient>
<linearGradient id="paint47_linear_2_162" x1="1336.36" y1="52.7613" x2="548.871" y2="837.247" gradientUnits="userSpaceOnUse">
<stop stop-color="#1BA4E5" stop-opacity="0.5"/>
<stop offset="1" stop-color="#B40FE7"/>
</linearGradient>
<linearGradient id="paint48_linear_2_162" x1="1335.73" y1="56.3838" x2="543.628" y2="845.461" gradientUnits="userSpaceOnUse">
<stop stop-color="#1BA4E5" stop-opacity="0.5"/>
<stop offset="1" stop-color="#B40FE7"/>
</linearGradient>
<linearGradient id="paint49_linear_2_162" x1="1335.11" y1="60.0176" x2="538.386" y2="853.698" gradientUnits="userSpaceOnUse">
<stop stop-color="#1BA4E5" stop-opacity="0.5"/>
<stop offset="1" stop-color="#B40FE7"/>
</linearGradient>
<linearGradient id="paint50_linear_2_162" x1="1334.5" y1="63.6618" x2="533.132" y2="861.967" gradientUnits="userSpaceOnUse">
<stop stop-color="#1BA4E5" stop-opacity="0.5"/>
<stop offset="1" stop-color="#B40FE7"/>
</linearGradient>
<linearGradient id="paint51_linear_2_162" x1="1333.9" y1="67.3159" x2="527.865" y2="870.269" gradientUnits="userSpaceOnUse">
<stop stop-color="#1BA4E5" stop-opacity="0.5"/>
<stop offset="1" stop-color="#B40FE7"/>
</linearGradient>
<linearGradient id="paint52_linear_2_162" x1="1333.34" y1="71.0152" x2="522.616" y2="878.644" gradientUnits="userSpaceOnUse">
<stop stop-color="#1BA4E5" stop-opacity="0.5"/>
<stop offset="1" stop-color="#B40FE7"/>
</linearGradient>
</defs>
</svg>
