<svg width="678" height="270" viewBox="0 0 678 270" fill="none" xmlns="http://www.w3.org/2000/svg">
<path d="M480.014 135H561.582" stroke="white" stroke-width="3" stroke-linecap="round" stroke-dasharray="6 6"/>
<path d="M485.46 135C485.46 133.065 483.9 131.5 481.98 131.5C480.06 131.5 478.5 133.065 478.5 135C478.5 136.935 480.06 138.5 481.98 138.5C483.9 138.5 485.46 136.935 485.46 135Z" fill="#7579FF" stroke="white"/>
<path d="M480.985 95.5H527.562C548.549 95.5 565.562 78.4868 565.562 57.5V42C565.562 21.0132 582.575 4 603.562 4H676.01" stroke="#7579FF" stroke-width="3" stroke-linecap="round"/>
<path d="M484.465 95.5C484.465 97.1592 483.127 98.5 481.483 98.5C479.838 98.5 478.5 97.1592 478.5 95.5C478.5 93.8408 479.838 92.5 481.483 92.5C483.127 92.5 484.465 93.8408 484.465 95.5Z" fill="#7579FF" stroke="white"/>
<path d="M677.5 3.5C677.5 5.15921 676.162 6.5 674.517 6.5C672.873 6.5 671.535 5.15921 671.535 3.5C671.535 1.84079 672.873 0.5 674.517 0.5C676.162 0.5 677.5 1.84079 677.5 3.5Z" fill="#7579FF" stroke="white"/>
<path d="M480.985 174.031H527.562C548.549 174.031 565.562 191.044 565.562 212.031V228.464C565.562 249.451 582.575 266.464 603.562 266.464H676.01" stroke="#7579FF" stroke-width="3" stroke-linecap="round"/>
<path d="M677.5 266.464C677.5 268.148 676.158 269.5 674.517 269.5C672.877 269.5 671.535 268.148 671.535 266.464C671.535 264.781 672.877 263.429 674.517 263.429C676.158 263.429 677.5 264.781 677.5 266.464Z" fill="#7579FF" stroke="white"/>
<path d="M484.465 174.536C484.465 176.219 483.123 177.571 481.483 177.571C479.842 177.571 478.5 176.219 478.5 174.536C478.5 172.852 479.842 171.5 481.483 171.5C483.123 171.5 484.465 172.852 484.465 174.536Z" fill="#7579FF" stroke="white"/>
<path d="M197.986 135L116.418 135" stroke="white" stroke-width="3" stroke-linecap="round" stroke-dasharray="6 6"/>
<path d="M192.54 135C192.54 136.935 194.1 138.5 196.02 138.5C197.94 138.5 199.5 136.935 199.5 135C199.5 133.065 197.94 131.5 196.02 131.5C194.1 131.5 192.54 133.065 192.54 135Z" fill="#7579FF" stroke="white"/>
<path d="M197.015 174.5H150.438C129.451 174.5 112.438 191.513 112.438 212.5V228C112.438 248.987 95.4246 266 74.4378 266H1.99005" stroke="#7579FF" stroke-width="3" stroke-linecap="round"/>
<path d="M193.535 174.5C193.535 172.841 194.873 171.5 196.517 171.5C198.162 171.5 199.5 172.841 199.5 174.5C199.5 176.159 198.162 177.5 196.517 177.5C194.873 177.5 193.535 176.159 193.535 174.5Z" fill="#7579FF" stroke="white"/>
<path d="M0.500036 266.5C0.500036 264.841 1.83773 263.5 3.48262 263.5C5.12751 263.5 6.46521 264.841 6.46521 266.5C6.46521 268.159 5.12751 269.5 3.48262 269.5C1.83773 269.5 0.500036 268.159 0.500036 266.5Z" fill="#7579FF" stroke="white"/>
<path d="M197.015 95.9694H150.438C129.451 95.9694 112.438 78.9562 112.438 57.9694V41.5357C112.438 20.5489 95.4246 3.53571 74.4378 3.53571L1.99005 3.53571" stroke="#7579FF" stroke-width="3" stroke-linecap="round"/>
<path d="M0.500036 3.5357C0.500036 1.85195 1.84249 0.499982 3.48262 0.499982C5.12275 0.499982 6.46521 1.85195 6.46521 3.5357C6.46521 5.21944 5.12275 6.57141 3.48262 6.57141C1.84249 6.57141 0.500036 5.21944 0.500036 3.5357Z" fill="#7579FF" stroke="white"/>
<path d="M193.535 95.4643C193.535 93.7805 194.877 92.4286 196.517 92.4286C198.158 92.4286 199.5 93.7805 199.5 95.4643C199.5 97.148 198.158 98.5 196.517 98.5C194.877 98.5 193.535 97.148 193.535 95.4643Z" fill="#7579FF" stroke="white"/>
</svg>
